<svg width="81" height="83" viewBox="0 0 81 83" fill="none" xmlns="http://www.w3.org/2000/svg">
<path d="M46.3993 7.11156C47.0621 6.81429 47.7815 6.74872 48.4879 6.63942C52.495 6.01865 56.4498 6.1498 60.3044 7.56622C62.9685 8.54547 65.3405 9.99687 67.4466 11.8985C69.8578 14.0756 71.7371 16.6768 73.3461 19.479C74.1963 20.9654 74.9507 22.4999 75.6439 24.0649C75.7268 24.2529 75.7835 24.4496 75.8532 24.642C76.0276 26.1327 76.516 27.5579 76.6643 29.0617C76.9913 32.3361 77.1352 35.5843 76.6773 38.8718C76.0843 43.1079 75.0117 47.1867 73.2458 51.0687C72.0772 53.6349 70.7778 56.1137 68.0788 57.4776C66.3434 58.3563 64.5426 58.8634 62.6022 58.9727C59.9119 59.1257 57.2347 58.9159 54.5487 58.8022C51.5401 58.6711 48.5664 59.0951 45.6188 59.7247C43.8529 60.1006 42.1088 60.5334 40.2862 60.6383C37.3909 60.8088 34.9273 59.8121 32.6556 58.1727C28.1688 54.9289 24.6501 50.8633 22.326 45.8052C21.0136 42.9418 20.4031 39.9297 20.8043 36.8127C21.188 33.8487 22.919 31.6804 25.4088 30.1022C27.227 28.9481 29.1456 27.9645 30.9725 26.8322C34.7311 24.5021 37.3996 21.1578 39.7019 17.4681C41.6204 14.3948 43.5346 11.3171 45.2831 8.13891C45.5491 7.65802 46.0112 7.4307 46.4037 7.11156H46.3993Z" fill="#6A81B8"/>
<path d="M46.3994 7.11157C45.5186 8.65477 44.6596 10.2111 43.7483 11.7368C42.5231 13.7915 41.2673 15.8287 40.0159 17.8659C39.0304 19.4703 37.9491 21.0179 36.7238 22.4387C34.9797 24.4627 32.9871 26.2333 30.6499 27.5754C28.993 28.524 27.3361 29.4814 25.701 30.4694C23.4031 31.8596 21.877 33.84 21.3014 36.5023C21.236 36.7996 21.2011 37.11 21.188 37.416C21.1706 37.9275 21.2011 38.4434 21.175 38.9548C21.1052 40.415 21.4322 41.8052 21.8508 43.1866C22.7621 46.1725 24.2751 48.8348 26.1719 51.2873C27.0701 52.4502 27.9858 53.6043 29.0671 54.5967C30.8287 56.2142 32.6382 57.7749 34.7486 58.9334C36.1701 59.7159 37.6831 60.1793 39.34 60.1793C40.8182 60.1793 42.2614 60.0219 43.6916 59.6635C45.645 59.1782 47.6246 58.8372 49.6173 58.5487C49.8876 58.5093 50.1623 58.5181 50.437 58.5181C50.9167 58.5181 51.3832 58.4613 51.8585 58.3957C52.9747 58.2383 54.1084 58.2427 55.229 58.3869C55.7741 58.4569 56.3104 58.5006 56.8554 58.5181C57.976 58.5574 59.1097 58.3869 60.2216 58.6798C60.348 58.7148 60.5006 58.7192 60.6271 58.6798C61.364 58.4656 62.1227 58.5793 62.8639 58.5006C64.22 58.3563 65.5673 58.1552 66.8187 57.5388C67.5513 57.176 68.2751 56.8088 68.964 56.3585C70.1195 55.5978 70.8389 54.4961 71.5279 53.3464C73.0932 50.7409 74.1135 47.908 74.942 45.014C75.4958 43.0817 75.9754 41.1145 76.1367 39.0947C76.176 38.6182 76.2327 38.1417 76.3417 37.6783C76.6033 36.5635 76.5292 35.4313 76.5292 34.3078C76.5292 33.2498 76.6207 32.1831 76.346 31.1427C76.4114 29.6607 75.971 28.2311 75.9013 26.7666C75.8882 26.5305 75.801 26.2988 75.7705 26.0628C75.705 25.5863 75.6353 25.1098 75.8489 24.6507C76.9129 26.9939 77.6977 29.429 78.3561 31.9121C79.0843 34.6575 79.5857 37.4422 79.8735 40.2751C80.122 42.7363 80.1439 45.1976 79.9738 47.6501C79.7776 50.5223 79.1933 53.3376 78.282 56.0699C77.9157 57.1716 77.4884 58.2514 77.0786 59.34C76.9957 59.5585 76.8605 59.7596 76.7472 59.9695C75.2995 61.1542 73.8999 62.3914 72.4566 63.5805C70.1151 65.5128 67.6559 67.1827 64.5819 67.7248C62.7942 68.0396 60.9846 68.0527 59.1925 68.1707C55.8918 68.385 52.7393 69.1981 49.6129 70.1904C46.5433 71.1653 43.4256 71.8998 40.1772 71.6899C34.0335 71.2921 28.5962 69.0626 23.7388 65.3073C19.0297 61.6701 15.149 57.3071 12.3497 52.048C10.6579 48.8654 9.46315 45.5124 9.21898 41.8358C8.89631 37.0313 10.1564 32.8389 13.6273 29.4465C15.367 27.7459 17.4513 26.4868 19.5834 25.3109C22.095 23.925 24.6109 22.5392 26.6472 20.4583C27.3361 19.7545 28.0032 19.0244 28.5352 18.185C29.3026 17.4287 30.1354 16.7861 31.2473 16.6375C31.9929 16.0866 32.5772 15.3697 33.1876 14.6877C34.971 12.6855 37.0683 11.0767 39.388 9.76081C41.2891 8.68537 43.2948 7.85038 45.4139 7.30393C45.741 7.22086 46.0767 7.17715 46.4125 7.11594L46.3994 7.11157Z" fill="#6A81B8"/>
<path d="M28.7705 18.2945C28.5568 19.0857 27.9987 19.6584 27.4798 20.2355C26.0758 21.8005 24.4058 23.0421 22.6006 24.1C21.1879 24.9263 19.7446 25.7044 18.345 26.5569C17.0935 27.3176 15.8945 28.1526 14.7346 29.0663C13.2172 30.2597 12.101 31.7461 11.1984 33.3986C10.5618 34.5702 10.1999 35.8642 9.90775 37.1713C9.68973 38.1462 9.7595 39.1473 9.51532 40.1135C9.48044 40.2446 9.49352 40.3889 9.50224 40.5244C9.73334 43.1168 10.0691 45.6874 11.0807 48.118C11.4862 49.0973 11.8612 50.094 12.3364 51.0383C13.4483 53.2372 14.7651 55.3138 16.2869 57.2548C17.0892 58.2778 17.8958 59.292 18.8377 60.1882C19.0077 60.35 19.1691 60.5379 19.2999 60.7347C19.531 61.0844 19.81 61.3686 20.1545 61.609C20.403 61.7839 20.6428 61.985 20.8521 62.2079C22.8012 64.2582 25.1078 65.8583 27.5016 67.3009C30.3533 69.019 33.4404 70.2343 36.7455 70.7851C37.5478 70.9163 38.3544 71.0562 39.1785 71.0824C39.8893 71.1043 40.5913 71.2748 41.3107 71.2791C42.4095 71.2835 43.4822 71.0868 44.5592 70.9513C46.36 70.7196 48.0823 70.1556 49.809 69.6135C51.8278 68.9796 53.8597 68.3851 55.957 68.0616C56.864 67.9217 57.7753 67.8212 58.6953 67.7468C59.8857 67.6507 61.0804 67.6507 62.262 67.5326C63.6094 67.3971 64.9611 67.2485 66.2735 66.8069C67.6906 66.3304 68.9551 65.6047 70.1542 64.761C71.3795 63.8998 72.5306 62.9336 73.6599 61.9369C74.4491 61.2374 75.2819 60.586 76.106 59.9172C76.2063 59.8341 76.3415 59.7729 76.4679 59.7379C76.638 59.6942 76.7034 59.8254 76.7383 59.9653C76.7121 60.0658 76.7034 60.1707 76.6598 60.2625C75.1424 63.585 73.2108 66.6321 70.66 69.2682C68.1659 71.8475 65.1835 73.5437 61.6996 74.3568C60.5702 74.6191 59.4409 74.8901 58.3334 75.2442C56.6242 75.7907 55.0544 76.6038 53.633 77.6968C52.6824 78.4225 51.745 79.1656 50.7988 79.8957C48.5445 81.64 45.9719 82.5143 43.1508 82.8116C39.2701 83.2225 35.5202 82.5974 31.8358 81.4914C26.1107 79.7689 20.9568 76.9317 16.2607 73.242C14.6474 71.9742 13.1082 70.619 11.665 69.1589C8.15054 65.6091 5.21605 61.6352 3.13182 57.0668C1.85861 54.2821 0.947304 51.3793 0.528713 48.3453C-0.243062 42.7234 0.415345 37.2806 2.83968 32.1133C4.73206 28.0826 7.54882 24.8432 11.3423 22.4869C11.6039 22.3251 11.8524 22.1503 12.1097 21.9798C12.1751 21.4158 12.6111 21.2016 13.0428 20.983C15.3538 19.8114 17.8348 19.195 20.3812 18.8453C21.6588 18.6704 22.932 18.3994 24.2357 18.5174C24.8505 18.3775 25.4784 18.3425 26.0889 18.1939C26.6601 18.1939 27.2138 18.0103 27.785 18.0016C28.1469 17.9928 28.5394 17.8879 28.7661 18.3076L28.7705 18.2945Z" fill="#6A81B8"/>
<path d="M24.2576 18.8189C22.7097 19.0506 21.1487 19.1512 19.6095 19.4222C17.0762 19.8637 14.6562 20.62 12.3889 21.8441C12.3017 21.8922 12.2014 21.9272 12.1098 21.9665C8.36429 19.9249 5.63473 16.8823 3.54614 13.2144C3.10139 12.4363 2.75692 11.6188 2.61739 10.7269C2.48658 9.88758 2.59559 9.09194 3.14935 8.40559C3.65951 8.36624 4.13914 8.51488 4.61442 8.65914C5.66089 9.24932 6.80765 9.57282 7.9457 9.91819C8.33812 10.0362 8.73055 10.1455 9.10118 10.3204C9.36716 10.4472 9.56773 10.6308 9.52849 10.9455C9.48925 11.2384 9.22763 11.2821 8.99653 11.339C8.26836 11.5182 7.53147 11.645 6.92974 11.763C7.85413 11.5051 8.98345 11.5182 9.96452 10.9149C10.2828 10.7182 10.6971 10.8013 11.0633 10.9237C12.5894 11.4264 14.0545 12.0691 15.5021 12.7641C15.8161 12.9172 16.1038 13.1576 16.0995 13.5336C16.0995 14.0057 15.6504 13.9838 15.3451 14.0756C13.2696 14.7183 11.1331 14.6964 9.75087 14.7008C11.4296 14.7314 13.8583 14.6833 16.178 13.8133C16.675 13.6254 17.0718 13.5948 17.534 13.8133C18.55 14.303 19.5354 14.8407 20.499 15.4265C20.8609 15.6495 21.1705 15.938 21.1138 16.4101C21.0572 16.8735 20.6168 16.9697 20.281 17.0659C18.6852 17.5118 17.0849 17.9664 15.7507 18.0233C17.4076 17.8265 19.3784 17.5118 21.2141 16.6418C21.5891 16.4626 21.9467 16.432 22.2955 16.5937C23.0411 16.9347 23.7388 17.3719 24.371 17.8877C24.7111 18.1675 25.0643 18.6003 24.262 18.8145L24.2576 18.8189Z" fill="#6A81B8"/>
<path d="M25.9015 0.353065C27.1704 -0.132191 28.4218 -0.15405 29.634 0.519188C30.4581 0.973842 30.9246 1.70828 31.1906 2.59136C31.522 3.69302 31.5089 4.82092 31.365 5.94006C31.1949 7.26031 30.942 8.56744 30.7633 9.88332C30.4929 11.8899 30.4144 13.8921 30.942 15.8769C30.9856 16.0386 30.99 16.2135 31.0162 16.3796C30.7676 16.6463 30.4493 16.6507 30.1659 16.5239C27.2445 15.2299 24.5934 13.608 23.2112 10.5303C22.6313 9.24068 22.2999 7.88546 22.4133 6.45155C22.5223 5.14005 22.8711 4.77283 24.14 4.62856C25.8448 4.43184 27.2794 3.54876 28.6485 2.88864C27.589 3.4963 26.3027 3.90724 24.9728 4.18265C24.4583 4.29194 23.9089 4.33129 23.5775 3.82855C23.2679 3.36078 23.5731 2.92798 23.7868 2.49519C24.2577 1.53779 24.9946 0.855807 25.9059 0.344321L25.9015 0.353065Z" fill="#6A81B8"/>
<path d="M4.40067 9.00452C4.11289 8.93894 3.82511 8.87774 3.54169 8.80342C3.33675 8.75096 3.20594 8.6067 3.1449 8.4056C3.52861 7.67553 4.17829 7.25148 4.88466 6.893C6.07503 6.28971 7.34388 5.90937 8.63889 5.6121C11.5036 4.95635 14.3596 4.93886 17.2156 5.68642C18.2403 5.95746 19.1952 6.399 20.1458 6.85803C20.512 7.02415 20.5687 7.3564 20.5905 7.70613C20.7431 10.2461 21.6065 12.5281 23.0715 14.5915C23.3462 14.9762 23.6427 15.3566 23.6297 15.8724C23.4683 16.4932 23.0279 16.4451 22.5875 16.2659C22.0294 16.0429 21.5847 15.6363 21.3972 15.0724C20.8173 13.3368 19.7403 11.9073 18.6807 10.4603C18.6545 10.4035 18.6109 10.3554 18.5542 10.3204C18.6109 10.3423 18.6545 10.386 18.6763 10.4559C19.5528 11.5532 20.294 12.7292 20.9524 13.9664C21.0876 14.2199 21.2402 14.456 21.044 14.7183C20.826 15.0068 20.4859 15.0199 20.2024 14.8844C18.9118 14.2724 17.5819 13.7172 16.4831 12.786C15.8901 12.2833 15.7767 11.4308 15.2753 10.8013C14.5951 9.9488 13.8364 9.17064 13.2913 8.50178C13.989 9.25808 14.8523 10.1718 15.5544 11.221C15.7331 11.4876 15.9206 11.7456 15.6982 12.0559C15.4889 12.3488 15.1532 12.362 14.8611 12.2614C13.3786 11.7587 11.896 11.2472 10.4659 10.6177C9.75077 10.3029 9.76385 9.28868 9.11417 9.01763C9.13161 9.03512 9.24062 9.12255 9.32346 9.23185C9.51532 9.48103 9.96007 9.66901 9.65485 10.0712C9.41067 10.3947 9.05748 10.2636 8.71738 10.163C7.2872 9.74333 5.84829 9.363 4.40067 9.00889V9.00452Z" fill="#6A81B8"/>
<path d="M23.477 15.9686C23.0322 15.326 22.57 14.6921 22.1471 14.032C21.2052 12.55 20.5904 10.9369 20.2721 9.20567C20.1282 8.42751 20.1936 7.64061 20.137 6.86245C20.2154 6.49523 20.2939 6.13238 20.3768 5.76516C20.7692 4.02523 21.7459 2.67001 23.163 1.6383C23.9828 1.03938 24.8592 0.510408 25.8969 0.353027C25.2167 1.2055 24.5147 2.04487 23.9915 3.01101C23.8781 3.21647 23.6645 3.42631 23.8127 3.66238C23.9828 3.94217 24.3098 3.87223 24.5583 3.81102C25.317 3.62304 26.0932 3.49189 26.8257 3.19024C27.6759 2.84051 28.548 2.53012 29.4114 2.20662C29.5029 2.17164 29.6163 2.15853 29.6555 2.28094C29.673 2.3334 29.6424 2.4252 29.6032 2.46455C29.3634 2.70499 29.1367 2.97603 28.8576 3.16401C27.6541 3.95529 26.4027 4.64164 24.9726 4.9564C24.5322 5.05258 24.0961 5.06569 23.6514 5.09192C23.2241 5.11815 23.1499 5.20996 23.0191 5.62089C22.6485 6.78376 22.8534 7.9204 23.1499 9.05703C23.6819 11.0986 24.881 12.6768 26.5335 13.9314C27.9027 14.9719 29.3983 15.7763 31.0029 16.3796C31.077 16.4626 31.1511 16.5413 31.2252 16.6244C30.5058 17.3326 29.6512 17.8354 28.7617 18.29C27.8547 18.3556 26.9783 18.666 26.0626 18.6354C24.8243 18.1064 23.7299 17.4419 23.4682 15.9599L23.477 15.9686Z" fill="#6A81B8"/>
<path d="M70.5554 24.9044C70.6557 25.77 70.5336 26.605 70.3025 27.44C69.4828 30.3559 66.6181 31.8598 64.499 31.8204C62.8944 31.7898 61.4904 31.2521 60.1648 30.439C59.3494 29.9406 58.5907 29.3548 57.9236 28.6597C57.0428 27.7504 56.1184 26.8848 55.2507 25.9624C54.3351 24.9875 53.2799 24.17 52.3163 23.2519C52.0372 22.9853 51.6971 22.8366 51.3308 22.7273C50.7378 22.5525 50.1884 22.2771 49.6303 22.0235C48.9544 21.7175 48.3963 21.2672 47.9603 20.6989C47.1711 19.6803 46.831 18.5568 47.2365 17.2453C47.7074 15.7108 48.7059 14.6441 50.0402 13.8616C51.2872 13.1359 52.604 12.5719 54.0473 12.3708C54.8234 12.2616 55.6126 12.0605 56.3757 12.1304C57.4919 12.2266 58.6169 12.3009 59.7157 12.5807C61.8653 13.1315 63.7708 14.1326 65.5324 15.4835C66.8579 16.5021 67.9175 17.7436 68.8244 19.1076C69.7008 20.4235 70.2807 21.9011 70.5467 23.4705C70.6252 23.9339 70.5598 24.4279 70.5598 24.9044H70.5554Z" fill="#6A81B8"/>
<path d="M66.0949 36.3101C65.9074 34.9898 66.6574 34.0893 67.6036 33.2849C67.7038 33.1975 67.8259 33.1188 67.9524 33.0751C69.0599 32.6991 70.1849 32.5942 71.2052 33.2587C72.474 34.0849 73.224 35.2609 73.2676 36.8303C73.2938 37.7833 73.0583 38.6227 72.5656 39.4533C71.6325 41.014 68.65 41.6785 67.2722 39.3091C67.137 39.073 67.0018 38.8282 66.8318 38.6227C66.278 37.9626 65.999 37.2194 66.0993 36.3057L66.0949 36.3101Z" fill="#6A81B8"/>
<path d="M23.477 15.9687C23.5816 16.0561 23.6994 16.1261 23.7822 16.231C24.3708 16.9786 25.0205 17.6605 25.7705 18.2463C25.897 18.3469 25.9711 18.5086 26.0714 18.6442C25.4653 18.701 24.8766 18.9021 24.2575 18.8234C24.3447 18.701 24.6063 18.5742 24.3752 18.4168C23.6427 17.9185 22.8883 17.4507 22.134 16.9829C21.8506 16.8037 21.5497 16.8168 21.2576 16.9786C20.7125 17.2715 20.137 17.4813 19.5483 17.6605C17.7999 18.1939 16.0121 18.3556 14.1939 18.2026C14.1721 18.2026 14.1546 18.1633 14.0936 18.0933C14.3683 17.9316 14.6517 17.8398 14.9569 17.8398C15.8203 17.8398 16.6444 17.6125 17.4728 17.4201C18.3013 17.2277 19.1297 17.0135 19.9538 16.7993C20.2155 16.7294 20.4727 16.6332 20.7256 16.5327C20.8434 16.4889 20.8782 16.2616 20.7823 16.1785C20.682 16.0911 20.5774 15.9949 20.4596 15.9337C19.3565 15.3217 18.2446 14.7184 17.1414 14.1064C16.9147 13.9796 16.6967 13.949 16.4569 14.0321C16.1647 14.1326 15.8726 14.22 15.5848 14.325C14.3508 14.7665 13.082 14.9676 11.7739 14.9545C10.5835 14.9457 9.39317 14.9982 8.22896 14.6441C8.22896 14.5261 8.34669 14.5392 8.42082 14.5435C9.68967 14.6485 10.9324 14.3687 12.1925 14.2944C13.3393 14.2244 14.4947 14.0408 15.611 13.7173C15.7113 13.6867 15.829 13.6561 15.8072 13.5381C15.7897 13.455 15.7113 13.3501 15.6328 13.3151C14.1328 12.6593 12.646 11.9643 11.1068 11.4091C10.5661 11.2123 10.0603 11.2298 9.51526 11.4397C8.3903 11.8724 7.21301 12.0429 6.01392 12.0648C5.84823 12.0648 5.67818 12.0298 5.51249 11.9992C5.434 11.9861 5.40348 11.9205 5.42528 11.8375C5.434 11.8069 5.45144 11.7763 5.47761 11.7588C5.53429 11.7282 5.59969 11.6845 5.66074 11.6801C6.89035 11.597 8.06327 11.2254 9.24928 10.9631C9.26672 10.6965 9.07922 10.6659 8.92661 10.6134C7.73189 10.2068 6.5328 9.81339 5.33372 9.40682C5.01105 9.29753 4.67095 9.23633 4.40497 9.00026C5.19855 8.9784 5.9616 9.17075 6.72466 9.33251C7.55748 9.50737 8.38158 9.73907 9.21003 9.9358C9.29724 9.95765 9.40189 9.92268 9.58066 9.90519C9.14899 9.20135 8.44262 8.79916 7.9499 8.01226C8.87865 8.35325 9.42805 8.91282 9.89024 9.52486C10.2827 10.0495 10.7492 10.3642 11.364 10.5478C12.4803 10.8713 13.5616 11.291 14.6299 11.7457C14.8479 11.8375 15.079 11.903 15.3101 11.9643C15.3624 11.9774 15.454 11.9468 15.4889 11.903C15.5238 11.8637 15.5368 11.7588 15.5063 11.7194C15.345 11.5009 15.1662 11.2954 15.0049 11.0768C14.1939 9.97951 13.3741 8.88659 12.441 7.88548C12.4061 7.84614 12.4149 7.76745 12.4018 7.70624C12.4628 7.70624 12.5413 7.67127 12.5762 7.6975C12.9599 7.98603 13.3523 8.26145 13.7055 8.57621C14.8348 9.58606 15.8159 10.7183 16.4874 12.091C16.64 12.4058 16.8406 12.6637 17.1632 12.8342C18.1923 13.3719 19.2126 13.9228 20.2373 14.4649C20.3594 14.5304 20.4858 14.5829 20.6123 14.6222C20.6689 14.6397 20.7518 14.6222 20.7997 14.5916C20.8913 14.5173 20.8739 14.4124 20.8216 14.3206C20.7736 14.2332 20.7125 14.1457 20.6602 14.0583C20.028 13.0003 19.3957 11.9511 18.7766 10.8888C18.6588 10.6877 18.6065 10.4473 18.5237 10.2243C19.6137 11.0243 20.3201 12.1347 20.9698 13.2845C21.2881 13.8441 21.5497 14.4299 21.8244 15.0113C22.0904 15.5753 22.5744 15.8638 23.1107 16.0867C23.2415 16.1436 23.3723 16.0649 23.477 15.9687Z" fill="#6A81B8"/>
</svg>
