<svg width="81" height="83" viewBox="0 0 81 83" fill="none" xmlns="http://www.w3.org/2000/svg">
<path d="M46.5482 7.11156C47.2109 6.81429 47.9304 6.74872 48.6368 6.63942C52.6439 6.01865 56.5987 6.1498 60.4532 7.56622C63.1174 8.54547 65.4894 9.99687 67.5954 11.8985C70.0067 14.0756 71.886 16.6768 73.4949 19.479C74.3452 20.9654 75.0995 22.4999 75.7928 24.0649C75.8757 24.2529 75.9323 24.4496 76.0021 24.642C76.1765 26.1327 76.6649 27.5579 76.8131 29.0617C77.1401 32.3361 77.284 35.5843 76.8262 38.8718C76.2332 43.1079 75.1606 47.1867 73.3946 51.0687C72.2261 53.6349 70.9267 56.1137 68.2277 57.4776C66.4923 58.3563 64.6914 58.8634 62.7511 58.9727C60.0608 59.1257 57.3836 58.9159 54.6976 58.8022C51.689 58.6711 48.7153 59.0951 45.7677 59.7247C44.0018 60.1006 42.2576 60.5334 40.435 60.6383C37.5398 60.8088 35.0762 59.8121 32.8045 58.1727C28.3177 54.9289 24.7989 50.8633 22.4749 45.8052C21.1624 42.9418 20.552 39.9297 20.9531 36.8127C21.3368 33.8487 23.0679 31.6804 25.5576 30.1022C27.3759 28.9481 29.2944 27.9645 31.1214 26.8322C34.88 24.5021 37.5485 21.1578 39.8507 17.4681C41.7693 14.3948 43.6835 11.3171 45.4319 8.13891C45.6979 7.65802 46.1601 7.4307 46.5525 7.11156H46.5482Z" fill="#FF526B"/>
<path d="M46.5483 7.11157C45.6675 8.65477 44.8085 10.2111 43.8972 11.7368C42.672 13.7915 41.4162 15.8287 40.1648 17.8659C39.1794 19.4703 38.098 21.0179 36.8728 22.4387C35.1286 24.4627 33.136 26.2333 30.7988 27.5754C29.1419 28.524 27.485 29.4814 25.8499 30.4694C23.552 31.8596 22.0259 33.84 21.4503 36.5023C21.3849 36.7996 21.35 37.11 21.337 37.416C21.3195 37.9275 21.35 38.4434 21.3239 38.9548C21.2541 40.415 21.5811 41.8052 21.9997 43.1866C22.911 46.1725 24.4241 48.8348 26.3208 51.2873C27.219 52.4502 28.1347 53.6043 29.2161 54.5967C30.9776 56.2142 32.7872 57.7749 34.8975 58.9334C36.319 59.7159 37.832 60.1793 39.489 60.1793C40.9671 60.1793 42.4104 60.0219 43.8405 59.6635C45.794 59.1782 47.7736 58.8372 49.7662 58.5487C50.0366 58.5093 50.3113 58.5181 50.586 58.5181C51.0656 58.5181 51.5321 58.4613 52.0074 58.3957C53.1237 58.2383 54.2573 58.2427 55.3779 58.3869C55.923 58.4569 56.4593 58.5006 57.0043 58.5181C58.1249 58.5574 59.2586 58.3869 60.3705 58.6798C60.497 58.7148 60.6496 58.7192 60.776 58.6798C61.5129 58.4656 62.2716 58.5793 63.0129 58.5006C64.3689 58.3563 65.7162 58.1552 66.9677 57.5388C67.7002 57.176 68.424 56.8088 69.1129 56.3585C70.2684 55.5978 70.9879 54.4961 71.6768 53.3464C73.2421 50.7409 74.2625 47.908 75.0909 45.014C75.6447 43.0817 76.1243 41.1145 76.2857 39.0947C76.3249 38.6182 76.3816 38.1417 76.4906 37.6783C76.7522 36.5635 76.6781 35.4313 76.6781 34.3078C76.6781 33.2498 76.7696 32.1831 76.4949 31.1427C76.5603 29.6607 76.12 28.2311 76.0502 26.7666C76.0371 26.5305 75.9499 26.2988 75.9194 26.0628C75.854 25.5863 75.7842 25.1098 75.9979 24.6507C77.0618 26.9939 77.8466 29.429 78.5051 31.9121C79.2332 34.6575 79.7347 37.4422 80.0224 40.2751C80.271 42.7363 80.2928 45.1976 80.1227 47.6501C79.9265 50.5223 79.3422 53.3376 78.4309 56.0699C78.0647 57.1716 77.6373 58.2514 77.2275 59.34C77.1446 59.5585 77.0095 59.7596 76.8961 59.9695C75.4485 61.1542 74.0488 62.3914 72.6055 63.5805C70.2641 65.5128 67.8048 67.1827 64.7308 67.7248C62.9431 68.0396 61.1336 68.0527 59.3415 68.1707C56.0407 68.385 52.8882 69.1981 49.7619 70.1904C46.6922 71.1653 43.5746 71.8998 40.3261 71.6899C34.1824 71.2921 28.7451 69.0626 23.8877 65.3073C19.1786 61.6701 15.2979 57.3071 12.4986 52.048C10.8068 48.8654 9.61208 45.5124 9.3679 41.8358C9.04524 37.0313 10.3054 32.8389 13.7762 29.4465C15.5159 27.7459 17.6002 26.4868 19.7324 25.3109C22.2439 23.925 24.7598 22.5392 26.7961 20.4583C27.485 19.7545 28.1521 19.0244 28.6841 18.185C29.4515 17.4287 30.2843 16.7861 31.3962 16.6375C32.1418 16.0866 32.7261 15.3697 33.3366 14.6877C35.1199 12.6855 37.2172 11.0767 39.5369 9.76081C41.438 8.68537 43.4438 7.85038 45.5629 7.30393C45.8899 7.22086 46.2256 7.17715 46.5614 7.11594L46.5483 7.11157Z" fill="#FF526B"/>
<path d="M28.9194 18.2945C28.7057 19.0857 28.1476 19.6584 27.6287 20.2355C26.2247 21.8005 24.5547 23.0421 22.7495 24.1C21.3368 24.9263 19.8935 25.7044 18.4939 26.5569C17.2425 27.3176 16.0434 28.1526 14.8835 29.0663C13.3662 30.2597 12.2499 31.7461 11.3473 33.3986C10.7107 34.5702 10.3488 35.8642 10.0567 37.1713C9.83866 38.1462 9.90842 39.1473 9.66425 40.1135C9.62936 40.2446 9.64244 40.3889 9.65117 40.5244C9.88226 43.1168 10.218 45.6874 11.2296 48.118C11.6351 49.0973 12.0101 50.094 12.4854 51.0383C13.5972 53.2372 14.9141 55.3138 16.4358 57.2548C17.2381 58.2778 18.0448 59.292 18.9866 60.1882C19.1566 60.35 19.318 60.5379 19.4488 60.7347C19.6799 61.0844 19.9589 61.3686 20.3034 61.609C20.552 61.7839 20.7918 61.985 21.0011 62.2079C22.9501 64.2582 25.2567 65.8583 27.6505 67.3009C30.5022 69.019 33.5893 70.2343 36.8944 70.7851C37.6967 70.9163 38.5034 71.0562 39.3275 71.0824C40.0382 71.1043 40.7402 71.2748 41.4597 71.2791C42.5585 71.2835 43.6311 71.0868 44.7081 70.9513C46.5089 70.7196 48.2312 70.1556 49.9579 69.6135C51.9767 68.9796 54.0086 68.3851 56.1059 68.0616C57.0129 67.9217 57.9242 67.8212 58.8442 67.7468C60.0346 67.6507 61.2293 67.6507 62.411 67.5326C63.7583 67.3971 65.11 67.2485 66.4225 66.8069C67.8396 66.3304 69.104 65.6047 70.3031 64.761C71.5284 63.8998 72.6795 62.9336 73.8088 61.9369C74.598 61.2374 75.4309 60.586 76.255 59.9172C76.3553 59.8341 76.4904 59.7729 76.6169 59.7379C76.7869 59.6942 76.8523 59.8254 76.8872 59.9653C76.861 60.0658 76.8523 60.1707 76.8087 60.2625C75.2913 63.585 73.3597 66.6321 70.8089 69.2682C68.3148 71.8475 65.3324 73.5437 61.8485 74.3568C60.7192 74.6191 59.5898 74.8901 58.4823 75.2442C56.7731 75.7907 55.2034 76.6038 53.7819 77.6968C52.8314 78.4225 51.8939 79.1656 50.9477 79.8957C48.6934 81.64 46.1208 82.5143 43.2997 82.8116C39.419 83.2225 35.6692 82.5974 31.9847 81.4914C26.2596 79.7689 21.1057 76.9317 16.4097 73.242C14.7963 71.9742 13.2571 70.619 11.8139 69.1589C8.29947 65.6091 5.36498 61.6352 3.28075 57.0668C2.00753 54.2821 1.09623 51.3793 0.677639 48.3453C-0.0941364 42.7234 0.564271 37.2806 2.98861 32.1133C4.88098 28.0826 7.69774 24.8432 11.4912 22.4869C11.7528 22.3251 12.0014 22.1503 12.2586 21.9798C12.324 21.4158 12.7601 21.2016 13.1917 20.983C15.5027 19.8114 17.9837 19.195 20.5301 18.8453C21.8077 18.6704 23.0809 18.3994 24.3847 18.5174C24.9995 18.3775 25.6274 18.3425 26.2378 18.1939C26.809 18.1939 27.3628 18.0103 27.934 18.0016C28.2959 17.9928 28.6883 17.8879 28.915 18.3076L28.9194 18.2945Z" fill="#FF304D"/>
<path d="M24.4066 18.8189C22.8587 19.0506 21.2977 19.1512 19.7585 19.4222C17.2252 19.8637 14.8052 20.62 12.5378 21.8441C12.4506 21.8922 12.3504 21.9272 12.2588 21.9665C8.51327 19.9249 5.78372 16.8823 3.69513 13.2144C3.25037 12.4363 2.90591 11.6188 2.76638 10.7269C2.63557 9.88758 2.74458 9.09194 3.29834 8.40559C3.80849 8.36624 4.28813 8.51488 4.7634 8.65914C5.80988 9.24932 6.95664 9.57282 8.09468 9.91819C8.48711 10.0362 8.87954 10.1455 9.25017 10.3204C9.51615 10.4472 9.71672 10.6308 9.67748 10.9455C9.63823 11.2384 9.37662 11.2821 9.14552 11.339C8.41735 11.5182 7.68045 11.645 7.07873 11.763C8.00312 11.5051 9.13244 11.5182 10.1135 10.9149C10.4318 10.7182 10.846 10.8013 11.2123 10.9237C12.7384 11.4264 14.2035 12.0691 15.6511 12.7641C15.9651 12.9172 16.2528 13.1576 16.2485 13.5336C16.2485 14.0057 15.7994 13.9838 15.4941 14.0756C13.4186 14.7183 11.2821 14.6964 9.89985 14.7008C11.5786 14.7314 14.0073 14.6833 16.327 13.8133C16.824 13.6254 17.2208 13.5948 17.683 13.8133C18.699 14.303 19.6844 14.8407 20.648 15.4265C21.0099 15.6495 21.3195 15.938 21.2628 16.4101C21.2061 16.8735 20.7658 16.9697 20.43 17.0659C18.8341 17.5118 17.2339 17.9664 15.8996 18.0233C17.5566 17.8265 19.5274 17.5118 21.3631 16.6418C21.7381 16.4626 22.0957 16.432 22.4445 16.5937C23.1901 16.9347 23.8877 17.3719 24.52 17.8877C24.8601 18.1675 25.2133 18.6003 24.411 18.8145L24.4066 18.8189Z" fill="#00D100"/>
<path d="M26.0504 0.353065C27.3192 -0.132191 28.5706 -0.15405 29.7828 0.519188C30.6069 0.973842 31.0735 1.70828 31.3394 2.59136C31.6708 3.69302 31.6578 4.82092 31.5139 5.94006C31.3438 7.26031 31.0909 8.56744 30.9121 9.88332C30.6418 11.8899 30.5633 13.8921 31.0909 15.8769C31.1345 16.0386 31.1389 16.2135 31.165 16.3796C30.9165 16.6463 30.5982 16.6507 30.3148 16.5239C27.3934 15.2299 24.7423 13.608 23.3601 10.5303C22.7802 9.24068 22.4488 7.88546 22.5621 6.45155C22.6711 5.14005 23.02 4.77283 24.2888 4.62856C25.9937 4.43184 27.4282 3.54876 28.7974 2.88864C27.7378 3.4963 26.4515 3.90724 25.1216 4.18265C24.6071 4.29194 24.0577 4.33129 23.7263 3.82855C23.4168 3.36078 23.722 2.92798 23.9356 2.49519C24.4066 1.53779 25.1434 0.855807 26.0547 0.344321L26.0504 0.353065Z" fill="#AB4736"/>
<path d="M4.54959 9.00452C4.26181 8.93894 3.97403 8.87774 3.69061 8.80342C3.48568 8.75096 3.35487 8.6067 3.29382 8.4056C3.67753 7.67553 4.32722 7.25148 5.03359 6.893C6.22395 6.28971 7.49281 5.90937 8.78782 5.6121C11.6525 4.95635 14.5086 4.93886 17.3646 5.68642C18.3892 5.95746 19.3441 6.399 20.2947 6.85803C20.661 7.02415 20.7176 7.3564 20.7394 7.70613C20.892 10.2461 21.7554 12.5281 23.2205 14.5915C23.4952 14.9762 23.7917 15.3566 23.7786 15.8724C23.6172 16.4932 23.1769 16.4451 22.7365 16.2659C22.1783 16.0429 21.7336 15.6363 21.5461 15.0724C20.9662 13.3368 19.8892 11.9073 18.8296 10.4603C18.8035 10.4035 18.7599 10.3554 18.7032 10.3204C18.7599 10.3423 18.8035 10.386 18.8253 10.4559C19.7017 11.5532 20.4429 12.7292 21.1013 13.9664C21.2365 14.2199 21.3891 14.456 21.1929 14.7183C20.9749 15.0068 20.6348 15.0199 20.3514 14.8844C19.0607 14.2724 17.7308 13.7172 16.632 12.786C16.039 12.2833 15.9257 11.4308 15.4242 10.8013C14.744 9.9488 13.9853 9.17064 13.4403 8.50178C14.1379 9.25808 15.0013 10.1718 15.7033 11.221C15.882 11.4876 16.0695 11.7456 15.8472 12.0559C15.6379 12.3488 15.3021 12.362 15.01 12.2614C13.5275 11.7587 12.045 11.2472 10.6148 10.6177C9.8997 10.3029 9.91278 9.28868 9.26309 9.01763C9.28053 9.03512 9.38954 9.12255 9.47239 9.23185C9.66424 9.48103 10.109 9.66901 9.80377 10.0712C9.55959 10.3947 9.20641 10.2636 8.8663 10.163C7.43612 9.74333 5.99722 9.363 4.54959 9.00889V9.00452Z" fill="#00E500"/>
<path d="M23.6259 15.9686C23.1811 15.326 22.7189 14.6921 22.296 14.032C21.3542 12.55 20.7394 10.9369 20.4211 9.20567C20.2772 8.42751 20.3426 7.64061 20.2859 6.86245C20.3644 6.49523 20.4429 6.13238 20.5257 5.76516C20.9181 4.02523 21.8948 2.67001 23.3119 1.6383C24.1317 1.03938 25.0081 0.510408 26.0459 0.353027C25.3657 1.2055 24.6636 2.04487 24.1404 3.01101C24.027 3.21647 23.8134 3.42631 23.9616 3.66238C24.1317 3.94217 24.4587 3.87223 24.7072 3.81102C25.4659 3.62304 26.2421 3.49189 26.9746 3.19024C27.8249 2.84051 28.6969 2.53012 29.5603 2.20662C29.6518 2.17164 29.7652 2.15853 29.8045 2.28094C29.8219 2.3334 29.7914 2.4252 29.7521 2.46455C29.5123 2.70499 29.2856 2.97603 29.0065 3.16401C27.8031 3.95529 26.5517 4.64164 25.1215 4.9564C24.6811 5.05258 24.2451 5.06569 23.8003 5.09192C23.373 5.11815 23.2989 5.20996 23.1681 5.62089C22.7974 6.78376 23.0024 7.9204 23.2989 9.05703C23.8308 11.0986 25.0299 12.6768 26.6825 13.9314C28.0516 14.9719 29.5472 15.7763 31.1518 16.3796C31.2259 16.4626 31.3 16.5413 31.3742 16.6244C30.6547 17.3326 29.8001 17.8354 28.9106 18.29C28.0036 18.3556 27.1272 18.666 26.2116 18.6354C24.9732 18.1064 23.8788 17.4419 23.6172 15.9599L23.6259 15.9686Z" fill="#943D2F"/>
<path d="M70.7044 24.9044C70.8047 25.77 70.6826 26.605 70.4515 27.44C69.6317 30.3559 66.767 31.8598 64.6479 31.8204C63.0433 31.7898 61.6393 31.2521 60.3137 30.439C59.4984 29.9406 58.7397 29.3548 58.0725 28.6597C57.1918 27.7504 56.2674 26.8848 55.3997 25.9624C54.484 24.9875 53.4288 24.17 52.4652 23.2519C52.1861 22.9853 51.846 22.8366 51.4797 22.7273C50.8867 22.5525 50.3373 22.2771 49.7792 22.0235C49.1034 21.7175 48.5453 21.2672 48.1092 20.6989C47.32 19.6803 46.9799 18.5568 47.3854 17.2453C47.8563 15.7108 48.8548 14.6441 50.1891 13.8616C51.4361 13.1359 52.753 12.5719 54.1962 12.3708C54.9724 12.2616 55.7616 12.0605 56.5246 12.1304C57.6409 12.2266 58.7658 12.3009 59.8646 12.5807C62.0143 13.1315 63.9197 14.1326 65.6813 15.4835C67.0068 16.5021 68.0664 17.7436 68.9733 19.1076C69.8498 20.4235 70.4297 21.9011 70.6957 23.4705C70.7741 23.9339 70.7087 24.4279 70.7087 24.9044H70.7044Z" fill="#FF7487"/>
<path d="M66.2439 36.3101C66.0564 34.9898 66.8064 34.0893 67.7525 33.2849C67.8528 33.1975 67.9749 33.1188 68.1014 33.0751C69.2089 32.6991 70.3338 32.5942 71.3542 33.2587C72.623 34.0849 73.373 35.2609 73.4166 36.8303C73.4428 37.7833 73.2073 38.6227 72.7146 39.4533C71.7815 41.014 68.799 41.6785 67.4212 39.3091C67.286 39.073 67.1508 38.8282 66.9808 38.6227C66.427 37.9626 66.1479 37.2194 66.2482 36.3057L66.2439 36.3101Z" fill="#FF7487"/>
<path d="M23.6258 15.9687C23.7305 16.0561 23.8482 16.1261 23.9311 16.231C24.5197 16.9786 25.1694 17.6605 25.9194 18.2463C26.0458 18.3469 26.1199 18.5086 26.2202 18.6442C25.6142 18.701 25.0255 18.9021 24.4063 18.8234C24.4935 18.701 24.7552 18.5742 24.5241 18.4168C23.7915 17.9185 23.0372 17.4507 22.2829 16.9829C21.9995 16.8037 21.6986 16.8168 21.4064 16.9786C20.8614 17.2715 20.2858 17.4813 19.6972 17.6605C17.9487 18.1939 16.161 18.3556 14.3427 18.2026C14.3209 18.2026 14.3035 18.1633 14.2425 18.0933C14.5172 17.9316 14.8006 17.8398 15.1058 17.8398C15.9691 17.8398 16.7932 17.6125 17.6217 17.4201C18.4502 17.2277 19.2786 17.0135 20.1027 16.7993C20.3643 16.7294 20.6216 16.6332 20.8745 16.5327C20.9922 16.4889 21.0271 16.2616 20.9312 16.1785C20.8309 16.0911 20.7262 15.9949 20.6085 15.9337C19.5054 15.3217 18.3935 14.7184 17.2903 14.1064C17.0636 13.9796 16.8456 13.949 16.6057 14.0321C16.3136 14.1326 16.0215 14.22 15.7337 14.325C14.4997 14.7665 13.2309 14.9676 11.9228 14.9545C10.7324 14.9457 9.54203 14.9982 8.37783 14.6441C8.37783 14.5261 8.49556 14.5392 8.56968 14.5435C9.83853 14.6485 11.0812 14.3687 12.3414 14.2944C13.4881 14.2244 14.6436 14.0408 15.7598 13.7173C15.8601 13.6867 15.9779 13.6561 15.9561 13.5381C15.9386 13.455 15.8601 13.3501 15.7816 13.3151C14.2817 12.6593 12.7948 11.9643 11.2556 11.4091C10.715 11.2123 10.2092 11.2298 9.66412 11.4397C8.53916 11.8724 7.36188 12.0429 6.16279 12.0648C5.9971 12.0648 5.82704 12.0298 5.66135 11.9992C5.58287 11.9861 5.55235 11.9205 5.57415 11.8375C5.58287 11.8069 5.60031 11.7763 5.62647 11.7588C5.68315 11.7282 5.74856 11.6845 5.8096 11.6801C7.03921 11.597 8.21214 11.2254 9.39814 10.9631C9.41558 10.6965 9.22809 10.6659 9.07548 10.6134C7.88075 10.2068 6.68167 9.81339 5.48258 9.40682C5.15992 9.29753 4.81981 9.23633 4.55383 9.00026C5.34741 8.9784 6.11047 9.17075 6.87352 9.33251C7.70634 9.50737 8.53044 9.73907 9.3589 9.9358C9.44611 9.95765 9.55075 9.92268 9.72953 9.90519C9.29785 9.20135 8.59148 8.79916 8.09877 8.01226C9.02752 8.35325 9.57692 8.91282 10.0391 9.52486C10.4315 10.0495 10.8981 10.3642 11.5129 10.5478C12.6291 10.8713 13.7105 11.291 14.7788 11.7457C14.9968 11.8375 15.2279 11.903 15.459 11.9643C15.5113 11.9774 15.6029 11.9468 15.6378 11.903C15.6726 11.8637 15.6857 11.7588 15.6552 11.7194C15.4939 11.5009 15.3151 11.2954 15.1538 11.0768C14.3427 9.97951 13.523 8.88659 12.5899 7.88548C12.555 7.84614 12.5637 7.76745 12.5506 7.70624C12.6117 7.70624 12.6902 7.67127 12.7251 7.6975C13.1088 7.98603 13.5012 8.26145 13.8544 8.57621C14.9837 9.58606 15.9648 10.7183 16.6363 12.091C16.7889 12.4058 16.9894 12.6637 17.3121 12.8342C18.3411 13.3719 19.3615 13.9228 20.3861 14.4649C20.5082 14.5304 20.6347 14.5829 20.7611 14.6222C20.8178 14.6397 20.9007 14.6222 20.9486 14.5916C21.0402 14.5173 21.0227 14.4124 20.9704 14.3206C20.9225 14.2332 20.8614 14.1457 20.8091 14.0583C20.1768 13.0003 19.5446 11.9511 18.9254 10.8888C18.8077 10.6877 18.7554 10.4473 18.6725 10.2243C19.7626 11.0243 20.469 12.1347 21.1187 13.2845C21.437 13.8441 21.6986 14.4299 21.9733 15.0113C22.2393 15.5753 22.7233 15.8638 23.2596 16.0867C23.3904 16.1436 23.5212 16.0649 23.6258 15.9687Z" fill="#00B600"/>
</svg>
