<svg width="43" height="36" viewBox="0 0 43 36" fill="none" xmlns="http://www.w3.org/2000/svg">
<path d="M2.14786 4.84734C8.23742 -0.929964 16.6172 0.884336 23.8146 0.105254C29.9503 0.0945816 36.9134 -1.0687 41.2027 4.60543C43.0633 7.53321 42.6763 10.3863 42.7437 13.1896C42.836 16.1671 42.7863 18.8068 42.5946 21.2614C42.5271 36.9925 33.2632 35.4023 18.3677 35.9999C0.649433 36.0853 1.62944 28.4866 0.127472 17.9139C-0.128181 14.1394 -0.206299 7.41937 2.14786 4.84734ZM6.11406 30.2013C9.61156 34.8864 30.909 32.9476 35.6848 31.5318C40.947 29.1625 39.6617 18.1237 39.9067 13.2785C39.8321 10.9092 40.1943 8.25893 38.8272 6.17071C34.7439 1.27566 27.1381 3.17889 21.5137 3.04371C15.8076 3.59511 8.68126 2.49586 4.24281 6.76836C1.82119 9.4151 2.62011 25.5161 6.11761 30.2013H6.11406Z" fill="#399FFE"/>
<path d="M39.8818 19.1341C39.9031 16.8822 39.8321 14.7833 39.9102 13.2785C39.8357 10.9092 40.1978 8.25893 38.8308 6.17071C34.7439 1.27566 27.1381 3.17889 21.5137 3.04371C15.8076 3.59511 8.68127 2.49586 4.24282 6.76836C2.75505 8.39411 2.48519 15.0964 3.30542 21.112C2.38577 21.1262 1.46257 21.144 0.542919 21.1582C0.415092 20.1124 0.283714 19.0309 0.123928 17.9139C-0.131725 14.1394 -0.209843 7.41937 2.14431 4.84734C8.23742 -0.929964 16.6172 0.884336 23.8146 0.105254C29.9503 0.0945816 36.9134 -1.0687 41.2027 4.60543C43.0633 7.53321 42.6763 10.3863 42.7473 13.1896C42.8076 15.1924 42.8041 17.0423 42.7366 18.7854C41.785 18.9064 40.8334 19.0238 39.8818 19.1341Z" fill="url(#paint0_linear_63_1956)"/>
<path d="M6.11411 30.2015C9.6116 34.8866 30.9091 32.9478 35.6849 31.532C40.9471 29.1627 39.6617 18.1239 39.9067 13.2787C39.8321 10.9094 40.1943 8.25912 38.8273 6.17089C34.7439 1.27584 27.1382 3.17908 21.5138 3.04389C15.8077 3.5953 8.68131 2.49605 4.24286 6.76855C1.82124 9.41529 2.62016 25.5163 6.11766 30.2015H6.11411Z" fill="#F0B700"/>
<path d="M39.8746 19.3725C36.1925 20.8666 32.134 21.45 28.2033 21.7702C22.8878 22.2042 17.5545 22.1046 12.2319 22.2469C9.34872 22.3252 6.4655 22.4177 3.57873 22.5457C2.44248 16.1494 2.60937 8.25189 4.24272 6.46605C8.68472 2.19356 15.8111 3.29281 21.5136 2.7414C27.138 2.87659 34.7438 0.973351 38.8307 5.8684C40.1977 7.95663 39.8356 10.6105 39.9101 12.9762C39.8285 14.5984 39.9172 16.9143 39.8746 19.3654V19.3725Z" fill="url(#paint1_linear_63_1956)"/>
<path fill-rule="evenodd" clip-rule="evenodd" d="M19.561 8.57153L31.361 17.7146L19.561 26.8576V21.996H14.2176V13.4331H19.561V8.57153Z" fill="white"/>
<defs>
<linearGradient id="paint0_linear_63_1956" x1="21.395" y1="0" x2="21.395" y2="21.1582" gradientUnits="userSpaceOnUse">
<stop stop-color="#55A7F3"/>
<stop offset="1" stop-color="#548EFF"/>
</linearGradient>
<linearGradient id="paint1_linear_63_1956" x1="21.3794" y1="2.48755" x2="21.3794" y2="22.5457" gradientUnits="userSpaceOnUse">
<stop stop-color="#F8D258"/>
<stop offset="1" stop-color="#F8D258" stop-opacity="0"/>
</linearGradient>
</defs>
</svg>
