<svg width="43" height="36" viewBox="0 0 43 36" fill="none" xmlns="http://www.w3.org/2000/svg">
<path d="M40.8522 4.84734C34.7626 -0.929964 26.3828 0.884336 19.1854 0.105254C13.0497 0.0945816 6.08666 -1.0687 1.79734 4.60543C-0.063259 7.53321 0.323774 10.3863 0.25631 13.1896C0.16399 16.1671 0.2137 18.8068 0.405442 21.2614C0.472906 36.9925 9.73684 35.4023 24.6323 35.9999C42.3506 36.0853 41.3706 28.4866 42.8726 17.9139C43.1282 14.1394 43.2063 7.41937 40.8522 4.84734ZM36.886 30.2013C33.3885 34.8864 12.091 32.9476 7.31523 31.5318C2.053 29.1625 3.33837 18.1237 3.09337 13.2785C3.16793 10.9092 2.80576 8.25893 4.1728 6.17071C8.25618 1.27566 15.8619 3.17889 21.4863 3.04371C27.1924 3.59511 34.3188 2.49586 38.7572 6.76836C41.1788 9.4151 40.3799 25.5161 36.8824 30.2013H36.886Z" fill="#399FFE"/>
<path d="M3.11818 19.1341C3.09688 16.8822 3.16789 14.7833 3.08978 13.2785C3.16434 10.9092 2.80217 8.25893 4.16921 6.17071C8.25614 1.27566 15.8619 3.17889 21.4863 3.04371C27.1924 3.59511 34.3187 2.49586 38.7572 6.76836C40.245 8.39411 40.5148 15.0964 39.6946 21.112C40.6142 21.1262 41.5374 21.144 42.4571 21.1582C42.5849 20.1124 42.7163 19.0309 42.8761 17.9139C43.1317 14.1394 43.2098 7.41937 40.8557 4.84734C34.7626 -0.929964 26.3828 0.884336 19.1854 0.105254C13.0497 0.0945816 6.08662 -1.0687 1.7973 4.60543C-0.0632998 7.53321 0.323733 10.3863 0.252718 13.1896C0.192355 15.1924 0.195906 17.0423 0.26337 18.7854C1.21497 18.9064 2.16658 19.0238 3.11818 19.1341Z" fill="url(#paint0_linear_63_1432)"/>
<path d="M36.8859 30.2015C33.3884 34.8866 12.0909 32.9478 7.31512 31.532C2.05289 29.1627 3.33826 18.1239 3.09326 13.2787C3.16783 10.9094 2.80565 8.25912 4.17269 6.17089C8.25607 1.27584 15.8618 3.17908 21.4862 3.04389C27.1923 3.5953 34.3187 2.49605 38.7571 6.76855C41.1787 9.41529 40.3798 25.5163 36.8823 30.2015H36.8859Z" fill="#F0B700"/>
<path d="M3.12535 19.3725C6.80749 20.8666 10.866 21.45 14.7967 21.7702C20.1122 22.2042 25.4454 22.1046 30.768 22.2469C33.6513 22.3252 36.5345 22.4177 39.4212 22.5457C40.5575 16.1494 40.3906 8.25189 38.7572 6.46605C34.3152 2.19356 27.1889 3.29281 21.4863 2.7414C15.8619 2.87659 8.2562 0.973351 4.16928 5.8684C2.80223 7.95663 3.16441 10.6105 3.08984 12.9762C3.17151 14.5984 3.08274 16.9143 3.12535 19.3654V19.3725Z" fill="url(#paint1_linear_63_1432)"/>
<path fill-rule="evenodd" clip-rule="evenodd" d="M23.4389 8.57153L11.6389 17.7146L23.4389 26.8576V21.996H28.7823V13.4331H23.4389V8.57153Z" fill="white"/>
<defs>
<linearGradient id="paint0_linear_63_1432" x1="21.605" y1="0" x2="21.605" y2="21.1582" gradientUnits="userSpaceOnUse">
<stop stop-color="#55A7F3"/>
<stop offset="1" stop-color="#548EFF"/>
</linearGradient>
<linearGradient id="paint1_linear_63_1432" x1="21.6206" y1="2.48755" x2="21.6206" y2="22.5457" gradientUnits="userSpaceOnUse">
<stop stop-color="#F8D258"/>
<stop offset="1" stop-color="#F8D258" stop-opacity="0"/>
</linearGradient>
</defs>
</svg>
