<svg width="90" height="99" viewBox="0 0 90 99" fill="none" xmlns="http://www.w3.org/2000/svg">
<path d="M77.4996 42.2795C81.0162 55.4671 83.176 69.0459 84.0067 82.6527C84.3666 88.4362 81.2931 91.6773 75.4783 92.3478C61.9381 93.9404 48.2872 94.5271 34.6639 94.136C27.6308 93.9404 10.1864 95.7286 6.30982 88.0171C4.59307 84.6085 5.11917 80.5013 5.61759 76.8691C6.17138 72.9016 6.47596 69.0459 6.89131 65.0505C7.91582 55.3833 10.6571 45.9396 13.7583 36.7474C15.6966 31.0476 17.8287 25.3199 21.3452 20.4304C26.1355 13.7807 32.0334 11.2941 39.8142 9.86913C54.3235 7.24278 65.9808 8.94711 71.5464 23.7273C73.8169 29.7903 75.8106 35.993 77.4719 42.2515L77.4996 42.2795Z" fill="#BF007B"/>
<path d="M89.157 74.5221C89.0462 70.0238 88.797 65.4137 87.1633 61.2507C86.9695 60.7477 86.7203 60.1889 86.2773 59.8816C85.7512 59.5184 85.0866 59.5463 84.4774 59.5743C82.6222 59.686 80.7394 59.7978 78.8842 59.9095L81.2655 81.2277C83.3422 83.1276 86.9418 82.485 88.3263 79.9704C89.2124 78.3499 89.2124 76.3662 89.157 74.4942V74.5221Z" fill="#F9C978"/>
<path d="M88.659 65.2459C89.1297 65.1901 89.4066 64.7151 89.2958 64.268C89.0189 63.1784 88.6866 62.1167 88.2713 61.0829C88.0498 60.5241 87.7729 59.9374 87.2745 59.5741C86.693 59.183 85.9454 59.183 85.2531 59.2389C83.1487 59.3506 81.0166 59.4903 78.9122 59.6021L79.6599 66.14C82.678 65.9724 85.6685 65.6371 88.659 65.218V65.2459Z" fill="#BA97C1"/>
<path d="M0.135293 74.6618C0.246051 70.1634 0.495257 65.5534 2.12894 61.3903C2.32277 60.8874 2.57197 60.3286 3.01501 60.0212C3.54111 59.658 4.20566 59.686 4.81483 59.7139C6.67003 59.8257 8.55291 59.9374 10.4081 60.0492L8.02681 81.3674C5.9501 83.2673 2.37815 82.6247 0.965979 80.1101C0.0799138 78.4896 0.0799138 76.5058 0.135293 74.6338V74.6618Z" fill="#F9C978"/>
<path d="M0.661191 65.4137C0.190469 65.3578 -0.0864265 64.8828 0.0243316 64.4358C0.301227 63.3461 0.633501 62.2844 1.04884 61.2506C1.27036 60.6918 1.54726 60.1051 2.04567 59.7419C2.62715 59.3507 3.37477 59.3507 4.067 59.4066C6.17141 59.5183 8.3035 59.658 10.4079 59.7698L9.66029 66.3077C6.64213 66.1401 3.65166 65.8048 0.661191 65.3857V65.4137Z" fill="#BA97C1"/>
<path d="M76.1706 46.9735C79.5487 59.9656 81.6254 73.3209 82.4007 86.732C82.733 92.4318 79.7979 95.6169 74.2323 96.2875C61.2459 97.8521 48.1487 98.4389 35.107 98.0477C28.3507 97.8521 11.6262 99.6403 7.91584 92.0127C6.28215 88.6599 6.75288 84.6086 7.25129 81.0323C7.80508 77.1207 8.05428 73.3209 8.46963 69.4093C9.43876 59.8818 12.0693 50.6057 15.0597 41.5252C16.9149 35.9093 18.964 30.2654 22.3421 25.4597C26.9386 18.9218 32.5872 16.4631 40.0634 15.0661C53.9635 12.4677 65.1501 14.1441 70.4942 28.7287C72.6817 34.7079 74.5923 40.7988 76.1706 46.9735Z" fill="#FF97DA"/>
<path d="M82.401 86.7599C81.598 73.3487 79.5212 59.9934 76.1708 47.0013C74.5648 40.8266 72.6819 34.7357 70.4944 28.7566C69.0269 24.7611 67.144 21.7436 64.8735 19.5364C66.5072 24.4259 68.2793 29.2595 69.8022 34.1769C71.4636 39.5414 72.5435 45.0176 73.5126 50.5497C74.4817 56.0818 75.3124 61.7257 75.3955 67.3416C75.5063 74.3545 73.125 83.1277 66.5072 86.6202C66.1749 86.7878 65.8703 86.6202 65.7595 86.3408C51.7763 88.3804 37.71 85.8099 23.6991 85.5584C23.4499 85.5584 23.2838 85.4187 23.2284 85.2232C17.5243 84.7202 12.1249 82.3174 7.50072 78.9367C7.41765 79.6352 7.33458 80.3616 7.22382 81.0601C6.72541 84.6085 6.25469 88.6877 7.88837 92.0405C11.5988 99.6681 28.3509 97.88 35.0795 98.0755C48.149 98.4667 61.2461 97.8799 74.2048 96.3153C79.7704 95.6448 82.7055 92.4596 82.3733 86.7599H82.401Z" fill="#EA66C5"/>
<path d="M71.0479 81.0043C71.4356 76.8972 71.3802 72.7341 70.9095 68.6269C70.5772 65.7491 70.9925 62.1728 68.0298 60.7199C67.116 60.2729 66.1192 60.1611 65.1224 60.0773C62.4088 59.8538 59.6952 59.7979 56.9816 59.742C45.9058 59.5744 34.83 59.8817 23.7819 60.6361C20.8745 60.8317 19.7669 61.7817 19.1023 64.7712C18.0501 69.521 17.6902 74.4105 17.9671 79.2721C18.0778 81.3117 18.4378 83.4351 19.6838 84.9718C20.8745 86.4526 22.702 87.1232 24.4741 87.6261C28.5445 88.7996 32.781 89.2746 36.9898 89.6098C45.9335 90.2804 54.9603 90.1407 63.7656 88.4643C66.0638 88.0173 68.5835 87.3188 69.885 85.2791C70.6879 84.0218 70.9095 82.4851 71.0479 80.9764V81.0043Z" fill="#F9C978"/>
<path d="M70.8819 68.6267C70.605 66.3636 70.8265 63.6255 69.4421 61.8652C69.9682 66.2518 70.3558 70.6943 68.8052 74.8852C65.4271 83.9657 55.4588 85.9495 46.8751 85.9774C37.2391 85.9774 27.1324 85.0554 18.161 81.3394C18.3825 82.6805 18.8256 83.9657 19.6562 84.9716C20.8469 86.4524 22.6744 87.1229 24.4465 87.6259C28.5169 88.7993 32.7534 89.2743 36.9622 89.6096C45.9059 90.2802 54.9327 90.1405 63.738 88.4641C66.0362 88.017 68.556 87.3185 69.8574 85.2789C70.6604 84.0216 70.8819 82.4849 71.0204 80.9762C71.408 76.869 71.3526 72.7059 70.8819 68.5988V68.6267Z" fill="#F8AC50"/>
<path d="M46.3762 88.52C46.127 88.52 45.8778 88.52 45.6009 88.52L45.4347 88.3523L45.6009 88.1847C45.8778 88.1847 46.1547 88.1847 46.4593 88.1847H46.8746L47.0407 88.3523L46.8746 88.52H46.4593H46.3762ZM48.1483 88.492L47.9822 88.3244L48.1483 88.1568C48.5637 88.1568 48.979 88.1568 49.3944 88.1568L49.5605 88.3244L49.3944 88.492C48.979 88.492 48.5637 88.492 48.1483 88.492ZM44.3549 88.492C43.9395 88.492 43.5242 88.492 43.1088 88.4641L42.9427 88.2965L43.1088 88.1288C43.5242 88.1288 43.9395 88.1288 44.3549 88.1568L44.521 88.3244L44.3549 88.492ZM50.6681 88.4362L50.5019 88.2965L50.6404 88.1288C51.0557 88.1288 51.4711 88.1009 51.8864 88.0729C51.9695 88.0729 52.0525 88.1288 52.0525 88.2126L51.9141 88.3803C51.4988 88.3803 51.0834 88.4082 50.6681 88.4362ZM41.8628 88.4362C41.4475 88.4362 41.0321 88.4082 40.6168 88.3803L40.4783 88.2126L40.6445 88.0729C41.0598 88.0729 41.4751 88.1009 41.8905 88.1288L42.0289 88.2965L41.8628 88.4362ZM53.1601 88.2965L52.994 88.1568L53.1324 87.9891C53.5478 87.9891 53.9631 87.9332 54.3785 87.9053L54.5446 88.045L54.4062 88.2126C53.9908 88.2406 53.5755 88.2685 53.1601 88.2965ZM39.343 88.2965C38.9277 88.2965 38.5124 88.2406 38.097 88.2126L37.9586 88.045L38.1247 87.9053C38.5401 87.9332 38.9554 87.9612 39.3707 87.9891L39.5092 88.1568L39.343 88.2965ZM36.8233 88.1288C36.408 88.1009 35.9926 88.0729 35.5773 88.0171L35.4388 87.8494L35.605 87.7097C36.0203 87.7377 36.4356 87.7935 36.851 87.8215L36.9894 87.9891L36.8233 88.1288ZM55.6799 88.1009L55.5137 87.9612L55.6522 87.7935C56.0675 87.7656 56.4829 87.7097 56.8982 87.6818L57.0644 87.8215L56.9259 87.9891C56.5106 88.045 56.0952 88.0729 55.6799 88.1288V88.1009ZM34.3312 87.9332C33.9159 87.9053 33.5006 87.8494 33.0852 87.7935L32.9468 87.6259L33.1129 87.4862C33.5282 87.5421 33.9436 87.57 34.3589 87.6259L34.4974 87.7935L34.3312 87.9332ZM58.1719 87.8494L58.0058 87.7097L58.1442 87.5421C58.5596 87.4862 58.9749 87.4303 59.3903 87.3744L59.5564 87.5141L59.418 87.6818C59.0026 87.7377 58.5873 87.7935 58.1719 87.8494ZM31.8115 87.6259C31.3961 87.57 30.9808 87.5141 30.5655 87.4583L30.427 87.2627L30.6208 87.123C31.0362 87.1789 31.4515 87.2347 31.8669 87.2906L32.0053 87.4583L31.8392 87.598L31.8115 87.6259ZM60.664 87.4862L60.4979 87.3465L60.6363 87.1509C61.0516 87.095 61.467 87.0112 61.8823 86.9553C61.9654 86.9553 62.0485 87.0112 62.0762 87.095L61.9377 87.2906C61.5224 87.3744 61.107 87.4303 60.6917 87.4862H60.664ZM29.3194 87.2347C28.9041 87.1509 28.4887 87.0671 28.0734 86.9833L27.935 86.7877L28.1288 86.6759C28.5441 86.7598 28.9595 86.8436 29.3471 86.8995L29.4856 87.095L29.3194 87.2347ZM63.1561 87.0671L62.9899 86.9274L63.1284 86.7318C63.5714 86.648 63.9867 86.5642 64.3467 86.4524L64.5405 86.5642L64.4298 86.7598C64.0421 86.8715 63.6545 86.9553 63.1837 87.0392H63.1561V87.0671ZM26.8551 86.7318H26.8274C26.412 86.6201 25.9967 86.5362 25.609 86.4245L25.4983 86.2289L25.6921 86.1171C26.1074 86.2289 26.4951 86.3127 26.9104 86.4245L27.0212 86.6201L26.8551 86.7318ZM65.5927 86.4245L65.4543 86.3127L65.5374 86.1171C65.9527 85.9495 66.3127 85.7819 66.6449 85.5863L66.8664 85.6422L66.8111 85.8657C66.4511 86.0613 66.0634 86.2568 65.6481 86.3965H65.5927V86.4245ZM24.4461 86.0892H24.3907C23.9477 85.9495 23.56 85.7819 23.2 85.6142L23.117 85.3907L23.3385 85.3069C23.6985 85.4745 24.0584 85.6142 24.5015 85.7539L24.6122 85.9495L24.4738 86.0613L24.4461 86.0892ZM67.7248 85.1392L67.6141 85.0834V84.8598C67.891 84.6084 68.1125 84.3569 68.3063 84.0775L68.4171 83.9378L68.6386 83.8819L68.694 84.1055L68.5832 84.2731C68.3894 84.5804 68.1402 84.8598 67.8633 85.1113H67.7525L67.7248 85.1392ZM22.1755 85.0275H22.0925C21.7325 84.7481 21.4002 84.4687 21.0956 84.1613V83.9378H21.3172C21.594 84.2172 21.8986 84.4966 22.2586 84.7201L22.314 84.9437L22.1755 85.0275ZM20.4588 83.1834L20.3203 83.0996C20.1265 82.7364 19.9604 82.3452 19.7942 81.8982L19.905 81.7026L20.0988 81.8144C20.2373 82.2335 20.4034 82.5967 20.5972 82.9599L20.5418 83.1834H20.4588ZM69.0816 83.0158H69.0262L68.9155 82.7923C69.0262 82.4291 69.137 82.0379 69.2201 81.5909L69.4139 81.4512L69.5523 81.6468C69.4693 82.1217 69.3585 82.5129 69.2478 82.9041L69.1093 83.0158H69.0816ZM19.6558 80.7806L19.4896 80.6409C19.4066 80.2498 19.3512 79.8307 19.3235 79.3557L19.462 79.188L19.6281 79.3277C19.6558 79.7748 19.7112 80.1939 19.7942 80.585L19.6558 80.7806ZM69.5523 80.5292L69.4139 80.3615C69.4693 79.9145 69.497 79.4954 69.5246 79.0763L69.6908 78.9366L69.8292 79.1042C69.8015 79.5233 69.7462 79.9424 69.7185 80.3615L69.5523 80.5292ZM19.4066 78.266L19.2404 78.1263C19.2404 77.7072 19.2127 77.2881 19.1851 76.8411L19.3512 76.6734L19.5173 76.8411C19.5173 77.2602 19.5173 77.6793 19.545 78.0984L19.4066 78.266ZM69.7462 77.9587L69.6077 77.791C69.6077 77.3719 69.6354 76.9528 69.6631 76.5337L69.8292 76.3661L69.9954 76.5337C69.9954 76.9528 69.9954 77.3719 69.94 77.819L69.7739 77.9587H69.7462ZM19.3512 75.7235L19.1851 75.5558C19.1851 75.1367 19.1851 74.7176 19.2127 74.2706L19.3789 74.103L19.545 74.2706C19.545 74.6897 19.545 75.1088 19.5173 75.5279L19.3512 75.6955V75.7235ZM69.8015 75.4441L69.6354 75.2764C69.6354 74.8573 69.6354 74.4382 69.6354 74.0191L69.8015 73.8515C69.8015 73.8515 69.9677 73.9074 69.9677 74.0191C69.9677 74.4382 69.9677 74.8573 69.9677 75.3044L69.8015 75.472V75.4441ZM19.462 73.1809L19.3235 73.0133C19.3512 72.5942 19.3789 72.1751 19.4343 71.756L19.6004 71.6163L19.7389 71.7839C19.7112 72.203 19.6558 72.6222 19.6281 73.0412L19.462 73.1809ZM69.7185 72.9016L69.5523 72.7618C69.5523 72.3427 69.497 71.9237 69.4693 71.5046L69.6077 71.3369L69.7739 71.4766C69.8015 71.8957 69.8292 72.3148 69.8569 72.7339L69.7185 72.9016ZM19.6835 70.6664L19.545 70.4987C19.6004 70.0796 19.6558 69.6605 19.7112 69.2414L19.905 69.1017L20.0434 69.2973C19.9881 69.7164 19.9327 70.1355 19.8773 70.5546L19.7112 70.6943L19.6835 70.6664ZM69.497 70.359L69.3308 70.2193C69.3031 69.912 69.2754 69.6326 69.2201 69.3252C69.2201 69.2135 69.1924 69.0738 69.1647 68.9341L69.3031 68.7664L69.4693 68.9061C69.4693 68.9061 69.4693 69.1576 69.5246 69.2694C69.5523 69.5767 69.6077 69.8561 69.6354 70.1634L69.497 70.3311V70.359ZM20.0434 68.1518L19.905 67.9562C19.9881 67.5371 20.0711 67.118 20.1542 66.6989L20.348 66.5871L20.4588 66.7827C20.3757 67.2018 20.2926 67.6209 20.2096 68.0121L20.0434 68.1518ZM69.2754 67.8444L69.1093 67.7047C69.0816 67.2856 69.0539 66.8665 68.9985 66.4474L69.137 66.2798L69.3031 66.4195C69.3585 66.8386 69.3862 67.2856 69.4139 67.7047L69.2754 67.8724V67.8444ZM20.5972 65.6651H20.5695L20.4588 65.4695C20.5972 64.9945 20.7357 64.6034 20.9018 64.2402L21.1233 64.1563L21.2064 64.3799C21.0403 64.7151 20.9018 65.0784 20.7911 65.5533L20.6249 65.6651H20.5972ZM68.9432 65.3298L68.777 65.2181C68.6663 64.771 68.5278 64.4078 68.3617 64.0725L68.4171 63.849L68.6386 63.9049C68.8324 64.2681 68.9709 64.6593 69.0816 65.1342L68.9709 65.3298H68.9432ZM21.7325 63.4578L21.6217 63.402V63.1784C21.9263 62.8711 22.2863 62.6476 22.7293 62.48L22.9231 62.5638L22.8401 62.7594C22.4524 62.927 22.1202 63.1226 21.8433 63.402L21.7325 63.4578ZM67.7525 63.1226L67.6418 63.0667C67.3649 62.8152 67.0326 62.5917 66.6449 62.3961L66.5619 62.1726L66.7834 62.0888C67.1987 62.2844 67.5587 62.5079 67.8633 62.8152V63.0388L67.7525 63.0946V63.1226ZM24.0307 62.48L23.8646 62.3403L24.003 62.1447C24.2799 62.1167 24.5845 62.0609 24.9168 62.0609H25.2768L25.4429 62.2005L25.3044 62.3682H24.9722C24.6399 62.4241 24.3353 62.452 24.0861 62.48H24.0307ZM26.5228 62.2844L26.3567 62.1447L26.4951 61.977C26.9104 61.977 27.3258 61.9212 27.7411 61.8932L27.9073 62.0329L27.7688 62.2005C27.3535 62.2005 26.9381 62.2564 26.5228 62.2844ZM29.0425 62.1447L28.8764 62.005L29.0148 61.8373C29.4302 61.8373 29.8455 61.7815 30.2609 61.7815C30.3716 61.7815 30.427 61.8373 30.427 61.9212L30.2886 62.0888C29.8732 62.0888 29.4579 62.1447 29.0425 62.1447ZM65.482 62.0609H65.4543C65.0112 61.977 64.5682 61.9212 64.2359 61.8932L64.0975 61.7256L64.2636 61.5859C64.6236 61.6138 65.0666 61.6697 65.5374 61.7535L65.6481 61.9491L65.482 62.0888V62.0609ZM31.5623 62.005L31.3961 61.8653L31.5346 61.6976C31.9499 61.6976 32.3653 61.6697 32.7806 61.6418C32.8914 61.6418 32.9468 61.6976 32.9468 61.7815L32.8083 61.9491C32.393 61.9491 31.9776 61.977 31.5623 62.005ZM34.0543 61.8932L33.8882 61.7535L34.0267 61.5859C34.442 61.5859 34.8573 61.5579 35.2727 61.53C35.3834 61.53 35.4388 61.5859 35.4388 61.6697L35.2727 61.8373C34.8573 61.8373 34.442 61.8653 34.0267 61.8932H34.0543ZM62.9899 61.8094C62.5746 61.7815 62.1592 61.7535 61.7439 61.7256L61.6054 61.5579L61.7716 61.4182C62.1869 61.4182 62.6023 61.4741 63.0176 61.5021L63.1561 61.6697L62.9899 61.8094ZM36.5741 61.8094L36.408 61.6418L36.5741 61.4741C36.9894 61.4741 37.4048 61.4462 37.8201 61.4182L37.9863 61.5859L37.8201 61.7535C37.4048 61.7535 36.9894 61.7535 36.5741 61.8094ZM39.0938 61.7256L38.9277 61.5579L39.0938 61.3903C39.5092 61.3903 39.9245 61.3903 40.3399 61.3624L40.506 61.53L40.3399 61.6976C39.9245 61.6976 39.5092 61.6976 39.0938 61.7256ZM60.4702 61.6697C60.0548 61.6697 59.6395 61.6418 59.2241 61.6418L59.058 61.4741L59.2241 61.3065C59.6395 61.3065 60.0548 61.3065 60.4702 61.3344L60.6363 61.5021L60.4702 61.6697ZM41.6136 61.6418L41.4475 61.4741L41.6136 61.3065C42.0289 61.3065 42.4443 61.3065 42.8596 61.3065L43.0258 61.4741L42.8596 61.6418C42.4443 61.6418 42.0289 61.6418 41.6136 61.6418ZM57.9781 61.6138C57.5628 61.6138 57.1474 61.6138 56.7321 61.6138L56.5659 61.4462L56.7321 61.2785C57.1474 61.2785 57.5628 61.2785 57.9781 61.2785L58.1442 61.4462L57.9781 61.6138ZM44.1333 61.5859L43.9672 61.4182L44.1333 61.2506C44.5487 61.2506 44.964 61.2506 45.3794 61.2506L45.5455 61.4182L45.3794 61.5859C44.964 61.5859 44.5487 61.5859 44.1333 61.5859ZM55.4584 61.5579C55.043 61.5579 54.6277 61.5579 54.2123 61.5579L54.0462 61.3903L54.2123 61.2227C54.6277 61.2227 55.043 61.2227 55.4584 61.2227L55.6245 61.3903L55.4584 61.5579ZM46.6531 61.5579L46.4869 61.3903L46.6531 61.2227C47.0684 61.2227 47.4838 61.2227 47.8991 61.2227L48.0653 61.3903L47.8991 61.5579C47.4838 61.5579 47.0684 61.5579 46.6531 61.5579ZM52.9386 61.5579C52.5233 61.5579 52.1079 61.5579 51.6926 61.5579L51.5264 61.3903L51.6926 61.2227C52.1079 61.2227 52.5233 61.2227 52.9386 61.2227L53.1047 61.3903L52.9386 61.5579ZM49.1728 61.5579L49.0067 61.3903L49.1728 61.2227C49.5882 61.2227 50.0035 61.2227 50.4189 61.2227L50.585 61.3903L50.4189 61.5579C50.0035 61.5579 49.5882 61.5579 49.1728 61.5579Z" fill="white"/>
<path d="M52.1913 68.7944C41.8631 68.7944 31.701 68.5709 21.0682 68.0959V67.7886C37.1836 68.4871 52.1636 68.6547 68.2789 68.2915V68.5988C62.8241 68.7106 57.48 68.7665 52.1913 68.7665V68.7944Z" fill="#BA97C1"/>
<path d="M64.6797 72.0914C64.7904 72.9016 65.1781 73.5163 66.1195 73.4325C66.701 73.3766 67.5871 73.209 67.6425 72.5105C67.7255 71.3929 67.144 70.2194 66.5349 69.3253C66.0365 68.5989 65.4827 67.9283 65.1227 68.99C64.8735 69.6885 64.5412 71.0576 64.6797 72.0914Z" fill="#BA97C1"/>
<path d="M61.7996 35.3782C63.3502 34.512 63.0179 31.1313 61.4673 30.4049C60.8581 30.1255 60.1936 30.1255 59.529 30.1534C49.367 30.2931 39.1772 30.4608 29.0152 30.6005C28.2952 30.6005 27.5476 30.6284 26.9384 31.0196C25.8032 31.7181 26.0524 33.9812 26.9661 34.7635C27.5753 35.2664 28.406 35.2944 29.1813 35.2944C39.5926 35.3782 49.9761 35.4899 60.3874 35.5738C60.8581 35.5738 61.3842 35.5738 61.7996 35.3502V35.3782Z" fill="#F9C978"/>
<path d="M13.6196 41.581H13.5643L13.4812 41.3575C13.6196 40.9664 13.7581 40.5473 13.9242 40.1561L14.1181 40.0723L14.2011 40.2679C14.0627 40.659 13.9242 41.0781 13.7581 41.4693L13.6196 41.581ZM14.5057 39.1782H14.4503L14.3673 38.9547C14.5057 38.5635 14.6719 38.1444 14.8103 37.7533L15.0041 37.6695L15.0872 37.865C14.9487 38.2562 14.7826 38.6753 14.6442 39.0665L14.5057 39.1782ZM74.6474 36.9989L74.509 36.8871C74.3982 36.468 74.2598 36.0769 74.149 35.6578L74.2598 35.4622L74.4536 35.574C74.5643 35.9931 74.7028 36.3842 74.8136 36.8033L74.7028 36.9989H74.6474ZM15.3918 36.8033H15.3364L15.2533 36.5798C15.4195 36.1886 15.5579 35.7695 15.7241 35.3784L15.9179 35.2946L16.001 35.4901C15.8348 35.8813 15.6964 36.2725 15.5302 36.6916L15.3918 36.8033ZM73.8998 34.5402L73.7613 34.4284C73.6229 34.0093 73.5121 33.6182 73.3737 33.1991L73.4845 33.0035L73.6783 33.1152C73.8167 33.5343 73.9275 33.9255 74.0659 34.3446L73.9552 34.5402H73.8998ZM16.3332 34.4005H16.2778L16.1948 34.177C16.3609 33.7858 16.5271 33.3946 16.6932 33.0035L16.9147 32.9197L16.9978 33.1432C16.8316 33.5343 16.6655 33.9255 16.4994 34.3167L16.3609 34.4284L16.3332 34.4005ZM73.0968 32.1094L72.9583 31.9976C72.8199 31.6065 72.6815 31.1874 72.543 30.7962L72.6261 30.6007L72.8199 30.6845C72.9584 31.0756 73.0968 31.4947 73.2352 31.8859L73.1245 32.0815H73.0691L73.0968 32.1094ZM17.33 32.0535H17.2747L17.1916 31.83C17.3577 31.4389 17.5516 31.0477 17.7177 30.6565L17.9392 30.5727L18.0223 30.7962C17.8285 31.1874 17.6623 31.5786 17.4962 31.9697L17.3577 32.0535H17.33ZM18.4376 29.7345H18.3546L18.2715 29.511C18.4653 29.1198 18.6591 28.7566 18.853 28.3655L19.0745 28.3096L19.1299 28.5331C18.936 28.8963 18.7422 29.2875 18.5484 29.6786L18.4099 29.7625L18.4376 29.7345ZM72.2384 29.7066L72.1 29.5948C71.9615 29.2037 71.7954 28.8125 71.6292 28.4213L71.7123 28.2258L71.9338 28.3096C72.1 28.7007 72.2384 29.0919 72.4046 29.511L72.3215 29.7066H72.2661H72.2384ZM19.6283 27.4714H19.5452L19.4898 27.2199C19.7113 26.8567 19.9052 26.4655 20.1267 26.1023L20.3482 26.0464L20.4036 26.27C20.1821 26.6332 19.9882 26.9964 19.7667 27.3876L19.6283 27.4714ZM71.2693 27.3317L71.1308 27.2479C70.9647 26.8567 70.7986 26.4655 70.6047 26.0744L70.6878 25.8509L70.9093 25.9347C71.1032 26.3258 71.2693 26.717 71.4354 27.1082L71.3524 27.3317H71.297H71.2693ZM20.9297 25.2641H20.8466L20.7912 25.0127C21.0128 24.6494 21.262 24.2862 21.5112 23.9509H21.7327L21.7604 24.1465C21.5112 24.4818 21.2897 24.845 21.0681 25.2082L20.9297 25.2921V25.2641ZM70.1894 25.0406L70.0509 24.9568C69.8571 24.5656 69.6633 24.2024 69.4695 23.8392L69.5248 23.6157L69.7464 23.6715C69.9402 24.0348 70.1617 24.4259 70.3555 24.8171L70.2725 25.0406H70.1894ZM22.3695 23.1686H22.2865L22.2588 22.9172C22.508 22.5819 22.7849 22.2187 23.0341 21.9113H23.2556V22.1069C23.0064 22.4422 22.7295 22.7775 22.4803 23.1127L22.3419 23.1686H22.3695ZM68.9711 22.7775L68.8326 22.6936C68.6111 22.3304 68.3896 21.9672 68.1681 21.604L68.2234 21.3805L68.445 21.4364C68.6665 21.7996 68.888 22.1628 69.1095 22.526L69.0541 22.7495H68.9711V22.7775ZM23.9755 21.1849H23.8648V20.9055C24.1417 20.5702 24.4463 20.2629 24.7232 19.9555H24.9447V20.1791C24.6678 20.4864 24.3632 20.7937 24.0863 21.1011L23.9755 21.157V21.1849ZM67.5589 20.654L67.4204 20.5982C67.1712 20.2349 66.922 19.8997 66.6728 19.5644V19.3409H66.922C67.1712 19.6761 67.4481 20.0114 67.6973 20.3746V20.5982L67.5589 20.6261V20.654ZM25.72 19.3409L25.6092 19.285V19.0615C25.9138 18.7541 26.2461 18.4747 26.5507 18.1953H26.7722V18.4468C26.4676 18.7262 26.1353 19.0056 25.8307 19.285L25.72 19.3409ZM66.0083 18.6144L65.8975 18.5585C65.6206 18.2233 65.3437 17.9159 65.0668 17.6086V17.3851H65.2883C65.5652 17.6924 65.8698 18.0277 66.1467 18.335V18.5585L66.036 18.5865L66.0083 18.6144ZM27.6582 17.6645L27.5198 17.6086V17.3851C27.6582 17.3012 27.7967 17.1895 27.9075 17.1057C28.129 16.938 28.3505 16.7704 28.572 16.6307H28.7935L28.7658 16.8821C28.5443 17.0498 28.3228 17.1895 28.1013 17.3571C27.9905 17.4409 27.8521 17.5527 27.7413 17.6365H27.6306L27.6582 17.6645ZM64.2638 16.7424L64.1531 16.6866C63.8485 16.4072 63.5439 16.0998 63.2393 15.8204V15.5969H63.4608C63.7654 15.8763 64.0977 16.1836 64.4023 16.463V16.6866L64.2915 16.7424H64.2638ZM29.735 16.2116L29.5965 16.1278L29.6519 15.9042C30.0119 15.6807 30.3718 15.4572 30.7595 15.2616L30.981 15.3175L30.9256 15.541C30.5657 15.7366 30.178 15.9601 29.8457 16.1836H29.7627L29.735 16.2116ZM62.3809 15.066H62.2702C61.9379 14.7587 61.6056 14.5072 61.2457 14.2837L61.1903 14.0602L61.4118 14.0043C61.7718 14.2558 62.104 14.5072 62.4363 14.7587V14.9822L62.3256 15.0381L62.3809 15.066ZM31.9501 14.9822L31.8117 14.8984L31.8948 14.6749C32.2824 14.4793 32.6701 14.3117 33.0577 14.144L33.2792 14.2278L33.1962 14.4514C32.8085 14.619 32.4209 14.8146 32.0609 14.9822H31.9778H31.9501ZM34.2761 13.9484L34.1376 13.8367L34.2207 13.6411C34.6083 13.4735 35.0237 13.3338 35.4113 13.1941L35.6051 13.3058L35.4944 13.5014C35.1067 13.6411 34.6914 13.7808 34.3037 13.9484H34.2484H34.2761ZM60.2765 13.6132H60.1935C59.8335 13.3897 59.4459 13.1941 59.0859 13.0264L59.0028 12.8029L59.2243 12.7191C59.612 12.8867 59.9996 13.1103 60.3596 13.3058L60.415 13.5294L60.2765 13.6132ZM36.685 13.1103L36.5466 12.9985L36.6574 12.8029C37.045 12.6912 37.4604 12.5515 37.8757 12.4676L38.0695 12.5794L37.9588 12.775C37.5434 12.8867 37.1281 12.9985 36.7404 13.1103H36.685ZM57.9783 12.5515H57.9229C57.5353 12.3838 57.1199 12.2721 56.7323 12.1603L56.6215 11.9647L56.8153 11.853C57.2307 11.9647 57.646 12.1044 58.0337 12.2441L58.1167 12.4397L57.9783 12.5515ZM39.1494 12.4676L38.9833 12.3559L39.094 12.1603C39.5094 12.0765 39.9247 11.9927 40.3401 11.9088L40.5339 12.0485L40.3954 12.2441C39.9801 12.3279 39.5648 12.4118 39.1494 12.4956H39.1217L39.1494 12.4676ZM41.6415 11.9927L41.4753 11.853L41.6138 11.6574C42.0291 11.6015 42.4445 11.5177 42.8875 11.4618L43.0536 11.6015L42.9152 11.7691C42.4998 11.825 42.0845 11.8809 41.6692 11.9647L41.6415 11.9927ZM55.5139 11.853C55.1263 11.7691 54.7109 11.6853 54.2679 11.6294L54.1295 11.4339L54.3233 11.2942C54.7663 11.35 55.1817 11.4339 55.5693 11.5177L55.6801 11.7133L55.5139 11.853ZM44.1612 11.6574L43.9951 11.5177L44.1335 11.35C44.5489 11.2942 44.9642 11.2662 45.3519 11.2383H45.3796L45.5457 11.378L45.4072 11.5456H45.3796C44.9642 11.5736 44.5766 11.6294 44.1612 11.6574ZM53.0219 11.4618C52.6065 11.4339 52.1912 11.378 51.7758 11.378L51.6374 11.2103C51.6374 11.2103 51.6928 11.0427 51.8035 11.0706C52.2466 11.0706 52.6619 11.1265 53.0773 11.1545L53.2157 11.3221L53.0496 11.4618H53.0219ZM46.681 11.4339L46.5148 11.2942L46.6533 11.1265C47.0686 11.1265 47.5117 11.0706 47.927 11.0427L48.0931 11.1824L47.9547 11.35C47.5393 11.35 47.124 11.4059 46.681 11.4339ZM49.2284 11.3221L49.0623 11.1545L49.2284 10.9868C49.6438 10.9868 50.0868 10.9868 50.5021 10.9868L50.6683 11.1545L50.5021 11.3221C50.0868 11.3221 49.6714 11.3221 49.2284 11.3221Z" fill="white"/>
<path d="M36.9618 12.2999C36.5465 10.9588 36.2419 9.61765 36.0204 8.22065C35.965 7.85743 35.9096 7.55009 35.882 7.15893C35.8543 6.79571 35.7989 6.37662 35.8543 5.90164C35.882 5.4546 36.0204 4.8958 36.2419 4.42082C36.4634 3.94584 36.7957 3.52674 37.1557 3.19146C37.8479 2.52091 38.6232 2.15769 39.3155 1.85035C39.6754 1.71065 40.0077 1.59889 40.34 1.48713C40.6722 1.37537 41.0045 1.26361 41.3368 1.17979C42.6936 0.788629 44.0781 0.509229 45.4902 0.31365C46.9024 0.14601 48.3146 0.0621904 49.7267 0.11807C50.0867 0.11807 50.419 0.14601 50.8066 0.17395C51.1943 0.20189 51.6373 0.25777 52.1357 0.42541C52.3849 0.509229 52.6618 0.620989 52.911 0.788629C53.1602 0.956268 53.4094 1.15185 53.6033 1.34743C53.9909 1.76653 54.2124 2.18563 54.4063 2.60472C55.0708 4.11348 55.2369 5.734 55.1539 7.18687C55.0431 8.66769 54.7385 10.0367 54.3786 11.3499C54.2401 11.8808 53.6863 12.1881 53.1602 12.0484C52.6895 11.9087 52.4126 11.4617 52.4403 11.0146C52.5511 9.67353 52.6618 8.38829 52.6064 7.15893C52.5511 5.92958 52.3019 4.81198 51.8311 3.88996C51.7204 3.66644 51.6096 3.52674 51.5265 3.47086L51.4435 3.41498L51.305 3.3591C51.305 3.3591 50.9451 3.30322 50.6682 3.27528C50.3636 3.27528 50.0313 3.27528 49.7267 3.27528C48.453 3.27528 47.207 3.33116 45.9609 3.4988C44.7149 3.6385 43.4689 3.88996 42.2505 4.1973C41.946 4.28112 41.6414 4.36494 41.3368 4.44876C41.0322 4.53258 40.7276 4.6164 40.4784 4.72816C39.9523 4.92374 39.4816 5.14726 39.177 5.39872C39.0386 5.51048 38.9278 5.65018 38.8447 5.76194C38.7617 5.8737 38.7063 6.0134 38.6786 6.20898C38.6509 6.40456 38.6232 6.68396 38.6232 6.96335C38.6232 7.27069 38.6232 7.60597 38.6509 7.91331C38.7063 9.22649 38.817 10.5117 38.9555 11.8249C39.0109 12.3837 38.6232 12.8866 38.0694 12.9425C37.5987 12.9984 37.1557 12.691 37.0172 12.244L36.9618 12.2999Z" fill="#F9C978"/>
<path d="M18.3826 46.0793C19.9333 39.3737 22.453 32.9755 25.8865 27.0522C26.4126 26.1581 25.0281 25.3479 24.5297 26.242C21.0131 32.3049 18.438 38.8429 16.8597 45.6602C16.6382 46.6661 18.1611 47.0852 18.3826 46.0793Z" fill="white"/>
<path d="M28.2677 24.2024C28.5723 23.8392 28.8769 23.5039 29.1815 23.1407C29.4584 22.8333 29.5138 22.3025 29.1815 21.9951C28.8769 21.7157 28.3508 21.6599 28.0462 21.9951C27.7416 22.3584 27.4371 22.6936 27.1325 23.0569C26.8556 23.3642 26.8002 23.8951 27.1325 24.2024C27.4371 24.4818 27.9632 24.5377 28.2677 24.2024Z" fill="white"/>
<path d="M3.40247 63.1226C3.51322 62.7035 3.76243 62.3123 4.0947 62.0609C4.42698 61.8094 4.62081 61.3624 4.3716 60.9712C4.17777 60.6359 3.62398 60.4403 3.29171 60.6918C2.59947 61.1947 2.10106 61.8653 1.85185 62.7035C1.57496 63.6814 3.09788 64.1284 3.37478 63.1226H3.40247Z" fill="white"/>
<path d="M23.4222 80.5573C23.2007 77.4559 23.2007 74.3825 23.4222 71.2812C23.5052 70.2474 21.8993 70.2474 21.8439 71.2812C21.6224 74.3825 21.6224 77.4559 21.8439 80.5573C21.9269 81.591 23.5052 81.591 23.4222 80.5573Z" fill="white"/>
</svg>
