<svg width="91" height="99" viewBox="0 0 91 99" fill="none" xmlns="http://www.w3.org/2000/svg">
<path d="M78.3507 42.2795C81.8673 55.4671 84.0271 69.0459 84.8577 82.6527C85.2177 88.4362 82.1442 91.6773 76.3294 92.3478C62.7892 93.9404 49.1382 94.5271 35.515 94.136C28.4818 93.9404 11.0374 95.7286 7.1609 88.0171C5.44415 84.6085 5.97025 80.5013 6.46866 76.8691C7.02245 72.9016 7.32704 69.0459 7.74238 65.0505C8.76689 55.3833 11.5082 45.9396 14.6094 36.7474C16.5477 31.0476 18.6797 25.3199 22.1963 20.4304C26.9866 13.7807 32.8845 11.2941 40.6652 9.86913C55.1746 7.24278 66.8319 8.94711 72.3975 23.7273C74.668 29.7903 76.6616 35.993 78.323 42.2515L78.3507 42.2795Z" fill="#6A81B8"/>
<path d="M90.0081 74.5221C89.8973 70.0238 89.6481 65.4137 88.0144 61.2507C87.8206 60.7477 87.5714 60.1889 87.1283 59.8816C86.6022 59.5184 85.9377 59.5463 85.3285 59.5743C83.4733 59.686 81.5904 59.7978 79.7352 59.9095L82.1165 81.2277C84.1932 83.1276 87.7929 82.485 89.1774 79.9704C90.0634 78.3499 90.0634 76.3662 90.0081 74.4942V74.5221Z" fill="#6A81B8"/>
<path d="M89.51 65.2459C89.9807 65.1901 90.2576 64.7151 90.1468 64.268C89.8699 63.1784 89.5377 62.1167 89.1223 61.0829C88.9008 60.5241 88.6239 59.9374 88.1255 59.5741C87.544 59.183 86.7964 59.183 86.1042 59.2389C83.9997 59.3506 81.8676 59.4903 79.7632 59.6021L80.5109 66.14C83.529 65.9724 86.5195 65.6371 89.51 65.218V65.2459Z" fill="#6A81B8"/>
<path d="M0.986367 74.6618C1.09713 70.1634 1.34633 65.5534 2.98001 61.3903C3.17384 60.8874 3.42305 60.3286 3.86608 60.0212C4.39218 59.658 5.05673 59.686 5.6659 59.7139C7.5211 59.8257 9.40399 59.9374 11.2592 60.0492L8.87789 81.3674C6.80117 83.2673 3.22922 82.6247 1.81705 80.1101C0.930988 78.4896 0.930988 76.5058 0.986367 74.6338V74.6618Z" fill="#6A81B8"/>
<path d="M1.51227 65.4137C1.04154 65.3578 0.764648 64.8828 0.875406 64.4358C1.1523 63.3461 1.48458 62.2844 1.89992 61.2506C2.12144 60.6918 2.39833 60.1051 2.89674 59.7419C3.47822 59.3507 4.22584 59.3507 4.91808 59.4066C7.02248 59.5183 9.15458 59.658 11.259 59.7698L10.5114 66.3077C7.49321 66.1401 4.50274 65.8048 1.51227 65.3857V65.4137Z" fill="#6A81B8"/>
<path d="M77.0217 46.9735C80.3998 59.9656 82.4765 73.3209 83.2518 86.732C83.5841 92.4318 80.649 95.6169 75.0834 96.2875C62.097 97.8521 48.9999 98.4389 35.9581 98.0477C29.2019 97.8521 12.4774 99.6403 8.76697 92.0127C7.13329 88.6599 7.60401 84.6086 8.10242 81.0323C8.65621 77.1207 8.90542 73.3209 9.32076 69.4093C10.2899 59.8818 12.9204 50.6057 15.9109 41.5252C17.7661 35.9093 19.8151 30.2654 23.1932 25.4597C27.7897 18.9218 33.4384 16.4631 40.9145 15.0661C54.8147 12.4677 66.0013 14.1441 71.3453 28.7287C73.5328 34.7079 75.4434 40.7988 77.0217 46.9735Z" fill="#6A81B8"/>
<path d="M83.252 86.7599C82.449 73.3487 80.3723 59.9934 77.0219 47.0013C75.4159 40.8266 73.533 34.7357 71.3455 28.7566C69.878 24.7611 67.9951 21.7436 65.7245 19.5364C67.3582 24.4259 69.1304 29.2595 70.6533 34.1769C72.3147 39.5414 73.3945 45.0176 74.3637 50.5497C75.3328 56.0818 76.1635 61.7257 76.2466 67.3416C76.3573 74.3545 73.976 83.1277 67.3582 86.6202C67.026 86.7878 66.7214 86.6202 66.6106 86.3408C52.6274 88.3804 38.5611 85.8099 24.5502 85.5584C24.301 85.5584 24.1348 85.4187 24.0795 85.2232C18.3754 84.7202 12.9759 82.3174 8.35179 78.9367C8.26872 79.6352 8.18565 80.3616 8.0749 81.0601C7.57648 84.6085 7.10576 88.6877 8.73944 92.0405C12.4498 99.6681 29.202 97.88 35.9306 98.0755C49 98.4667 62.0972 97.8799 75.0559 96.3153C80.6215 95.6448 83.5566 92.4596 83.2243 86.7599H83.252Z" fill="#6A81B8"/>
<path d="M71.899 81.0043C72.2867 76.8972 72.2313 72.7341 71.7606 68.6269C71.4283 65.7491 71.8437 62.1728 68.8809 60.7199C67.9671 60.2729 66.9703 60.1611 65.9735 60.0773C63.2599 59.8538 60.5463 59.7979 57.8328 59.742C46.7569 59.5744 35.6811 59.8817 24.633 60.6361C21.7256 60.8317 20.618 61.7817 19.9535 64.7712C18.9013 69.521 18.5413 74.4105 18.8182 79.2721C18.9289 81.3117 19.2889 83.4351 20.5349 84.9718C21.7256 86.4526 23.5531 87.1232 25.3252 87.6261C29.3956 88.7996 33.6321 89.2746 37.8409 89.6098C46.7846 90.2804 55.8114 90.1407 64.6167 88.4643C66.9149 88.0173 69.4347 87.3188 70.7361 85.2791C71.5391 84.0218 71.7606 82.4851 71.899 80.9764V81.0043Z" fill="#6A81B8"/>
<path d="M71.733 68.6267C71.4561 66.3636 71.6776 63.6255 70.2931 61.8652C70.8192 66.2518 71.2069 70.6943 69.6563 74.8852C66.2781 83.9657 56.3099 85.9495 47.7261 85.9774C38.0902 85.9774 27.9835 85.0554 19.0121 81.3394C19.2336 82.6805 19.6766 83.9657 20.5073 84.9716C21.698 86.4524 23.5255 87.1229 25.2976 87.6259C29.368 88.7993 33.6045 89.2743 37.8133 89.6096C46.757 90.2802 55.7838 90.1405 64.5891 88.4641C66.8873 88.017 69.4071 87.3185 70.7085 85.2789C71.5115 84.0216 71.733 82.4849 71.8714 80.9762C72.2591 76.869 72.2037 72.7059 71.733 68.5988V68.6267Z" fill="#6A81B8"/>
<path d="M47.2272 88.52C46.978 88.52 46.7288 88.52 46.4519 88.52L46.2858 88.3523L46.4519 88.1847C46.7288 88.1847 47.0057 88.1847 47.3103 88.1847H47.7256L47.8918 88.3523L47.7256 88.52H47.3103H47.2272ZM48.9993 88.492L48.8332 88.3244L48.9993 88.1568C49.4147 88.1568 49.83 88.1568 50.2454 88.1568L50.4115 88.3244L50.2454 88.492C49.83 88.492 49.4147 88.492 48.9993 88.492ZM45.2059 88.492C44.7905 88.492 44.3752 88.492 43.9598 88.4641L43.7937 88.2965L43.9598 88.1288C44.3752 88.1288 44.7905 88.1288 45.2059 88.1568L45.372 88.3244L45.2059 88.492ZM51.5191 88.4362L51.3529 88.2965L51.4914 88.1288C51.9067 88.1288 52.3221 88.1009 52.7374 88.0729C52.8205 88.0729 52.9036 88.1288 52.9036 88.2126L52.7651 88.3803C52.3498 88.3803 51.9344 88.4082 51.5191 88.4362ZM42.7138 88.4362C42.2985 88.4362 41.8831 88.4082 41.4678 88.3803L41.3293 88.2126L41.4955 88.0729C41.9108 88.0729 42.3262 88.1009 42.7415 88.1288L42.8799 88.2965L42.7138 88.4362ZM54.0111 88.2965L53.845 88.1568L53.9835 87.9891C54.3988 87.9891 54.8141 87.9332 55.2295 87.9053L55.3956 88.045L55.2572 88.2126C54.8418 88.2406 54.4265 88.2685 54.0111 88.2965ZM40.1941 88.2965C39.7787 88.2965 39.3634 88.2406 38.948 88.2126L38.8096 88.045L38.9757 87.9053C39.3911 87.9332 39.8064 87.9612 40.2218 87.9891L40.3602 88.1568L40.1941 88.2965ZM37.6743 88.1288C37.259 88.1009 36.8436 88.0729 36.4283 88.0171L36.2898 87.8494L36.456 87.7097C36.8713 87.7377 37.2867 87.7935 37.702 87.8215L37.8404 87.9891L37.6743 88.1288ZM56.5309 88.1009L56.3647 87.9612L56.5032 87.7935C56.9185 87.7656 57.3339 87.7097 57.7492 87.6818L57.9154 87.8215L57.7769 87.9891C57.3616 88.045 56.9462 88.0729 56.5309 88.1288V88.1009ZM35.1823 87.9332C34.7669 87.9053 34.3516 87.8494 33.9362 87.7935L33.7978 87.6259L33.9639 87.4862C34.3793 87.5421 34.7946 87.57 35.2099 87.6259L35.3484 87.7935L35.1823 87.9332ZM59.0229 87.8494L58.8568 87.7097L58.9953 87.5421C59.4106 87.4862 59.8259 87.4303 60.2413 87.3744L60.4074 87.5141L60.269 87.6818C59.8536 87.7377 59.4383 87.7935 59.0229 87.8494ZM32.6625 87.6259C32.2472 87.57 31.8318 87.5141 31.4165 87.4583L31.278 87.2627L31.4719 87.123C31.8872 87.1789 32.3025 87.2347 32.7179 87.2906L32.8563 87.4583L32.6902 87.598L32.6625 87.6259ZM61.515 87.4862L61.3489 87.3465L61.4873 87.1509C61.9027 87.095 62.318 87.0112 62.7333 86.9553C62.8164 86.9553 62.8995 87.0112 62.9272 87.095L62.7887 87.2906C62.3734 87.3744 61.958 87.4303 61.5427 87.4862H61.515ZM30.1704 87.2347C29.7551 87.1509 29.3398 87.0671 28.9244 86.9833L28.786 86.7877L28.9798 86.6759C29.3951 86.7598 29.8105 86.8436 30.1981 86.8995L30.3366 87.095L30.1704 87.2347ZM64.0071 87.0671L63.8409 86.9274L63.9794 86.7318C64.4224 86.648 64.8377 86.5642 65.1977 86.4524L65.3915 86.5642L65.2808 86.7598C64.8931 86.8715 64.5055 86.9553 64.0348 87.0392H64.0071V87.0671ZM27.7061 86.7318H27.6784C27.263 86.6201 26.8477 86.5362 26.46 86.4245L26.3493 86.2289L26.5431 86.1171C26.9585 86.2289 27.3461 86.3127 27.7615 86.4245L27.8722 86.6201L27.7061 86.7318ZM66.4437 86.4245L66.3053 86.3127L66.3884 86.1171C66.8037 85.9495 67.1637 85.7819 67.4959 85.5863L67.7175 85.6422L67.6621 85.8657C67.3021 86.0613 66.9145 86.2568 66.4991 86.3965H66.4437V86.4245ZM25.2971 86.0892H25.2417C24.7987 85.9495 24.411 85.7819 24.0511 85.6142L23.968 85.3907L24.1895 85.3069C24.5495 85.4745 24.9094 85.6142 25.3525 85.7539L25.4632 85.9495L25.3248 86.0613L25.2971 86.0892ZM68.5758 85.1392L68.4651 85.0834V84.8598C68.742 84.6084 68.9635 84.3569 69.1573 84.0775L69.2681 83.9378L69.4896 83.8819L69.545 84.1055L69.4342 84.2731C69.2404 84.5804 68.9912 84.8598 68.7143 85.1113H68.6035L68.5758 85.1392ZM23.0265 85.0275H22.9435C22.5835 84.7481 22.2512 84.4687 21.9467 84.1613V83.9378H22.1682C22.4451 84.2172 22.7496 84.4966 23.1096 84.7201L23.165 84.9437L23.0265 85.0275ZM21.3098 83.1834L21.1713 83.0996C20.9775 82.7364 20.8114 82.3452 20.6452 81.8982L20.756 81.7026L20.9498 81.8144C21.0883 82.2335 21.2544 82.5967 21.4482 82.9599L21.3929 83.1834H21.3098ZM69.9326 83.0158H69.8773L69.7665 82.7923C69.8772 82.4291 69.988 82.0379 70.0711 81.5909L70.2649 81.4512L70.4034 81.6468C70.3203 82.1217 70.2095 82.5129 70.0988 82.9041L69.9603 83.0158H69.9326ZM20.5068 80.7806L20.3407 80.6409C20.2576 80.2498 20.2022 79.8307 20.1745 79.3557L20.313 79.188L20.4791 79.3277C20.5068 79.7748 20.5622 80.1939 20.6452 80.585L20.5068 80.7806ZM70.4034 80.5292L70.2649 80.3615C70.3203 79.9145 70.348 79.4954 70.3757 79.0763L70.5418 78.9366L70.6802 79.1042C70.6526 79.5233 70.5972 79.9424 70.5695 80.3615L70.4034 80.5292ZM20.2576 78.266L20.0915 78.1263C20.0915 77.7072 20.0638 77.2881 20.0361 76.8411L20.2022 76.6734L20.3683 76.8411C20.3683 77.2602 20.3683 77.6793 20.396 78.0984L20.2576 78.266ZM70.5972 77.9587L70.4587 77.791C70.4587 77.3719 70.4864 76.9528 70.5141 76.5337L70.6802 76.3661L70.8464 76.5337C70.8464 76.9528 70.8464 77.3719 70.791 77.819L70.6249 77.9587H70.5972ZM20.2022 75.7235L20.0361 75.5558C20.0361 75.1367 20.0361 74.7176 20.0638 74.2706L20.2299 74.103L20.396 74.2706C20.396 74.6897 20.396 75.1088 20.3683 75.5279L20.2022 75.6955V75.7235ZM70.6526 75.4441L70.4864 75.2764C70.4864 74.8573 70.4864 74.4382 70.4864 74.0191L70.6526 73.8515C70.6526 73.8515 70.8187 73.9074 70.8187 74.0191C70.8187 74.4382 70.8187 74.8573 70.8187 75.3044L70.6526 75.472V75.4441ZM20.313 73.1809L20.1745 73.0133C20.2022 72.5942 20.2299 72.1751 20.2853 71.756L20.4514 71.6163L20.5899 71.7839C20.5622 72.203 20.5068 72.6222 20.4791 73.0412L20.313 73.1809ZM70.5695 72.9016L70.4034 72.7618C70.4034 72.3427 70.348 71.9237 70.3203 71.5046L70.4587 71.3369L70.6249 71.4766C70.6526 71.8957 70.6802 72.3148 70.7079 72.7339L70.5695 72.9016ZM20.5345 70.6664L20.396 70.4987C20.4514 70.0796 20.5068 69.6605 20.5622 69.2414L20.756 69.1017L20.8944 69.2973C20.8391 69.7164 20.7837 70.1355 20.7283 70.5546L20.5622 70.6943L20.5345 70.6664ZM70.348 70.359L70.1818 70.2193C70.1541 69.912 70.1265 69.6326 70.0711 69.3252C70.0711 69.2135 70.0434 69.0738 70.0157 68.9341L70.1541 68.7664L70.3203 68.9061C70.3203 68.9061 70.3203 69.1576 70.3757 69.2694C70.4034 69.5767 70.4587 69.8561 70.4864 70.1634L70.348 70.3311V70.359ZM20.8944 68.1518L20.756 67.9562C20.8391 67.5371 20.9221 67.118 21.0052 66.6989L21.199 66.5871L21.3098 66.7827C21.2267 67.2018 21.1437 67.6209 21.0606 68.0121L20.8944 68.1518ZM70.1265 67.8444L69.9603 67.7047C69.9326 67.2856 69.9049 66.8665 69.8496 66.4474L69.988 66.2798L70.1541 66.4195C70.2095 66.8386 70.2372 67.2856 70.2649 67.7047L70.1265 67.8724V67.8444ZM21.4482 65.6651H21.4205L21.3098 65.4695C21.4482 64.9945 21.5867 64.6034 21.7528 64.2402L21.9743 64.1563L22.0574 64.3799C21.8913 64.7151 21.7528 65.0784 21.6421 65.5533L21.4759 65.6651H21.4482ZM69.7942 65.3298L69.628 65.2181C69.5173 64.771 69.3788 64.4078 69.2127 64.0725L69.2681 63.849L69.4896 63.9049C69.6834 64.2681 69.8219 64.6593 69.9326 65.1342L69.8219 65.3298H69.7942ZM22.5835 63.4578L22.4728 63.402V63.1784C22.7773 62.8711 23.1373 62.6476 23.5803 62.48L23.7742 62.5638L23.6911 62.7594C23.3034 62.927 22.9712 63.1226 22.6943 63.402L22.5835 63.4578ZM68.6035 63.1226L68.4928 63.0667C68.2159 62.8152 67.8836 62.5917 67.4959 62.3961L67.4129 62.1726L67.6344 62.0888C68.0497 62.2844 68.4097 62.5079 68.7143 62.8152V63.0388L68.6035 63.0946V63.1226ZM24.8817 62.48L24.7156 62.3403L24.8541 62.1447C25.1309 62.1167 25.4355 62.0609 25.7678 62.0609H26.1278L26.2939 62.2005L26.1555 62.3682H25.8232C25.4909 62.4241 25.1863 62.452 24.9371 62.48H24.8817ZM27.3738 62.2844L27.2077 62.1447L27.3461 61.977C27.7615 61.977 28.1768 61.9212 28.5921 61.8932L28.7583 62.0329L28.6198 62.2005C28.2045 62.2005 27.7891 62.2564 27.3738 62.2844ZM29.8935 62.1447L29.7274 62.005L29.8659 61.8373C30.2812 61.8373 30.6965 61.7815 31.1119 61.7815C31.2226 61.7815 31.278 61.8373 31.278 61.9212L31.1396 62.0888C30.7242 62.0888 30.3089 62.1447 29.8935 62.1447ZM66.333 62.0609H66.3053C65.8623 61.977 65.4192 61.9212 65.087 61.8932L64.9485 61.7256L65.1146 61.5859C65.4746 61.6138 65.9176 61.6697 66.3884 61.7535L66.4991 61.9491L66.333 62.0888V62.0609ZM32.4133 62.005L32.2472 61.8653L32.3856 61.6976C32.801 61.6976 33.2163 61.6697 33.6316 61.6418C33.7424 61.6418 33.7978 61.6976 33.7978 61.7815L33.6593 61.9491C33.244 61.9491 32.8286 61.977 32.4133 62.005ZM34.9054 61.8932L34.7392 61.7535L34.8777 61.5859C35.293 61.5859 35.7084 61.5579 36.1237 61.53C36.2345 61.53 36.2898 61.5859 36.2898 61.6697L36.1237 61.8373C35.7084 61.8373 35.293 61.8653 34.8777 61.8932H34.9054ZM63.8409 61.8094C63.4256 61.7815 63.0102 61.7535 62.5949 61.7256L62.4565 61.5579L62.6226 61.4182C63.0379 61.4182 63.4533 61.4741 63.8686 61.5021L64.0071 61.6697L63.8409 61.8094ZM37.4251 61.8094L37.259 61.6418L37.4251 61.4741C37.8404 61.4741 38.2558 61.4462 38.6711 61.4182L38.8373 61.5859L38.6711 61.7535C38.2558 61.7535 37.8404 61.7535 37.4251 61.8094ZM39.9449 61.7256L39.7787 61.5579L39.9449 61.3903C40.3602 61.3903 40.7755 61.3903 41.1909 61.3624L41.357 61.53L41.1909 61.6976C40.7755 61.6976 40.3602 61.6976 39.9449 61.7256ZM61.3212 61.6697C60.9058 61.6697 60.4905 61.6418 60.0751 61.6418L59.909 61.4741L60.0751 61.3065C60.4905 61.3065 60.9058 61.3065 61.3212 61.3344L61.4873 61.5021L61.3212 61.6697ZM42.4646 61.6418L42.2985 61.4741L42.4646 61.3065C42.8799 61.3065 43.2953 61.3065 43.7106 61.3065L43.8768 61.4741L43.7106 61.6418C43.2953 61.6418 42.8799 61.6418 42.4646 61.6418ZM58.8291 61.6138C58.4138 61.6138 57.9984 61.6138 57.5831 61.6138L57.417 61.4462L57.5831 61.2785C57.9984 61.2785 58.4138 61.2785 58.8291 61.2785L58.9953 61.4462L58.8291 61.6138ZM44.9844 61.5859L44.8182 61.4182L44.9844 61.2506C45.3997 61.2506 45.815 61.2506 46.2304 61.2506L46.3965 61.4182L46.2304 61.5859C45.815 61.5859 45.3997 61.5859 44.9844 61.5859ZM56.3094 61.5579C55.894 61.5579 55.4787 61.5579 55.0633 61.5579L54.8972 61.3903L55.0633 61.2227C55.4787 61.2227 55.894 61.2227 56.3094 61.2227L56.4755 61.3903L56.3094 61.5579ZM47.5041 61.5579L47.338 61.3903L47.5041 61.2227C47.9194 61.2227 48.3348 61.2227 48.7501 61.2227L48.9163 61.3903L48.7501 61.5579C48.3348 61.5579 47.9194 61.5579 47.5041 61.5579ZM53.7896 61.5579C53.3743 61.5579 52.9589 61.5579 52.5436 61.5579L52.3775 61.3903L52.5436 61.2227C52.9589 61.2227 53.3743 61.2227 53.7896 61.2227L53.9558 61.3903L53.7896 61.5579ZM50.0238 61.5579L49.8577 61.3903L50.0238 61.2227C50.4392 61.2227 50.8545 61.2227 51.2699 61.2227L51.436 61.3903L51.2699 61.5579C50.8545 61.5579 50.4392 61.5579 50.0238 61.5579Z" fill="#6A81B8"/>
<path d="M53.0424 68.7944C42.7142 68.7944 32.5522 68.5709 21.9194 68.0959V67.7886C38.0347 68.4871 53.0147 68.6547 69.13 68.2915V68.5988C63.6752 68.7106 58.3311 68.7665 53.0424 68.7665V68.7944Z" fill="#6A81B8"/>
<path d="M65.5307 72.0914C65.6415 72.9016 66.0292 73.5163 66.9706 73.4325C67.5521 73.3766 68.4382 73.209 68.4935 72.5105C68.5766 71.3929 67.9951 70.2194 67.3859 69.3253C66.8875 68.5989 66.3337 67.9283 65.9738 68.99C65.7246 69.6885 65.3923 71.0576 65.5307 72.0914Z" fill="#6A81B8"/>
<path d="M62.6507 35.3782C64.2013 34.512 63.869 31.1313 62.3184 30.4049C61.7092 30.1255 61.0447 30.1255 60.3801 30.1534C50.218 30.2931 40.0283 30.4608 29.8662 30.6005C29.1463 30.6005 28.3987 30.6284 27.7895 31.0196C26.6542 31.7181 26.9034 33.9812 27.8172 34.7635C28.4264 35.2664 29.2571 35.2944 30.0324 35.2944C40.4436 35.3782 50.8272 35.4899 61.2385 35.5738C61.7092 35.5738 62.2353 35.5738 62.6507 35.3502V35.3782Z" fill="#6A81B8"/>
<path d="M14.4707 41.581H14.4153L14.3322 41.3575C14.4707 40.9664 14.6091 40.5473 14.7752 40.1561L14.9691 40.0723L15.0521 40.2679C14.9137 40.659 14.7752 41.0781 14.6091 41.4693L14.4707 41.581ZM15.3567 39.1782H15.3013L15.2183 38.9547C15.3567 38.5635 15.5229 38.1444 15.6613 37.7533L15.8551 37.6695L15.9382 37.865C15.7998 38.2562 15.6336 38.6753 15.4952 39.0665L15.3567 39.1782ZM75.4984 36.9989L75.36 36.8871C75.2492 36.468 75.1108 36.0769 75 35.6578L75.1108 35.4622L75.3046 35.574C75.4154 35.9931 75.5538 36.3842 75.6646 36.8033L75.5538 36.9989H75.4984ZM16.2428 36.8033H16.1874L16.1043 36.5798C16.2705 36.1886 16.4089 35.7695 16.5751 35.3784L16.7689 35.2946L16.852 35.4901C16.6858 35.8813 16.5474 36.2725 16.3812 36.6916L16.2428 36.8033ZM74.7508 34.5402L74.6124 34.4284C74.4739 34.0093 74.3632 33.6182 74.2247 33.1991L74.3355 33.0035L74.5293 33.1152C74.6677 33.5343 74.7785 33.9255 74.9169 34.3446L74.8062 34.5402H74.7508ZM17.1842 34.4005H17.1289L17.0458 34.177C17.2119 33.7858 17.3781 33.3946 17.5442 33.0035L17.7657 32.9197L17.8488 33.1432C17.6826 33.5343 17.5165 33.9255 17.3504 34.3167L17.2119 34.4284L17.1842 34.4005ZM73.9478 32.1094L73.8094 31.9976C73.6709 31.6065 73.5325 31.1874 73.394 30.7962L73.4771 30.6007L73.6709 30.6845C73.8094 31.0756 73.9478 31.4947 74.0863 31.8859L73.9755 32.0815H73.9201L73.9478 32.1094ZM18.1811 32.0535H18.1257L18.0426 31.83C18.2088 31.4389 18.4026 31.0477 18.5687 30.6565L18.7902 30.5727L18.8733 30.7962C18.6795 31.1874 18.5133 31.5786 18.3472 31.9697L18.2088 32.0535H18.1811ZM19.2886 29.7345H19.2056L19.1225 29.511C19.3163 29.1198 19.5102 28.7566 19.704 28.3655L19.9255 28.3096L19.9809 28.5331C19.7871 28.8963 19.5932 29.2875 19.3994 29.6786L19.261 29.7625L19.2886 29.7345ZM73.0894 29.7066L72.951 29.5948C72.8125 29.2037 72.6464 28.8125 72.4803 28.4213L72.5633 28.2258L72.7849 28.3096C72.951 28.7007 73.0894 29.0919 73.2556 29.511L73.1725 29.7066H73.1171H73.0894ZM20.4793 27.4714H20.3962L20.3408 27.2199C20.5624 26.8567 20.7562 26.4655 20.9777 26.1023L21.1992 26.0464L21.2546 26.27C21.0331 26.6332 20.8393 26.9964 20.6177 27.3876L20.4793 27.4714ZM72.1203 27.3317L71.9818 27.2479C71.8157 26.8567 71.6496 26.4655 71.4558 26.0744L71.5388 25.8509L71.7603 25.9347C71.9542 26.3258 72.1203 26.717 72.2864 27.1082L72.2034 27.3317H72.148H72.1203ZM21.7807 25.2641H21.6976L21.6423 25.0127C21.8638 24.6494 22.113 24.2862 22.3622 23.9509H22.5837L22.6114 24.1465C22.3622 24.4818 22.1407 24.845 21.9192 25.2082L21.7807 25.2921V25.2641ZM71.0404 25.0406L70.902 24.9568C70.7081 24.5656 70.5143 24.2024 70.3205 23.8392L70.3759 23.6157L70.5974 23.6715C70.7912 24.0348 71.0127 24.4259 71.2065 24.8171L71.1235 25.0406H71.0404ZM23.2206 23.1686H23.1375L23.1098 22.9172C23.359 22.5819 23.6359 22.2187 23.8851 21.9113H24.1066V22.1069C23.8574 22.4422 23.5805 22.7775 23.3313 23.1127L23.1929 23.1686H23.2206ZM69.8221 22.7775L69.6836 22.6936C69.4621 22.3304 69.2406 21.9672 69.0191 21.604L69.0745 21.3805L69.296 21.4364C69.5175 21.7996 69.739 22.1628 69.9605 22.526L69.9051 22.7495H69.8221V22.7775ZM24.8266 21.1849H24.7158V20.9055C24.9927 20.5702 25.2973 20.2629 25.5742 19.9555H25.7957V20.1791C25.5188 20.4864 25.2142 20.7937 24.9373 21.1011L24.8266 21.157V21.1849ZM68.4099 20.654L68.2715 20.5982C68.0222 20.2349 67.773 19.8997 67.5238 19.5644V19.3409H67.773C68.0222 19.6761 68.2991 20.0114 68.5484 20.3746V20.5982L68.4099 20.6261V20.654ZM26.571 19.3409L26.4602 19.285V19.0615C26.7648 18.7541 27.0971 18.4747 27.4017 18.1953H27.6232V18.4468C27.3186 18.7262 26.9863 19.0056 26.6818 19.285L26.571 19.3409ZM66.8593 18.6144L66.7485 18.5585C66.4716 18.2233 66.1947 17.9159 65.9178 17.6086V17.3851H66.1394C66.4163 17.6924 66.7208 18.0277 66.9977 18.335V18.5585L66.887 18.5865L66.8593 18.6144ZM28.5093 17.6645L28.3708 17.6086V17.3851C28.5093 17.3012 28.6477 17.1895 28.7585 17.1057C28.98 16.938 29.2015 16.7704 29.423 16.6307H29.6445L29.6168 16.8821C29.3953 17.0498 29.1738 17.1895 28.9523 17.3571C28.8415 17.4409 28.7031 17.5527 28.5923 17.6365H28.4816L28.5093 17.6645ZM65.1148 16.7424L65.0041 16.6866C64.6995 16.4072 64.3949 16.0998 64.0903 15.8204V15.5969H64.3118C64.6164 15.8763 64.9487 16.1836 65.2533 16.463V16.6866L65.1425 16.7424H65.1148ZM30.586 16.2116L30.4475 16.1278L30.5029 15.9042C30.8629 15.6807 31.2228 15.4572 31.6105 15.2616L31.832 15.3175L31.7766 15.541C31.4167 15.7366 31.029 15.9601 30.6967 16.1836H30.6137L30.586 16.2116ZM63.232 15.066H63.1212C62.7889 14.7587 62.4566 14.5072 62.0967 14.2837L62.0413 14.0602L62.2628 14.0043C62.6228 14.2558 62.9551 14.5072 63.2873 14.7587V14.9822L63.1766 15.0381L63.232 15.066ZM32.8011 14.9822L32.6627 14.8984L32.7458 14.6749C33.1334 14.4793 33.5211 14.3117 33.9087 14.144L34.1302 14.2278L34.0472 14.4514C33.6595 14.619 33.2719 14.8146 32.9119 14.9822H32.8288H32.8011ZM35.1271 13.9484L34.9886 13.8367L35.0717 13.6411C35.4593 13.4735 35.8747 13.3338 36.2623 13.1941L36.4562 13.3058L36.3454 13.5014C35.9578 13.6411 35.5424 13.7808 35.1548 13.9484H35.0994H35.1271ZM61.1276 13.6132H61.0445C60.6845 13.3897 60.2969 13.1941 59.9369 13.0264L59.8538 12.8029L60.0753 12.7191C60.463 12.8867 60.8507 13.1103 61.2106 13.3058L61.266 13.5294L61.1276 13.6132ZM37.5361 13.1103L37.3976 12.9985L37.5084 12.8029C37.896 12.6912 38.3114 12.5515 38.7267 12.4676L38.9205 12.5794L38.8098 12.775C38.3944 12.8867 37.9791 12.9985 37.5914 13.1103H37.5361ZM58.8293 12.5515H58.7739C58.3863 12.3838 57.9709 12.2721 57.5833 12.1603L57.4725 11.9647L57.6664 11.853C58.0817 11.9647 58.497 12.1044 58.8847 12.2441L58.9678 12.4397L58.8293 12.5515ZM40.0004 12.4676L39.8343 12.3559L39.945 12.1603C40.3604 12.0765 40.7757 11.9927 41.1911 11.9088L41.3849 12.0485L41.2465 12.2441C40.8311 12.3279 40.4158 12.4118 40.0004 12.4956H39.9727L40.0004 12.4676ZM42.4925 11.9927L42.3263 11.853L42.4648 11.6574C42.8801 11.6015 43.2955 11.5177 43.7385 11.4618L43.9047 11.6015L43.7662 11.7691C43.3509 11.825 42.9355 11.8809 42.5202 11.9647L42.4925 11.9927ZM56.3649 11.853C55.9773 11.7691 55.562 11.6853 55.1189 11.6294L54.9805 11.4339L55.1743 11.2942C55.6173 11.35 56.0327 11.4339 56.4203 11.5177L56.5311 11.7133L56.3649 11.853ZM45.0122 11.6574L44.8461 11.5177L44.9845 11.35C45.3999 11.2942 45.8152 11.2662 46.2029 11.2383H46.2306L46.3967 11.378L46.2583 11.5456H46.2306C45.8152 11.5736 45.4276 11.6294 45.0122 11.6574ZM53.8729 11.4618C53.4575 11.4339 53.0422 11.378 52.6269 11.378L52.4884 11.2103C52.4884 11.2103 52.5438 11.0427 52.6545 11.0706C53.0976 11.0706 53.5129 11.1265 53.9283 11.1545L54.0667 11.3221L53.9006 11.4618H53.8729ZM47.532 11.4339L47.3658 11.2942L47.5043 11.1265C47.9196 11.1265 48.3627 11.0706 48.778 11.0427L48.9442 11.1824L48.8057 11.35C48.3904 11.35 47.975 11.4059 47.532 11.4339ZM50.0794 11.3221L49.9133 11.1545L50.0794 10.9868C50.4948 10.9868 50.9378 10.9868 51.3531 10.9868L51.5193 11.1545L51.3531 11.3221C50.9378 11.3221 50.5225 11.3221 50.0794 11.3221Z" fill="#6A81B8"/>
<path d="M37.8129 12.2999C37.3976 10.9588 37.093 9.61765 36.8715 8.22065C36.8161 7.85743 36.7607 7.55009 36.733 7.15893C36.7053 6.79571 36.65 6.37662 36.7053 5.90164C36.733 5.4546 36.8715 4.8958 37.093 4.42082C37.3145 3.94584 37.6468 3.52674 38.0067 3.19146C38.699 2.52091 39.4743 2.15769 40.1665 1.85035C40.5265 1.71065 40.8588 1.59889 41.191 1.48713C41.5233 1.37537 41.8556 1.26361 42.1879 1.17979C43.5447 0.788629 44.9291 0.509229 46.3413 0.31365C47.7535 0.14601 49.1656 0.0621904 50.5778 0.11807C50.9378 0.11807 51.27 0.14601 51.6577 0.17395C52.0453 0.20189 52.4884 0.25777 52.9868 0.42541C53.236 0.509229 53.5129 0.620989 53.7621 0.788629C54.0113 0.956268 54.2605 1.15185 54.4543 1.34743C54.842 1.76653 55.0635 2.18563 55.2573 2.60472C55.9219 4.11348 56.088 5.734 56.005 7.18687C55.8942 8.66769 55.5896 10.0367 55.2296 11.3499C55.0912 11.8808 54.5374 12.1881 54.0113 12.0484C53.5406 11.9087 53.2637 11.4617 53.2914 11.0146C53.4021 9.67353 53.5129 8.38829 53.4575 7.15893C53.4021 5.92958 53.1529 4.81198 52.6822 3.88996C52.5714 3.66644 52.4607 3.52674 52.3776 3.47086L52.2946 3.41498L52.1561 3.3591C52.1561 3.3591 51.7961 3.30322 51.5192 3.27528C51.2147 3.27528 50.8824 3.27528 50.5778 3.27528C49.3041 3.27528 48.0581 3.33116 46.812 3.4988C45.566 3.6385 44.32 3.88996 43.1016 4.1973C42.797 4.28112 42.4925 4.36494 42.1879 4.44876C41.8833 4.53258 41.5787 4.6164 41.3295 4.72816C40.8034 4.92374 40.3327 5.14726 40.0281 5.39872C39.8896 5.51048 39.7789 5.65018 39.6958 5.76194C39.6127 5.8737 39.5574 6.0134 39.5297 6.20898C39.502 6.40456 39.4743 6.68396 39.4743 6.96335C39.4743 7.27069 39.4743 7.60597 39.502 7.91331C39.5574 9.22649 39.6681 10.5117 39.8066 11.8249C39.8619 12.3837 39.4743 12.8866 38.9205 12.9425C38.4498 12.9984 38.0067 12.691 37.8683 12.244L37.8129 12.2999Z" fill="#6A81B8"/>
<path d="M19.2337 46.0793C20.7843 39.3737 23.3041 32.9755 26.7376 27.0522C27.2637 26.1581 25.8792 25.3479 25.3808 26.242C21.8642 32.3049 19.2891 38.8429 17.7108 45.6602C17.4893 46.6661 19.0122 47.0852 19.2337 46.0793Z" fill="#6A81B8"/>
<path d="M29.1188 24.2024C29.4234 23.8392 29.728 23.5039 30.0326 23.1407C30.3095 22.8333 30.3648 22.3025 30.0326 21.9951C29.728 21.7157 29.2019 21.6599 28.8973 21.9951C28.5927 22.3584 28.2881 22.6936 27.9835 23.0569C27.7067 23.3642 27.6513 23.8951 27.9835 24.2024C28.2881 24.4818 28.8142 24.5377 29.1188 24.2024Z" fill="#6A81B8"/>
<path d="M4.25354 63.1226C4.3643 62.7035 4.6135 62.3123 4.94578 62.0609C5.27805 61.8094 5.47188 61.3624 5.22267 60.9712C5.02885 60.6359 4.47506 60.4403 4.14278 60.6918C3.45054 61.1947 2.95213 61.8653 2.70293 62.7035C2.42603 63.6814 3.94896 64.1284 4.22585 63.1226H4.25354Z" fill="#6A81B8"/>
<path d="M24.2732 80.5573C24.0517 77.4559 24.0517 74.3825 24.2732 71.2812C24.3563 70.2474 22.7503 70.2474 22.6949 71.2812C22.4734 74.3825 22.4734 77.4559 22.6949 80.5573C22.778 81.591 24.3563 81.591 24.2732 80.5573Z" fill="#6A81B8"/>
</svg>
