<svg width="844" height="390" viewBox="0 0 844 390" fill="none" xmlns="http://www.w3.org/2000/svg">
<path d="M991.236 -78.1538V567.154H-136.236V-78.1538H991.236Z" fill="#A9C4F8"/>
<g style="mix-blend-mode:multiply" opacity="0.15">
<path d="M237.229 34.1939C240.189 78.148 252.748 122.772 240.394 165.652C223.775 223.375 161.744 271.466 96.2346 294.606C54.9768 309.177 12.6279 325.949 -16.4749 354.697C-42.0297 379.933 -54.5506 412.586 -55.4015 444.955C-56.0239 468.362 -52.8722 493.105 -45.2934 516.287C-44.8901 517.533 -44.4658 518.767 -44.0252 520.001C-41.8199 526.333 -39.2602 532.535 -36.3508 538.548C-33.8355 543.748 -30.9984 548.845 -27.7067 553.754C-26.4595 555.612 -19.643 567.156 -17.0321 567.156H-136.236V204.711C-127.492 196.686 -117.778 189.399 -106.942 183.186C-60.2738 156.42 1.68523 152.413 49.0042 126.413C98.743 99.088 125.149 51.5026 141.95 4.78352C151.801 -22.6413 159.308 -50.8268 169.484 -78.1516H278.044C242.973 -50.94 234.522 -6.0007 237.226 34.1957L237.229 34.1939Z" fill="#AC9FDE" style="mix-blend-mode:multiply"/>
</g>
<g style="mix-blend-mode:multiply" opacity="0.15">
<path d="M991.236 242.806V567.154H517.907C532.598 557.065 550.117 549.172 568.07 543.931C610.917 531.414 657.351 530.163 702.068 523.142C746.792 516.121 793.109 501.36 818.055 470.506C848.067 433.395 839.043 384.379 854.445 341.807C872.552 291.745 927.93 251.994 991.236 242.806Z" fill="#AC9FDE" style="mix-blend-mode:multiply"/>
</g>
<g style="mix-blend-mode:multiply" opacity="0.15">
<path d="M991.236 -78.1516V95.8833C967.761 97.1176 944.454 99.5504 921.72 104.371C881.557 112.886 842.864 129.525 817.342 156.036C772.935 202.163 775.921 268.072 740.127 318.87C699.261 376.872 613.689 405.684 531.484 411.123C481.19 414.448 427.726 409.845 386.24 386.593C356.729 370.054 335.093 344.542 326.631 316.307C314.485 275.788 329.293 232.747 353.521 195.955C377.752 159.166 411.016 126.871 439.52 92.1445C468.019 57.4175 492.326 18.6705 494.993 -22.9678C496.185 -41.6034 492.149 -60.8882 483.179 -78.1516H726.268C726.609 -76.9022 726.928 -75.649 727.224 -74.3883C735.819 -37.64 723.566 1.96385 694.592 31.0986C659.941 65.9426 606.008 83.8308 563.305 112.22C540.196 127.583 520.327 146.128 504.81 166.817C488.053 189.157 476.292 216.756 487.589 241.24C496.795 261.187 519.818 275.137 544.31 282.907C560.552 288.059 578.159 291.002 595.497 289.429C643.713 285.051 677.161 247.846 693.734 210.928C710.302 174.008 716.797 133.626 742.284 100.203C769.512 64.4875 815.046 41.0638 852.196 11.7912C879.94 -10.0679 903.231 -35.4224 931.257 -57.0437C941.155 -64.6779 951.855 -71.8913 963.252 -78.1516H991.236Z" fill="#AC9FDE" style="mix-blend-mode:multiply"/>
</g>
<path d="M-13.0659 430.663L-7.08843 436.653L-7.08843 434.327C-5.9395 434.578 -4.74575 434.574 -3.50753 434.249C-0.491414 433.457 1.73777 430.913 3.36561 428.915C3.97071 428.172 4.5616 427.417 5.15159 426.663C8.22819 422.733 11.2808 418.833 16.2017 416.831L16.2027 416.831C17.9874 416.105 19.0602 416.377 20.1068 417.054C21.4724 417.938 22.8099 419.557 24.5612 421.919C24.7446 422.166 24.9327 422.422 25.1255 422.684C26.6116 424.705 28.3778 427.106 30.4509 429.008C32.8985 431.254 36.0566 433.087 40.1814 433.087C47.9302 433.087 51.8809 427.675 54.6946 423.821C54.7713 423.716 54.8472 423.612 54.9224 423.509C58.0517 419.232 60.0578 416.798 64.0138 416.798C67.9698 416.798 69.9758 419.232 73.1052 423.509C73.1803 423.612 73.2562 423.716 73.333 423.821C76.1467 427.675 80.0974 433.087 87.8461 433.087C95.5948 433.087 99.5455 427.675 102.359 423.821C102.436 423.716 102.512 423.612 102.587 423.509C105.716 419.232 107.722 416.798 111.678 416.798C115.634 416.798 117.641 419.232 120.77 423.509C120.845 423.612 120.921 423.716 120.998 423.821C123.811 427.675 127.762 433.087 135.511 433.087C143.26 433.087 147.21 427.675 150.024 423.821C150.101 423.716 150.177 423.612 150.252 423.509C153.381 419.232 155.387 416.798 159.343 416.798C163.3 416.798 165.308 419.233 168.438 423.51C168.513 423.613 168.59 423.718 168.667 423.824C171.481 427.677 175.432 433.087 183.175 433.087C190.92 433.087 194.869 427.676 197.681 423.823C197.758 423.717 197.834 423.612 197.91 423.509C201.038 419.232 203.044 416.798 207 416.798C210.956 416.798 212.962 419.232 216.091 423.509C216.167 423.612 216.242 423.716 216.319 423.821C219.133 427.675 223.084 433.087 230.832 433.087C238.581 433.087 242.532 427.675 245.345 423.821C245.422 423.716 245.498 423.612 245.573 423.509C248.703 419.232 250.709 416.798 254.665 416.798C258.621 416.798 260.627 419.232 263.756 423.509C263.831 423.612 263.907 423.716 263.984 423.821C266.798 427.675 270.748 433.087 278.497 433.087C286.246 433.087 290.196 427.675 293.01 423.821C293.087 423.716 293.163 423.612 293.238 423.509C296.367 419.232 298.373 416.798 302.329 416.798C306.285 416.798 308.291 419.232 311.421 423.509C311.496 423.612 311.572 423.716 311.649 423.821C314.462 427.675 318.413 433.087 326.162 433.087C333.91 433.087 337.861 427.675 340.675 423.821C340.752 423.716 340.828 423.612 340.903 423.509C344.032 419.232 346.038 416.798 349.994 416.798C353.95 416.798 355.956 419.232 359.085 423.509C359.161 423.612 359.237 423.716 359.313 423.821C362.127 427.675 366.078 433.087 373.826 433.087C381.575 433.087 385.526 427.675 388.34 423.821C388.416 423.716 388.492 423.612 388.567 423.509C391.697 419.232 393.703 416.798 397.659 416.798C399.342 416.798 401.075 417.657 403.115 419.568C404.766 421.115 406.261 422.994 407.879 425.027C408.302 425.558 408.733 426.1 409.177 426.649C411.095 429.019 413.525 431.886 416.456 433.214C418.075 433.948 419.932 434.263 421.918 433.78C423.84 433.313 425.542 432.181 427.068 430.649C429.809 427.898 430.158 424.551 429.486 421.484C428.865 418.651 427.316 415.726 425.841 413.1C425.49 412.475 425.139 411.859 424.79 411.249C423.581 409.13 422.41 407.08 421.438 404.956C420.2 402.25 419.466 399.79 419.466 397.522C419.466 392.972 421.367 390.846 424.056 387.93L424.13 387.85C426.945 384.798 430.5 380.943 430.5 373.601C430.5 366.258 426.943 362.403 424.127 359.351L424.056 359.274C421.366 356.358 419.466 354.235 419.466 349.692C419.466 345.149 421.366 343.027 424.056 340.111L424.127 340.034C426.943 336.982 430.5 333.127 430.5 325.783C430.5 318.44 426.943 314.585 424.127 311.533L424.056 311.455C421.366 308.54 419.466 306.417 419.466 301.874C419.466 297.331 421.366 295.209 424.056 292.293L424.127 292.215C426.943 289.163 430.5 285.308 430.5 277.965C430.5 270.623 426.944 266.77 424.128 263.72L424.055 263.641C421.367 260.728 419.466 258.605 419.466 254.056C419.466 249.506 421.367 247.384 424.055 244.471L424.128 244.392C426.944 241.342 430.5 237.489 430.5 230.147C430.5 222.804 426.943 218.948 424.127 215.896L424.056 215.819C421.366 212.903 419.466 210.781 419.466 206.238C419.466 201.695 421.366 199.572 424.056 196.657L424.127 196.579C426.943 193.527 430.5 189.672 430.5 182.329C430.5 174.985 426.943 171.136 424.127 168.088L424.054 168.009C421.366 165.1 419.466 162.98 419.466 158.431C419.466 153.882 421.367 151.759 424.055 148.846L424.128 148.767C426.944 145.717 430.5 141.865 430.5 134.522C430.5 127.179 426.943 123.324 424.127 120.272L424.056 120.195C421.366 117.279 419.466 115.156 419.466 110.613C419.466 106.07 421.366 103.948 424.056 101.032L424.127 100.955C426.943 97.9027 430.5 94.0476 430.5 86.7042C430.5 79.3608 426.943 75.5057 424.127 72.4538L424.056 72.3765C421.366 69.4606 419.467 67.3384 419.467 62.7951C419.467 58.2519 421.366 56.1297 424.056 53.2138L424.127 53.1365C426.943 50.0846 430.5 46.2295 430.5 38.8861C430.5 31.5427 426.943 27.6876 424.127 24.6356L424.056 24.5584C421.366 21.6425 419.467 19.5202 419.467 14.977C419.467 12.7119 420.199 10.2544 421.437 7.55015C422.408 5.4289 423.576 3.38123 424.784 1.2642C425.133 0.652655 425.486 0.0353259 425.838 -0.591236C427.311 -3.21645 428.86 -6.14172 429.48 -8.97495C430.151 -12.0412 429.801 -15.3875 427.06 -18.1385L427.06 -18.1385L427.059 -18.1395C425.532 -19.6713 423.83 -20.8023 421.908 -21.2694C419.922 -21.752 418.065 -21.4374 416.445 -20.7033C413.514 -19.3748 411.086 -16.5077 409.169 -14.1379C408.725 -13.5895 408.295 -13.0484 407.873 -12.5179C406.255 -10.4838 404.76 -8.60457 403.11 -7.0576C401.07 -5.14687 399.337 -4.28782 397.651 -4.28782C393.69 -4.28782 391.682 -6.72263 388.552 -10.999C388.477 -11.1022 388.4 -11.2067 388.323 -11.3124C385.509 -15.1661 381.558 -20.5762 373.811 -20.5762C366.063 -20.5762 362.11 -15.1655 359.294 -11.3114C359.218 -11.2062 359.142 -11.1022 359.066 -10.9995C355.935 -6.72191 353.927 -4.28783 349.97 -4.28783C346.014 -4.28783 344.008 -6.72105 340.879 -10.9986C340.804 -11.1013 340.728 -11.2053 340.651 -11.3104C337.838 -15.1646 333.887 -20.5762 326.138 -20.5762C318.389 -20.5762 314.439 -15.1646 311.625 -11.3105C311.548 -11.2053 311.472 -11.1013 311.397 -10.9986C308.268 -6.72105 306.262 -4.28783 302.306 -4.28783C298.35 -4.28783 296.344 -6.72106 293.214 -10.9986C293.139 -11.1013 293.063 -11.2053 292.986 -11.3105C290.173 -15.1646 286.222 -20.5762 278.473 -20.5762C270.723 -20.5762 266.777 -15.1629 263.966 -11.3086C263.89 -11.2034 263.814 -11.0995 263.739 -10.9968C260.614 -6.71934 258.612 -4.28783 254.657 -4.28783C250.701 -4.28783 248.695 -6.72106 245.565 -10.9986C245.49 -11.1013 245.414 -11.2053 245.338 -11.3105C242.524 -15.1646 238.573 -20.5762 230.824 -20.5762C223.08 -20.5762 219.131 -15.1651 216.319 -11.3121C216.242 -11.2062 216.166 -11.1015 216.09 -10.9981C212.962 -6.72101 210.956 -4.28783 207 -4.28783C203.044 -4.28783 201.038 -6.72106 197.909 -10.9986C197.833 -11.1013 197.758 -11.2053 197.681 -11.3104C194.867 -15.1646 190.916 -20.5762 183.168 -20.5762C175.419 -20.5762 171.468 -15.1646 168.655 -11.3105C168.578 -11.2053 168.502 -11.1013 168.427 -10.9986C165.297 -6.72106 163.291 -4.28783 159.335 -4.28783C155.379 -4.28783 153.373 -6.72106 150.244 -10.9986C150.169 -11.1013 150.093 -11.2053 150.016 -11.3105C147.202 -15.1646 143.252 -20.5762 135.503 -20.5762C127.754 -20.5762 123.804 -15.1646 120.99 -11.3105C120.913 -11.2053 120.837 -11.1013 120.762 -10.9986C117.633 -6.72106 115.627 -4.28784 111.671 -4.28784C107.715 -4.28784 105.709 -6.72106 102.579 -10.9986C102.504 -11.1013 102.428 -11.2053 102.351 -11.3104C99.5377 -15.1646 95.587 -20.5762 87.8383 -20.5762C80.0895 -20.5762 76.1389 -15.1646 73.3251 -11.3105C73.2484 -11.2053 73.1724 -11.1013 73.0973 -10.9986C69.968 -6.72106 67.9619 -4.28784 64.0059 -4.28784C60.0499 -4.28784 58.0439 -6.72107 54.9145 -10.9986C54.8394 -11.1013 54.7635 -11.2053 54.6867 -11.3104C51.873 -15.1646 47.9223 -20.5762 40.1736 -20.5762C32.4248 -20.5762 28.4741 -15.1646 25.6604 -11.3105C25.5836 -11.2053 25.5077 -11.1013 25.4326 -10.9986C22.3033 -6.72107 20.2972 -4.28784 16.3412 -4.28784C14.6578 -4.28784 12.9247 -5.1464 10.8847 -7.05774C9.23376 -8.60453 7.73871 -10.4834 6.12054 -12.5169C5.69797 -13.048 5.267 -13.5896 4.82263 -14.1386C2.90451 -16.5085 0.475372 -19.3751 -2.45566 -20.7034C-4.0751 -21.4373 -5.93225 -21.7521 -7.9183 -21.2694C-9.84045 -20.8021 -11.5418 -19.6707 -13.0681 -18.1386C-15.809 -15.387 -16.1583 -12.0401 -15.4862 -8.97378C-14.8651 -6.14055 -13.3159 -3.21499 -11.8412 -0.589298C-11.4902 0.0356769 -11.1386 0.651508 -10.7904 1.26161C-9.58063 3.38095 -8.41034 5.43112 -7.4382 7.55503C-6.1998 10.2607 -5.46652 12.7204 -5.46652 14.9886C-5.46652 19.5382 -7.36661 21.6607 -10.0558 24.5758L-10.1265 24.6524C-12.9432 27.7052 -16.5 31.5602 -16.5 38.9093C-16.5 46.2527 -12.9431 50.1078 -10.1271 53.1597L-10.0558 53.237C-7.36588 56.153 -5.46653 58.2752 -5.46653 62.8184C-5.46653 67.3616 -7.36588 69.4838 -10.0558 72.3997L-10.1271 72.4771C-12.9431 75.529 -16.5 79.3841 -16.5 86.7275C-16.5 94.0699 -12.9438 97.9223 -10.1283 100.972L-10.0552 101.051C-7.36661 103.964 -5.46653 106.087 -5.46653 110.637C-5.46653 115.179 -7.36515 117.298 -10.0552 120.213L-10.1239 120.287C-12.9415 123.34 -16.5 127.195 -16.5 134.546C-16.5 141.888 -12.9438 145.74 -10.1283 148.79L-10.0552 148.87C-7.36665 151.783 -5.46653 153.905 -5.46653 158.455C-5.46653 163.003 -7.36588 165.123 -10.0547 168.035L-10.125 168.111C-12.9423 171.161 -16.5 175.014 -16.5 182.364C-16.5 189.715 -12.9415 193.57 -10.1239 196.622L-10.0552 196.696C-7.36515 199.611 -5.46653 201.73 -5.46653 206.273C-5.46653 210.815 -7.36515 212.934 -10.0552 215.849L-10.1239 215.923C-12.9415 218.976 -16.5 222.831 -16.5 230.182C-16.5 237.533 -12.9415 241.388 -10.1239 244.44L-10.0552 244.514C-7.36515 247.429 -5.46653 249.548 -5.46653 254.091C-5.46653 258.64 -7.36589 260.759 -10.0547 263.671L-10.125 263.747C-12.9422 266.798 -16.5 270.65 -16.5 278C-16.5 285.351 -12.9415 289.206 -10.1239 292.258L-10.0553 292.333C-7.36516 295.247 -5.46654 297.366 -5.46654 301.909C-5.46654 306.452 -7.36516 308.571 -10.0553 311.485L-10.1239 311.56C-12.9415 314.612 -16.5 318.467 -16.5 325.818C-16.5 333.169 -12.9415 337.024 -10.1239 340.076L-10.0553 340.151C-7.36516 343.065 -5.46654 345.185 -5.46654 349.727C-5.46654 354.27 -7.36513 356.389 -10.0553 359.303L-10.1239 359.378C-12.9415 362.43 -16.5 366.285 -16.5 373.636C-16.5 380.987 -12.9415 384.842 -10.1239 387.895L-10.0553 387.969C-7.36516 390.884 -5.46654 393.003 -5.46654 397.545C-5.46654 399.81 -6.19951 402.268 -7.43807 404.973C-8.41011 407.097 -9.58019 409.146 -10.7898 411.265C-11.1382 411.876 -11.49 412.492 -11.8412 413.117C-13.3159 415.743 -14.8651 418.668 -15.4861 421.501C-16.1583 424.566 -15.8094 427.914 -13.0659 430.663Z" fill="#CDDBFF" stroke="white" stroke-width="7"/>
<path d="M62.8443 304.777L63.1286 311.51C63.15 312.017 63.4947 312.451 63.9817 312.587L70.4658 314.397C71.5558 314.701 71.6198 316.224 70.5594 316.619L64.2506 318.971C63.7767 319.147 63.4699 319.61 63.4912 320.116L63.7755 326.849C63.8229 327.981 62.3964 328.512 61.6939 327.625L57.5105 322.346C57.1966 321.949 56.6622 321.8 56.1883 321.977L49.8795 324.329C48.8191 324.724 47.8737 323.531 48.4993 322.587L52.2218 316.972C52.5014 316.55 52.4777 315.996 52.1637 315.599L47.9803 310.32C47.2778 309.432 48.1189 308.162 49.2089 308.467L55.6931 310.277C56.18 310.413 56.7002 310.219 56.9798 309.798L60.7023 304.183C61.3278 303.239 62.7945 303.648 62.8419 304.78L62.8443 304.777Z" fill="white"/>
<path d="M46.3062 291.145C48.0478 289.402 50.8723 289.402 52.6138 291.145C54.3554 292.889 54.3554 295.716 52.6138 297.46C50.8723 299.203 48.0478 299.203 46.3062 297.46C44.5646 295.716 44.5646 292.889 46.3062 291.145Z" fill="white"/>
<path d="M67.7421 292.961C69.3864 292.961 70.7194 291.627 70.7194 289.98C70.7194 288.334 69.3864 287 67.7421 287C66.0977 287 64.7648 288.334 64.7648 289.98C64.7648 291.627 66.0977 292.961 67.7421 292.961Z" fill="white"/>
<path d="M206 0C200.704 7.36628 191.765 11.9372 182.676 13.1774C174.569 14.2893 165.825 12.8964 159.376 7.86043C160.201 17.276 155.141 26.9653 146.927 31.6791C138.714 36.3954 127.785 35.8988 120.04 30.4462C123.169 32.5633 123.589 37.2941 121.788 40.6078C119.994 43.9215 116.575 46.0314 113.111 47.5308C101.74 52.4602 88.2215 52.1768 77.0642 46.7847C82.1926 51.4307 87.3744 56.13 91.2068 61.8903C95.0391 67.6409 97.4273 74.656 96.3424 81.4821C94.3886 93.7681 81.4669 101.98 69.0112 102.566C57.5554 103.106 46.5341 98.6878 36.2311 93.4871C40.6047 96.6095 42.527 103.024 40.6873 108.22C38.4956 114.375 32.0711 118.427 25.552 118.921C19.0256 119.423 12.5623 116.819 7.33443 112.897C8.52612 121.085 3.3516 129.434 -4 133V0H206Z" fill="white" fill-opacity="0.5"/>
<path d="M24.8397 154.401C30.1304 152.207 32.6427 146.137 30.4513 140.842C28.2598 135.547 22.1943 133.033 16.9037 135.226C11.613 137.419 9.10051 143.489 11.292 148.784C13.4834 154.079 19.549 156.594 24.8397 154.401Z" fill="white"/>
<path d="M284.2 31.1867C290.044 31.1867 294.782 26.4439 294.782 20.5934C294.782 14.7428 290.044 10 284.2 10C278.356 10 273.618 14.7428 273.618 20.5934C273.618 26.4439 278.356 31.1867 284.2 31.1867Z" fill="white"/>
<path d="M277.156 37.7034C277.156 40.6283 274.787 43.0001 271.865 43.0001C268.943 43.0001 266.574 40.6283 266.574 37.7034C266.574 34.7785 268.943 32.4067 271.865 32.4067C274.787 32.4067 277.156 34.7785 277.156 37.7034Z" fill="white"/>
<path d="M369.785 358.109C376.667 355.256 379.936 347.36 377.085 340.472C374.234 333.584 366.344 330.313 359.462 333.166C352.579 336.019 349.311 343.916 352.162 350.804C355.012 357.692 362.903 360.962 369.785 358.109Z" fill="white"/>
<g opacity="0.64">
<path d="M843.797 50.7344V138.905C829.172 130.342 818.776 114.352 817.953 97.3193C817.051 78.6333 827.732 60.0827 843.797 50.7344Z" fill="white"/>
<path d="M843.797 0V41.2033C836.156 33.977 832.471 22.3754 835.619 12.238C837.105 7.45418 840.029 3.26161 843.797 0.00214886V0Z" fill="white"/>
<path d="M825.552 51.003C830.961 45.5899 830.961 36.8134 825.552 31.4003C820.143 25.9871 811.374 25.987 805.965 31.4002C800.556 36.8134 800.556 45.5899 805.965 51.0031C811.374 56.4162 820.143 56.4162 825.552 51.003Z" fill="white"/>
<path d="M802.801 78.1599C804.073 73.7186 801.507 69.0859 797.069 67.8124C792.632 66.5388 788.003 69.1068 786.73 73.5481C785.458 77.9894 788.024 82.6222 792.461 83.8958C796.899 85.1693 801.528 82.6013 802.801 78.1599Z" fill="white"/>
<path d="M842.385 335.733V390H788.784C788.689 389.602 788.65 389.193 788.678 388.785C788.876 386.029 791.884 384.506 794.465 383.529C792.474 384.148 790.354 381.969 790.682 379.908C791.014 377.85 793.234 376.439 795.311 376.604C791.061 375.711 787.989 372.012 785.828 368.237C784.734 366.324 783.754 364.18 784.055 361.998C784.338 359.985 785.68 358.272 787.206 356.93C791.62 353.057 798.532 351.699 803.494 354.843C802.281 353.385 802.476 351.119 803.508 349.529C804.54 347.936 806.229 346.9 807.934 346.074C810.498 344.834 813.299 343.935 816.143 344.072C818.984 344.209 821.869 345.52 823.407 347.92C820.569 343.176 823.314 336.403 828.305 334.034C832.784 331.906 838.263 332.916 842.384 335.734L842.385 335.733Z" fill="white"/>
</g>
<path d="M812.316 293.989L816.909 297.409C817.254 297.667 817.726 297.671 818.077 297.423L822.749 294.106C823.535 293.547 824.574 294.321 824.265 295.235L822.432 300.666C822.295 301.074 822.435 301.525 822.78 301.782L827.373 305.202C828.145 305.777 827.73 307.005 826.768 306.995L821.041 306.932C820.611 306.928 820.227 307.2 820.088 307.609L818.255 313.041C817.947 313.954 816.652 313.939 816.365 313.02L814.659 307.549C814.531 307.137 814.153 306.855 813.723 306.851L807.996 306.788C807.034 306.777 806.648 305.54 807.433 304.982L812.105 301.665C812.456 301.416 812.608 300.969 812.478 300.557L810.773 295.086C810.486 294.167 811.543 293.417 812.315 293.992L812.316 293.989Z" fill="white"/>
<path d="M816.714 283.639C819.134 284.453 821.756 283.15 822.571 280.727C823.386 278.305 822.086 275.681 819.666 274.867C817.246 274.053 814.624 275.356 813.809 277.779C812.994 280.201 814.294 282.825 816.714 283.639Z" fill="white"/>
<path d="M808.391 272.841C810.007 273.384 811.758 272.514 812.302 270.897C812.846 269.28 811.978 267.528 810.362 266.984C808.747 266.441 806.996 267.311 806.452 268.928C805.908 270.545 806.776 272.297 808.391 272.841Z" fill="white"/>
</svg>
