<svg width="844" height="390" viewBox="0 0 844 390" fill="none" xmlns="http://www.w3.org/2000/svg">
<path d="M-148.236 -78.1538V567.154H979.236V-78.1538H-148.236Z" fill="#A9C4F8"/>
<g style="mix-blend-mode:multiply" opacity="0.15">
<path d="M605.771 34.1939C602.811 78.148 590.252 122.772 602.606 165.652C619.225 223.375 681.256 271.466 746.765 294.606C788.023 309.177 830.372 325.949 859.475 354.697C885.03 379.933 897.551 412.586 898.402 444.955C899.024 468.362 895.872 493.105 888.293 516.287C887.89 517.533 887.466 518.767 887.025 520.001C884.82 526.333 882.26 532.535 879.351 538.548C876.835 543.748 873.998 548.845 870.707 553.754C869.46 555.612 862.643 567.156 860.032 567.156H979.236V204.711C970.492 196.686 960.778 189.399 949.942 183.186C903.274 156.42 841.315 152.413 793.996 126.413C744.257 99.088 717.851 51.5026 701.05 4.78352C691.199 -22.6413 683.692 -50.8268 673.516 -78.1516H564.956C600.027 -50.94 608.478 -6.0007 605.774 34.1957L605.771 34.1939Z" fill="#AC9FDE" style="mix-blend-mode:multiply"/>
</g>
<g style="mix-blend-mode:multiply" opacity="0.15">
<path d="M-148.236 242.806V567.154H325.093C310.402 557.065 292.883 549.172 274.93 543.931C232.083 531.414 185.649 530.163 140.932 523.142C96.2078 516.121 49.8912 501.36 24.9449 470.506C-5.06714 433.395 3.95697 384.379 -11.4453 341.807C-29.5519 291.745 -84.9298 251.994 -148.236 242.806Z" fill="#AC9FDE" style="mix-blend-mode:multiply"/>
</g>
<g style="mix-blend-mode:multiply" opacity="0.15">
<path d="M-148.236 -78.1516V95.8833C-124.761 97.1176 -101.454 99.5504 -78.7195 104.371C-38.5574 112.886 0.136108 129.525 25.6582 156.036C70.0655 202.163 67.0793 268.072 102.873 318.87C143.739 376.872 229.311 405.684 311.516 411.123C361.81 414.448 415.274 409.845 456.76 386.593C486.271 370.054 507.907 344.542 516.369 316.307C528.515 275.788 513.707 232.747 489.479 195.955C465.248 159.166 431.984 126.871 403.48 92.1445C374.981 57.4175 350.674 18.6705 348.007 -22.9678C346.815 -41.6034 350.851 -60.8882 359.821 -78.1516H116.732C116.391 -76.9022 116.072 -75.649 115.776 -74.3883C107.181 -37.64 119.434 1.96385 148.408 31.0986C183.059 65.9426 236.992 83.8308 279.695 112.22C302.805 127.583 322.673 146.128 338.19 166.817C354.947 189.157 366.708 216.756 355.411 241.24C346.205 261.187 323.182 275.137 298.69 282.907C282.448 288.059 264.841 291.002 247.503 289.429C199.287 285.051 165.839 247.846 149.266 210.928C132.698 174.008 126.203 133.626 100.716 100.203C73.4878 64.4875 27.9544 41.0638 -9.1958 11.7912C-36.9396 -10.0679 -60.2306 -35.4224 -88.2565 -57.0437C-98.1548 -64.6779 -108.855 -71.8913 -120.252 -78.1516H-148.236Z" fill="#AC9FDE" style="mix-blend-mode:multiply"/>
</g>
<path d="M856.066 430.663L850.088 436.653L850.088 434.327C848.94 434.578 847.746 434.574 846.508 434.249C843.491 433.457 841.262 430.913 839.634 428.915C839.029 428.172 838.438 427.417 837.848 426.663C834.772 422.733 831.719 418.833 826.798 416.831L826.797 416.831C825.013 416.105 823.94 416.377 822.893 417.054C821.528 417.938 820.19 419.557 818.439 421.919C818.255 422.166 818.067 422.422 817.874 422.684C816.388 424.705 814.622 427.106 812.549 429.008C810.101 431.254 806.943 433.087 802.819 433.087C795.07 433.087 791.119 427.675 788.305 423.821C788.229 423.716 788.153 423.612 788.078 423.509C784.948 419.232 782.942 416.798 778.986 416.798C775.03 416.798 773.024 419.232 769.895 423.509C769.82 423.612 769.744 423.716 769.667 423.821C766.853 427.675 762.903 433.087 755.154 433.087C747.405 433.087 743.454 427.675 740.641 423.821C740.564 423.716 740.488 423.612 740.413 423.509C737.284 419.232 735.278 416.798 731.322 416.798C727.366 416.798 725.359 419.232 722.23 423.509C722.155 423.612 722.079 423.716 722.002 423.821C719.189 427.675 715.238 433.087 707.489 433.087C699.74 433.087 695.79 427.675 692.976 423.821C692.899 423.716 692.823 423.612 692.748 423.509C689.619 419.232 687.613 416.798 683.657 416.798C679.7 416.798 677.692 419.233 674.562 423.51C674.487 423.613 674.41 423.718 674.333 423.824C671.519 427.677 667.568 433.087 659.825 433.087C652.08 433.087 648.131 427.676 645.319 423.823C645.242 423.717 645.166 423.612 645.09 423.509C641.962 419.232 639.956 416.798 636 416.798C632.044 416.798 630.038 419.232 626.909 423.509C626.833 423.612 626.758 423.716 626.681 423.821C623.867 427.675 619.916 433.087 612.168 433.087C604.419 433.087 600.468 427.675 597.655 423.821C597.578 423.716 597.502 423.612 597.427 423.509C594.297 419.232 592.291 416.798 588.335 416.798C584.379 416.798 582.373 419.232 579.244 423.509C579.169 423.612 579.093 423.716 579.016 423.821C576.202 427.675 572.252 433.087 564.503 433.087C556.754 433.087 552.804 427.675 549.99 423.821C549.913 423.716 549.837 423.612 549.762 423.509C546.633 419.232 544.627 416.798 540.671 416.798C536.715 416.798 534.709 419.232 531.579 423.509C531.504 423.612 531.428 423.716 531.351 423.821C528.538 427.675 524.587 433.087 516.838 433.087C509.09 433.087 505.139 427.675 502.325 423.821C502.248 423.716 502.172 423.612 502.097 423.509C498.968 419.232 496.962 416.798 493.006 416.798C489.05 416.798 487.044 419.232 483.915 423.509C483.839 423.612 483.763 423.716 483.687 423.821C480.873 427.675 476.922 433.087 469.174 433.087C461.425 433.087 457.474 427.675 454.66 423.821C454.584 423.716 454.508 423.612 454.433 423.509C451.303 419.232 449.297 416.798 445.341 416.798C443.658 416.798 441.925 417.657 439.885 419.568C438.234 421.115 436.739 422.994 435.121 425.027C434.698 425.558 434.267 426.1 433.823 426.649C431.905 429.019 429.475 431.886 426.544 433.214C424.925 433.948 423.068 434.263 421.082 433.78C419.16 433.313 417.458 432.181 415.932 430.649C413.191 427.898 412.842 424.551 413.514 421.484C414.135 418.651 415.684 415.726 417.159 413.1C417.51 412.475 417.861 411.859 418.21 411.249C419.419 409.13 420.59 407.08 421.562 404.956C422.8 402.25 423.534 399.79 423.534 397.522C423.534 392.972 421.633 390.846 418.944 387.93L418.87 387.85C416.055 384.798 412.5 380.943 412.5 373.601C412.5 366.258 416.057 362.403 418.873 359.351L418.944 359.274C421.634 356.358 423.534 354.235 423.534 349.692C423.534 345.149 421.634 343.027 418.944 340.111L418.873 340.034C416.057 336.982 412.5 333.127 412.5 325.783C412.5 318.44 416.057 314.585 418.873 311.533L418.944 311.455C421.634 308.54 423.534 306.417 423.534 301.874C423.534 297.331 421.634 295.209 418.944 292.293L418.873 292.215C416.057 289.163 412.5 285.308 412.5 277.965C412.5 270.623 416.056 266.77 418.872 263.72L418.945 263.641C421.633 260.728 423.534 258.605 423.534 254.056C423.534 249.506 421.633 247.384 418.945 244.471L418.872 244.392C416.056 241.342 412.5 237.489 412.5 230.147C412.5 222.804 416.057 218.948 418.873 215.896L418.944 215.819C421.634 212.903 423.534 210.781 423.534 206.238C423.534 201.695 421.634 199.572 418.944 196.657L418.873 196.579C416.057 193.527 412.5 189.672 412.5 182.329C412.5 174.985 416.057 171.136 418.873 168.088L418.946 168.009C421.634 165.1 423.534 162.98 423.534 158.431C423.534 153.882 421.633 151.759 418.945 148.846L418.872 148.767C416.056 145.717 412.5 141.865 412.5 134.522C412.5 127.179 416.057 123.324 418.873 120.272L418.944 120.195C421.634 117.279 423.534 115.156 423.534 110.613C423.534 106.07 421.634 103.948 418.944 101.032L418.873 100.955C416.057 97.9027 412.5 94.0476 412.5 86.7042C412.5 79.3608 416.057 75.5057 418.873 72.4538L418.944 72.3765C421.634 69.4606 423.533 67.3384 423.533 62.7951C423.533 58.2519 421.634 56.1297 418.944 53.2138L418.873 53.1365C416.057 50.0846 412.5 46.2295 412.5 38.8861C412.5 31.5427 416.057 27.6876 418.873 24.6356L418.944 24.5584C421.634 21.6425 423.533 19.5202 423.533 14.977C423.533 12.7119 422.801 10.2544 421.563 7.55015C420.592 5.4289 419.424 3.38123 418.216 1.2642C417.867 0.652655 417.514 0.0353259 417.162 -0.591236C415.689 -3.21645 414.14 -6.14172 413.52 -8.97495C412.849 -12.0412 413.199 -15.3875 415.94 -18.1385L415.94 -18.1385L415.941 -18.1395C417.468 -19.6713 419.17 -20.8023 421.092 -21.2694C423.078 -21.752 424.935 -21.4374 426.555 -20.7033C429.486 -19.3748 431.914 -16.5077 433.831 -14.1379C434.275 -13.5895 434.705 -13.0484 435.127 -12.5179C436.745 -10.4838 438.24 -8.60457 439.89 -7.0576C441.93 -5.14687 443.663 -4.28782 445.349 -4.28782C449.31 -4.28782 451.318 -6.72263 454.448 -10.999C454.523 -11.1022 454.6 -11.2067 454.677 -11.3124C457.491 -15.1661 461.442 -20.5762 469.189 -20.5762C476.937 -20.5762 480.89 -15.1655 483.706 -11.3114C483.782 -11.2062 483.858 -11.1022 483.934 -10.9995C487.065 -6.72191 489.073 -4.28783 493.03 -4.28783C496.986 -4.28783 498.992 -6.72105 502.121 -10.9986C502.196 -11.1013 502.272 -11.2053 502.349 -11.3104C505.162 -15.1646 509.113 -20.5762 516.862 -20.5762C524.611 -20.5762 528.561 -15.1646 531.375 -11.3105C531.452 -11.2053 531.528 -11.1013 531.603 -10.9986C534.732 -6.72105 536.738 -4.28783 540.694 -4.28783C544.65 -4.28783 546.656 -6.72106 549.786 -10.9986C549.861 -11.1013 549.937 -11.2053 550.014 -11.3105C552.827 -15.1646 556.778 -20.5762 564.527 -20.5762C572.277 -20.5762 576.223 -15.1629 579.034 -11.3086C579.11 -11.2034 579.186 -11.0995 579.261 -10.9968C582.386 -6.71934 584.388 -4.28783 588.343 -4.28783C592.299 -4.28783 594.305 -6.72106 597.435 -10.9986C597.51 -11.1013 597.586 -11.2053 597.662 -11.3105C600.476 -15.1646 604.427 -20.5762 612.176 -20.5762C619.92 -20.5762 623.869 -15.1651 626.681 -11.3121C626.758 -11.2062 626.834 -11.1015 626.91 -10.9981C630.038 -6.72101 632.044 -4.28783 636 -4.28783C639.956 -4.28783 641.962 -6.72106 645.091 -10.9986C645.167 -11.1013 645.242 -11.2053 645.319 -11.3104C648.133 -15.1646 652.084 -20.5762 659.832 -20.5762C667.581 -20.5762 671.532 -15.1646 674.345 -11.3105C674.422 -11.2053 674.498 -11.1013 674.573 -10.9986C677.703 -6.72106 679.709 -4.28783 683.665 -4.28783C687.621 -4.28783 689.627 -6.72106 692.756 -10.9986C692.831 -11.1013 692.907 -11.2053 692.984 -11.3105C695.798 -15.1646 699.748 -20.5762 707.497 -20.5762C715.246 -20.5762 719.196 -15.1646 722.01 -11.3105C722.087 -11.2053 722.163 -11.1013 722.238 -10.9986C725.367 -6.72106 727.373 -4.28784 731.329 -4.28784C735.285 -4.28784 737.291 -6.72106 740.421 -10.9986C740.496 -11.1013 740.572 -11.2053 740.649 -11.3104C743.462 -15.1646 747.413 -20.5762 755.162 -20.5762C762.91 -20.5762 766.861 -15.1646 769.675 -11.3105C769.752 -11.2053 769.828 -11.1013 769.903 -10.9986C773.032 -6.72106 775.038 -4.28784 778.994 -4.28784C782.95 -4.28784 784.956 -6.72107 788.085 -10.9986C788.161 -11.1013 788.237 -11.2053 788.313 -11.3104C791.127 -15.1646 795.078 -20.5762 802.826 -20.5762C810.575 -20.5762 814.526 -15.1646 817.34 -11.3105C817.416 -11.2053 817.492 -11.1013 817.567 -10.9986C820.697 -6.72107 822.703 -4.28784 826.659 -4.28784C828.342 -4.28784 830.075 -5.1464 832.115 -7.05774C833.766 -8.60453 835.261 -10.4834 836.879 -12.5169C837.302 -13.048 837.733 -13.5896 838.177 -14.1386C840.095 -16.5085 842.525 -19.3751 845.456 -20.7034C847.075 -21.4373 848.932 -21.7521 850.918 -21.2694C852.84 -20.8021 854.542 -19.6707 856.068 -18.1386C858.809 -15.387 859.158 -12.0401 858.486 -8.97378C857.865 -6.14055 856.316 -3.21499 854.841 -0.589298C854.49 0.0356769 854.139 0.651508 853.79 1.26161C852.581 3.38095 851.41 5.43112 850.438 7.55503C849.2 10.2607 848.467 12.7204 848.467 14.9886C848.467 19.5382 850.367 21.6607 853.056 24.5758L853.126 24.6524C855.943 27.7052 859.5 31.5602 859.5 38.9093C859.5 46.2527 855.943 50.1078 853.127 53.1597L853.056 53.237C850.366 56.153 848.467 58.2752 848.467 62.8184C848.467 67.3616 850.366 69.4838 853.056 72.3997L853.127 72.4771C855.943 75.529 859.5 79.3841 859.5 86.7275C859.5 94.0699 855.944 97.9223 853.128 100.972L853.055 101.051C850.367 103.964 848.467 106.087 848.467 110.637C848.467 115.179 850.365 117.298 853.055 120.213L853.124 120.287C855.942 123.34 859.5 127.195 859.5 134.546C859.5 141.888 855.944 145.74 853.128 148.79L853.055 148.87C850.367 151.783 848.467 153.905 848.467 158.455C848.467 163.003 850.366 165.123 853.055 168.035L853.125 168.111C855.942 171.161 859.5 175.014 859.5 182.364C859.5 189.715 855.942 193.57 853.124 196.622L853.055 196.696C850.365 199.611 848.467 201.73 848.467 206.273C848.467 210.815 850.365 212.934 853.055 215.849L853.124 215.923C855.942 218.976 859.5 222.831 859.5 230.182C859.5 237.533 855.942 241.388 853.124 244.44L853.055 244.514C850.365 247.429 848.467 249.548 848.467 254.091C848.467 258.64 850.366 260.759 853.055 263.671L853.125 263.747C855.942 266.798 859.5 270.65 859.5 278C859.5 285.351 855.942 289.206 853.124 292.258L853.055 292.333C850.365 295.247 848.467 297.366 848.467 301.909C848.467 306.452 850.365 308.571 853.055 311.485L853.124 311.56C855.942 314.612 859.5 318.467 859.5 325.818C859.5 333.169 855.942 337.024 853.124 340.076L853.055 340.151C850.365 343.065 848.467 345.185 848.467 349.727C848.467 354.27 850.365 356.389 853.055 359.303L853.124 359.378C855.942 362.43 859.5 366.285 859.5 373.636C859.5 380.987 855.942 384.842 853.124 387.895L853.055 387.969C850.365 390.884 848.467 393.003 848.467 397.545C848.467 399.81 849.2 402.268 850.438 404.973C851.41 407.097 852.58 409.146 853.79 411.265C854.138 411.876 854.49 412.492 854.841 413.117C856.316 415.743 857.865 418.668 858.486 421.501C859.158 424.566 858.809 427.914 856.066 430.663Z" fill="#CDDBFF" stroke="white" stroke-width="7"/>
<path d="M780.156 304.777L779.871 311.51C779.85 312.017 779.505 312.451 779.018 312.587L772.534 314.397C771.444 314.701 771.38 316.224 772.441 316.619L778.749 318.971C779.223 319.147 779.53 319.61 779.509 320.116L779.225 326.849C779.177 327.981 780.604 328.512 781.306 327.625L785.49 322.346C785.803 321.949 786.338 321.8 786.812 321.977L793.121 324.329C794.181 324.724 795.126 323.531 794.501 322.587L790.778 316.972C790.499 316.55 790.522 315.996 790.836 315.599L795.02 310.32C795.722 309.432 794.881 308.162 793.791 308.467L787.307 310.277C786.82 310.413 786.3 310.219 786.02 309.798L782.298 304.183C781.672 303.239 780.206 303.648 780.158 304.78L780.156 304.777Z" fill="white"/>
<path d="M796.694 291.145C794.952 289.402 792.128 289.402 790.386 291.145C788.645 292.889 788.645 295.716 790.386 297.46C792.128 299.203 794.952 299.203 796.694 297.46C798.435 295.716 798.435 292.889 796.694 291.145Z" fill="white"/>
<path d="M775.258 292.961C773.614 292.961 772.281 291.627 772.281 289.98C772.281 288.334 773.614 287 775.258 287C776.902 287 778.235 288.334 778.235 289.98C778.235 291.627 776.902 292.961 775.258 292.961Z" fill="white"/>
<path d="M637 0C642.296 7.36628 651.235 11.9372 660.324 13.1774C668.431 14.2893 677.175 12.8964 683.624 7.86043C682.799 17.276 687.859 26.9653 696.073 31.6791C704.286 36.3954 715.215 35.8988 722.96 30.4462C719.831 32.5633 719.411 37.2941 721.212 40.6078C723.006 43.9215 726.425 46.0314 729.889 47.5308C741.26 52.4602 754.779 52.1768 765.936 46.7847C760.807 51.4307 755.626 56.13 751.793 61.8903C747.961 67.6409 745.573 74.656 746.658 81.4821C748.611 93.7681 761.533 101.98 773.989 102.566C785.445 103.106 796.466 98.6878 806.769 93.4871C802.395 96.6095 800.473 103.024 802.313 108.22C804.504 114.375 810.929 118.427 817.448 118.921C823.974 119.423 830.438 116.819 835.666 112.897C834.474 121.085 839.648 129.434 847 133V0H637Z" fill="white" fill-opacity="0.5"/>
<path d="M818.16 154.401C812.87 152.207 810.357 146.137 812.549 140.842C814.74 135.547 820.806 133.033 826.096 135.226C831.387 137.419 833.899 143.489 831.708 148.784C829.517 154.079 823.451 156.594 818.16 154.401Z" fill="white"/>
<path d="M558.8 31.1867C552.956 31.1867 548.218 26.4439 548.218 20.5934C548.218 14.7428 552.956 10 558.8 10C564.644 10 569.382 14.7428 569.382 20.5934C569.382 26.4439 564.644 31.1867 558.8 31.1867Z" fill="white"/>
<path d="M565.844 37.7034C565.844 40.6283 568.213 43.0001 571.135 43.0001C574.057 43.0001 576.426 40.6283 576.426 37.7034C576.426 34.7785 574.057 32.4067 571.135 32.4067C568.213 32.4067 565.844 34.7785 565.844 37.7034Z" fill="white"/>
<path d="M473.215 358.109C466.333 355.256 463.064 347.36 465.915 340.472C468.766 333.584 476.656 330.313 483.538 333.166C490.421 336.019 493.689 343.916 490.838 350.804C487.988 357.692 480.097 360.962 473.215 358.109Z" fill="white"/>
<g opacity="0.64">
<path d="M-0.797192 50.7344V138.905C13.8284 130.342 24.224 114.352 25.0468 97.3193C25.9491 78.6333 15.2678 60.0827 -0.797192 50.7344Z" fill="white"/>
<path d="M-0.797248 0V41.2033C6.84424 33.977 10.5285 22.3754 7.38128 12.238C5.89466 7.45418 2.97086 3.26161 -0.797248 0.00214886V0Z" fill="white"/>
<path d="M17.4479 51.003C12.0391 45.5899 12.0391 36.8134 17.4479 31.4003C22.8567 25.9871 31.626 25.987 37.0348 31.4002C42.4436 36.8134 42.4436 45.5899 37.0349 51.0031C31.6261 56.4162 22.8567 56.4162 17.4479 51.003Z" fill="white"/>
<path d="M40.1994 78.1599C38.9269 73.7186 41.4929 69.0859 45.9306 67.8124C50.3683 66.5388 54.9973 69.1068 56.2698 73.5481C57.5423 77.9894 54.9764 82.6222 50.5387 83.8958C46.101 85.1693 41.4719 82.6013 40.1994 78.1599Z" fill="white"/>
<path d="M0.614765 335.733V390H54.2158C54.3109 389.602 54.35 389.193 54.3225 388.785C54.1242 386.029 51.1155 384.506 48.5354 383.529C50.5261 384.148 52.6457 381.969 52.3185 379.908C51.986 377.85 49.7659 376.439 47.689 376.604C51.9388 375.711 55.0115 372.012 57.172 368.237C58.2655 366.324 59.2462 364.18 58.9448 361.998C58.6621 359.985 57.3204 358.272 55.7939 356.93C51.3796 353.057 44.4678 351.699 39.5059 354.843C40.7195 353.385 40.5239 351.119 39.4917 349.529C38.4603 347.936 36.7711 346.9 35.0658 346.074C32.5017 344.834 29.7011 343.935 26.8569 344.072C24.0163 344.209 21.1312 345.52 19.5931 347.92C22.4311 343.176 19.6856 336.403 14.6952 334.034C10.216 331.906 4.73653 332.916 0.615635 335.734L0.614765 335.733Z" fill="white"/>
</g>
<path d="M30.6841 293.989L26.0908 297.409C25.7459 297.667 25.2744 297.671 24.9225 297.423L20.2506 294.106C19.4654 293.547 18.4261 294.321 18.7347 295.235L20.5679 300.666C20.7052 301.074 20.5652 301.525 20.2204 301.782L15.6271 305.202C14.8552 305.777 15.2697 307.005 16.2317 306.995L21.9586 306.932C22.3886 306.928 22.7732 307.2 22.912 307.609L24.7452 313.041C25.0526 313.954 26.3483 313.939 26.6352 313.02L28.3407 307.549C28.4691 307.137 28.8473 306.855 29.2772 306.851L35.0041 306.788C35.9658 306.777 36.3518 305.54 35.5666 304.982L30.8947 301.665C30.5439 301.416 30.3922 300.969 30.5218 300.557L32.2273 295.086C32.5141 294.167 31.4568 293.417 30.6849 293.992L30.6841 293.989Z" fill="white"/>
<path d="M26.286 283.639C23.8663 284.453 21.2439 283.15 20.4288 280.727C19.6136 278.305 20.9143 275.681 23.334 274.867C25.7537 274.053 28.376 275.356 29.1912 277.779C30.0064 280.201 28.7057 282.825 26.286 283.639Z" fill="white"/>
<path d="M34.6086 272.841C32.9931 273.384 31.2423 272.514 30.6981 270.897C30.1538 269.28 31.0222 267.528 32.6377 266.984C34.2532 266.441 36.004 267.311 36.5482 268.928C37.0925 270.545 36.2241 272.297 34.6086 272.841Z" fill="white"/>
</svg>
