<svg width="157" height="139" viewBox="0 0 157 139" fill="none" xmlns="http://www.w3.org/2000/svg">
<g filter="url(#filter0_d_63_2454)">
<g filter="url(#filter1_d_63_2454)">
<path d="M43.8572 118.292L88.0772 126.861C119.273 132.907 148.244 109.011 148.244 77.2351C148.244 50.0963 126.814 27.8001 99.6969 26.7251L54.6896 24.941C27.9524 23.8812 5.69876 45.2701 5.69876 72.0283C5.69876 94.5973 21.7004 113.998 43.8572 118.292Z" fill="white"/>
<path d="M43.8572 118.292L88.0772 126.861C119.273 132.907 148.244 109.011 148.244 77.2351C148.244 50.0963 126.814 27.8001 99.6969 26.7251L54.6896 24.941C27.9524 23.8812 5.69876 45.2701 5.69876 72.0283C5.69876 94.5973 21.7004 113.998 43.8572 118.292Z" stroke="#FF6ECB" stroke-width="3"/>
</g>
<g filter="url(#filter2_d_63_2454)">
<path d="M45.4191 116.206L87.7943 124.451C118.077 130.344 146.218 107.152 146.218 76.3005C146.218 49.9677 125.427 28.3326 99.1146 27.2854L55.9788 25.5685C30.0141 24.535 8.4011 45.3049 8.4011 71.2902C8.4011 93.1917 23.9207 112.022 45.4191 116.206Z" fill="white"/>
<path d="M45.4191 116.206L87.7943 124.451C118.077 130.344 146.218 107.152 146.218 76.3005C146.218 49.9677 125.427 28.3326 99.1146 27.2854L55.9788 25.5685C30.0141 24.535 8.4011 45.3049 8.4011 71.2902C8.4011 93.1917 23.9207 112.022 45.4191 116.206Z" stroke="#6E63B3" stroke-width="6"/>
</g>
<path d="M46.5208 115.359L87.1547 123.309C116.707 129.091 144.191 106.464 144.191 76.351C144.191 50.6693 123.917 29.5677 98.2555 28.5407L56.8843 26.8851C31.5331 25.8705 10.4276 46.1483 10.4276 71.5198C10.4276 92.8837 25.5545 111.257 46.5208 115.359Z" fill="#FF6ECB"/>
<path opacity="0.43" d="M114.694 35.9491C124.777 34.2718 137.258 51.6462 123.965 50.6282C114.822 49.5409 106.791 36.6316 114.694 35.9491Z" fill="white"/>
<path opacity="0.43" d="M131.985 50.0847C131.985 50.0847 134.291 49.9921 136.435 54.5266C138.579 59.061 137.014 62.138 134.21 60.2293C131.405 58.3323 127.79 49.0899 131.985 50.0847Z" fill="white"/>
<path opacity="0.43" d="M14.6564 75.8015C15.0064 88.98 29.4024 96.4585 27.8796 86.9499C26.987 84.5814 20.6773 80.0006 19.8372 75.307C18.997 70.6134 13.4312 70.0582 14.6564 75.8015Z" fill="white"/>
<g filter="url(#filter3_d_63_2454)">
<g filter="url(#filter4_d_63_2454)">
<path d="M52.6404 56.5102C45.4278 59.2005 43.8323 68.6898 49.7684 73.5909L82.9986 101.027C88.9347 105.928 97.9505 102.566 99.2269 94.9741L106.372 52.4778C107.649 44.8864 100.229 38.7599 93.0161 41.4502L52.6404 56.5102Z" fill="#FFD80D"/>
</g>
</g>
<g filter="url(#filter5_d_63_2454)">
<path d="M53.6513 55.1242C46.4387 57.8145 44.8431 67.3038 50.7793 72.205L84.0094 99.6413C89.9456 104.542 98.9613 101.18 100.238 93.5882L107.383 51.0918C108.66 43.5004 101.24 37.3739 94.0269 40.0642L53.6513 55.1242Z" fill="url(#paint0_linear_63_2454)" fill-opacity="0.8" shape-rendering="crispEdges"/>
</g>
</g>
<defs>
<filter id="filter0_d_63_2454" x="4.19876" y="22.5315" width="152.546" height="114.77" filterUnits="userSpaceOnUse" color-interpolation-filters="sRGB">
<feFlood flood-opacity="0" result="BackgroundImageFix"/>
<feColorMatrix in="SourceAlpha" type="matrix" values="0 0 0 0 0 0 0 0 0 0 0 0 0 0 0 0 0 0 127 0" result="hardAlpha"/>
<feOffset dx="4" dy="5"/>
<feGaussianBlur stdDeviation="1.5"/>
<feComposite in2="hardAlpha" operator="out"/>
<feColorMatrix type="matrix" values="0 0 0 0 1 0 0 0 0 1 0 0 0 0 1 0 0 0 1 0"/>
<feBlend mode="normal" in2="BackgroundImageFix" result="effect1_dropShadow_63_2454"/>
<feBlend mode="normal" in="SourceGraphic" in2="effect1_dropShadow_63_2454" result="shape"/>
</filter>
<filter id="filter1_d_63_2454" x="0.198761" y="23.4033" width="153.546" height="113.898" filterUnits="userSpaceOnUse" color-interpolation-filters="sRGB">
<feFlood flood-opacity="0" result="BackgroundImageFix"/>
<feColorMatrix in="SourceAlpha" type="matrix" values="0 0 0 0 0 0 0 0 0 0 0 0 0 0 0 0 0 0 127 0" result="hardAlpha"/>
<feOffset dy="4"/>
<feGaussianBlur stdDeviation="2"/>
<feComposite in2="hardAlpha" operator="out"/>
<feColorMatrix type="matrix" values="0 0 0 0 0 0 0 0 0 0 0 0 0 0 0 0 0 0 0.25 0"/>
<feBlend mode="normal" in2="BackgroundImageFix" result="effect1_dropShadow_63_2454"/>
<feBlend mode="normal" in="SourceGraphic" in2="effect1_dropShadow_63_2454" result="shape"/>
</filter>
<filter id="filter2_d_63_2454" x="1.40111" y="22.5315" width="151.817" height="113.84" filterUnits="userSpaceOnUse" color-interpolation-filters="sRGB">
<feFlood flood-opacity="0" result="BackgroundImageFix"/>
<feColorMatrix in="SourceAlpha" type="matrix" values="0 0 0 0 0 0 0 0 0 0 0 0 0 0 0 0 0 0 127 0" result="hardAlpha"/>
<feOffset dy="4"/>
<feGaussianBlur stdDeviation="2"/>
<feComposite in2="hardAlpha" operator="out"/>
<feColorMatrix type="matrix" values="0 0 0 0 0 0 0 0 0 0 0 0 0 0 0 0 0 0 0.25 0"/>
<feBlend mode="normal" in2="BackgroundImageFix" result="effect1_dropShadow_63_2454"/>
<feBlend mode="normal" in="SourceGraphic" in2="effect1_dropShadow_63_2454" result="shape"/>
</filter>
<filter id="filter3_d_63_2454" x="46.1325" y="39.8057" width="64.3842" height="66.5203" filterUnits="userSpaceOnUse" color-interpolation-filters="sRGB">
<feFlood flood-opacity="0" result="BackgroundImageFix"/>
<feColorMatrix in="SourceAlpha" type="matrix" values="0 0 0 0 0 0 0 0 0 0 0 0 0 0 0 0 0 0 127 0" result="hardAlpha"/>
<feOffset dx="2" dy="1"/>
<feGaussianBlur stdDeviation="1"/>
<feComposite in2="hardAlpha" operator="out"/>
<feColorMatrix type="matrix" values="0 0 0 0 1 0 0 0 0 0.933333 0 0 0 0 0.882353 0 0 0 1 0"/>
<feBlend mode="normal" in2="BackgroundImageFix" result="effect1_dropShadow_63_2454"/>
<feBlend mode="normal" in="SourceGraphic" in2="effect1_dropShadow_63_2454" result="shape"/>
</filter>
<filter id="filter4_d_63_2454" x="42.1325" y="40.8057" width="68.3842" height="70.5203" filterUnits="userSpaceOnUse" color-interpolation-filters="sRGB">
<feFlood flood-opacity="0" result="BackgroundImageFix"/>
<feColorMatrix in="SourceAlpha" type="matrix" values="0 0 0 0 0 0 0 0 0 0 0 0 0 0 0 0 0 0 127 0" result="hardAlpha"/>
<feOffset dy="4"/>
<feGaussianBlur stdDeviation="2"/>
<feComposite in2="hardAlpha" operator="out"/>
<feColorMatrix type="matrix" values="0 0 0 0 0 0 0 0 0 0 0 0 0 0 0 0 0 0 0.25 0"/>
<feBlend mode="normal" in2="BackgroundImageFix" result="effect1_dropShadow_63_2454"/>
<feBlend mode="normal" in="SourceGraphic" in2="effect1_dropShadow_63_2454" result="shape"/>
</filter>
<filter id="filter5_d_63_2454" x="43.1433" y="39.4197" width="68.3842" height="70.5203" filterUnits="userSpaceOnUse" color-interpolation-filters="sRGB">
<feFlood flood-opacity="0" result="BackgroundImageFix"/>
<feColorMatrix in="SourceAlpha" type="matrix" values="0 0 0 0 0 0 0 0 0 0 0 0 0 0 0 0 0 0 127 0" result="hardAlpha"/>
<feOffset dy="4"/>
<feGaussianBlur stdDeviation="2"/>
<feComposite in2="hardAlpha" operator="out"/>
<feColorMatrix type="matrix" values="0 0 0 0 0 0 0 0 0 0 0 0 0 0 0 0 0 0 0.25 0"/>
<feBlend mode="normal" in2="BackgroundImageFix" result="effect1_dropShadow_63_2454"/>
<feBlend mode="normal" in="SourceGraphic" in2="effect1_dropShadow_63_2454" result="shape"/>
</filter>
<linearGradient id="paint0_linear_63_2454" x1="46.2328" y1="61.5066" x2="101.63" y2="72.3158" gradientUnits="userSpaceOnUse">
<stop stop-color="white" stop-opacity="0.55"/>
<stop offset="1" stop-color="white" stop-opacity="0"/>
</linearGradient>
</defs>
</svg>
