<svg width="16" height="14" viewBox="0 0 16 14" fill="none" xmlns="http://www.w3.org/2000/svg">
<path d="M3.28603 10.7102C3.29728 10.721 3.30776 10.7312 3.31724 10.7404C3.33444 10.757 3.34833 10.7705 3.35746 10.7789L3.36275 10.7838L3.36272 10.7838C4.02673 11.4149 4.60236 12.1324 5.07847 12.9128C5.08004 12.9143 5.08221 12.9163 5.08505 12.9187C5.09902 12.9305 5.12134 12.9464 5.15281 12.9647C5.21701 13.0021 5.2925 13.0336 5.35119 13.0531C5.56139 13.1228 5.82186 13.1227 6.10188 13.0699L6.10783 13.0688L6.10784 13.0688C6.33275 13.0292 6.58399 12.9489 6.79653 12.83C7.01202 12.7094 7.14978 12.5713 7.21398 12.4338C7.21405 12.4336 7.21412 12.4335 7.2142 12.4333L7.66744 12.6444C8.39265 11.0792 9.25277 9.58099 10.2366 8.16107L3.28603 10.7102ZM3.28603 10.7102C3.28299 10.7059 3.28034 10.7023 3.27835 10.6997C3.26289 10.68 3.24933 10.6659 3.24465 10.661C3.23349 10.6495 3.22417 10.641 3.22161 10.6387L3.22158 10.6386C3.21467 10.6324 3.20898 10.6275 3.20746 10.6262C3.20065 10.6205 3.19332 10.6146 3.1907 10.6125L3.15738 10.5859L3.06452 10.5119L3.02411 10.4794C3.01583 10.4727 3.01136 10.469 3.00965 10.4676C3.00946 10.4674 3.0093 10.4673 3.00918 10.4672L3.00929 10.467L2.99868 10.4583C2.82521 10.3155 2.65359 10.1862 2.48085 10.0603L2.47814 10.0583C2.09493 9.78275 1.70007 9.53664 1.28817 9.31429L1.2872 9.31377C1.24983 9.2937 1.22348 9.26531 1.20391 9.22328C1.18271 9.17771 1.16907 9.11329 1.17304 9.0364C1.17563 9.00427 1.19332 8.9466 1.26405 8.85856C1.33593 8.7691 1.43684 8.68022 1.55293 8.59042C2.03228 8.22136 2.80409 8.14266 3.31491 8.41662C4.15011 8.86924 4.92815 9.44528 5.61573 10.113L6.04565 10.5305L6.37936 10.0327C6.39917 10.0032 6.41563 9.97507 6.42478 9.95946L6.42625 9.95696C6.43714 9.93839 6.43964 9.93442 6.4412 9.93208L6.44881 9.92073L6.45579 9.90898C8.33075 6.75206 10.7543 3.96735 13.6007 1.63253L13.6011 1.63214C13.8012 1.46764 14.1145 1.3445 14.461 1.30947C14.7529 1.27996 15.0221 1.31742 15.2251 1.40363L15.3308 1.46534C15.4258 1.52077 15.4751 1.63205 15.4639 1.71677L15.4637 1.71827C15.4471 1.84602 15.3336 1.99025 15.0696 2.20611L15.0695 2.20602L15.0617 2.21266C14.9649 2.29519 14.8665 2.37791 14.7665 2.46196L14.7656 2.46272C14.6738 2.53981 14.5808 2.61802 14.4885 2.69647C14.4691 2.71046 14.4545 2.72283 14.4451 2.73099C14.4343 2.74039 14.4243 2.74981 14.4168 2.75705C14.3303 2.83234 14.2347 2.91634 14.143 3.00174C13.7709 3.33771 13.4111 3.68422 13.0581 4.0409C12.4404 4.66083 11.8461 5.31436 11.2864 5.98459C11.0054 6.32096 10.7315 6.66726 10.4654 7.01069L10.4653 7.01064L10.4598 7.01794L10.2659 7.27788L10.0719 7.53783L10.0644 7.54793L10.0574 7.5584C10.0467 7.57441 10.034 7.5919 10.0147 7.61847L10.0128 7.62111C10.0039 7.63334 9.99344 7.64778 9.98229 7.66348C9.98107 7.66489 9.97987 7.66627 9.97872 7.66763L9.95569 7.69053L9.92809 7.7317C9.91735 7.74771 9.90472 7.7652 9.88542 7.79177L9.88351 7.79441C9.86703 7.8171 9.84502 7.8474 9.82358 7.8792" fill="white" stroke="black"/>
</svg>
