<svg width="36" height="52" viewBox="0 0 36 52" fill="none" xmlns="http://www.w3.org/2000/svg">
<path d="M14.1369 5.31549C14.1369 5.31549 13.7265 1.46382 14.0863 0.642057C14.4461 -0.179708 21.2147 -0.23002 22.2434 0.591744C23.2778 1.41351 22.2434 5.31549 22.2434 5.31549H14.1369Z" fill="#F6C423"/>
<path d="M18.2692 3.86198C16.8356 3.76695 15.0873 3.25265 13.9348 2.21845C13.9517 3.60483 14.1316 5.31544 14.1316 5.31544H22.2381C22.2381 5.31544 22.8678 2.92841 22.6485 1.49731C21.9402 3.06817 20.04 3.98497 18.2636 3.86757L18.2692 3.86198Z" fill="#12AB0F"/>
<path d="M22.2998 12.6947V7.14355H13.9234V12.6947C13.9234 14.5059 12.8497 16.1606 11.1688 16.8594C4.60258 19.6154 0.0321063 26.1448 0.223245 33.7195C0.459358 43.1447 8.19487 50.8257 17.6731 51.0493C27.7529 51.2896 36 43.2341 36 33.2611C36 25.91 31.5194 19.6098 25.1275 16.8929C23.4242 16.1718 22.2998 14.5338 22.2998 12.6947Z" fill="#F4ECE5"/>
<path d="M23.1431 3.54907H13.0802C12.5461 3.54907 12.1132 3.97956 12.1132 4.51059V7.36161C12.1132 7.89265 12.5461 8.32313 13.0802 8.32313H23.1431C23.6771 8.32313 24.11 7.89265 24.11 7.36161V4.51059C24.11 3.97956 23.6771 3.54907 23.1431 3.54907Z" fill="#F4ECE5"/>
<g style="mix-blend-mode:multiply" opacity="0.3">
<path d="M22.2041 6.97012H14.165C13.1587 6.97012 12.4729 6.47259 12.1075 5.80176V7.36143C12.1075 7.89251 12.5404 8.32295 13.0744 8.32295H23.143C23.677 8.32295 24.1099 7.89251 24.1099 7.36143V6.04214C23.722 6.58998 23.0867 6.97012 22.2041 6.97012Z" fill="#25DDFF"/>
</g>
<path d="M23.9837 42.2883H12.2337C9.87627 43.031 8.34985 44.2094 8.34985 45.5377C8.34985 47.7855 12.7188 49.6075 18.1087 49.6075C23.4987 49.6075 27.8676 47.7855 27.8676 45.5377C27.8676 44.2094 26.3412 43.031 23.9837 42.2883Z" fill="#23CF53"/>
<path d="M27.8484 43.9151C28.8097 44.6977 23.4915 45.5418 18.1115 45.5418C12.7315 45.5418 7.22224 44.8654 8.3747 43.9151C9.0718 43.3393 12.7315 42.2883 18.1115 42.2883C23.4915 42.2883 27.1457 43.3505 27.8484 43.9151Z" fill="#12AB0F"/>
<g style="mix-blend-mode:multiply" opacity="0.3">
<path d="M34.4893 34.9692C34.1747 36.5872 33.43 38.2881 32.292 39.5591C29.7695 42.3877 26.0251 44.892 21.2739 45.5596C17.776 46.0499 16.2761 46.114 12.773 45.5596C11.9129 45.4238 11.2836 45.1636 10.3921 44.8958C8.20524 44.232 7.00431 43.9001 5.1531 42.4745C4.11999 41.6825 3.17078 40.8226 2.36842 39.8986C2.17962 39.6798 2.00657 39.4535 1.84399 39.2272C2.41561 45.3559 9.47959 50.2702 18.0906 50.4172C27.4935 50.5794 35.1868 45.1447 35.1868 38.4164C35.1868 37.217 34.9403 36.063 34.4841 34.9692H34.4893Z" fill="#25DDFF"/>
</g>
<path d="M13.286 36.7102C13.2973 36.721 13.3078 36.7312 13.3172 36.7404C13.3344 36.757 13.3483 36.7705 13.3575 36.7789L13.3628 36.7838L13.3627 36.7838C14.0267 37.4149 14.6024 38.1324 15.0785 38.9128C15.08 38.9143 15.0822 38.9163 15.085 38.9187C15.099 38.9305 15.1213 38.9464 15.1528 38.9647C15.217 39.0021 15.2925 39.0336 15.3512 39.0531C15.5614 39.1228 15.8219 39.1227 16.1019 39.0699L16.1078 39.0688L16.1078 39.0688C16.3327 39.0292 16.584 38.9489 16.7965 38.83C17.012 38.7094 17.1498 38.5713 17.214 38.4338C17.2141 38.4336 17.2141 38.4335 17.2142 38.4333L17.6674 38.6444C18.3926 37.0792 19.2528 35.581 20.2366 34.1611L13.286 36.7102ZM13.286 36.7102C13.283 36.7059 13.2803 36.7023 13.2784 36.6997C13.2629 36.68 13.2493 36.6659 13.2447 36.661C13.2335 36.6495 13.2242 36.641 13.2216 36.6387L13.2216 36.6386C13.2147 36.6324 13.209 36.6275 13.2075 36.6262C13.2007 36.6205 13.1933 36.6146 13.1907 36.6125L13.1574 36.5859L13.0645 36.5119L13.0241 36.4794C13.0158 36.4727 13.0114 36.469 13.0096 36.4676C13.0095 36.4674 13.0093 36.4673 13.0092 36.4672L13.0093 36.467L12.9987 36.4583C12.8252 36.3155 12.6536 36.1862 12.4809 36.0603L12.4781 36.0583C12.0949 35.7828 11.7001 35.5366 11.2882 35.3143L11.2872 35.3138C11.2498 35.2937 11.2235 35.2653 11.2039 35.2233C11.1827 35.1777 11.1691 35.1133 11.173 35.0364C11.1756 35.0043 11.1933 34.9466 11.2641 34.8586C11.3359 34.7691 11.4368 34.6802 11.5529 34.5904C12.0323 34.2214 12.8041 34.1427 13.3149 34.4166C14.1501 34.8692 14.9281 35.4453 15.6157 36.113L16.0456 36.5305L16.3794 36.0327C16.3992 36.0032 16.4156 35.9751 16.4248 35.9595L16.4262 35.957C16.4371 35.9384 16.4396 35.9344 16.4412 35.9321L16.4488 35.9207L16.4558 35.909C18.3308 32.7521 20.7543 29.9673 23.6007 27.6325L23.6011 27.6321C23.8012 27.4676 24.1145 27.3445 24.461 27.3095C24.7529 27.28 25.0221 27.3174 25.2251 27.4036L25.3308 27.4653C25.4258 27.5208 25.4751 27.6321 25.4639 27.7168L25.4637 27.7183C25.4471 27.846 25.3336 27.9903 25.0696 28.2061L25.0695 28.206L25.0617 28.2127C24.9649 28.2952 24.8665 28.3779 24.7665 28.462L24.7656 28.4627C24.6738 28.5398 24.5808 28.618 24.4885 28.6965C24.4691 28.7105 24.4545 28.7228 24.4451 28.731C24.4343 28.7404 24.4243 28.7498 24.4168 28.7571C24.3303 28.8323 24.2347 28.9163 24.143 29.0017C23.7709 29.3377 23.4111 29.6842 23.0581 30.0409C22.4404 30.6608 21.8461 31.3144 21.2864 31.9846C21.0054 32.321 20.7315 32.6673 20.4654 33.0107L20.4653 33.0106L20.4598 33.0179L20.2659 33.2779L20.0719 33.5378L20.0644 33.5479L20.0574 33.5584C20.0467 33.5744 20.034 33.5919 20.0147 33.6185L20.0128 33.6211C20.0039 33.6333 19.9934 33.6478 19.9823 33.6635C19.9811 33.6649 19.9799 33.6663 19.9787 33.6676L19.9557 33.6905L19.9281 33.7317C19.9174 33.7477 19.9047 33.7652 19.8854 33.7918L19.8835 33.7944C19.867 33.8171 19.845 33.8474 19.8236 33.8792" fill="white" stroke="black"/>
</svg>
