<svg width="82" height="90" viewBox="0 0 82 90" fill="none" xmlns="http://www.w3.org/2000/svg">
<path d="M7.44547 56.6411C6.71277 55.588 5.96517 54.5474 5.29208 53.4496C4.17689 51.624 3.27281 49.7041 2.49789 47.7146C1.6112 45.447 1.05236 43.0949 0.63013 40.708C0.493525 39.9381 0.332083 39.1582 0.406594 38.3609C1.0002 38.2417 1.13681 38.7707 1.35538 39.0961C2.4507 40.713 3.55099 42.32 4.83508 43.8003C7.13252 46.4479 9.76279 48.6684 12.8674 50.3126C13.3269 50.556 13.846 50.7224 14.1118 51.2291C14.2012 51.4973 14.1192 51.7457 14.0273 51.9966C13.7144 52.8584 13.5703 53.7476 13.6324 54.6641C13.7268 56.05 13.0388 57.2695 12.8227 58.5909C12.6762 59.485 12.8799 60.2748 13.3865 60.9951C13.6101 61.3155 13.9354 61.5465 14.3552 61.4894C14.7998 61.4273 15.0084 61.0597 15.0506 60.6822C15.1748 59.5744 15.6318 58.6852 16.5285 58.0097C16.8489 57.7663 16.8737 57.3589 16.9333 56.9764C17.0898 55.973 17.6138 55.6452 18.6073 55.8935C19.2904 56.0649 19.9187 56.3853 20.5893 56.594C22.1144 57.0683 23.2519 56.6685 24.1361 55.3173C24.4391 54.8553 24.7719 54.4108 25.0203 53.9115C25.1172 53.8022 25.2364 53.7327 25.3804 53.7079C30.7354 54.3959 35.8593 53.5713 40.7994 51.4154C43.5812 50.2033 45.9829 48.4796 48.0941 46.3237C48.3375 46.0754 48.5387 45.7699 48.8939 45.6531C48.9907 45.6333 49.0826 45.6407 49.177 45.6705C49.6837 45.9785 49.7607 46.5125 49.9047 47.0192C50.332 48.5194 50.7666 48.8621 52.3388 48.877C52.9597 48.8845 53.5682 48.9639 54.1594 49.1254C55.2671 49.4259 55.7043 50.2828 55.1305 51.2763C54.3183 52.6821 53.8564 54.1326 53.8539 55.7718C53.8539 56.7281 53.3248 57.4856 52.453 57.965C52.0184 58.2059 51.5837 58.4493 51.164 58.7151C50.101 59.3881 49.6738 60.404 49.8104 61.5689C49.9668 62.8976 49.6862 64.0749 48.9932 65.1678C48.3152 66.2407 47.9202 67.4404 47.3614 68.5655C47.0435 69.0051 46.5368 69.0995 46.0699 69.2535C41.547 70.7437 36.8652 71.0815 32.1834 70.6866C24.8415 70.0657 18.3118 67.2814 12.6067 62.5996C12.3558 62.3934 12.1447 62.15 11.9485 61.8967C10.9028 61.1491 10.0012 60.25 9.18408 59.2615C8.72459 58.6952 8.19556 58.1885 7.76587 57.5974C7.55227 57.3043 7.36848 57.0212 7.44795 56.6387L7.44547 56.6411Z" fill="#6A81B8"/>
<path d="M13.948 51.1995C13.2327 51.0107 12.6019 50.6357 11.971 50.2756C10.5255 49.451 9.20164 48.455 7.91507 47.3969C6.87439 46.54 5.92809 45.5888 5.01904 44.6102C4.22922 43.7607 3.47665 42.8641 2.82095 41.8979C2.0187 40.7157 1.21149 39.5409 0.406765 38.3611C0.285063 37.9364 0.235388 37.5042 0.237872 37.0621C0.24284 35.8327 0.190681 34.6008 0.255258 33.3763C0.317351 32.1816 0.453956 30.9894 0.630301 29.8072C0.92338 27.8376 1.40274 25.9102 2.04602 24.0226C3.31272 20.3069 5.13081 16.8918 7.50525 13.7673C8.94581 11.8722 10.6496 10.228 12.3634 8.59119C12.6168 8.35027 12.9098 8.14909 13.193 7.94543C13.3197 7.85353 13.4066 7.94542 13.4637 8.06216C13.8785 8.47943 13.7121 8.9265 13.5034 9.3537C13.0961 10.1932 12.7111 11.0352 12.4479 11.9368C12.3485 12.2746 12.3262 12.5478 12.4677 12.8508C12.5323 13.0371 12.5273 13.2209 12.4503 13.4022C11.966 14.6242 11.4668 15.8313 11.2631 17.1526C11.0073 18.8192 11.437 20.2995 12.3535 21.6432C13.1483 22.8105 15.0359 23.3097 16.5733 22.9049C17.1669 22.7484 17.7034 22.4082 18.3318 22.3684C18.4262 22.3734 18.5156 22.3982 18.6001 22.4429C19.0744 22.7683 19.1812 23.3023 19.3203 23.799C19.606 24.8099 19.9413 25.796 20.5076 26.6926C20.7609 27.0949 20.823 27.5619 20.9397 28.0114C20.8652 28.8037 20.5125 29.534 20.4157 30.3238C20.1201 30.9323 19.7649 31.4986 19.2582 31.963C18.9503 32.2462 18.7391 32.6063 18.6125 32.9988C18.0983 34.6157 17.5196 36.2152 17.2266 37.8917C17.0403 38.9572 17.316 39.9954 17.6438 40.9939C18.1902 42.653 18.1604 44.1706 17.0577 45.6459C16.469 46.4332 16.1188 47.3845 15.8531 48.3606C15.555 49.4534 15.2296 50.5661 14.2113 51.269C14.112 51.2914 14.0225 51.269 13.9431 51.2069L13.948 51.1995Z" fill="#6A81B8"/>
<path d="M12.1946 12.8805C11.9164 12.2421 12.1126 11.6237 12.3188 11.0276C12.4901 10.5408 12.741 10.0813 12.9645 9.61188C13.2005 9.11762 13.4513 8.62832 13.4638 8.05955C13.5706 7.63732 13.8611 7.36907 14.194 7.11822C18.1853 4.12781 22.6039 2.05639 27.4595 0.911389C30.8498 0.11163 34.2848 -0.131775 37.7521 0.064439C38.8027 0.124048 39.8459 0.290458 40.8915 0.41216C41.1846 0.446933 41.4603 0.546282 41.7136 0.700273C41.7584 0.710208 41.8006 0.722626 41.8428 0.732561C41.9272 0.76485 42.0042 0.809557 42.0738 0.866682C42.9704 1.38578 43.2759 2.26502 43.4597 3.1989C43.6509 4.17749 44.4184 4.93254 45.3647 5.15111C46.0304 5.3051 46.7034 5.26288 47.3691 5.36471C48.5141 5.54354 49.5597 5.97074 50.5954 6.45506C50.9804 6.55193 51.2511 6.80279 51.4871 7.10332C51.9391 8.15393 52.7662 8.97108 53.2853 9.98444C53.6256 10.6501 53.8889 11.3083 53.7895 12.0683C53.7349 12.9351 53.1139 13.3474 52.4284 13.6231C50.9357 14.2217 48.6755 13.3623 47.9081 11.9515C47.5752 11.3356 47.5107 10.6973 47.6671 9.99934C47.8733 9.08781 47.6771 8.85683 46.8152 9.05552C45.012 9.47527 43.2337 9.48521 41.433 9.03317C40.5066 8.7997 40.4171 8.9214 40.3575 9.84286C40.3501 9.9596 40.3526 10.0763 40.3401 10.1931C40.1961 11.6932 40.3327 11.8249 41.8329 11.5765C42.6972 11.4349 43.5541 11.2685 44.4383 11.2437C46.1893 11.194 47.5405 11.964 48.6706 13.2058C49.3412 13.9435 49.5374 14.7755 49.058 15.7119C48.7202 16.3726 48.7699 17.073 48.9363 17.7709C49.1648 18.7321 49.2294 19.6685 48.7028 20.5775C48.0372 21.7225 46.7258 22.1746 45.5286 21.6058C44.9698 21.34 44.4557 20.9824 44.0409 20.5328C43.112 19.5294 41.962 18.829 40.8394 18.0863C39.5901 17.2618 38.301 17.1177 36.9399 17.828C36.2147 18.2081 35.4696 18.5558 34.7393 18.9283C33.8377 19.3853 32.8666 19.6039 31.8781 19.7182C31.3019 19.7852 30.7977 19.9591 30.3556 20.3217C30.0799 20.5477 29.7669 20.7042 29.454 20.8632C27.5117 21.8393 25.8898 21.0991 25.3931 18.9805C25.2441 18.3422 24.9932 17.7635 24.6803 17.1997C24.5511 16.5042 25.0131 16.1267 25.4651 15.7442C27.1019 14.3682 28.9547 13.2903 30.6486 11.9913C31.364 11.4424 31.9129 10.7643 32.3078 9.97699C33.2292 8.144 32.3152 6.07257 30.2339 5.33242C27.8594 4.48795 25.4577 4.64443 23.0733 5.3051C18.9379 6.4501 15.6842 8.85434 13.1682 12.3018C12.9397 12.6147 12.7286 13.032 12.1995 12.8829L12.1946 12.8805Z" fill="#6A81B8"/>
<path d="M80.9862 38.1423C81.1526 38.7459 81.1005 39.3643 81.088 39.9753C81.0334 42.8813 80.718 45.7599 80.0176 48.5864C78.7583 53.6582 76.5404 58.2729 73.3488 62.4108C69.0867 67.9371 63.6871 71.993 57.3039 74.7649C53.7646 76.3023 50.0787 77.3256 46.2637 77.8869C43.5366 78.2893 40.7896 78.4532 38.0302 78.329C37.6204 78.3116 37.2106 78.3042 36.8007 78.2942C36.5226 78.6221 36.1624 78.6519 35.7625 78.6146C31.2298 78.1825 26.8187 77.2262 22.564 75.5795C21.9903 75.3585 21.4439 75.0778 20.8652 74.8717C20.4951 74.7375 20.207 74.4941 20.0828 74.0992C15.6568 72.08 11.658 69.4174 8.07647 66.1289C7.98954 66.0495 7.90012 65.975 7.81319 65.898C7.79084 65.8433 7.75358 65.7763 7.77594 65.734C8.37948 64.6015 9.13702 63.6328 10.4559 63.2776C11.2954 63.5359 11.8443 64.214 12.5049 64.7256C14.03 65.9079 15.6543 66.9362 17.3134 67.9123C17.6438 68.106 17.9592 68.3097 18.1902 68.6251C18.8161 69.5043 19.8121 69.8794 20.7037 70.3215C25.08 72.4848 29.6377 74.1365 34.5182 74.7077C41.1398 75.4827 47.5131 74.5016 53.6777 71.9632C58.5631 69.9489 63.0786 67.3286 67.0649 63.8638C70.336 61.0199 73.0035 57.6644 75.0725 53.8295C77.0768 50.1164 78.3162 46.125 79.5208 42.1138C79.8487 41.021 80.2038 39.9381 80.5218 38.8403C80.6012 38.5646 80.6459 38.2541 80.9837 38.1448L80.9862 38.1423Z" fill="#6A81B8"/>
<path d="M80.9864 38.1424C80.9963 38.9223 80.7082 39.6376 80.4847 40.3603C79.6601 43.0179 78.8951 45.6929 77.9637 48.3132C77.5315 49.5278 77.0596 50.7225 76.4908 51.8823C75.6538 53.5936 74.7721 55.2801 73.719 56.8672C72.8447 58.1836 71.9183 59.4652 70.8677 60.6449C70.1101 61.4968 69.2632 62.2693 68.4585 63.084C67.2638 64.2935 65.9499 65.359 64.5665 66.3501C63.3047 67.2541 62.0256 68.1309 60.6918 68.9232C58.9532 69.9539 57.1575 70.8704 55.3071 71.6925C53.4021 72.5395 51.44 73.22 49.4604 73.8509C47.9528 74.3327 46.4005 74.6457 44.8457 74.9214C44.0708 75.058 43.2859 75.1549 42.5035 75.2567C42.2427 75.289 41.977 75.2865 41.7137 75.2865C40.3948 75.289 39.076 75.2691 37.7596 75.2939C36.4085 75.3188 35.0797 75.1375 33.7459 74.976C31.6447 74.7202 29.6031 74.2086 27.5937 73.5752C26.2277 73.1455 24.879 72.6488 23.585 72.0179C22.8498 71.6578 22.0823 71.3597 21.3571 70.9772C20.2965 70.4184 19.2583 69.8124 18.2177 69.2163C18.0761 69.1343 17.8948 69.0672 17.8526 68.8735C17.8476 68.8536 17.937 68.8139 17.9817 68.7841C18.553 68.4364 18.9926 68.8462 19.4471 69.0623C23.0609 70.7835 26.8138 72.0875 30.7555 72.7928C34.9232 73.5379 39.1058 73.7143 43.3281 73.1902C47.9379 72.6165 52.3341 71.3647 56.477 69.2908C59.4425 67.808 62.1548 65.9303 64.6509 63.7223C67.7854 60.9479 70.2666 57.6794 72.2089 54.0084C74.0568 50.5138 75.2092 46.7783 75.6762 42.8366C75.9146 40.8298 76.086 38.8229 75.9593 36.7987C76.3815 34.2479 76.0512 31.7393 75.4799 29.2556C74.3747 24.467 72.4572 20.046 69.4147 16.1515C68.1728 14.5619 66.9409 12.9649 65.2395 11.8124C64.9539 11.6187 64.6832 11.3728 64.6112 10.9953C64.8248 9.9372 65.6369 9.20698 66.5261 9.27404C73.2371 15.076 77.8097 22.2118 79.978 30.8452C80.5343 33.0656 80.892 35.3209 80.9864 37.6109C80.9938 37.7847 80.9839 37.9611 80.9814 38.1374L80.9864 38.1424Z" fill="#6A81B8"/>
<path d="M51.2263 7.26471C50.9928 7.09085 50.7568 6.91451 50.5234 6.74064C49.1548 5.52114 47.913 4.17247 46.619 2.87845C46.3259 2.58537 45.9061 2.31216 46.147 1.77319C46.7953 1.83529 47.3914 2.09359 47.9825 2.32706C49.0381 2.74433 50.0738 3.21624 51.117 3.67324C51.4125 3.8024 51.7007 3.94397 51.8745 4.23953C53.2033 5.81918 54.6811 7.29203 55.5653 9.20202C55.9801 10.0986 56.6234 10.8115 57.3412 11.4672C58.295 12.3365 58.9407 13.3623 59.281 14.6314C59.7529 16.3899 60.2248 16.755 62.0205 16.688C63.2972 16.6383 64.1541 17.2443 64.8545 18.1484C65.4679 18.9382 66.2454 19.3704 67.1966 19.5592C68.2497 20.7066 68.5428 22.2143 69.0942 23.5977C69.2656 24.0249 69.4047 24.4794 69.1612 24.9414C68.4186 25.7585 67.9517 26.5955 68.3963 27.7927C68.7539 28.7564 68.0759 29.5288 66.9532 29.5835C65.3761 29.6605 63.789 29.6977 62.2317 29.3823C61.3897 29.2134 60.6545 29.3972 59.9715 29.8269C59.2512 30.2789 58.4787 30.5198 57.6467 30.4776C57.0581 30.4503 56.539 30.9123 55.9379 30.6614C55.5653 30.1125 55.774 29.5214 55.8534 28.9625C56.6358 23.5232 56.1341 18.2353 54.0527 13.1263C53.8739 12.6842 53.787 12.2322 53.6777 11.7801C53.5858 9.88504 52.4756 8.54135 51.2288 7.26968L51.2263 7.26471Z" fill="#6A81B8"/>
<path d="M37.8317 80.932C39.4361 81.6572 41.0009 82.4495 42.4067 83.525C42.8736 83.8826 43.2934 84.29 43.6932 84.7197C43.9963 85.0475 44.2148 85.4275 44.3812 85.8348C44.7463 86.7215 44.5303 87.5933 43.7876 88.2093C43.4026 88.5297 42.968 88.7781 42.4961 88.947C41.6938 89.2326 40.8692 89.4164 40.0248 89.5406C38.2166 89.8014 36.3985 89.7591 34.5854 89.6797C32.9213 89.6051 31.2597 89.4064 29.613 89.1382C26.9803 88.711 24.3748 88.1596 21.8166 87.407C19.0299 86.5874 16.2953 85.6262 13.7097 84.2925C12.6194 83.7311 11.5191 83.1673 10.615 82.308C10.8882 81.6274 11.3849 81.9801 11.7848 82.0894C14.2636 82.7774 16.7274 83.5225 19.2261 84.1385C21.901 84.7991 24.6158 85.2437 27.3702 85.2537C30.2066 85.2636 32.9536 84.7569 35.4522 83.289C35.8273 83.068 36.0608 82.755 36.2793 82.4098C36.8555 81.9776 37.0244 81.1133 37.8341 80.927L37.8317 80.932Z" fill="#6A81B8"/>
<path d="M36.6418 82.4967C35.9911 83.4579 35.0125 83.9844 34.0066 84.4539C32.5884 85.117 31.0708 85.3629 29.5185 85.5119C28.5871 85.6013 27.6606 85.6684 26.7268 85.6634C26.3766 85.6634 26.0264 85.6585 25.6836 85.5666C25.5172 85.5219 25.3384 85.4995 25.1645 85.497C23.6395 85.4796 22.1542 85.1617 20.6665 84.8761C18.5131 84.4638 16.4193 83.8106 14.3106 83.2269C13.2426 82.9313 12.1821 82.6035 11.1166 82.2881C10.9452 82.2359 10.7788 82.1862 10.6198 82.3104C10.0635 81.9677 9.64122 81.4808 9.24631 80.9717C9.10474 80.7879 8.98303 80.5817 8.88617 80.3706C8.40433 79.3225 8.66263 78.3315 9.60645 77.6658C10.1106 77.3107 10.672 77.0524 11.2656 76.8835C12.423 76.5581 13.6052 76.3619 14.8099 76.337C15.5699 76.3221 16.3299 76.3221 17.0924 76.3147C17.3134 76.3867 17.4277 76.5606 17.4525 76.7667C17.6338 78.3017 18.7441 79.0915 19.9065 79.8416C20.1747 80.0154 20.4479 80.1794 20.736 80.3209C21.3868 80.9866 22.2908 81.1157 23.103 81.4138C26.7268 82.7376 30.4449 83.371 34.3071 82.8096C34.7989 82.7376 35.2807 82.6085 35.7452 82.4172C36.0532 82.2905 36.3636 82.2185 36.6418 82.4942V82.4967Z" fill="#6A81B8"/>
<path d="M36.6417 82.4967C36.53 82.5314 36.4107 82.5488 36.3089 82.601C35.1565 83.1648 33.9295 83.3834 32.6578 83.3908C32.248 83.3933 31.8382 83.3883 31.4284 83.3983C30.0474 83.438 28.6864 83.279 27.3352 83.0158C25.2042 82.601 23.1278 82.0124 21.183 81.0213C20.9247 80.8897 20.6441 80.7904 20.4379 80.5693C20.8502 79.9906 21.4314 80.2241 21.9654 80.2638C23.6767 80.3855 25.388 80.691 27.0893 80.1992C27.3601 80.1198 27.7624 80.1322 27.7848 79.7869C27.8071 79.4442 27.4023 79.3846 27.1489 79.2803C25.0701 78.4234 22.8844 77.8322 20.8999 76.7419C20.2616 76.3892 19.6034 76.0638 19.0545 75.5721C18.8136 75.3584 18.5478 75.1498 18.6869 74.7624C18.9055 74.5512 19.196 74.4941 19.4693 74.3997C19.6878 74.3227 19.9188 74.2731 20.0877 74.0942C21.7766 74.8245 23.473 75.5348 25.229 76.0812C27.5712 76.8114 29.9456 77.4001 32.3747 77.7751C33.8451 78.0036 35.3254 78.1402 36.8032 78.2892C36.8404 78.5277 37.0093 78.6891 37.1459 78.8704C37.6079 79.4789 37.8712 80.1545 37.8339 80.9294C37.5781 81.5578 37.1857 82.0844 36.6417 82.4942V82.4967Z" fill="#6A81B8"/>
<path d="M67.0424 19.7057C66.1383 19.8249 65.4528 19.4374 64.8791 18.7842C64.5711 18.4315 64.2705 18.0714 63.9626 17.7187C63.5726 17.2716 63.0883 17.058 62.4847 17.0903C62.0476 17.1151 61.6055 17.1176 61.1684 17.1052C60.4059 17.0829 59.8346 16.7252 59.4422 16.072C59.1516 15.5901 58.9479 15.071 58.8312 14.5271C58.6225 13.5411 58.1208 12.7413 57.3807 12.0782C57.1845 11.9018 56.9982 11.7155 56.8045 11.5367C56.1289 10.9158 55.58 10.1955 55.19 9.36344C54.6883 8.29296 54.0426 7.33424 53.2204 6.47487C52.6119 5.83904 52.1276 5.10137 51.8743 4.23703C52.1003 4.1501 52.2642 4.29416 52.443 4.38854C53.9382 5.19824 55.3589 6.12467 56.7126 7.15293C57.0603 7.41869 57.4204 7.66954 57.7731 7.92785C58.2848 7.91046 58.63 8.20603 58.9728 8.53388C59.6235 9.15233 60.391 9.64659 60.925 10.3892C61.6626 11.0524 62.2612 11.8372 62.9095 12.5824C64.4394 14.3433 65.6664 16.3104 66.794 18.3396C67.0225 18.7494 67.3727 19.1742 67.0449 19.7032L67.0424 19.7057Z" fill="#6A81B8"/>
<path d="M10.3962 63.4862C10.2497 63.5756 10.0808 63.6427 9.96157 63.7594C9.24129 64.4648 8.53095 65.1826 7.81563 65.8954C7.33131 66.3202 6.84201 66.7349 6.3701 67.1721C6.00003 67.5148 5.59767 67.793 5.13073 67.9843C3.21081 68.7666 0.719631 67.5918 0.441453 65.0559C0.396746 64.6412 0.466291 64.2388 0.61283 63.8489C0.756886 63.5756 0.980422 63.3943 1.28095 63.3372C4.02795 62.7957 6.2186 61.2236 8.33473 59.5197C8.65762 59.2614 8.96063 58.9932 9.41267 59.0379C10.2919 59.8873 11.1736 60.7343 12.0529 61.5837C11.9833 62.6393 11.2084 63.0814 10.3937 63.4912L10.3962 63.4862Z" fill="#6A81B8"/>
<path d="M60.7067 10.603C59.7281 9.71133 58.7495 8.82215 57.7734 7.9305C59.0922 6.64889 60.4036 5.36481 61.7275 4.09066C62.336 3.5045 62.9594 2.93076 63.5878 2.36695C65.1004 1.00587 68.056 1.32627 68.9501 3.56411C68.8483 3.86712 68.7788 4.17759 68.4981 4.39367C66.1063 6.23163 63.933 8.32541 61.6505 10.2925C61.3748 10.5285 61.1041 10.747 60.7091 10.603H60.7067Z" fill="#6A81B8"/>
<path d="M18.687 74.7625C19.3377 75.4555 20.1698 75.8876 20.9844 76.3372C22.4474 77.1469 24.022 77.6908 25.5893 78.2571C26.1655 78.4657 26.7417 78.6744 27.313 78.9004C27.7501 79.0742 28.15 79.3176 28.5076 79.6207C28.6095 79.7076 28.607 79.8293 28.525 79.9336C28.4729 80.0007 28.4108 80.0702 28.3363 80.1149C28.1624 80.2192 27.9836 80.3236 27.7973 80.403C26.9826 80.7607 25.013 80.9743 24.099 80.8128C24.0419 80.8029 23.9848 80.7806 23.9277 80.7781C22.7653 80.706 21.6004 80.6365 20.438 80.5645C19.3228 80.0677 18.379 79.3574 17.6364 78.3813C17.2862 77.9218 17.0924 77.4176 17.0924 76.8414C17.0924 76.665 17.0924 76.4912 17.09 76.3148C17.3955 75.5647 17.8947 75.0109 18.687 74.76V74.7625Z" fill="#6A81B8"/>
<path d="M60.7068 10.6028C61.3749 10.039 62.0728 9.51249 62.6938 8.89156C63.5804 8.00487 64.5714 7.23243 65.5004 6.39044C66.6056 5.3895 67.7978 4.50033 68.9503 3.56396C69.5985 5.01446 69.2856 6.29358 68.2325 7.42367C67.8351 7.85087 67.4054 8.24579 66.9906 8.65809C66.8068 8.84188 66.5907 9.00332 66.5311 9.2815C65.8307 9.70622 65.3066 10.3197 64.7726 10.9232C64.7354 11.3182 64.5118 11.6088 64.2312 11.8646C63.794 12.3141 63.3966 12.8307 62.6714 12.7935C61.961 12.1129 61.3376 11.3554 60.7043 10.6053L60.7068 10.6028Z" fill="#6A81B8"/>
<path d="M9.41286 59.0355C9.2539 59.413 8.87637 59.5621 8.59074 59.8005C7.18247 60.9828 5.6972 62.0607 4.02069 62.8381C3.09674 63.2678 2.15293 63.6577 1.10976 63.7024C0.94087 63.7099 0.776944 63.7968 0.610535 63.8465C0.719819 63.1808 1.11225 62.6816 1.57422 62.2271C2.67203 61.1442 3.76735 60.0613 4.87261 58.9858C5.60282 58.278 6.34794 57.5825 7.09057 56.8871C7.19489 56.7902 7.32653 56.7207 7.44326 56.6362C8.09897 57.4335 8.75467 58.2333 9.41037 59.0305L9.41286 59.0355Z" fill="#6A81B8"/>
<path d="M46.1472 1.77083C46.2714 2.04653 46.5024 2.23281 46.7085 2.44144C47.4934 3.23127 48.2683 4.03102 49.073 4.7985C49.5648 5.26792 49.9324 5.83173 50.3795 6.33592C50.4689 6.43527 50.4788 6.60416 50.5235 6.74077C50.305 6.65881 50.0839 6.58429 49.8703 6.49488C48.7005 6.01055 47.4834 5.72244 46.2192 5.63799C45.6355 5.59826 45.0544 5.53368 44.4732 5.48649C44.2124 5.46413 44.0211 5.38217 44.0013 5.08164C43.9714 4.60476 43.6958 4.34646 43.2537 4.23221C43.0003 4.16763 42.9382 3.9888 43.0078 3.7603C43.1891 3.14682 42.9978 2.6004 42.6898 2.09124C42.434 1.66652 42.136 1.26664 41.8578 0.856824C41.8354 0.83447 41.8131 0.809633 41.7907 0.787279C41.756 0.76741 41.7311 0.740089 41.7137 0.705316C41.8752 0.603484 42.0416 0.648191 42.213 0.680479C43.4871 0.918917 44.7389 1.23932 45.9708 1.6392C46.0305 1.68887 46.0876 1.73855 46.1472 1.78574V1.77829V1.77083Z" fill="#6A81B8"/>
<path d="M11.8691 25.7511C12.2193 24.4695 13.9679 21.7697 14.0697 20.4707C14.1119 19.9218 21.9829 20.3018 21.7891 19.8945C21.7295 19.7579 21.6848 19.589 21.7618 19.4772C22.5119 18.3993 23.2446 17.2965 24.6131 16.9016C24.7001 16.9339 24.7795 16.9786 24.8541 17.0332C25.3284 17.3412 25.5619 17.8007 25.6613 18.3397C25.6985 18.5408 25.7283 18.7445 25.778 18.9432C25.8848 19.3729 26.0487 19.7802 26.3145 20.1379C26.8584 20.8681 27.616 21.1239 28.4877 20.8606C29.054 20.6893 29.588 20.4309 30.0326 20.0485C30.5939 19.5666 31.2124 19.3331 31.9476 19.2934C32.9858 19.2363 33.9495 18.8886 34.8684 18.4117C35.3105 18.1832 35.7551 17.9596 36.2022 17.7386C36.4655 17.6094 36.7337 17.4902 36.9945 17.3586C38.2215 16.7376 39.4261 16.8146 40.5984 17.4927C41.8676 18.2279 43.0995 19.0177 44.1526 20.0534C44.4457 20.3415 44.7462 20.6197 45.0616 20.8805C45.7943 21.484 46.5991 21.7349 47.4982 21.2605C48.3352 20.8184 48.8468 19.7951 48.7227 18.814C48.678 18.4663 48.5885 18.1236 48.524 17.7783C48.4768 17.52 48.4321 17.2592 48.3923 16.9984C48.3178 16.5191 48.3774 16.0646 48.6481 15.6498C48.6953 15.5777 48.7351 15.4958 48.7773 15.4188C49.0778 14.8749 49.048 14.3384 48.6829 13.8491C47.7317 12.5675 46.4997 11.7454 44.8679 11.6261C44.011 11.5641 43.1765 11.728 42.3395 11.8795C41.9371 11.9515 41.5323 12.0136 41.1249 12.0757C41.0107 12.0931 40.8915 12.1005 40.7747 12.0931C39.9824 12.0409 39.6446 11.6535 39.8111 10.8835C39.9501 10.2452 40.0669 9.62675 39.9005 8.97849C39.8533 8.79718 40.0023 8.65561 40.1861 8.58855C40.4692 8.48175 40.7648 8.49168 41.0529 8.54384C41.5422 8.63077 42.034 8.72019 42.5158 8.8394C43.559 9.09771 44.5997 9.09771 45.6478 8.87169C46.2489 8.74254 46.8524 8.61587 47.4609 8.53391C47.9726 8.46436 48.2979 8.81705 48.2507 9.3287C48.2408 9.44295 48.206 9.5572 48.1762 9.67145C48.1266 9.87015 48.0794 10.0688 48.0222 10.2651C47.8186 10.9829 48.0222 11.6063 48.5066 12.1328C49.2964 12.9947 50.2725 13.4765 51.4622 13.4393C52.4631 13.407 53.1983 12.9773 53.5312 11.9863C53.6603 11.9043 53.551 11.6833 53.7373 11.6361C54.1223 12.2247 54.398 12.863 54.6588 13.5163C55.1779 14.8202 55.5728 16.1614 55.8758 17.53C56.077 18.439 56.2111 19.3629 56.3601 20.2819C56.4967 21.1239 56.452 21.9684 56.5365 22.8054C56.6333 23.7939 56.7128 24.77 56.5191 25.7536C56.6035 27.1916 56.2608 28.59 56.1366 30.0107C56.1192 30.2119 56.0372 30.4056 55.9851 30.6043C56.1117 30.7682 56.1614 30.952 56.1465 31.1582C56.0248 31.8312 55.8509 32.4944 55.8137 33.1799C55.7913 33.5699 55.6249 33.8903 55.3145 34.1312C55.0462 34.2454 54.7656 34.3125 54.4725 34.3398C50.8413 34.6701 48.3725 36.6969 46.6115 39.7444C46.3159 40.256 46.1818 40.8198 46.147 41.4159C46.0924 42.3374 46.4029 43.0726 47.1654 43.6041C47.6199 43.922 48.1067 44.1977 48.5215 44.5628C48.8593 44.8609 49.284 45.1688 48.9661 45.7327C48.9313 46.0108 48.7624 46.2095 48.5736 46.4008C47.6671 47.3123 46.7282 48.1841 45.7198 48.9913C44.7288 49.7861 43.6608 50.4517 42.5556 51.0329C40.8989 51.9047 39.1752 52.6424 37.3596 53.1416C36.1749 53.467 34.9827 53.7675 33.7681 53.9389C32.9609 54.0531 32.1587 54.2493 31.3316 54.1972C31.1578 54.1873 30.974 54.1798 30.8075 54.2195C29.6775 54.4903 28.5325 54.3487 27.3949 54.3537C26.8435 54.3537 26.2946 54.2369 25.7432 54.1649C25.547 54.1401 25.4452 53.9985 25.3831 53.8246C25.1173 53.1391 25.5843 51.7458 26.2797 51.2043C26.9429 50.6902 27.5787 50.8839 28.227 51.2813C30.1742 52.4685 30.3803 52.4536 31.96 50.8516C32.8417 49.955 33.865 49.3216 35.0348 48.8895C35.8123 48.6014 36.53 48.2164 36.9895 47.4787C38.0203 45.8196 37.4863 43.7208 35.6061 43.0204C33.9271 42.397 33.1944 41.3861 32.9436 39.6575C32.6629 37.7276 32.0742 35.8449 31.4906 33.9747C31.4657 33.8356 31.4806 33.699 31.5303 33.5674C32.0345 32.713 25.0453 39.5581 25.0726 38.5174C25.1273 36.4733 23.4806 41.4383 21.4613 41.8307C21.2055 41.8804 20.9447 41.9201 20.6938 42.0095" fill="#6A81B8"/>
<path d="M69.7027 43.2762C69.5338 44.4113 69.1588 45.4942 68.7912 46.5697C67.7828 49.5203 66.4217 52.2996 64.6682 54.8827C60.7514 60.6549 55.5852 64.912 49.1673 67.649C48.5215 67.9247 47.8608 68.1607 47.2051 68.4165C47.3119 67.5596 47.6795 66.7946 48.0595 66.0371C48.3079 65.5403 48.5911 65.061 48.8767 64.5841C49.3585 63.7744 49.5448 62.9076 49.4181 61.9737C49.361 61.5639 49.3908 61.1615 49.4281 60.7517C49.51 59.8104 49.967 59.0951 50.7047 58.5462C51.0077 58.3202 51.343 58.1364 51.6684 57.9401C51.9193 57.7886 52.1776 57.652 52.4284 57.503C52.9922 57.1702 53.3375 56.6908 53.4095 56.0277C53.4418 55.7371 53.5039 55.4465 53.5039 55.1584C53.4989 53.8346 53.8466 52.62 54.5818 51.5123C54.7408 51.2713 54.8699 51.0031 54.9717 50.7299C55.1332 50.2952 54.9941 49.9152 54.5868 49.6842C54.3881 49.5725 54.1596 49.4855 53.9335 49.4458C53.5014 49.3738 53.0642 49.334 52.6271 49.2968C52.3067 49.2719 51.9838 49.2869 51.6634 49.262C50.6525 49.185 49.967 48.6858 49.669 47.6998C49.4753 47.0565 49.2915 46.4107 49.1027 45.7674C49.0953 45.37 49.2368 45.0496 49.4852 44.7267C51.6982 41.8431 53.2928 38.6342 54.4278 35.1892C54.5619 34.7844 54.624 34.315 55.0785 34.0889C55.6001 33.8505 56.072 34.0169 56.462 34.3497C57.5499 35.2836 58.8563 35.6611 60.2248 35.8673C62.4204 36.1976 63.943 37.3401 64.6235 39.4761C65.1004 40.9738 66.0839 41.7612 67.6114 42.0741C68.3913 42.2331 69.3426 42.2927 69.6978 43.2738L69.7027 43.2762Z" fill="#6A81B8"/>
<path d="M31.7387 33.8332C32.0691 34.3946 32.2156 35.0254 32.387 35.6439C32.6453 36.5728 32.8663 37.5141 33.1197 38.443C33.3432 39.2627 33.4898 40.0997 33.609 40.9367C33.6934 41.5278 33.9865 41.8979 34.5404 42.0891C34.7887 42.1761 35.0346 42.2729 35.2731 42.3797C35.5935 42.5238 35.9238 42.653 36.2169 42.8392C37.3768 43.5719 37.9754 44.6201 37.8735 46.006C37.7742 47.3671 37.1309 48.3879 35.8567 48.9542C35.5363 49.0957 35.211 49.2323 34.8806 49.3491C34.0387 49.6471 33.3084 50.119 32.6627 50.73C32.3646 51.0107 32.0666 51.2913 31.766 51.5695C31.5947 51.7285 31.4233 51.8899 31.237 52.0315C30.3801 52.6872 29.7393 52.722 28.8154 52.1532C28.5422 51.9843 28.2913 51.7806 28.0231 51.6018C27.8293 51.4727 27.6356 51.3311 27.4245 51.2417C27.0271 51.0728 26.6918 51.1721 26.4111 51.5149C26.3019 51.6515 26.2 51.798 26.1205 51.952C25.8126 52.5481 25.5195 53.1541 25.3754 53.8173C25.3158 53.8844 25.2587 53.9514 25.1991 54.0185C24.9532 54.4059 24.6179 54.5202 24.1559 54.4705C21.0115 54.1377 17.9615 53.4249 15.0307 52.2376C14.5489 52.0414 14.0248 51.8452 14.0968 51.1572C14.1813 51.0032 14.2533 50.8443 14.3526 50.7002C14.904 49.8955 15.2965 49.0187 15.5324 48.0749C15.7709 47.1286 16.1683 46.2568 16.6973 45.4397C16.9034 45.1218 17.0972 44.7914 17.281 44.4611C17.6833 43.7359 17.7752 42.9734 17.5517 42.1711C17.4424 41.7762 17.3232 41.3838 17.2263 40.9864C17.1096 40.5045 17.0127 40.0177 16.901 39.5334C16.6948 38.6243 16.7792 37.7228 17.0251 36.8435C17.3952 35.5197 17.8025 34.2083 18.2074 32.8944C18.4011 32.266 18.7488 31.7246 19.2804 31.3272C19.6976 31.0142 19.9733 30.6243 20.105 30.1226C20.6265 30.207 20.6166 30.6764 20.7631 31.0291C20.8948 31.3446 20.9171 31.6997 21.0835 32.0027C23.0531 35.2465 27.2183 35.8873 29.938 34.6256C30.5316 34.3499 30.9663 33.7115 31.7313 33.8283L31.7387 33.8332Z" fill="#6A81B8"/>
<path d="M14.0997 51.1571C14.3157 51.552 14.7206 51.6811 15.0956 51.8326C17.5222 52.8087 20.0308 53.4843 22.6213 53.8569C23.2572 53.9488 23.8905 54.0456 24.5239 54.1475C24.7697 54.1872 24.9858 54.1152 25.2019 54.0183C25.0132 54.7063 24.6654 55.3148 24.2457 55.8811C23.3689 57.0609 22.0824 57.4806 20.6641 57.0534C20.2444 56.9268 19.842 56.7454 19.4297 56.5964C19.0174 56.4499 18.6051 56.286 18.1829 56.1767C17.6116 56.0301 17.4229 56.1717 17.3459 56.7355C17.3235 56.9094 17.3186 57.0857 17.3136 57.2621C17.2987 57.7663 17.095 58.1984 16.6728 58.4518C15.8879 58.9237 15.5824 59.6241 15.5104 60.4934C15.4881 60.779 15.3912 61.0721 15.272 61.3329C14.9714 61.9861 14.3704 62.1724 13.742 61.8346C13.3719 61.6359 13.0938 61.3379 12.8802 60.9802C12.4082 60.1904 12.2617 59.336 12.4505 58.4418C12.5821 57.8135 12.7684 57.195 12.9472 56.5766C13.1186 55.9829 13.2875 55.3918 13.2502 54.7659C13.1732 53.5141 13.3719 52.317 13.9482 51.1943C13.9978 51.1769 14.0475 51.162 14.0997 51.1521V51.1571Z" fill="#6A81B8"/>
<path d="M55.1108 34.1362C54.9866 35.0403 54.6339 35.8798 54.316 36.7217C53.8416 37.976 53.3051 39.2055 52.6842 40.3976C51.6808 42.3151 50.5656 44.1555 49.1052 45.7675C49.058 45.755 49.0083 45.7401 48.9611 45.7277C48.8021 45.2235 48.4097 44.9155 48.0024 44.6299C47.6696 44.394 47.3194 44.1804 46.9791 43.9568C45.9682 43.2962 45.5907 42.3573 45.7372 41.1726C45.8068 40.6137 45.9757 40.0921 46.2191 39.5904C46.5618 38.8751 47.0089 38.2269 47.533 37.6333C48.9139 36.071 50.6028 34.9583 52.5426 34.2132C53.3598 33.8977 54.1943 33.8878 55.0437 34.0045C55.0959 34.0194 55.1654 33.9573 55.1953 34.0269C55.2052 34.0492 55.1431 34.0989 55.1133 34.1387L55.1108 34.1362Z" fill="#6A81B8"/>
<path d="M24.8517 17.0333C24.7995 17.0407 24.7449 17.0432 24.6902 17.0432C23.2298 17.078 21.7917 17.2196 20.4604 17.8902C20.2071 18.0168 19.8395 18.1336 19.8643 18.4565C19.8917 18.8042 20.299 18.757 20.5573 18.8638C21.0193 19.055 21.6303 19.0376 21.7818 19.6934C21.7942 19.7505 21.8141 19.8126 21.7992 19.8672C21.5806 20.7663 19.4645 22.4925 18.4983 22.567C18.4486 22.5571 18.4014 22.5422 18.3542 22.5273C17.0975 21.6456 15.7737 20.8309 14.7628 19.666C13.886 18.6527 13.9705 17.3885 14.2412 16.164C14.4175 15.3667 14.7702 14.6216 15.1055 13.8765C15.4185 13.1835 15.6147 12.4682 15.5799 11.4846C15.2496 12.1552 15.2297 12.7041 15.0385 13.1984C14.8423 13.7026 14.5964 14.1546 14.1071 14.4229C13.1931 14.9246 12.2741 14.4005 12.2219 13.3549C12.212 13.1959 12.1996 13.0395 12.1896 12.8805C12.5448 12.6421 12.6938 12.2447 12.9397 11.9193C13.7122 10.891 14.5815 9.95218 15.5178 9.06798C16.2654 8.36011 17.0627 7.72925 17.9221 7.17041C19.7551 5.97822 21.752 5.15114 23.8805 4.68172C25.6638 4.28929 27.4794 4.2719 29.2801 4.61962C30.4276 4.84068 31.441 5.33742 32.2184 6.24398C32.9511 7.0959 33.2144 8.06952 32.9834 9.17478C32.7052 10.5061 31.9129 11.502 30.8697 12.3018C29.9433 13.0121 28.9821 13.6852 28.0085 14.331C27.1292 14.9147 26.3121 15.5778 25.4825 16.2211C25.2093 16.4322 24.9237 16.6582 24.8492 17.0333H24.8517Z" fill="#6A81B8"/>
<path d="M14.1195 29.6058C14.1493 30.1249 13.9655 30.5719 13.6973 31.0066C12.8901 32.3081 11.673 32.9638 10.1952 33.0085C9.19429 33.0383 8.20825 32.693 7.43084 32.0398C6.77017 31.4859 6.37774 30.6911 6.26101 29.8343C6.09708 28.6321 6.16166 27.4399 6.84965 26.3645C7.47555 25.3834 8.32499 24.7352 9.4675 24.462C10.6249 24.1863 11.6482 24.4396 12.6218 25.0928C13.054 25.3834 13.2924 25.7237 13.28 26.2403C13.4042 26.3223 13.5507 26.4291 13.5483 26.5657C13.5309 27.6188 13.9357 28.5899 14.1195 29.6058Z" fill="#6A81B8"/>
<path d="M12.2269 13.3548C12.3883 13.5609 12.5299 13.7894 12.7137 13.9732C13.1633 14.4153 13.7618 14.3905 14.1915 13.931C14.4175 13.6901 14.5666 13.4045 14.6535 13.0915C14.7876 12.6121 14.8969 12.1278 15.0186 11.6435C15.0981 11.333 15.1577 11.0126 15.344 10.7394C15.3936 10.6674 15.4607 10.5879 15.5576 10.6227C15.6321 10.65 15.7265 10.6997 15.7563 10.7643C15.9699 11.2237 16.0543 11.7081 15.9873 12.2148C15.8978 12.8878 15.7116 13.5311 15.4334 14.1496C15.1949 14.6836 14.9664 15.225 14.7504 15.769C14.5194 16.3477 14.4349 16.9512 14.4449 17.5746C14.4598 18.6824 14.9317 19.5492 15.8084 20.1999C16.1363 20.4433 16.489 20.6594 16.8317 20.883C17.2266 21.1413 17.5893 21.4368 17.9072 21.7845C18.1034 22.0006 18.317 22.2093 18.3518 22.5222C17.552 23.1109 16.6554 23.3716 15.6669 23.4188C14.7007 23.466 13.8214 23.2549 12.9944 22.7606C12.5349 22.485 12.1474 22.1298 11.8692 21.6802C11.1514 20.5154 10.7267 19.2511 10.7938 17.8677C10.8658 16.3626 11.2731 14.9419 11.9984 13.6181C12.053 13.5187 12.1474 13.4392 12.2219 13.3523L12.2269 13.3548Z" fill="#6A81B8"/>
<path d="M53.735 11.6311C53.6654 11.7478 53.5984 11.8646 53.5288 11.9813C53.6331 11.1691 53.278 10.4985 52.8632 9.85025C52.4534 9.20945 52.0187 8.58603 51.6039 7.9502C51.4624 7.73163 51.2736 7.53542 51.2289 7.26221C52.2025 7.75895 52.8557 8.55871 53.3599 9.50253C53.7176 10.1706 53.7424 10.8984 53.7374 11.6311H53.735Z" fill="#6A81B8"/>
<path d="M41.7906 0.782227C41.8285 0.792332 41.8513 0.817596 41.8589 0.855491C41.8109 0.855491 41.7906 0.830227 41.7906 0.782227Z" fill="#6A81B8"/>
<path d="M76.3666 36.8284C76.3268 36.6297 76.2672 36.431 76.2523 36.2299C75.7779 29.3648 73.3911 23.2002 69.4096 17.6268C67.8399 15.4311 66.0467 13.4293 64.0597 11.6012C64.2634 11.338 64.4794 11.0871 64.7725 10.9182C65.3413 11.3777 65.9001 11.8496 66.4813 12.2917C67.0451 12.7214 67.5344 13.2157 67.9716 13.7695C68.4062 14.3209 68.8806 14.8375 69.3227 15.3815C70.4131 16.7252 71.3395 18.1806 72.2336 19.6584C73.0408 20.9922 73.6717 22.4054 74.2355 23.851C75.0676 25.9845 75.6835 28.1751 76.0611 30.4378C76.4137 32.5589 76.4237 34.6875 76.3666 36.8235V36.8284Z" fill="#6A81B8"/>
<path d="M69.0072 24.795C69.1562 24.949 69.2009 25.1551 69.2555 25.3488C69.7945 27.2638 70.1969 29.2011 70.4353 31.1781C70.7085 33.4532 70.639 35.7283 70.5669 38.0034C70.5471 38.6442 70.4552 39.2825 70.3608 39.9184C70.3161 40.2214 70.3186 40.5815 69.9386 40.7206C69.253 41.0112 68.9724 40.5219 68.729 40.0525C68.4707 39.5508 68.4409 38.987 68.4409 38.2741C68.1105 38.6467 67.9416 38.9994 67.6709 39.2602C67.1493 39.7619 66.5681 40.0649 65.8479 39.7842C65.1052 39.4936 64.688 38.9174 64.6085 38.1177C64.5489 37.5141 64.7053 36.9603 65.0133 36.4412C65.1797 36.1655 65.3337 35.8798 65.438 35.5743C65.6119 35.0627 65.4629 34.7597 64.8718 34.8193C64.4048 34.8665 63.9354 34.8516 63.4684 34.8714C62.6712 34.9037 61.9534 34.7025 61.3697 34.1512C60.9077 33.714 60.5724 33.8159 60.2222 34.2878C59.6634 35.0403 58.9207 35.5868 57.9695 35.2589C56.9114 34.8938 56.1017 34.1263 55.8409 32.9913C55.6919 32.3505 55.6348 31.6625 55.7739 30.9919C55.8434 30.8602 55.913 30.7286 55.9825 30.5969C56.4519 30.2045 56.9959 30.0282 57.6044 30.0605C58.4513 30.1027 59.2113 29.8692 59.9142 29.3874C60.5699 28.9378 61.3076 28.8111 62.0925 28.9527C63.5951 29.2234 65.1127 29.2458 66.6327 29.211C66.9854 29.2036 67.3331 29.1787 67.661 29.0297C68.0484 28.8534 68.1875 28.6025 68.113 28.1877C68.0807 28.0164 68.0161 27.8524 67.9615 27.686C67.5219 26.3274 67.7951 25.5699 69.0096 24.7925L69.0072 24.795Z" fill="#6A81B8"/>
<path d="M55.7716 30.9941C55.6722 32.1068 56.082 33.0556 56.7303 33.9225C56.8694 34.1087 57.0308 34.2826 57.1997 34.4416C58.0243 35.2016 58.8837 35.1817 59.6636 34.3571C59.9442 34.0615 60.1628 33.7089 60.4136 33.3884C60.6148 33.1301 60.7291 33.1202 60.9899 33.3388C61.191 33.5077 61.3773 33.6964 61.576 33.8678C62.1572 34.367 62.8204 34.6179 63.5953 34.5384C63.9728 34.4987 64.3503 34.454 64.7279 34.4142C64.9017 34.3944 65.0781 34.3546 65.2494 34.3695C65.8878 34.4266 66.1908 34.8812 65.9598 35.4797C65.8257 35.8324 65.6071 36.1504 65.4332 36.4881C65.2867 36.7738 65.1178 37.0519 65.0185 37.355C64.7676 38.1299 65.0234 38.8874 65.6344 39.2972C66.1287 39.6301 66.6155 39.6276 67.0998 39.2774C67.3879 39.0687 67.6065 38.793 67.7878 38.49C67.9691 38.1895 68.138 37.884 68.3218 37.5835C68.4087 37.4394 68.4882 37.2109 68.677 37.2482C68.9403 37.3028 68.8608 37.576 68.8732 37.7648C68.8906 38.0554 68.8633 38.3485 68.8732 38.6415C68.8831 38.9321 68.908 39.2227 68.9452 39.5133C69.0247 40.1169 69.3277 40.5465 69.9338 40.7229C70.0579 40.8446 70.2243 40.9539 70.1772 41.1551C70.0107 41.8604 69.9636 42.5931 69.7028 43.2762C68.7664 42.7745 67.7555 42.4839 66.7347 42.2355C66.0269 42.0641 65.4283 41.7412 64.9911 41.1476C64.7626 40.8396 64.6037 40.4944 64.4621 40.1417C64.3106 39.7617 64.174 39.3767 64.0175 38.9992C63.4686 37.6605 62.4726 36.8259 61.0867 36.4583C60.58 36.3242 60.0634 36.21 59.5443 36.1379C58.5335 35.9988 57.6493 35.5766 56.8048 35.0302C56.3627 34.7446 55.9057 34.4863 55.4487 34.2279C55.3518 34.1733 55.2276 34.1659 55.1134 34.1361C55.0836 34.0963 55.0587 34.0516 55.0438 34.0019C55.5182 33.4257 55.5629 32.7178 55.6325 32.0224C55.6672 31.6772 55.5679 31.3145 55.774 30.9941H55.7716Z" fill="#6A81B8"/>
<path d="M21.8709 19.6784C21.8113 19.6858 21.7517 19.6933 21.6896 19.7032C21.2674 19.4151 20.7607 19.3679 20.2938 19.204C20.0181 19.1071 19.7324 19.0351 19.4667 18.9183C19.1065 18.7594 19.0519 18.5011 19.3127 18.2328C19.4741 18.0664 19.6579 17.9124 19.8541 17.7882C21.0016 17.0704 22.2634 16.75 23.6095 16.7476C23.9945 16.7476 24.3646 16.8221 24.6924 17.0406C24.4689 17.1152 24.2752 17.2319 24.1112 17.4008C23.3661 18.1608 22.6185 18.9183 21.8734 19.6784H21.8709Z" fill="#6A81B8"/>
</svg>
