<svg width="82" height="90" viewBox="0 0 82 90" fill="none" xmlns="http://www.w3.org/2000/svg">
<path d="M7.59434 56.6411C6.86164 55.588 6.11404 54.5474 5.44095 53.4496C4.32575 51.624 3.42168 49.7041 2.64676 47.7146C1.76007 45.447 1.20123 43.0949 0.778994 40.708C0.64239 39.9381 0.480947 39.1582 0.555459 38.3609C1.14907 38.2417 1.28567 38.7707 1.50424 39.0961C2.59956 40.713 3.69985 42.32 4.98394 43.8003C7.28139 46.4479 9.91165 48.6684 13.0163 50.3126C13.4758 50.556 13.9949 50.7224 14.2607 51.2291C14.3501 51.4973 14.2681 51.7457 14.1762 51.9966C13.8633 52.8584 13.7192 53.7476 13.7813 54.6641C13.8757 56.05 13.1877 57.2695 12.9716 58.5909C12.8251 59.485 13.0287 60.2748 13.5354 60.9951C13.7589 61.3155 14.0843 61.5465 14.5041 61.4894C14.9486 61.4273 15.1573 61.0597 15.1995 60.6822C15.3237 59.5744 15.7807 58.6852 16.6773 58.0097C16.9977 57.7663 17.0226 57.3589 17.0822 56.9764C17.2386 55.973 17.7627 55.6452 18.7562 55.8935C19.4392 56.0649 20.0676 56.3853 20.7382 56.594C22.2632 57.0683 23.4008 56.6685 24.285 55.3173C24.588 54.8553 24.9208 54.4108 25.1692 53.9115C25.266 53.8022 25.3853 53.7327 25.5293 53.7079C30.8842 54.3959 36.0081 53.5713 40.9483 51.4154C43.73 50.2033 46.1318 48.4796 48.243 46.3237C48.4864 46.0754 48.6876 45.7699 49.0427 45.6531C49.1396 45.6333 49.2315 45.6407 49.3259 45.6705C49.8326 45.9785 49.9096 46.5125 50.0536 47.0192C50.4808 48.5194 50.9155 48.8621 52.4877 48.877C53.1086 48.8845 53.7171 48.9639 54.3082 49.1254C55.416 49.4259 55.8531 50.2828 55.2794 51.2763C54.4672 52.6821 54.0052 54.1326 54.0027 55.7718C54.0027 56.7281 53.4737 57.4856 52.6019 57.965C52.1673 58.2059 51.7326 58.4493 51.3129 58.7151C50.2498 59.3881 49.8226 60.404 49.9592 61.5689C50.1157 62.8976 49.835 64.0749 49.1421 65.1678C48.464 66.2407 48.0691 67.4404 47.5103 68.5655C47.1924 69.0051 46.6857 69.0995 46.2187 69.2535C41.6959 70.7437 37.0141 71.0815 32.3322 70.6866C24.9903 70.0657 18.4606 67.2814 12.7555 62.5996C12.5047 62.3934 12.2935 62.15 12.0973 61.8967C11.0517 61.1491 10.1501 60.25 9.33294 59.2615C8.87345 58.6952 8.34442 58.1885 7.91474 57.5974C7.70114 57.3043 7.51734 57.0212 7.59682 56.6387L7.59434 56.6411Z" fill="#0088E5"/>
<path d="M14.097 51.1995C13.3816 51.0107 12.7508 50.6357 12.1199 50.2756C10.6744 49.451 9.35056 48.455 8.06399 47.3969C7.02331 46.54 6.07701 45.5888 5.16797 44.6102C4.37814 43.7607 3.62558 42.8641 2.96987 41.8979C2.16763 40.7157 1.36042 39.5409 0.555691 38.3611C0.433989 37.9364 0.384314 37.5042 0.386798 37.0621C0.391765 35.8327 0.339607 34.6008 0.404184 33.3763C0.466277 32.1816 0.602882 30.9894 0.779226 29.8072C1.07231 27.8376 1.55167 25.9102 2.19495 24.0226C3.46165 20.3069 5.27974 16.8918 7.65418 13.7673C9.09474 11.8722 10.7986 10.228 12.5123 8.59119C12.7657 8.35027 13.0588 8.14909 13.3419 7.94543C13.4686 7.85353 13.5555 7.94542 13.6126 8.06216C14.0274 8.47943 13.861 8.9265 13.6524 9.3537C13.245 10.1932 12.8601 11.0352 12.5968 11.9368C12.4974 12.2746 12.4751 12.5478 12.6167 12.8508C12.6812 13.0371 12.6763 13.2209 12.5993 13.4022C12.1149 14.6242 11.6157 15.8313 11.4121 17.1526C11.1562 18.8192 11.5859 20.2995 12.5024 21.6432C13.2972 22.8105 15.1848 23.3097 16.7223 22.9049C17.3159 22.7484 17.8524 22.4082 18.4807 22.3684C18.5751 22.3734 18.6645 22.3982 18.749 22.4429C19.2234 22.7683 19.3302 23.3023 19.4693 23.799C19.7549 24.8099 20.0902 25.796 20.6565 26.6926C20.9098 27.0949 20.9719 27.5619 21.0886 28.0114C21.0141 28.8037 20.6614 29.534 20.5646 30.3238C20.269 30.9323 19.9138 31.4986 19.4072 31.963C19.0992 32.2462 18.8881 32.6063 18.7614 32.9988C18.2473 34.6157 17.6686 36.2152 17.3755 37.8917C17.1892 38.9572 17.4649 39.9954 17.7927 40.9939C18.3392 42.653 18.3094 44.1706 17.2066 45.6459C16.6179 46.4332 16.2677 47.3845 16.002 48.3606C15.7039 49.4534 15.3786 50.5661 14.3602 51.269C14.2609 51.2914 14.1715 51.269 14.092 51.2069L14.097 51.1995Z" fill="#008FED"/>
<path d="M12.3435 12.8805C12.0653 12.2421 12.2615 11.6237 12.4677 11.0276C12.6391 10.5408 12.8899 10.0813 13.1134 9.61188C13.3494 9.11762 13.6003 8.62832 13.6127 8.05955C13.7195 7.63732 14.0101 7.36907 14.3429 7.11822C18.3342 4.12781 22.7528 2.05639 27.6085 0.911389C30.9988 0.11163 34.4337 -0.131775 37.901 0.064439C38.9516 0.124048 39.9948 0.290458 41.0405 0.41216C41.3335 0.446933 41.6092 0.546282 41.8626 0.700273C41.9073 0.710208 41.9495 0.722626 41.9917 0.732561C42.0762 0.76485 42.1532 0.809557 42.2227 0.866682C43.1193 1.38578 43.4248 2.26502 43.6086 3.1989C43.7999 4.17749 44.5673 4.93254 45.5136 5.15111C46.1793 5.3051 46.8524 5.26288 47.518 5.36471C48.663 5.54354 49.7087 5.97074 50.7444 6.45506C51.1293 6.55193 51.4001 6.80279 51.636 7.10332C52.0881 8.15393 52.9151 8.97108 53.4342 9.98444C53.7745 10.6501 54.0378 11.3083 53.9384 12.0683C53.8838 12.9351 53.2629 13.3474 52.5774 13.6231C51.0846 14.2217 48.8245 13.3623 48.057 11.9515C47.7242 11.3356 47.6596 10.6973 47.8161 9.99934C48.0222 9.08781 47.826 8.85683 46.9641 9.05552C45.161 9.47527 43.3826 9.48521 41.5819 9.03317C40.6555 8.7997 40.5661 8.9214 40.5065 9.84286C40.499 9.9596 40.5015 10.0763 40.4891 10.1931C40.345 11.6932 40.4816 11.8249 41.9818 11.5765C42.8461 11.4349 43.703 11.2685 44.5872 11.2437C46.3382 11.194 47.6894 11.964 48.8195 13.2058C49.4901 13.9435 49.6863 14.7755 49.2069 15.7119C48.8692 16.3726 48.9188 17.073 49.0852 17.7709C49.3137 18.7321 49.3783 19.6685 48.8518 20.5775C48.1861 21.7225 46.8747 22.1746 45.6776 21.6058C45.1187 21.34 44.6046 20.9824 44.1898 20.5328C43.2609 19.5294 42.1109 18.829 40.9883 18.0863C39.739 17.2618 38.4499 17.1177 37.0888 17.828C36.3636 18.2081 35.6185 18.5558 34.8883 18.9283C33.9867 19.3853 33.0155 19.6039 32.027 19.7182C31.4508 19.7852 30.9466 19.9591 30.5045 20.3217C30.2288 20.5477 29.9158 20.7042 29.6029 20.8632C27.6606 21.8393 26.0388 21.0991 25.542 18.9805C25.393 18.3422 25.1421 17.7635 24.8292 17.1997C24.7 16.5042 25.162 16.1267 25.614 15.7442C27.2508 14.3682 29.1037 13.2903 30.7976 11.9913C31.5129 11.4424 32.0618 10.7643 32.4567 9.97699C33.3782 8.144 32.4642 6.07257 30.3828 5.33242C28.0083 4.48795 25.6066 4.64443 23.2222 5.3051C19.0868 6.4501 15.8331 8.85434 13.3171 12.3018C13.0886 12.6147 12.8775 13.032 12.3485 12.8829L12.3435 12.8805Z" fill="#00D100"/>
<path d="M81.1351 38.1423C81.3016 38.7459 81.2494 39.3643 81.237 39.9753C81.1823 42.8813 80.8669 45.7599 80.1665 48.5864C78.9072 53.6582 76.6893 58.2729 73.4977 62.4108C69.2356 67.9371 63.836 71.993 57.4528 74.7649C53.9135 76.3023 50.2277 77.3256 46.4127 77.8869C43.6855 78.2893 40.9385 78.4532 38.1791 78.329C37.7693 78.3116 37.3595 78.3042 36.9497 78.2942C36.6715 78.6221 36.3114 78.6519 35.9115 78.6146C31.3787 78.1825 26.9676 77.2262 22.713 75.5795C22.1392 75.3585 21.5928 75.0778 21.0141 74.8717C20.644 74.7375 20.3559 74.4941 20.2317 74.0992C15.8057 72.08 11.8069 69.4174 8.22539 66.1289C8.13846 66.0495 8.04905 65.975 7.96212 65.898C7.93976 65.8433 7.90251 65.7763 7.92486 65.734C8.52841 64.6015 9.28594 63.6328 10.6048 63.2776C11.4443 63.5359 11.9932 64.214 12.6539 64.7256C14.1789 65.9079 15.8032 66.9362 17.4624 67.9123C17.7927 68.106 18.1081 68.3097 18.3391 68.6251C18.965 69.5043 19.961 69.8794 20.8527 70.3215C25.229 72.4848 29.7866 74.1365 34.6671 74.7077C41.2887 75.4827 47.662 74.5016 53.8266 71.9632C58.7121 69.9489 63.2275 67.3286 67.2139 63.8638C70.4849 61.0199 73.1524 57.6644 75.2214 53.8295C77.2258 50.1164 78.4651 46.125 79.6697 42.1138C79.9976 41.021 80.3528 39.9381 80.6707 38.8403C80.7502 38.5646 80.7949 38.2541 81.1327 38.1448L81.1351 38.1423Z" fill="#EF8100"/>
<path d="M81.1352 38.1424C81.1452 38.9223 80.8571 39.6376 80.6335 40.3603C79.8089 43.0179 79.0439 45.6929 78.1125 48.3132C77.6804 49.5278 77.2085 50.7225 76.6397 51.8823C75.8027 53.5936 74.921 55.2801 73.8679 56.8672C72.9936 58.1836 72.0672 59.4652 71.0165 60.6449C70.259 61.4968 69.4121 62.2693 68.6073 63.084C67.4127 64.2935 66.0988 65.359 64.7153 66.3501C63.4536 67.2541 62.1745 68.1309 60.8407 68.9232C59.1021 69.9539 57.3064 70.8704 55.456 71.6925C53.551 72.5395 51.5888 73.22 49.6093 73.8509C48.1017 74.3327 46.5494 74.6457 44.9945 74.9214C44.2196 75.058 43.4348 75.1549 42.6524 75.2567C42.3916 75.289 42.1258 75.2865 41.8626 75.2865C40.5437 75.289 39.2249 75.2691 37.9085 75.2939C36.5573 75.3188 35.2285 75.1375 33.8948 74.976C31.7935 74.7202 29.7519 74.2086 27.7426 73.5752C26.3765 73.1455 25.0279 72.6488 23.7339 72.0179C22.9987 71.6578 22.2312 71.3597 21.506 70.9772C20.4454 70.4184 19.4072 69.8124 18.3665 69.2163C18.225 69.1343 18.0436 69.0672 18.0014 68.8735C17.9965 68.8536 18.0859 68.8139 18.1306 68.7841C18.7018 68.4364 19.1414 68.8462 19.596 69.0623C23.2098 70.7835 26.9627 72.0875 30.9044 72.7928C35.0721 73.5379 39.2547 73.7143 43.477 73.1902C48.0868 72.6165 52.483 71.3647 56.6258 69.2908C59.5914 67.808 62.3036 65.9303 64.7998 63.7223C67.9342 60.9479 70.4155 57.6794 72.3577 54.0084C74.2056 50.5138 75.3581 46.7783 75.825 42.8366C76.0635 40.8298 76.2348 38.8229 76.1082 36.7987C76.5304 34.2479 76.2001 31.7393 75.6288 29.2556C74.5236 24.467 72.6061 20.046 69.5636 16.1515C68.3217 14.5619 67.0898 12.9649 65.3884 11.8124C65.1028 11.6187 64.8321 11.3728 64.76 10.9953C64.9736 9.9372 65.7858 9.20698 66.675 9.27404C73.386 15.076 77.9585 22.2118 80.1268 30.8452C80.6832 33.0656 81.0409 35.3209 81.1352 37.6109C81.1427 37.7847 81.1327 37.9611 81.1303 38.1374L81.1352 38.1424Z" fill="#FF8D00"/>
<path d="M51.3751 7.26471C51.1417 7.09085 50.9057 6.91451 50.6722 6.74064C49.3037 5.52114 48.0618 4.17247 46.7678 2.87845C46.4747 2.58537 46.055 2.31216 46.2959 1.77319C46.9442 1.83529 47.5403 2.09359 48.1314 2.32706C49.187 2.74433 50.2227 3.21624 51.2659 3.67324C51.5614 3.8024 51.8495 3.94397 52.0234 4.23953C53.3522 5.81918 54.83 7.29203 55.7142 9.20202C56.129 10.0986 56.7723 10.8115 57.4901 11.4672C58.4438 12.3365 59.0896 13.3623 59.4299 14.6314C59.9018 16.3899 60.3737 16.755 62.1694 16.688C63.446 16.6383 64.3029 17.2443 65.0033 18.1484C65.6168 18.9382 66.3942 19.3704 67.3455 19.5592C68.3986 20.7066 68.6917 22.2143 69.2431 23.5977C69.4144 24.0249 69.5535 24.4794 69.3101 24.9414C68.5675 25.7585 68.1005 26.5955 68.5451 27.7927C68.9028 28.7564 68.2247 29.5288 67.1021 29.5835C65.5249 29.6605 63.9378 29.6977 62.3805 29.3823C61.5385 29.2134 60.8034 29.3972 60.1203 29.8269C59.4 30.2789 58.6276 30.5198 57.7956 30.4776C57.2069 30.4503 56.6878 30.9123 56.0868 30.6614C55.7142 30.1125 55.9228 29.5214 56.0023 28.9625C56.7847 23.5232 56.283 18.2353 54.2016 13.1263C54.0228 12.6842 53.9359 12.2322 53.8266 11.7801C53.7347 9.88504 52.6244 8.54135 51.3776 7.26968L51.3751 7.26471Z" fill="#0088E5"/>
<path d="M37.9806 80.932C39.5851 81.6572 41.1498 82.4495 42.5556 83.525C43.0225 83.8826 43.4423 84.29 43.8422 84.7197C44.1452 85.0475 44.3638 85.4275 44.5302 85.8348C44.8953 86.7215 44.6792 87.5933 43.9366 88.2093C43.5516 88.5297 43.1169 88.7781 42.645 88.947C41.8428 89.2326 41.0182 89.4164 40.1737 89.5406C38.3656 89.8014 36.5475 89.7591 34.7344 89.6797C33.0703 89.6051 31.4086 89.4064 29.7619 89.1382C27.1292 88.711 24.5238 88.1596 21.9655 87.407C19.1788 86.5874 16.4442 85.6262 13.8586 84.2925C12.7683 83.7311 11.668 83.1673 10.7639 82.308C11.0371 81.6274 11.5339 81.9801 11.9338 82.0894C14.4125 82.7774 16.8764 83.5225 19.375 84.1385C22.05 84.7991 24.7647 85.2437 27.5191 85.2537C30.3555 85.2636 33.1025 84.7569 35.6012 83.289C35.9762 83.068 36.2097 82.755 36.4282 82.4098C37.0045 81.9776 37.1734 81.1133 37.9831 80.927L37.9806 80.932Z" fill="#943D2F"/>
<path d="M36.7908 82.4967C36.1401 83.4579 35.1615 83.9844 34.1556 84.4539C32.7373 85.117 31.2198 85.3629 29.6675 85.5119C28.7361 85.6013 27.8096 85.6684 26.8758 85.6634C26.5255 85.6634 26.1753 85.6585 25.8326 85.5666C25.6662 85.5219 25.4874 85.4995 25.3135 85.497C23.7885 85.4796 22.3032 85.1617 20.8155 84.8761C18.6621 84.4638 16.5683 83.8106 14.4596 83.2269C13.3916 82.9313 12.3311 82.6035 11.2655 82.2881C11.0942 82.2359 10.9278 82.1862 10.7688 82.3104C10.2124 81.9677 9.79021 81.4808 9.3953 80.9717C9.25372 80.7879 9.13202 80.5817 9.03516 80.3706C8.55331 79.3225 8.81162 78.3315 9.75543 77.6658C10.2596 77.3107 10.821 77.0524 11.4146 76.8835C12.572 76.5581 13.7542 76.3619 14.9588 76.337C15.7189 76.3221 16.4789 76.3221 17.2414 76.3147C17.4624 76.3867 17.5767 76.5606 17.6015 76.7667C17.7828 78.3017 18.8931 79.0915 20.0554 79.8416C20.3237 80.0154 20.5969 80.1794 20.885 80.3209C21.5357 80.9866 22.4398 81.1157 23.252 81.4138C26.8758 82.7376 30.5939 83.371 34.4561 82.8096C34.9479 82.7376 35.4297 82.6085 35.8942 82.4172C36.2021 82.2905 36.5126 82.2185 36.7908 82.4942V82.4967Z" fill="#AB4736"/>
<path d="M36.7907 82.4967C36.679 82.5314 36.5597 82.5488 36.4579 82.601C35.3055 83.1648 34.0785 83.3834 32.8068 83.3908C32.397 83.3933 31.9872 83.3883 31.5774 83.3983C30.1964 83.438 28.8353 83.279 27.4842 83.0158C25.3532 82.601 23.2768 82.0124 21.332 81.0213C21.0737 80.8897 20.793 80.7904 20.5869 80.5693C20.9992 79.9906 21.5804 80.2241 22.1144 80.2638C23.8257 80.3855 25.537 80.691 27.2383 80.1992C27.509 80.1198 27.9114 80.1322 27.9338 79.7869C27.9561 79.4442 27.5513 79.3846 27.2979 79.2803C25.219 78.4234 23.0334 77.8322 21.0489 76.7419C20.4106 76.3892 19.7524 76.0638 19.2035 75.5721C18.9625 75.3584 18.6968 75.1498 18.8359 74.7624C19.0544 74.5512 19.345 74.4941 19.6182 74.3997C19.8368 74.3227 20.0678 74.2731 20.2367 74.0942C21.9256 74.8245 23.622 75.5348 25.378 76.0812C27.7202 76.8114 30.0946 77.4001 32.5237 77.7751C33.994 78.0036 35.4743 78.1402 36.9522 78.2892C36.9894 78.5277 37.1583 78.6891 37.2949 78.8704C37.7569 79.4789 38.0202 80.1545 37.9829 80.9294C37.7271 81.5578 37.3347 82.0844 36.7907 82.4942V82.4967Z" fill="#FF304D"/>
<path d="M67.1913 19.7057C66.2872 19.8249 65.6017 19.4374 65.028 18.7842C64.72 18.4315 64.4195 18.0714 64.1115 17.7187C63.7215 17.2716 63.2372 17.058 62.6337 17.0903C62.1965 17.1151 61.7544 17.1176 61.3173 17.1052C60.5548 17.0829 59.9835 16.7252 59.5911 16.072C59.3005 15.5901 59.0968 15.071 58.9801 14.5271C58.7715 13.5411 58.2698 12.7413 57.5296 12.0782C57.3334 11.9018 57.1471 11.7155 56.9534 11.5367C56.2778 10.9158 55.7289 10.1955 55.339 9.36344C54.8373 8.29296 54.1915 7.33424 53.3694 6.47487C52.7609 5.83904 52.2765 5.10137 52.0232 4.23703C52.2492 4.1501 52.4131 4.29416 52.592 4.38854C54.0872 5.19824 55.5079 6.12467 56.8615 7.15293C57.2092 7.41869 57.5694 7.66954 57.922 7.92785C58.4337 7.91046 58.7789 8.20603 59.1217 8.53388C59.7724 9.15233 60.5399 9.64659 61.0739 10.3892C61.8116 11.0524 62.4101 11.8372 63.0584 12.5824C64.5884 14.3433 65.8153 16.3104 66.9429 18.3396C67.1714 18.7494 67.5216 19.1742 67.1938 19.7032L67.1913 19.7057Z" fill="#00BB32"/>
<path d="M10.5452 63.4862C10.3987 63.5756 10.2298 63.6427 10.1106 63.7594C9.39028 64.4648 8.67993 65.1826 7.96462 65.8954C7.48029 66.3202 6.991 66.7349 6.51909 67.1721C6.14902 67.5148 5.74665 67.793 5.27971 67.9843C3.35979 68.7666 0.868617 67.5918 0.59044 65.0559C0.545733 64.6412 0.615277 64.2388 0.761817 63.8489C0.905873 63.5756 1.12941 63.3943 1.42994 63.3372C4.17694 62.7957 6.36758 61.2236 8.48372 59.5197C8.8066 59.2614 9.10962 58.9932 9.56166 59.0379C10.4409 59.8873 11.3226 60.7343 12.2019 61.5837C12.1323 62.6393 11.3574 63.0814 10.5427 63.4912L10.5452 63.4862Z" fill="#943D2F"/>
<path d="M60.8555 10.603C59.8769 9.71133 58.8983 8.82215 57.9222 7.9305C59.2411 6.64889 60.5525 5.36481 61.8763 4.09066C62.4848 3.5045 63.1083 2.93076 63.7366 2.36695C65.2492 1.00587 68.2049 1.32627 69.099 3.56411C68.9972 3.86712 68.9276 4.17759 68.647 4.39367C66.2551 6.23163 64.0819 8.32541 61.7993 10.2925C61.5236 10.5285 61.2529 10.747 60.858 10.603H60.8555Z" fill="#AB4736"/>
<path d="M18.8359 74.7625C19.4867 75.4555 20.3187 75.8876 21.1334 76.3372C22.5963 77.1469 24.171 77.6908 25.7382 78.2571C26.3144 78.4657 26.8906 78.6744 27.4619 78.9004C27.899 79.0742 28.2989 79.3176 28.6566 79.6207C28.7584 79.7076 28.7559 79.8293 28.674 79.9336C28.6218 80.0007 28.5597 80.0702 28.4852 80.1149C28.3113 80.2192 28.1325 80.3236 27.9462 80.403C27.1316 80.7607 25.162 80.9743 24.248 80.8128C24.1908 80.8029 24.1337 80.7806 24.0766 80.7781C22.9142 80.706 21.7493 80.6365 20.587 80.5645C19.4718 80.0677 18.5279 79.3574 17.7853 78.3813C17.4351 77.9218 17.2414 77.4176 17.2414 76.8414C17.2414 76.665 17.2414 76.4912 17.2389 76.3148C17.5444 75.5647 18.0436 75.0109 18.8359 74.76V74.7625Z" fill="#FF526B"/>
<path d="M60.8558 10.6028C61.5239 10.039 62.2218 9.51249 62.8427 8.89156C63.7294 8.00487 64.7204 7.23243 65.6493 6.39044C66.7546 5.3895 67.9468 4.50033 69.0992 3.56396C69.7475 5.01446 69.4345 6.29358 68.3814 7.42367C67.984 7.85087 67.5544 8.24579 67.1396 8.65809C66.9558 8.84188 66.7397 9.00332 66.6801 9.2815C65.9797 9.70622 65.4556 10.3197 64.9216 10.9232C64.8844 11.3182 64.6608 11.6088 64.3802 11.8646C63.943 12.3141 63.5456 12.8307 62.8204 12.7935C62.11 12.1129 61.4866 11.3554 60.8533 10.6053L60.8558 10.6028Z" fill="#943D2F"/>
<path d="M9.56172 59.0355C9.40276 59.413 9.02524 59.5621 8.73961 59.8005C7.33134 60.9828 5.84607 62.0607 4.16955 62.8381C3.24561 63.2678 2.30179 63.6577 1.25863 63.7024C1.08973 63.7099 0.925809 63.7968 0.759399 63.8465C0.868683 63.1808 1.26111 62.6816 1.72308 62.2271C2.82089 61.1442 3.91621 60.0613 5.02147 58.9858C5.75169 58.278 6.49681 57.5825 7.23944 56.8871C7.34376 56.7902 7.47539 56.7207 7.59213 56.6362C8.24783 57.4335 8.90353 58.2333 9.55924 59.0305L9.56172 59.0355Z" fill="#AB4736"/>
<path d="M46.2961 1.77083C46.4203 2.04653 46.6513 2.23281 46.8574 2.44144C47.6423 3.23127 48.4172 4.03102 49.2219 4.7985C49.7137 5.26792 50.0813 5.83173 50.5284 6.33592C50.6178 6.43527 50.6277 6.60416 50.6724 6.74077C50.4539 6.65881 50.2328 6.58429 50.0192 6.49488C48.8494 6.01055 47.6324 5.72244 46.3681 5.63799C45.7845 5.59826 45.2033 5.53368 44.6221 5.48649C44.3613 5.46413 44.17 5.38217 44.1502 5.08164C44.1204 4.60476 43.8447 4.34646 43.4026 4.23221C43.1492 4.16763 43.0871 3.9888 43.1567 3.7603C43.338 3.14682 43.1468 2.6004 42.8388 2.09124C42.5829 1.66652 42.2849 1.26664 42.0067 0.856824C41.9844 0.83447 41.962 0.809633 41.9397 0.787279C41.9049 0.76741 41.8801 0.740089 41.8627 0.705316C42.0241 0.603484 42.1905 0.648191 42.3619 0.680479C43.636 0.918917 44.8878 1.23932 46.1198 1.6392C46.1794 1.68887 46.2365 1.73855 46.2961 1.78574V1.77829V1.77083Z" fill="#008FED"/>
<path d="M12.0181 25.7511C12.3683 24.4695 14.1168 21.7697 14.2186 20.4707C14.2609 19.9218 22.1318 20.3018 21.9381 19.8945C21.8785 19.7579 21.8337 19.589 21.9107 19.4772C22.6608 18.3993 23.3935 17.2965 24.7621 16.9016C24.849 16.9339 24.9285 16.9786 25.003 17.0332C25.4774 17.3412 25.7108 17.8007 25.8102 18.3397C25.8474 18.5408 25.8773 18.7445 25.9269 18.9432C26.0337 19.3729 26.1977 19.7802 26.4634 20.1379C27.0073 20.8681 27.7649 21.1239 28.6367 20.8606C29.203 20.6893 29.737 20.4309 30.1815 20.0485C30.7429 19.5666 31.3613 19.3331 32.0965 19.2934C33.1347 19.2363 34.0984 18.8886 35.0174 18.4117C35.4595 18.1832 35.9041 17.9596 36.3511 17.7386C36.6144 17.6094 36.8826 17.4902 37.1434 17.3586C38.3704 16.7376 39.575 16.8146 40.7473 17.4927C42.0165 18.2279 43.2484 19.0177 44.3015 20.0534C44.5946 20.3415 44.8951 20.6197 45.2106 20.8805C45.9433 21.484 46.748 21.7349 47.6471 21.2605C48.4841 20.8184 48.9958 19.7951 48.8716 18.814C48.8269 18.4663 48.7375 18.1236 48.6729 17.7783C48.6257 17.52 48.581 17.2592 48.5412 16.9984C48.4667 16.5191 48.5263 16.0646 48.7971 15.6498C48.8443 15.5777 48.884 15.4958 48.9262 15.4188C49.2268 14.8749 49.1969 14.3384 48.8318 13.8491C47.8806 12.5675 46.6486 11.7454 45.0168 11.6261C44.16 11.5641 43.3254 11.728 42.4884 11.8795C42.086 11.9515 41.6812 12.0136 41.2739 12.0757C41.1596 12.0931 41.0404 12.1005 40.9237 12.0931C40.1314 12.0409 39.7936 11.6535 39.96 10.8835C40.0991 10.2452 40.2158 9.62675 40.0494 8.97849C40.0022 8.79718 40.1512 8.65561 40.335 8.58855C40.6182 8.48175 40.9137 8.49168 41.2018 8.54384C41.6911 8.63077 42.1829 8.72019 42.6648 8.8394C43.7079 9.09771 44.7486 9.09771 45.7967 8.87169C46.3978 8.74254 47.0013 8.61587 47.6099 8.53391C48.1215 8.46436 48.4469 8.81705 48.3997 9.3287C48.3897 9.44295 48.355 9.5572 48.3252 9.67145C48.2755 9.87015 48.2283 10.0688 48.1712 10.2651C47.9675 10.9829 48.1712 11.6063 48.6555 12.1328C49.4453 12.9947 50.4214 13.4765 51.6111 13.4393C52.6121 13.407 53.3473 12.9773 53.6801 11.9863C53.8092 11.9043 53.6999 11.6833 53.8862 11.6361C54.2712 12.2247 54.5469 12.863 54.8077 13.5163C55.3268 14.8202 55.7217 16.1614 56.0247 17.53C56.2259 18.439 56.36 19.3629 56.509 20.2819C56.6456 21.1239 56.6009 21.9684 56.6854 22.8054C56.7822 23.7939 56.8617 24.77 56.668 25.7536C56.7524 27.1916 56.4097 28.59 56.2855 30.0107C56.2681 30.2119 56.1861 30.4056 56.134 30.6043C56.2607 30.7682 56.3103 30.952 56.2954 31.1582C56.1737 31.8312 55.9999 32.4944 55.9626 33.1799C55.9403 33.5699 55.7739 33.8903 55.4634 34.1312C55.1951 34.2454 54.9145 34.3125 54.6214 34.3398C50.9902 34.6701 48.5214 36.6969 46.7604 39.7444C46.4649 40.256 46.3307 40.8198 46.296 41.4159C46.2413 42.3374 46.5518 43.0726 47.3143 43.6041C47.7688 43.922 48.2556 44.1977 48.6704 44.5628C49.0082 44.8609 49.4329 45.1688 49.115 45.7327C49.0802 46.0108 48.9113 46.2095 48.7226 46.4008C47.816 47.3123 46.8771 48.1841 45.8688 48.9913C44.8778 49.7861 43.8097 50.4517 42.7045 51.0329C41.0478 51.9047 39.3241 52.6424 37.5085 53.1416C36.3238 53.467 35.1316 53.7675 33.9171 53.9389C33.1099 54.0531 32.3076 54.2493 31.4805 54.1972C31.3067 54.1873 31.1229 54.1798 30.9565 54.2195C29.8264 54.4903 28.6814 54.3487 27.5438 54.3537C26.9924 54.3537 26.4435 54.2369 25.8922 54.1649C25.6959 54.1401 25.5941 53.9985 25.532 53.8246C25.2663 53.1391 25.7332 51.7458 26.4286 51.2043C27.0918 50.6902 27.7276 50.8839 28.3759 51.2813C30.3231 52.4685 30.5293 52.4536 32.1089 50.8516C32.9906 49.955 34.0139 49.3216 35.1838 48.8895C35.9612 48.6014 36.679 48.2164 37.1385 47.4787C38.1692 45.8196 37.6352 43.7208 35.755 43.0204C34.076 42.397 33.3433 41.3861 33.0925 39.6575C32.8118 37.7276 32.2232 35.8449 31.6395 33.9747C31.6147 33.8356 31.6296 33.699 31.6792 33.5674C32.1834 32.713 25.1942 39.5581 25.2216 38.5174C25.2762 36.4733 23.6295 41.4383 21.6102 41.8307C21.3544 41.8804 21.0936 41.9201 20.8427 42.0095" fill="#008FED"/>
<path d="M69.8516 43.2762C69.6827 44.4113 69.3077 45.4942 68.9401 46.5697C67.9317 49.5203 66.5706 52.2996 64.8171 54.8827C60.9002 60.6549 55.7341 64.912 49.3161 67.649C48.6704 67.9247 48.0097 68.1607 47.354 68.4165C47.4608 67.5596 47.8284 66.7946 48.2084 66.0371C48.4568 65.5403 48.7399 65.061 49.0255 64.5841C49.5074 63.7744 49.6937 62.9076 49.567 61.9737C49.5099 61.5639 49.5397 61.1615 49.5769 60.7517C49.6589 59.8104 50.1159 59.0951 50.8536 58.5462C51.1566 58.3202 51.4919 58.1364 51.8173 57.9401C52.0681 57.7886 52.3264 57.652 52.5773 57.503C53.1411 57.1702 53.4863 56.6908 53.5583 56.0277C53.5906 55.7371 53.6527 55.4465 53.6527 55.1584C53.6478 53.8346 53.9955 52.62 54.7307 51.5123C54.8896 51.2713 55.0188 51.0031 55.1206 50.7299C55.2821 50.2952 55.143 49.9152 54.7356 49.6842C54.5369 49.5725 54.3084 49.4855 54.0824 49.4458C53.6502 49.3738 53.2131 49.334 52.776 49.2968C52.4556 49.2719 52.1327 49.2869 51.8123 49.262C50.8014 49.185 50.1159 48.6858 49.8179 47.6998C49.6241 47.0565 49.4403 46.4107 49.2516 45.7674C49.2441 45.37 49.3857 45.0496 49.6341 44.7267C51.8471 41.8431 53.4416 38.6342 54.5767 35.1892C54.7108 34.7844 54.7729 34.315 55.2274 34.0889C55.749 33.8505 56.2209 34.0169 56.6108 34.3497C57.6987 35.2836 59.0052 35.6611 60.3737 35.8673C62.5693 36.1976 64.0918 37.3401 64.7724 39.4761C65.2492 40.9738 66.2328 41.7612 67.7603 42.0741C68.5402 42.2331 69.4914 42.2927 69.8466 43.2738L69.8516 43.2762Z" fill="#00BB32"/>
<path d="M31.8876 33.8332C32.2179 34.3946 32.3645 35.0254 32.5358 35.6439C32.7942 36.5728 33.0152 37.5141 33.2685 38.443C33.4921 39.2627 33.6386 40.0997 33.7578 40.9367C33.8423 41.5278 34.1354 41.8979 34.6892 42.0891C34.9376 42.1761 35.1835 42.2729 35.4219 42.3797C35.7423 42.5238 36.0727 42.653 36.3657 42.8392C37.5256 43.5719 38.1242 44.6201 38.0224 46.006C37.923 47.3671 37.2798 48.3879 36.0056 48.9542C35.6852 49.0957 35.3598 49.2323 35.0295 49.3491C34.1875 49.6471 33.4573 50.119 32.8115 50.73C32.5135 51.0107 32.2154 51.2913 31.9149 51.5695C31.7435 51.7285 31.5722 51.8899 31.3859 52.0315C30.529 52.6872 29.8882 52.722 28.9642 52.1532C28.691 51.9843 28.4402 51.7806 28.1719 51.6018C27.9782 51.4727 27.7845 51.3311 27.5734 51.2417C27.176 51.0728 26.8407 51.1721 26.56 51.5149C26.4507 51.6515 26.3489 51.798 26.2694 51.952C25.9614 52.5481 25.6683 53.1541 25.5243 53.8173C25.4647 53.8844 25.4076 53.9514 25.3479 54.0185C25.1021 54.4059 24.7668 54.5202 24.3048 54.4705C21.1604 54.1377 18.1104 53.4249 15.1796 52.2376C14.6977 52.0414 14.1737 51.8452 14.2457 51.1572C14.3301 51.0032 14.4022 50.8443 14.5015 50.7002C15.0529 49.8955 15.4453 49.0187 15.6813 48.0749C15.9197 47.1286 16.3171 46.2568 16.8462 45.4397C17.0523 45.1218 17.246 44.7914 17.4298 44.4611C17.8322 43.7359 17.9241 42.9734 17.7006 42.1711C17.5913 41.7762 17.472 41.3838 17.3752 40.9864C17.2584 40.5045 17.1616 40.0177 17.0498 39.5334C16.8437 38.6243 16.9281 37.7228 17.174 36.8435C17.5441 35.5197 17.9514 34.2083 18.3563 32.8944C18.55 32.266 18.8977 31.7246 19.4292 31.3272C19.8465 31.0142 20.1222 30.6243 20.2538 30.1226C20.7754 30.207 20.7655 30.6764 20.912 31.0291C21.0436 31.3446 21.066 31.6997 21.2324 32.0027C23.202 35.2465 27.3672 35.8873 30.0869 34.6256C30.6805 34.3499 31.1152 33.7115 31.8801 33.8283L31.8876 33.8332Z" fill="#00D100"/>
<path d="M14.2486 51.1571C14.4647 51.552 14.8696 51.6811 15.2446 51.8326C17.6712 52.8087 20.1798 53.4843 22.7703 53.8569C23.4061 53.9488 24.0395 54.0456 24.6728 54.1475C24.9187 54.1872 25.1348 54.1152 25.3509 54.0183C25.1621 54.7063 24.8144 55.3148 24.3947 55.8811C23.5179 57.0609 22.2313 57.4806 20.8131 57.0534C20.3934 56.9268 19.991 56.7454 19.5787 56.5964C19.1664 56.4499 18.7541 56.286 18.3319 56.1767C17.7606 56.0301 17.5719 56.1717 17.4949 56.7355C17.4725 56.9094 17.4676 57.0857 17.4626 57.2621C17.4477 57.7663 17.244 58.1984 16.8218 58.4518C16.0369 58.9237 15.7314 59.6241 15.6594 60.4934C15.6371 60.779 15.5402 61.0721 15.421 61.3329C15.1204 61.9861 14.5194 62.1724 13.891 61.8346C13.5209 61.6359 13.2427 61.3379 13.0291 60.9802C12.5572 60.1904 12.4107 59.336 12.5995 58.4418C12.7311 57.8135 12.9174 57.195 13.0962 56.5766C13.2676 55.9829 13.4365 55.3918 13.3992 54.7659C13.3222 53.5141 13.5209 52.317 14.0971 51.1943C14.1468 51.1769 14.1965 51.162 14.2486 51.1521V51.1571Z" fill="#00BB32"/>
<path d="M55.2597 34.1362C55.1355 35.0403 54.7829 35.8798 54.4649 36.7217C53.9905 37.976 53.4541 39.2055 52.8331 40.3976C51.8297 42.3151 50.7145 44.1555 49.2541 45.7675C49.2069 45.755 49.1572 45.7401 49.11 45.7277C48.9511 45.2235 48.5586 44.9155 48.1513 44.6299C47.8185 44.394 47.4683 44.1804 47.128 43.9568C46.1171 43.2962 45.7396 42.3573 45.8862 41.1726C45.9557 40.6137 46.1246 40.0921 46.368 39.5904C46.7107 38.8751 47.1578 38.2269 47.6819 37.6333C49.0628 36.071 50.7518 34.9583 52.6916 34.2132C53.5087 33.8977 54.3432 33.8878 55.1927 34.0045C55.2448 34.0194 55.3144 33.9573 55.3442 34.0269C55.3541 34.0492 55.292 34.0989 55.2622 34.1387L55.2597 34.1362Z" fill="#00D100"/>
<path d="M25.0007 17.0333C24.9485 17.0407 24.8939 17.0432 24.8392 17.0432C23.3788 17.078 21.9407 17.2196 20.6094 17.8902C20.3561 18.0168 19.9885 18.1336 20.0133 18.4565C20.0407 18.8042 20.448 18.757 20.7063 18.8638C21.1683 19.055 21.7793 19.0376 21.9308 19.6934C21.9432 19.7505 21.9631 19.8126 21.9482 19.8672C21.7296 20.7663 19.6135 22.4925 18.6473 22.567C18.5976 22.5571 18.5504 22.5422 18.5032 22.5273C17.2465 21.6456 15.9226 20.8309 14.9118 19.666C14.035 18.6527 14.1195 17.3885 14.3902 16.164C14.5665 15.3667 14.9192 14.6216 15.2545 13.8765C15.5675 13.1835 15.7637 12.4682 15.7289 11.4846C15.3986 12.1552 15.3787 12.7041 15.1875 13.1984C14.9912 13.7026 14.7454 14.1546 14.2561 14.4229C13.342 14.9246 12.4231 14.4005 12.3709 13.3549C12.361 13.1959 12.3486 13.0395 12.3386 12.8805C12.6938 12.6421 12.8428 12.2447 13.0887 11.9193C13.8611 10.891 14.7305 9.95218 15.6668 9.06798C16.4144 8.36011 17.2117 7.72925 18.0711 7.17041C19.9041 5.97822 21.901 5.15114 24.0295 4.68172C25.8128 4.28929 27.6284 4.2719 29.4291 4.61962C30.5766 4.84068 31.59 5.33742 32.3674 6.24398C33.1001 7.0959 33.3634 8.06952 33.1324 9.17478C32.8542 10.5061 32.0619 11.502 31.0187 12.3018C30.0923 13.0121 29.1311 13.6852 28.1575 14.331C27.2782 14.9147 26.4611 15.5778 25.6315 16.2211C25.3583 16.4322 25.0727 16.6582 24.9982 17.0333H25.0007Z" fill="#2EDE39"/>
<path d="M14.2684 29.6058C14.2982 30.1249 14.1145 30.5719 13.8462 31.0066C13.039 32.3081 11.822 32.9638 10.3442 33.0085C9.34321 33.0383 8.35718 32.693 7.57977 32.0398C6.9191 31.4859 6.52667 30.6911 6.40993 29.8343C6.24601 28.6321 6.31059 27.4399 6.99858 26.3645C7.62448 25.3834 8.47391 24.7352 9.61642 24.462C10.7738 24.1863 11.7971 24.4396 12.7708 25.0928C13.2029 25.3834 13.4414 25.7237 13.4289 26.2403C13.5531 26.3223 13.6997 26.4291 13.6972 26.5657C13.6798 27.6188 14.0846 28.5899 14.2684 29.6058Z" fill="#31B0F2"/>
<path d="M12.3758 13.3548C12.5373 13.5609 12.6788 13.7894 12.8626 13.9732C13.3122 14.4153 13.9108 14.3905 14.3405 13.931C14.5665 13.6901 14.7155 13.4045 14.8024 13.0915C14.9365 12.6121 15.0458 12.1278 15.1675 11.6435C15.247 11.333 15.3066 11.0126 15.4929 10.7394C15.5426 10.6674 15.6096 10.5879 15.7065 10.6227C15.781 10.65 15.8754 10.6997 15.9052 10.7643C16.1188 11.2237 16.2032 11.7081 16.1362 12.2148C16.0468 12.8878 15.8605 13.5311 15.5823 14.1496C15.3439 14.6836 15.1154 15.225 14.8993 15.769C14.6683 16.3477 14.5839 16.9512 14.5938 17.5746C14.6087 18.6824 15.0806 19.5492 15.9574 20.1999C16.2852 20.4433 16.6379 20.6594 16.9806 20.883C17.3756 21.1413 17.7382 21.4368 18.0561 21.7845C18.2523 22.0006 18.4659 22.2093 18.5007 22.5222C17.7009 23.1109 16.8043 23.3716 15.8158 23.4188C14.8496 23.466 13.9704 23.2549 13.1433 22.7606C12.6838 22.485 12.2963 22.1298 12.0182 21.6802C11.3004 20.5154 10.8757 19.2511 10.9427 17.8677C11.0147 16.3626 11.4221 14.9419 12.1473 13.6181C12.202 13.5187 12.2963 13.4392 12.3709 13.3523L12.3758 13.3548Z" fill="#31B0F2"/>
<path d="M53.8839 11.6311C53.8143 11.7478 53.7473 11.8646 53.6777 11.9813C53.7821 11.1691 53.4269 10.4985 53.0121 9.85025C52.6023 9.20945 52.1676 8.58603 51.7528 7.9502C51.6113 7.73163 51.4225 7.53542 51.3778 7.26221C52.3514 7.75895 53.0046 8.55871 53.5088 9.50253C53.8665 10.1706 53.8913 10.8984 53.8864 11.6311H53.8839Z" fill="#00BB36"/>
<path d="M41.9396 0.782227C41.9775 0.792332 42.0002 0.817596 42.0078 0.855491C41.9598 0.855491 41.9396 0.830227 41.9396 0.782227Z" fill="#6E63B3"/>
<path d="M76.5155 36.8284C76.4757 36.6297 76.4161 36.431 76.4012 36.2299C75.9268 29.3648 73.54 23.2002 69.5586 17.6268C67.9888 15.4311 66.1956 13.4293 64.2086 11.6012C64.4123 11.338 64.6284 11.0871 64.9215 10.9182C65.4902 11.3777 66.0491 11.8496 66.6303 12.2917C67.1941 12.7214 67.6833 13.2157 68.1205 13.7695C68.5551 14.3209 69.0295 14.8375 69.4716 15.3815C70.562 16.7252 71.4884 18.1806 72.3826 19.6584C73.1898 20.9922 73.8206 22.4054 74.3844 23.851C75.2165 25.9845 75.8325 28.1751 76.21 30.4378C76.5627 32.5589 76.5726 34.6875 76.5155 36.8235V36.8284Z" fill="#EF8100"/>
<path d="M69.1561 24.795C69.3051 24.949 69.3498 25.1551 69.4045 25.3488C69.9434 27.2638 70.3458 29.2011 70.5842 31.1781C70.8574 33.4532 70.7879 35.7283 70.7159 38.0034C70.696 38.6442 70.6041 39.2825 70.5097 39.9184C70.465 40.2214 70.4675 40.5815 70.0875 40.7206C69.402 41.0112 69.1213 40.5219 68.8779 40.0525C68.6196 39.5508 68.5898 38.987 68.5898 38.2741C68.2595 38.6467 68.0906 38.9994 67.8198 39.2602C67.2983 39.7619 66.7171 40.0649 65.9968 39.7842C65.2541 39.4936 64.8369 38.9174 64.7574 38.1177C64.6978 37.5141 64.8543 36.9603 65.1622 36.4412C65.3287 36.1655 65.4827 35.8798 65.587 35.5743C65.7608 35.0627 65.6118 34.7597 65.0207 34.8193C64.5537 34.8665 64.0843 34.8516 63.6174 34.8714C62.8201 34.9037 62.1023 34.7025 61.5186 34.1512C61.0567 33.714 60.7213 33.8159 60.3711 34.2878C59.8123 35.0403 59.0697 35.5868 58.1184 35.2589C57.0603 34.8938 56.2506 34.1263 55.9898 32.9913C55.8408 32.3505 55.7837 31.6625 55.9228 30.9919C55.9923 30.8602 56.0619 30.7286 56.1314 30.5969C56.6008 30.2045 57.1448 30.0282 57.7533 30.0605C58.6002 30.1027 59.3603 29.8692 60.0632 29.3874C60.7189 28.9378 61.4565 28.8111 62.2414 28.9527C63.744 29.2234 65.2616 29.2458 66.7816 29.211C67.1343 29.2036 67.482 29.1787 67.8099 29.0297C68.1974 28.8534 68.3364 28.6025 68.2619 28.1877C68.2296 28.0164 68.1651 27.8524 68.1104 27.686C67.6708 26.3274 67.944 25.5699 69.1586 24.7925L69.1561 24.795Z" fill="#00BB32"/>
<path d="M55.9205 30.9941C55.8211 32.1068 56.2309 33.0556 56.8792 33.9225C57.0183 34.1087 57.1797 34.2826 57.3486 34.4416C58.1732 35.2016 59.0326 35.1817 59.8125 34.3571C60.0931 34.0615 60.3117 33.7089 60.5626 33.3884C60.7637 33.1301 60.878 33.1202 61.1388 33.3388C61.34 33.5077 61.5262 33.6964 61.7249 33.8678C62.3061 34.367 62.9693 34.6179 63.7442 34.5384C64.1217 34.4987 64.4993 34.454 64.8768 34.4142C65.0507 34.3944 65.227 34.3546 65.3984 34.3695C66.0367 34.4266 66.3397 34.8812 66.1087 35.4797C65.9746 35.8324 65.756 36.1504 65.5822 36.4881C65.4356 36.7738 65.2667 37.0519 65.1674 37.355C64.9165 38.1299 65.1724 38.8874 65.7833 39.2972C66.2776 39.6301 66.7644 39.6276 67.2488 39.2774C67.5369 39.0687 67.7554 38.793 67.9367 38.49C68.1181 38.1895 68.2869 37.884 68.4707 37.5835C68.5577 37.4394 68.6371 37.2109 68.8259 37.2482C69.0892 37.3028 69.0097 37.576 69.0221 37.7648C69.0395 38.0554 69.0122 38.3485 69.0221 38.6415C69.0321 38.9321 69.0569 39.2227 69.0942 39.5133C69.1736 40.1169 69.4767 40.5465 70.0827 40.7229C70.2069 40.8446 70.3733 40.9539 70.3261 41.1551C70.1597 41.8604 70.1125 42.5931 69.8517 43.2762C68.9153 42.7745 67.9045 42.4839 66.8836 42.2355C66.1758 42.0641 65.5772 41.7412 65.1401 41.1476C64.9116 40.8396 64.7526 40.4944 64.611 40.1417C64.4595 39.7617 64.3229 39.3767 64.1664 38.9992C63.6175 37.6605 62.6216 36.8259 61.2357 36.4583C60.729 36.3242 60.2124 36.21 59.6933 36.1379C58.6824 35.9988 57.7982 35.5766 56.9537 35.0302C56.5116 34.7446 56.0546 34.4863 55.5976 34.2279C55.5007 34.1733 55.3765 34.1659 55.2623 34.1361C55.2325 34.0963 55.2077 34.0516 55.1927 34.0019C55.6671 33.4257 55.7118 32.7178 55.7814 32.0224C55.8162 31.6772 55.7168 31.3145 55.923 30.9941H55.9205Z" fill="#0088E5"/>
<path d="M22.0199 19.6784C21.9602 19.6858 21.9006 19.6933 21.8385 19.7032C21.4163 19.4151 20.9096 19.3679 20.4427 19.204C20.167 19.1071 19.8814 19.0351 19.6156 18.9183C19.2555 18.7594 19.2008 18.5011 19.4616 18.2328C19.6231 18.0664 19.8069 17.9124 20.0031 17.7882C21.1505 17.0704 22.4123 16.75 23.7585 16.7476C24.1434 16.7476 24.5135 16.8221 24.8414 17.0406C24.6178 17.1152 24.4241 17.2319 24.2602 17.4008C23.5151 18.1608 22.7675 18.9183 22.0223 19.6784H22.0199Z" fill="#31B0F1"/>
</svg>
