<svg width="43" height="37" viewBox="0 0 43 37" fill="none" xmlns="http://www.w3.org/2000/svg">
<path d="M40.6422 4.84725C34.5527 -0.929948 26.1729 0.88432 18.9755 0.105252C12.8397 0.0945799 5.8767 -1.06869 1.58738 4.60535C-0.27322 7.53308 0.113813 10.3861 0.0463487 13.1893C-0.0459711 16.1669 0.00373953 18.8064 0.195481 21.261C0.262945 36.9918 9.52688 35.4016 24.4223 35.9993C42.1406 36.0847 41.1606 28.4861 42.6626 17.9135C42.9183 14.1391 42.9964 7.41924 40.6422 4.84725ZM36.676 30.2007C33.1785 34.8858 11.881 32.947 7.10526 31.5312C1.84303 29.162 3.12841 18.1234 2.88341 13.2783C2.95797 10.909 2.5958 8.25878 3.96284 6.1706C8.04622 1.27563 15.6519 3.17883 21.2764 3.04365C26.9824 3.59505 34.1088 2.49582 38.5473 6.76824C40.9689 9.41493 40.17 25.5157 36.6725 30.2007H36.676Z" fill="#399FFE"/>
<path d="M2.90822 19.1337C2.88692 16.8819 2.95793 14.783 2.87982 13.2783C2.95438 10.909 2.5922 8.25878 3.95925 6.1706C8.04618 1.27563 15.6519 3.17883 21.2763 3.04365C26.9824 3.59505 34.1088 2.49582 38.5472 6.76824C40.035 8.39396 40.3049 15.0961 39.4846 21.1116C40.4043 21.1259 41.3275 21.1436 42.2471 21.1579C42.3749 20.112 42.5063 19.0306 42.6661 17.9135C42.9218 14.1391 42.9999 7.41924 40.6457 4.84725C34.5526 -0.929948 26.1728 0.88432 18.9754 0.105252C12.8397 0.0945799 5.87666 -1.06869 1.58734 4.60535C-0.273261 7.53308 0.113772 10.3861 0.0427571 13.1893C-0.0176059 15.1921 -0.0140551 17.042 0.0534094 18.7851C1.00501 18.906 1.95662 19.0234 2.90822 19.1337Z" fill="url(#paint0_linear_63_1474)"/>
<path d="M36.6759 30.2007C33.1784 34.8858 11.8809 32.947 7.10516 31.5312C1.84293 29.162 3.1283 18.1234 2.8833 13.2782C2.95787 10.909 2.59569 8.25877 3.96273 6.17059C8.04611 1.27562 15.6518 3.17883 21.2762 3.04365C26.9823 3.59504 34.1087 2.49581 38.5472 6.76823C40.9688 9.41493 40.1699 25.5157 36.6724 30.2007H36.6759Z" fill="#F0B700"/>
<path d="M2.91539 19.3722C6.59753 20.8663 10.6561 21.4497 14.5867 21.7699C19.9022 22.2039 25.2355 22.1043 30.5581 22.2465C33.4413 22.3248 36.3245 22.4173 39.2113 22.5454C40.3475 16.1492 40.1806 8.25179 38.5473 6.46598C34.1053 2.19356 26.9789 3.29279 21.2764 2.7414C15.652 2.87658 8.04624 0.973378 3.95931 5.86834C2.59227 7.95653 2.95445 10.6103 2.87988 12.976C2.96155 14.5982 2.87278 16.914 2.91539 19.3651V19.3722Z" fill="url(#paint1_linear_63_1474)"/>
<g style="mix-blend-mode:multiply">
<path fill-rule="evenodd" clip-rule="evenodd" d="M24.0009 19.0906V20.4573C24.0009 22.0275 22.718 23.307 21.1436 23.307C19.5692 23.307 18.2864 22.0275 18.2864 20.4573V19.0906C18.2864 20.6608 19.5692 21.9403 21.1436 21.9403C22.718 21.9403 24.0009 20.6608 24.0009 19.0906ZM24.0009 25.8368V27.4361C24.0009 29.0064 22.718 30.2858 21.1436 30.2858C19.5692 30.2858 18.2864 29.0064 18.2864 27.4361V25.8368C18.2864 27.4071 19.5692 28.6865 21.1436 28.6865C22.718 28.6865 24.0009 27.4071 24.0009 25.8368Z" fill="white"/>
</g>
<g filter="url(#filter0_d_63_1474)">
<path fill-rule="evenodd" clip-rule="evenodd" d="M21.1436 22.9871C22.718 22.9871 24.0009 24.2665 24.0009 25.8368C24.0009 27.407 22.718 28.6865 21.1436 28.6865C19.5692 28.6865 18.2864 27.407 18.2864 25.8368C18.2864 24.2665 19.5692 22.9871 21.1436 22.9871ZM21.1436 5.71436C22.718 5.71436 24.0009 6.99381 24.0009 8.56406V19.0614C24.0009 20.6317 22.718 21.9111 21.1436 21.9111C19.5692 21.9111 18.2864 20.6317 18.2864 19.0614V8.56406C18.2864 6.99381 19.5692 5.71436 21.1436 5.71436Z" fill="white"/>
</g>
<defs>
<filter id="filter0_d_63_1474" x="14.2864" y="5.71436" width="13.7145" height="30.9722" filterUnits="userSpaceOnUse" color-interpolation-filters="sRGB">
<feFlood flood-opacity="0" result="BackgroundImageFix"/>
<feColorMatrix in="SourceAlpha" type="matrix" values="0 0 0 0 0 0 0 0 0 0 0 0 0 0 0 0 0 0 127 0" result="hardAlpha"/>
<feOffset dy="4"/>
<feGaussianBlur stdDeviation="2"/>
<feComposite in2="hardAlpha" operator="out"/>
<feColorMatrix type="matrix" values="0 0 0 0 0 0 0 0 0 0 0 0 0 0 0 0 0 0 0.25 0"/>
<feBlend mode="normal" in2="BackgroundImageFix" result="effect1_dropShadow_63_1474"/>
<feBlend mode="normal" in="SourceGraphic" in2="effect1_dropShadow_63_1474" result="shape"/>
</filter>
<linearGradient id="paint0_linear_63_1474" x1="21.395" y1="0" x2="21.395" y2="21.1579" gradientUnits="userSpaceOnUse">
<stop stop-color="#55A7F3"/>
<stop offset="1" stop-color="#548EFF"/>
</linearGradient>
<linearGradient id="paint1_linear_63_1474" x1="21.4106" y1="2.48755" x2="21.4106" y2="22.5454" gradientUnits="userSpaceOnUse">
<stop stop-color="#F8D258"/>
<stop offset="1" stop-color="#F8D258" stop-opacity="0"/>
</linearGradient>
</defs>
</svg>
