<svg width="407" height="100" viewBox="0 0 407 100" fill="none" xmlns="http://www.w3.org/2000/svg">
<g filter="url(#filter0_d_63_1941)">
<mask id="path-1-outside-1_63_1941" maskUnits="userSpaceOnUse" x="-9.26904" y="-11.6318" width="423" height="118" fill="black">
<rect fill="white" x="-9.26904" y="-11.6318" width="423" height="118"/>
<path d="M31.7767 61.8535C31.7767 70.1263 28.8401 77.1045 22.9671 82.7881C17.1256 88.4401 9.50014 91.2188 0.0906372 91.124L5.91632 88.1875C2.03253 83.5143 2.9798 79.741 8.75812 76.8677C15.4206 73.6154 18.7518 68.6107 18.7518 61.8535V40.2085C18.7518 36.9878 21.5146 36.4036 27.0403 38.4561C26.0931 31.7936 27.6719 28.4624 31.7767 28.4624V61.8535ZM52.0482 55.8384C52.0482 57.133 52.5218 58.2381 53.4691 59.1538C54.4163 60.1011 55.5373 60.5747 56.8318 60.5747H62.1365C61.7576 59.7222 61.5682 58.1118 61.5682 55.7437V43.2397C59.1053 43.8397 56.895 45.4342 54.9373 48.0234C53.0112 50.6126 52.0482 53.2176 52.0482 55.8384ZM83.4974 60.6221V73.647H79.6136C76.7718 73.647 74.5299 73.2365 72.888 72.4155C71.0882 77.6255 67.5991 82.0934 62.4207 85.8193C57.1792 89.5452 50.7378 91.3135 43.0965 91.124L49.4432 87.856C45.2121 83.4354 46.0014 79.7884 51.8113 76.915C54.6531 75.652 56.3424 74.6416 56.8792 73.8838L57.0213 73.647C52.0955 73.647 47.896 71.9103 44.4227 68.437C40.9494 64.9006 39.2127 60.7168 39.2127 55.8857C39.2127 51.0863 40.5231 46.5868 43.1439 42.3872C45.7015 38.2508 49.5379 34.888 54.6531 32.2988C59.7999 29.7728 66.5097 28.5098 74.7825 28.5098V55.791C74.7825 57.1488 75.2562 58.2855 76.2034 59.2012C77.1507 60.1484 78.2874 60.6221 79.6136 60.6221H83.4974ZM119.92 60.6221C122.635 60.4326 124.846 59.438 126.551 57.6382C128.319 55.8068 129.203 53.6123 129.203 51.0547C129.203 48.4971 128.319 46.3026 126.551 44.4712C124.814 42.6714 122.619 41.6925 119.967 41.5347L118.546 41.582C109.673 42.624 104.148 48.9707 101.969 60.6221H119.92ZM87.8548 40.2559C87.8548 37.0036 91.0123 36.4036 97.3275 38.4561C95.6224 31.7936 96.8065 28.4624 100.88 28.4624V35.4722C100.817 35.5669 100.959 35.488 101.306 35.2354C101.559 35.0775 102.111 34.6828 102.964 34.0513C107.479 30.7674 112.357 28.936 117.599 28.5571L119.92 28.4624L120.346 28.5098C126.566 28.8571 131.761 31.1621 135.929 35.4248C140.128 39.7191 142.228 44.929 142.228 51.0547C142.228 55.0016 141.581 58.1434 140.286 60.48C140.444 60.5431 141.075 60.5905 142.18 60.6221H146.017V73.647H141.754C137.492 73.3944 133.923 72.3682 131.05 70.5684C128.177 72.3682 124.609 73.3944 120.346 73.647H79.8504V60.6221H87.8548V40.2559ZM167.615 55.791C167.615 60.6852 165.878 64.9006 162.405 68.437C158.868 71.9103 154.653 73.647 149.759 73.647H142.37V60.6221H149.759C151.148 60.6221 152.285 60.1484 153.169 59.2012C154.116 58.2855 154.59 57.1488 154.59 55.791V12.2642C154.59 9.01188 157.116 8.28564 162.168 10.0854C161.757 3.70719 163.573 0.518066 167.615 0.518066V55.791ZM191.722 61.9009C191.722 65.09 189.149 66.4793 184.002 66.0688C184.571 71.1209 182.802 73.647 178.698 73.647V12.3589C178.698 9.10661 181.839 8.31722 188.123 9.99072C186.481 3.73877 187.681 0.612793 191.722 0.612793V61.9009ZM266.651 60.6221C266.304 59.6748 266.13 58.0645 266.13 55.791V43.2871C263.604 43.887 261.394 45.4816 259.499 48.0708C257.573 50.66 256.61 53.265 256.61 55.8857C256.61 57.1488 257.084 58.2539 258.031 59.2012C258.978 60.1484 260.099 60.6221 261.394 60.6221H266.651ZM277.971 17.9478C277.971 19.937 277.261 21.6737 275.84 23.1577C274.419 24.6102 272.682 25.3364 270.63 25.3364C268.546 25.3364 266.809 24.6102 265.42 23.1577C263.967 21.7052 263.241 19.9686 263.241 17.9478C263.241 15.9269 263.967 14.1903 265.42 12.7378C266.809 11.2853 268.546 10.5591 270.63 10.5591C272.682 10.5591 274.419 11.2853 275.84 12.7378C277.261 14.1903 277.971 15.9269 277.971 17.9478ZM283.513 73.647C280.86 73.6154 278.808 73.2365 277.355 72.5103C276.25 75.952 273.929 79.3779 270.393 82.7881C264.488 88.4717 257.257 91.2661 248.701 91.1714C241.028 90.6978 234.586 87.8717 229.376 82.6934C224.166 77.5465 221.261 71.1209 220.661 63.4165C220.504 53.2808 224.435 44.9448 232.455 38.4087L230.655 46.8867C236.244 47.2656 237.917 49.6812 235.676 54.1333C234.349 56.5962 233.686 59.3117 233.686 62.2798C233.844 66.5741 235.36 70.1895 238.233 73.126C241.075 76.1257 244.611 77.7834 248.843 78.0991C253.642 78.2886 257.747 76.7887 261.157 73.5996C261.504 73.2523 261.678 73.0944 261.678 73.126C261.71 73.1891 261.552 73.4417 261.204 73.8838C261.741 73.8206 262.025 73.7575 262.057 73.6943C262.089 73.6628 261.867 73.647 261.394 73.647C256.468 73.647 252.269 71.9103 248.795 68.437C245.322 64.9006 243.585 60.7168 243.585 55.8857C243.585 51.0547 244.896 46.5394 247.516 42.3398C250.074 38.2035 253.926 34.8564 259.073 32.2988C264.157 29.7728 270.851 28.5098 279.155 28.5098V55.791C279.187 57.1803 279.676 58.3171 280.623 59.2012C281.507 60.1484 282.644 60.6221 284.034 60.6221H288.059V73.647H283.513ZM262.388 17.9478C262.388 19.937 261.678 21.6737 260.257 23.1577C258.836 24.6102 257.084 25.3364 255 25.3364C252.979 25.3364 251.242 24.6102 249.79 23.1577C248.337 21.7052 247.611 19.9686 247.611 17.9478C247.611 15.9269 248.337 14.1903 249.79 12.7378C251.242 11.2853 252.979 10.5591 255 10.5591C257.084 10.5591 258.836 11.2853 260.257 12.7378C261.678 14.1903 262.388 15.9269 262.388 17.9478ZM297.864 40.2559C297.864 37.0036 300.737 35.8984 306.484 36.9404C305.315 31.2884 306.784 28.4624 310.888 28.4624V55.791C310.888 60.6852 309.152 64.9006 305.679 68.437C302.142 71.9103 297.927 73.647 293.033 73.647H284.365V60.6221H293.033C294.359 60.6221 295.495 60.1484 296.443 59.2012C297.39 58.2539 297.864 57.1172 297.864 55.791V40.2559ZM301.558 86.1509C301.558 88.1717 300.832 89.9084 299.379 91.3608C297.927 92.8133 296.19 93.5396 294.169 93.5396C292.148 93.5396 290.412 92.8133 288.959 91.3608C287.507 89.9084 286.781 88.1717 286.781 86.1509C286.781 84.13 287.507 82.3934 288.959 80.9409C290.412 79.4884 292.148 78.7622 294.169 78.7622C296.19 78.7622 297.927 79.4884 299.379 80.9409C300.832 82.3934 301.558 84.13 301.558 86.1509ZM339.117 73.647C334.254 73.5838 330.118 71.8314 326.708 68.3896C323.203 64.9163 321.451 60.7168 321.451 55.791V12.2642C321.451 9.01188 324.576 8.28564 330.828 10.0854C329.187 3.70719 330.402 0.518066 334.475 0.518066V55.791C334.475 57.1488 334.949 58.2855 335.896 59.2012C336.812 60.1484 337.949 60.6221 339.306 60.6221H342.243V73.647H339.117ZM378.713 60.6221C381.428 60.4326 383.638 59.438 385.344 57.6382C387.112 55.8068 387.996 53.6123 387.996 51.0547C387.996 48.4971 387.112 46.3026 385.344 44.4712C383.607 42.6714 381.412 41.6925 378.76 41.5347L377.339 41.582C368.466 42.624 362.941 48.9707 360.762 60.6221H378.713ZM338.643 60.6221H346.648V12.3589C346.648 9.10661 349.3 8.44352 354.605 10.3696C353.91 3.8335 355.599 0.56543 359.673 0.56543V35.4722C359.61 35.5669 359.752 35.488 360.099 35.2354C360.352 35.0775 360.904 34.6828 361.757 34.0513C366.272 30.7674 371.15 28.936 376.392 28.5571L378.713 28.4624L379.139 28.5098C385.359 28.8571 390.554 31.1621 394.721 35.4248C398.921 39.7191 401.021 44.929 401.021 51.0547C401.021 57.1803 398.921 62.3903 394.721 66.6846C390.554 70.9788 385.359 73.2996 379.139 73.647H338.643V60.6221Z"/>
</mask>
<path d="M31.7767 61.8535C31.7767 70.1263 28.8401 77.1045 22.9671 82.7881C17.1256 88.4401 9.50014 91.2188 0.0906372 91.124L5.91632 88.1875C2.03253 83.5143 2.9798 79.741 8.75812 76.8677C15.4206 73.6154 18.7518 68.6107 18.7518 61.8535V40.2085C18.7518 36.9878 21.5146 36.4036 27.0403 38.4561C26.0931 31.7936 27.6719 28.4624 31.7767 28.4624V61.8535ZM52.0482 55.8384C52.0482 57.133 52.5218 58.2381 53.4691 59.1538C54.4163 60.1011 55.5373 60.5747 56.8318 60.5747H62.1365C61.7576 59.7222 61.5682 58.1118 61.5682 55.7437V43.2397C59.1053 43.8397 56.895 45.4342 54.9373 48.0234C53.0112 50.6126 52.0482 53.2176 52.0482 55.8384ZM83.4974 60.6221V73.647H79.6136C76.7718 73.647 74.5299 73.2365 72.888 72.4155C71.0882 77.6255 67.5991 82.0934 62.4207 85.8193C57.1792 89.5452 50.7378 91.3135 43.0965 91.124L49.4432 87.856C45.2121 83.4354 46.0014 79.7884 51.8113 76.915C54.6531 75.652 56.3424 74.6416 56.8792 73.8838L57.0213 73.647C52.0955 73.647 47.896 71.9103 44.4227 68.437C40.9494 64.9006 39.2127 60.7168 39.2127 55.8857C39.2127 51.0863 40.5231 46.5868 43.1439 42.3872C45.7015 38.2508 49.5379 34.888 54.6531 32.2988C59.7999 29.7728 66.5097 28.5098 74.7825 28.5098V55.791C74.7825 57.1488 75.2562 58.2855 76.2034 59.2012C77.1507 60.1484 78.2874 60.6221 79.6136 60.6221H83.4974ZM119.92 60.6221C122.635 60.4326 124.846 59.438 126.551 57.6382C128.319 55.8068 129.203 53.6123 129.203 51.0547C129.203 48.4971 128.319 46.3026 126.551 44.4712C124.814 42.6714 122.619 41.6925 119.967 41.5347L118.546 41.582C109.673 42.624 104.148 48.9707 101.969 60.6221H119.92ZM87.8548 40.2559C87.8548 37.0036 91.0123 36.4036 97.3275 38.4561C95.6224 31.7936 96.8065 28.4624 100.88 28.4624V35.4722C100.817 35.5669 100.959 35.488 101.306 35.2354C101.559 35.0775 102.111 34.6828 102.964 34.0513C107.479 30.7674 112.357 28.936 117.599 28.5571L119.92 28.4624L120.346 28.5098C126.566 28.8571 131.761 31.1621 135.929 35.4248C140.128 39.7191 142.228 44.929 142.228 51.0547C142.228 55.0016 141.581 58.1434 140.286 60.48C140.444 60.5431 141.075 60.5905 142.18 60.6221H146.017V73.647H141.754C137.492 73.3944 133.923 72.3682 131.05 70.5684C128.177 72.3682 124.609 73.3944 120.346 73.647H79.8504V60.6221H87.8548V40.2559ZM167.615 55.791C167.615 60.6852 165.878 64.9006 162.405 68.437C158.868 71.9103 154.653 73.647 149.759 73.647H142.37V60.6221H149.759C151.148 60.6221 152.285 60.1484 153.169 59.2012C154.116 58.2855 154.59 57.1488 154.59 55.791V12.2642C154.59 9.01188 157.116 8.28564 162.168 10.0854C161.757 3.70719 163.573 0.518066 167.615 0.518066V55.791ZM191.722 61.9009C191.722 65.09 189.149 66.4793 184.002 66.0688C184.571 71.1209 182.802 73.647 178.698 73.647V12.3589C178.698 9.10661 181.839 8.31722 188.123 9.99072C186.481 3.73877 187.681 0.612793 191.722 0.612793V61.9009ZM266.651 60.6221C266.304 59.6748 266.13 58.0645 266.13 55.791V43.2871C263.604 43.887 261.394 45.4816 259.499 48.0708C257.573 50.66 256.61 53.265 256.61 55.8857C256.61 57.1488 257.084 58.2539 258.031 59.2012C258.978 60.1484 260.099 60.6221 261.394 60.6221H266.651ZM277.971 17.9478C277.971 19.937 277.261 21.6737 275.84 23.1577C274.419 24.6102 272.682 25.3364 270.63 25.3364C268.546 25.3364 266.809 24.6102 265.42 23.1577C263.967 21.7052 263.241 19.9686 263.241 17.9478C263.241 15.9269 263.967 14.1903 265.42 12.7378C266.809 11.2853 268.546 10.5591 270.63 10.5591C272.682 10.5591 274.419 11.2853 275.84 12.7378C277.261 14.1903 277.971 15.9269 277.971 17.9478ZM283.513 73.647C280.86 73.6154 278.808 73.2365 277.355 72.5103C276.25 75.952 273.929 79.3779 270.393 82.7881C264.488 88.4717 257.257 91.2661 248.701 91.1714C241.028 90.6978 234.586 87.8717 229.376 82.6934C224.166 77.5465 221.261 71.1209 220.661 63.4165C220.504 53.2808 224.435 44.9448 232.455 38.4087L230.655 46.8867C236.244 47.2656 237.917 49.6812 235.676 54.1333C234.349 56.5962 233.686 59.3117 233.686 62.2798C233.844 66.5741 235.36 70.1895 238.233 73.126C241.075 76.1257 244.611 77.7834 248.843 78.0991C253.642 78.2886 257.747 76.7887 261.157 73.5996C261.504 73.2523 261.678 73.0944 261.678 73.126C261.71 73.1891 261.552 73.4417 261.204 73.8838C261.741 73.8206 262.025 73.7575 262.057 73.6943C262.089 73.6628 261.867 73.647 261.394 73.647C256.468 73.647 252.269 71.9103 248.795 68.437C245.322 64.9006 243.585 60.7168 243.585 55.8857C243.585 51.0547 244.896 46.5394 247.516 42.3398C250.074 38.2035 253.926 34.8564 259.073 32.2988C264.157 29.7728 270.851 28.5098 279.155 28.5098V55.791C279.187 57.1803 279.676 58.3171 280.623 59.2012C281.507 60.1484 282.644 60.6221 284.034 60.6221H288.059V73.647H283.513ZM262.388 17.9478C262.388 19.937 261.678 21.6737 260.257 23.1577C258.836 24.6102 257.084 25.3364 255 25.3364C252.979 25.3364 251.242 24.6102 249.79 23.1577C248.337 21.7052 247.611 19.9686 247.611 17.9478C247.611 15.9269 248.337 14.1903 249.79 12.7378C251.242 11.2853 252.979 10.5591 255 10.5591C257.084 10.5591 258.836 11.2853 260.257 12.7378C261.678 14.1903 262.388 15.9269 262.388 17.9478ZM297.864 40.2559C297.864 37.0036 300.737 35.8984 306.484 36.9404C305.315 31.2884 306.784 28.4624 310.888 28.4624V55.791C310.888 60.6852 309.152 64.9006 305.679 68.437C302.142 71.9103 297.927 73.647 293.033 73.647H284.365V60.6221H293.033C294.359 60.6221 295.495 60.1484 296.443 59.2012C297.39 58.2539 297.864 57.1172 297.864 55.791V40.2559ZM301.558 86.1509C301.558 88.1717 300.832 89.9084 299.379 91.3608C297.927 92.8133 296.19 93.5396 294.169 93.5396C292.148 93.5396 290.412 92.8133 288.959 91.3608C287.507 89.9084 286.781 88.1717 286.781 86.1509C286.781 84.13 287.507 82.3934 288.959 80.9409C290.412 79.4884 292.148 78.7622 294.169 78.7622C296.19 78.7622 297.927 79.4884 299.379 80.9409C300.832 82.3934 301.558 84.13 301.558 86.1509ZM339.117 73.647C334.254 73.5838 330.118 71.8314 326.708 68.3896C323.203 64.9163 321.451 60.7168 321.451 55.791V12.2642C321.451 9.01188 324.576 8.28564 330.828 10.0854C329.187 3.70719 330.402 0.518066 334.475 0.518066V55.791C334.475 57.1488 334.949 58.2855 335.896 59.2012C336.812 60.1484 337.949 60.6221 339.306 60.6221H342.243V73.647H339.117ZM378.713 60.6221C381.428 60.4326 383.638 59.438 385.344 57.6382C387.112 55.8068 387.996 53.6123 387.996 51.0547C387.996 48.4971 387.112 46.3026 385.344 44.4712C383.607 42.6714 381.412 41.6925 378.76 41.5347L377.339 41.582C368.466 42.624 362.941 48.9707 360.762 60.6221H378.713ZM338.643 60.6221H346.648V12.3589C346.648 9.10661 349.3 8.44352 354.605 10.3696C353.91 3.8335 355.599 0.56543 359.673 0.56543V35.4722C359.61 35.5669 359.752 35.488 360.099 35.2354C360.352 35.0775 360.904 34.6828 361.757 34.0513C366.272 30.7674 371.15 28.936 376.392 28.5571L378.713 28.4624L379.139 28.5098C385.359 28.8571 390.554 31.1621 394.721 35.4248C398.921 39.7191 401.021 44.929 401.021 51.0547C401.021 57.1803 398.921 62.3903 394.721 66.6846C390.554 70.9788 385.359 73.2996 379.139 73.647H338.643V60.6221Z" fill="#FF6ECB"/>
<path d="M22.9671 82.7881L31.3114 91.4121L31.3122 91.4113L22.9671 82.7881ZM0.0906372 91.124L-5.31075 80.4084L-0.030159 103.123L0.0906372 91.124ZM5.91632 88.1875L11.3177 98.9031L15.1452 80.5176L5.91632 88.1875ZM8.75812 76.8677L3.49401 66.0839L3.41505 66.1228L8.75812 76.8677ZM27.0403 38.4561L22.8621 49.7052L38.9209 36.7669L27.0403 38.4561ZM31.7767 28.4624H43.7767L31.7767 16.4624V28.4624ZM19.7767 61.8535C19.7767 66.9204 18.127 70.773 14.622 74.1649L31.3122 91.4113C39.5533 83.436 43.7767 73.3322 43.7767 61.8535H19.7767ZM14.6228 74.1641C11.4085 77.2742 7.00269 79.193 0.211433 79.1246L-0.030159 103.123C11.9976 103.244 22.8428 99.606 31.3114 91.4121L14.6228 74.1641ZM5.49202 101.84L11.3177 98.9031L0.514938 77.4719L-5.31075 80.4084L5.49202 101.84ZM15.1452 80.5176C14.2425 79.4313 16.2418 81.2333 15.3528 84.7745C14.9506 86.3766 14.1492 87.3472 13.7652 87.7267C13.436 88.052 13.4114 87.9555 14.1012 87.6125L3.41505 66.1228C-0.605591 68.1222 -6.17071 71.9432 -7.92491 78.9308C-9.7612 86.2453 -6.2936 92.2705 -3.31255 95.8574L15.1452 80.5176ZM14.0222 87.6514C18.8241 85.3074 23.1507 81.9696 26.2428 77.3241C29.3781 72.6137 30.7518 67.2947 30.7518 61.8535H6.75177C6.75177 63.1695 6.45982 63.7315 6.26391 64.0258C6.02485 64.385 5.35454 65.1757 3.49401 66.0839L14.0222 87.6514ZM30.7518 61.8535V40.2085H6.75177V61.8535H30.7518ZM30.7518 40.2085C30.7518 41.0183 30.5842 43.1287 28.9799 45.3382C27.2419 47.7316 24.9062 48.757 23.3062 49.0953C21.9413 49.3839 21.127 49.1928 21.321 49.2271C21.4277 49.246 21.9112 49.352 22.8621 49.7052L31.2186 27.207C28.1904 26.0822 23.3088 24.5642 18.3416 25.6144C15.3602 26.2448 11.9884 27.8919 9.55975 31.2365C7.26465 34.3971 6.75177 37.7883 6.75177 40.2085H30.7518ZM38.9209 36.7669C38.7626 35.654 38.7664 35.0496 38.7796 34.8406C38.7948 34.6007 38.8031 35.1604 38.3578 36.1001C37.848 37.1757 36.8519 38.4948 35.2396 39.4398C33.7077 40.3377 32.3635 40.4624 31.7767 40.4624V16.4624C29.1374 16.4624 26.0566 17.0035 23.1038 18.7342C20.0706 20.512 17.9694 23.0803 16.6702 25.8216C14.339 30.7403 14.5908 36.1429 15.1598 40.1452L38.9209 36.7669ZM19.7767 28.4624V61.8535H43.7767V28.4624H19.7767ZM53.4691 59.1538L61.9543 50.6685L61.8093 50.5259L53.4691 59.1538ZM62.1365 60.5747V72.5747L73.1023 55.701L62.1365 60.5747ZM61.5682 43.2397H73.5682L58.7281 31.5807L61.5682 43.2397ZM54.9373 48.0234L45.3654 40.7861L45.3092 40.8611L54.9373 48.0234ZM83.4974 60.6221H95.4974L83.4974 48.6221V60.6221ZM83.4974 73.647V85.647L95.4974 73.647H83.4974ZM72.888 72.4155L78.2546 61.6824L61.5457 68.4973L72.888 72.4155ZM62.4207 85.8193L69.3733 95.6L69.4292 95.56L62.4207 85.8193ZM43.0965 91.124L37.6029 80.4553L42.7991 103.12L43.0965 91.124ZM49.4432 87.856L54.9368 98.5246L58.1122 79.5585L49.4432 87.856ZM51.8113 76.915L46.9377 65.9493L46.4916 66.1586L51.8113 76.915ZM56.8792 73.8838L66.6715 80.82L67.1691 80.0577L56.8792 73.8838ZM57.0213 73.647L67.3112 79.8209L57.0213 61.647V73.647ZM44.4227 68.437L35.8613 76.8455L35.9374 76.9223L44.4227 68.437ZM43.1439 42.3872L53.3241 48.7403L53.3504 48.6981L43.1439 42.3872ZM54.6531 32.2988L49.366 21.5263L49.2338 21.5923L54.6531 32.2988ZM74.7825 28.5098H86.7825L74.7825 16.5098V28.5098ZM76.2034 59.2012L84.6887 50.7159L84.5437 50.5733L76.2034 59.2012ZM40.0482 55.8384C40.0482 60.4505 41.8892 64.6501 45.1288 67.7817L61.8093 50.5259C62.3721 51.07 62.9838 51.8627 63.4331 52.9112C63.8844 53.964 64.0482 54.9867 64.0482 55.8384H40.0482ZM44.9838 67.6391C48.094 70.7493 52.233 72.5747 56.8318 72.5747V48.5747C57.6851 48.5747 58.6805 48.7388 59.6908 49.1657C60.693 49.5892 61.4445 50.1587 61.9543 50.6685L44.9838 67.6391ZM56.8318 72.5747H62.1365V48.5747H56.8318V72.5747ZM73.1023 55.701C73.2612 56.0587 73.3683 56.3606 73.4384 56.581C73.5093 56.8038 73.554 56.9796 73.5806 57.0949C73.6075 57.2117 73.6214 57.2903 73.6269 57.3231C73.6325 57.3568 73.632 57.3591 73.6281 57.3254C73.6195 57.2528 73.6034 57.0863 73.5901 56.8069C73.577 56.5312 73.5682 56.1797 73.5682 55.7437H49.5682C49.5682 57.204 49.6244 58.7008 49.7925 60.1296C49.9405 61.3882 50.2589 63.3966 51.1708 65.4484L73.1023 55.701ZM73.5682 55.7437V43.2397H49.5682V55.7437H73.5682ZM58.7281 31.5807C52.9008 33.0001 48.5146 36.6211 45.3654 40.7861L64.5092 55.2607C64.9002 54.7436 65.1133 54.5963 65.0841 54.6174C65.0665 54.6301 64.9949 54.6791 64.8691 54.7382C64.7415 54.7981 64.5849 54.8558 64.4082 54.8988L58.7281 31.5807ZM45.3092 40.8611C42.206 45.0325 40.0482 50.0889 40.0482 55.8384H64.0482C64.0482 56.0313 64.0072 56.1309 64.0259 56.0802C64.0527 56.0076 64.1774 55.7075 64.5654 55.1858L45.3092 40.8611ZM71.4974 60.6221V73.647H95.4974V60.6221H71.4974ZM83.4974 61.647H79.6136V85.647H83.4974V61.647ZM79.6136 61.647C78.7485 61.647 78.221 61.5828 77.9621 61.5353C77.698 61.487 77.8534 61.4818 78.2546 61.6824L67.5214 83.1487C71.4951 85.1355 75.8321 85.647 79.6136 85.647V61.647ZM61.5457 68.4973C60.677 71.0119 58.9064 73.5646 55.4122 76.0787L69.4292 95.56C76.2918 90.6223 81.4994 84.2391 84.2303 76.3338L61.5457 68.4973ZM55.4682 76.0386C52.7175 77.9939 48.9469 79.2654 43.3939 79.1277L42.7991 103.12C52.5287 103.362 61.6408 101.097 69.3733 95.6L55.4682 76.0386ZM48.5901 101.793L54.9368 98.5246L43.9496 77.1873L37.6029 80.4553L48.5901 101.793ZM58.1122 79.5585C57.6879 79.1152 57.9361 79.2439 58.2487 79.9768C58.618 80.8423 59.0061 82.4227 58.5903 84.3439C58.1872 86.2059 57.258 87.3278 56.8293 87.7513C56.4587 88.1175 56.408 88.0291 57.1311 87.6714L46.4916 66.1586C42.6346 68.0662 36.7202 71.9359 35.1335 79.2667C33.4651 86.9747 37.6954 92.9368 40.7742 96.1534L58.1122 79.5585ZM56.685 87.8808C58.3262 87.1514 59.9439 86.361 61.3694 85.5084C62.3973 84.8936 64.8539 83.386 66.6715 80.82L47.0869 66.9476C47.5012 66.3627 47.8917 65.9402 48.159 65.6742C48.4329 65.4016 48.6592 65.2124 48.7967 65.1031C48.9381 64.9908 49.035 64.9241 49.0682 64.9016C49.1036 64.8777 49.1007 64.8812 49.0499 64.9116C48.9416 64.9763 48.7177 65.1026 48.3451 65.2895C47.9785 65.4734 47.5137 65.6933 46.9377 65.9493L56.685 87.8808ZM67.1691 80.0577L67.3112 79.8209L46.7314 67.473L46.5893 67.7098L67.1691 80.0577ZM57.0213 61.647C55.2681 61.647 54.1237 61.1675 52.9079 59.9517L35.9374 76.9223C41.6682 82.6531 48.923 85.647 57.0213 85.647V61.647ZM52.984 60.0285C51.6505 58.6707 51.2127 57.4814 51.2127 55.8857H27.2127C27.2127 63.9522 30.2482 71.1304 35.8613 76.8455L52.984 60.0285ZM51.2127 55.8857C51.2127 53.4057 51.8533 51.0972 53.3241 48.7403L32.9636 36.0341C29.1929 42.0763 27.2127 48.7669 27.2127 55.8857H51.2127ZM53.3504 48.6981C54.5534 46.7524 56.5705 44.778 60.0725 43.0054L49.2338 21.5923C42.5053 24.998 36.8495 29.7493 32.9374 36.0763L53.3504 48.6981ZM59.9402 43.0713C62.8776 41.6297 67.5893 40.5098 74.7825 40.5098V16.5098C65.4302 16.5098 56.7223 17.9159 49.366 21.5263L59.9402 43.0713ZM62.7825 28.5098V55.791H86.7825V28.5098H62.7825ZM62.7825 55.791C62.7825 60.2901 64.4978 64.5758 67.8632 67.829L84.5437 50.5733C85.1629 51.1719 85.7792 52.0014 86.2147 53.0465C86.6469 54.0839 86.7825 55.0486 86.7825 55.791H62.7825ZM67.7182 67.6865C70.8902 70.8585 75.0687 72.6221 79.6136 72.6221V48.6221C80.4117 48.6221 81.3782 48.7718 82.3818 49.1899C83.383 49.6071 84.152 50.1792 84.6887 50.7159L67.7182 67.6865ZM79.6136 72.6221H83.4974V48.6221H79.6136V72.6221ZM119.92 60.6221V72.6221L120.755 72.593L119.92 60.6221ZM126.551 57.6382L117.918 49.3031L117.839 49.3852L126.551 57.6382ZM126.551 44.4712L117.915 52.8036L117.918 52.8063L126.551 44.4712ZM119.967 41.5347L120.68 29.5559L119.567 29.5413L119.967 41.5347ZM118.546 41.582L118.146 29.5887L117.147 29.6639L118.546 41.582ZM101.969 60.6221L90.1735 58.4164L101.969 72.6221V60.6221ZM97.3275 38.4561L93.6184 49.8685L108.953 35.4809L97.3275 38.4561ZM100.88 28.4624H112.88L100.88 16.4624V28.4624ZM100.88 35.4722L110.864 42.1286L112.88 35.4722H100.88ZM101.306 35.2354L94.946 25.0594L94.2479 25.5305L101.306 35.2354ZM102.964 34.0513L95.9056 24.3464L95.821 24.4086L102.964 34.0513ZM117.599 28.5571L117.11 16.5671L116.734 16.5884L117.599 28.5571ZM119.92 28.4624L121.245 16.5358L119.43 16.4724L119.92 28.4624ZM120.346 28.5098L119.021 40.4364L119.677 40.4911L120.346 28.5098ZM135.929 35.4248L127.348 43.8142L127.349 43.8149L135.929 35.4248ZM140.286 60.48L129.789 54.6643L135.829 71.6217L140.286 60.48ZM142.18 60.6221L141.838 72.6172L142.18 72.6221V60.6221ZM146.017 60.6221H158.017L146.017 48.6221V60.6221ZM146.017 73.647V85.647L158.017 73.647H146.017ZM141.754 73.647L141.044 85.626L141.754 85.647V73.647ZM131.05 70.5684L137.42 60.3987H124.68L131.05 70.5684ZM120.346 73.647V85.647L121.056 85.626L120.346 73.647ZM79.8504 73.647H67.8504L79.8504 85.647V73.647ZM79.8504 60.6221V48.6221L67.8504 60.6221H79.8504ZM87.8548 60.6221V72.6221L99.8548 60.6221H87.8548ZM120.755 72.593C126.15 72.2166 131.28 70.0943 135.262 65.8911L117.839 49.3852C118.037 49.1769 118.336 48.95 118.69 48.791C119.025 48.64 119.202 48.643 119.085 48.6512L120.755 72.593ZM135.183 65.9733C139.123 61.8931 141.203 56.7057 141.203 51.0547H117.203C117.203 50.9223 117.232 50.5744 117.409 50.1345C117.587 49.6935 117.812 49.4131 117.918 49.3031L135.183 65.9733ZM141.203 51.0547C141.203 45.4037 139.123 40.2163 135.183 36.1361L117.918 52.8063C117.812 52.6963 117.587 52.4159 117.409 51.9749C117.232 51.5349 117.203 51.1871 117.203 51.0547H141.203ZM135.186 36.1388C131.221 32.0294 126.132 29.8804 120.68 29.5559L119.254 53.5135C119.291 53.5156 119.068 53.5044 118.714 53.3464C118.348 53.1832 118.071 52.9655 117.915 52.8036L135.186 36.1388ZM119.567 29.5413L118.146 29.5887L118.946 53.5754L120.367 53.528L119.567 29.5413ZM117.147 29.6639C109.946 30.5095 103.547 33.6727 98.697 39.2438C94.0702 44.558 91.5034 51.3041 90.1735 58.4164L113.765 62.8277C114.613 58.2887 115.899 56.0357 116.798 55.0033C117.473 54.2277 118.273 53.6965 119.946 53.5001L117.147 29.6639ZM101.969 72.6221H119.92V48.6221H101.969V72.6221ZM99.8548 40.2559C99.8548 41.3584 99.5676 43.6762 97.7275 45.9211C95.8734 48.1831 93.6203 48.9359 92.4629 49.1558C91.4274 49.3525 90.9317 49.2091 91.3644 49.2754C91.7158 49.3293 92.4399 49.4854 93.6184 49.8685L101.036 27.0436C97.5961 25.9255 92.7358 24.6746 87.983 25.5776C85.2469 26.0975 81.8096 27.4818 79.1661 30.7068C76.5367 33.9148 75.8548 37.5272 75.8548 40.2559H99.8548ZM108.953 35.4809C108.656 34.3211 108.586 33.6827 108.574 33.4591C108.56 33.1811 108.648 33.8429 108.244 34.9799C107.77 36.3132 106.702 38.0113 104.789 39.2235C103.016 40.3471 101.446 40.4624 100.88 40.4624V16.4624C98.2766 16.4624 95.0313 16.9941 91.9437 18.9506C88.7163 20.9956 86.6957 23.9428 85.6298 26.9418C83.7803 32.145 84.7268 37.6202 85.7021 41.4313L108.953 35.4809ZM88.8797 28.4624V35.4722H112.88V28.4624H88.8797ZM90.8951 28.8158C90.7984 28.9607 89.7001 30.5169 89.1729 32.8012C88.9119 33.9326 88.3498 37.0636 89.9916 40.5818C91.9845 44.8522 95.744 46.7229 98.5174 47.2776C100.832 47.7405 102.681 47.3952 103.371 47.2489C104.237 47.0652 104.904 46.8227 105.268 46.6804C105.999 46.3945 106.545 46.0972 106.767 45.9739C107.561 45.5324 108.233 45.0356 108.364 44.9402L94.2479 25.5305C94.0318 25.6877 94.4585 25.3567 95.1112 24.9941C95.2976 24.8906 95.8145 24.6076 96.5224 24.3306C96.8747 24.1927 97.5325 23.9533 98.3906 23.7713C99.0722 23.6267 100.915 23.2818 103.224 23.7437C105.993 24.2974 109.749 26.1658 111.74 30.4325C113.38 33.947 112.818 37.0729 112.558 38.1979C112.034 40.4694 110.945 42.0073 110.864 42.1286L90.8951 28.8158ZM107.666 45.4113C108.403 44.9507 109.365 44.2428 110.106 43.694L95.821 24.4086C95.4232 24.7032 95.133 24.9147 94.935 25.0561C94.8364 25.1265 94.7816 25.1646 94.7616 25.1784C94.7255 25.2031 94.8018 25.1495 94.946 25.0594L107.666 45.4113ZM110.022 43.7561C112.843 41.7045 115.599 40.733 118.464 40.5259L116.734 16.5884C109.116 17.1391 102.115 19.8304 95.9056 24.3464L110.022 43.7561ZM118.088 40.5471L120.409 40.4524L119.43 16.4724L117.11 16.5671L118.088 40.5471ZM118.595 40.389L119.021 40.4364L121.671 16.5832L121.245 16.5358L118.595 40.389ZM119.677 40.4911C123.052 40.6796 125.378 41.7987 127.348 43.8142L144.509 27.0354C138.143 20.5255 130.08 17.0346 121.015 16.5284L119.677 40.4911ZM127.349 43.8149C129.308 45.8177 130.228 47.9957 130.228 51.0547H154.228C154.228 41.8624 150.948 33.6205 144.508 27.0347L127.349 43.8149ZM130.228 51.0547C130.228 52.3928 130.116 53.3329 129.989 53.9497C129.863 54.5629 129.744 54.7454 129.789 54.6643L150.783 66.2956C153.423 61.5292 154.228 56.1346 154.228 51.0547H130.228ZM135.829 71.6217C137.349 72.2295 138.706 72.3913 138.829 72.4085C139.285 72.4723 139.696 72.5079 139.981 72.5293C140.568 72.5733 141.214 72.5994 141.838 72.6172L142.523 48.627C142.297 48.6205 142.12 48.6139 141.985 48.6078C141.919 48.6048 141.868 48.6021 141.831 48.5999C141.793 48.5978 141.775 48.5965 141.775 48.5965C141.776 48.5965 141.783 48.597 141.796 48.5981C141.808 48.5992 141.829 48.6011 141.857 48.6039C141.907 48.6089 142.013 48.6201 142.157 48.6403C142.287 48.6585 142.547 48.6975 142.882 48.7693C143.054 48.8063 143.293 48.8617 143.576 48.9415C143.847 49.018 144.257 49.1439 144.743 49.3383L135.829 71.6217ZM142.18 72.6221H146.017V48.6221H142.18V72.6221ZM134.017 60.6221V73.647H158.017V60.6221H134.017ZM146.017 61.647H141.754V85.647H146.017V61.647ZM142.464 61.668C139.699 61.5041 138.201 60.888 137.42 60.3987L124.68 80.7381C129.646 83.8483 135.284 85.2846 141.044 85.626L142.464 61.668ZM124.68 60.3987C123.899 60.888 122.402 61.5041 119.636 61.668L121.056 85.626C126.816 85.2846 132.455 83.8483 137.42 80.7381L124.68 60.3987ZM120.346 61.647H79.8504V85.647H120.346V61.647ZM91.8504 73.647V60.6221H67.8504V73.647H91.8504ZM79.8504 72.6221H87.8548V48.6221H79.8504V72.6221ZM99.8548 60.6221V40.2559H75.8548V60.6221H99.8548ZM162.405 68.437L170.813 76.9984L170.966 76.8455L162.405 68.437ZM142.37 73.647H130.37L142.37 85.647V73.647ZM142.37 60.6221V48.6221L130.37 60.6221H142.37ZM153.169 59.2012L144.828 50.5733L144.396 51.0134L153.169 59.2012ZM162.168 10.0854L158.141 21.3895L174.143 9.31477L162.168 10.0854ZM167.615 0.518066H179.615L167.615 -11.4819V0.518066ZM155.615 55.791C155.615 57.4953 155.144 58.7038 153.843 60.0285L170.966 76.8455C176.612 71.0973 179.615 63.8752 179.615 55.791H155.615ZM153.996 59.8756C152.671 61.1767 151.463 61.647 149.759 61.647V85.647C157.843 85.647 165.065 82.6439 170.813 76.9984L153.996 59.8756ZM149.759 61.647H142.37V85.647H149.759V61.647ZM154.37 73.647V60.6221H130.37V73.647H154.37ZM142.37 72.6221H149.759V48.6221H142.37V72.6221ZM149.759 72.6221C154.205 72.6221 158.611 70.9576 161.941 67.389L144.396 51.0134C145.056 50.3058 145.949 49.6437 147.038 49.1899C148.108 48.7441 149.071 48.6221 149.759 48.6221V72.6221ZM161.509 67.829C164.874 64.5758 166.59 60.2901 166.59 55.791H142.59C142.59 55.0486 142.725 54.0839 143.158 53.0465C143.593 52.0014 144.209 51.1719 144.828 50.5733L161.509 67.829ZM166.59 55.791V12.2642H142.59V55.791H166.59ZM166.59 12.2642C166.59 12.8947 166.48 14.7046 165.194 16.7307C163.753 19.0001 161.637 20.2848 159.8 20.8131C158.243 21.2607 157.193 21.094 157.169 21.0906C157.071 21.0767 157.36 21.1115 158.141 21.3895L166.195 -1.21865C163.332 -2.23845 158.308 -3.73018 153.169 -2.25256C150.068 -1.36118 147.005 0.602444 144.933 3.86649C143.015 6.88722 142.59 10.0075 142.59 12.2642H166.59ZM174.143 9.31477C174.078 8.30867 174.128 7.79058 174.15 7.64339C174.174 7.47957 174.127 8.00885 173.65 8.84689C173.114 9.78854 172.162 10.8802 170.739 11.6551C169.374 12.3985 168.187 12.5181 167.615 12.5181V-11.4819C161.812 -11.4819 156.085 -8.80989 152.793 -3.02707C150.149 1.61785 149.935 6.85526 150.193 10.8561L174.143 9.31477ZM155.615 0.518066V55.791H179.615V0.518066H155.615ZM184.002 66.0688L184.956 54.1068L172.077 67.4104L184.002 66.0688ZM178.698 73.647H166.698L178.698 85.647V73.647ZM188.123 9.99072L185.035 21.5865L199.729 6.94257L188.123 9.99072ZM191.722 0.612793H203.722L191.722 -11.3872V0.612793ZM179.722 61.9009C179.722 61.078 179.896 59.6462 180.779 58.0756C181.693 56.4492 182.972 55.3798 184.092 54.7753C185.102 54.2296 185.825 54.1404 185.87 54.1346C185.938 54.126 185.671 54.1638 184.956 54.1068L183.048 78.0309C186.386 78.297 191.138 78.2451 195.493 75.8941C197.9 74.595 200.143 72.6059 201.701 69.835C203.227 67.1197 203.722 64.3183 203.722 61.9009H179.722ZM172.077 67.4104C172.233 68.7903 171.686 67.1363 173.272 64.8709C174.157 63.6065 175.362 62.681 176.597 62.1497C177.721 61.6663 178.538 61.647 178.698 61.647V85.647C183.24 85.647 189.094 84.1179 192.933 78.634C196.287 73.8425 196.34 68.3995 195.927 64.7273L172.077 67.4104ZM190.698 73.647V12.3589H166.698V73.647H190.698ZM190.698 12.3589C190.698 13.4812 190.404 15.6325 188.761 17.7462C187.114 19.8649 185.09 20.6864 183.978 20.9659C182.984 21.2156 182.489 21.1084 182.879 21.1449C183.198 21.1749 183.888 21.2812 185.035 21.5865L191.211 -1.60506C187.711 -2.53727 182.829 -3.49128 178.13 -2.31063C175.447 -1.63645 172.245 -0.112331 169.812 3.01674C167.384 6.14085 166.698 9.61041 166.698 12.3589H190.698ZM199.729 6.94257C199.458 5.91139 199.415 5.4094 199.411 5.32285C199.405 5.1882 199.478 5.99817 198.994 7.25744C198.43 8.72863 197.255 10.3815 195.371 11.5052C193.657 12.5269 192.194 12.6128 191.722 12.6128V-11.3872C189.23 -11.3872 186.101 -10.9106 183.078 -9.1074C179.883 -7.2022 177.753 -4.37707 176.588 -1.34289C174.572 3.91095 175.56 9.39814 176.516 13.0389L199.729 6.94257ZM179.722 0.612793V61.9009H203.722V0.612793H179.722ZM266.651 60.6221V72.6221L277.918 56.491L266.651 60.6221ZM266.13 43.2871H278.13L263.357 31.6119L266.13 43.2871ZM259.499 48.0708L269.127 55.2332L269.184 55.1569L259.499 48.0708ZM275.84 23.1577L284.418 31.5492L284.507 31.4566L275.84 23.1577ZM265.42 23.1577L274.091 14.863L273.905 14.6724L265.42 23.1577ZM265.42 12.7378L273.905 21.2231L274.091 21.0325L265.42 12.7378ZM283.513 73.647L283.37 85.6461L283.513 85.647V73.647ZM277.355 72.5103L282.722 61.7771L265.93 68.8415L277.355 72.5103ZM270.393 82.7881L278.715 91.4336L278.723 91.4262L270.393 82.7881ZM248.701 91.1714L247.961 103.149L248.568 103.171L248.701 91.1714ZM229.376 82.6934L237.836 74.1823L237.81 74.1565L229.376 82.6934ZM220.661 63.4165L208.663 63.6034L208.698 64.3481L220.661 63.4165ZM232.455 38.4087L244.193 40.9006L224.874 29.1065L232.455 38.4087ZM230.655 46.8867L218.917 44.3948L229.843 58.8592L230.655 46.8867ZM235.676 54.1333L246.241 59.8225L246.393 59.5302L235.676 54.1333ZM233.686 62.2798H221.686L221.694 62.7207L233.686 62.2798ZM238.233 73.126L246.945 64.873L246.81 64.7334L238.233 73.126ZM248.843 78.0991L247.95 90.0658L248.369 90.0898L248.843 78.0991ZM261.157 73.5996L269.354 82.3642L269.642 82.0849L261.157 73.5996ZM261.678 73.126H249.678L250.945 78.4925L261.678 73.126ZM261.204 73.8838L251.769 66.4699L262.607 85.8016L261.204 73.8838ZM262.057 73.6943L253.572 65.2091L251.324 68.3278L262.057 73.6943ZM248.795 68.437L240.234 76.8455L240.31 76.9223L248.795 68.437ZM247.516 42.3398L257.697 48.6929L257.723 48.6507L247.516 42.3398ZM259.073 32.2988L253.733 21.5524L253.733 21.5525L259.073 32.2988ZM279.155 28.5098H291.155L279.155 16.5098V28.5098ZM279.155 55.791H267.155L267.158 56.0637L279.155 55.791ZM280.623 59.2012L289.396 51.0134L288.811 50.4285L280.623 59.2012ZM288.059 60.6221H300.059L288.059 48.6221V60.6221ZM288.059 73.647V85.647L300.059 73.647H288.059ZM260.257 23.1577L268.835 31.5492L268.925 31.4566L260.257 23.1577ZM249.79 23.1577L241.305 31.643L249.79 23.1577ZM249.79 12.7378L258.275 21.2231L249.79 12.7378ZM277.918 56.491C278.088 56.9557 278.16 57.283 278.182 57.392C278.207 57.5137 278.204 57.5322 278.191 57.4172C278.179 57.3075 278.163 57.1182 278.151 56.8357C278.138 56.5556 278.13 56.2097 278.13 55.791H254.13C254.13 58.1516 254.244 61.6418 255.385 64.7531L277.918 56.491ZM278.13 55.791V43.2871H254.13V55.791H278.13ZM263.357 31.6119C257.445 33.016 252.983 36.6549 249.815 40.9847L269.184 55.1569C269.516 54.7032 269.677 54.6082 269.599 54.6648C269.558 54.694 269.472 54.7505 269.34 54.8116C269.207 54.8733 269.057 54.9257 268.903 54.9623L263.357 31.6119ZM249.871 40.9084C246.768 45.0799 244.61 50.1362 244.61 55.8857H268.61C268.61 56.0786 268.569 56.1782 268.588 56.1275C268.615 56.055 268.739 55.7548 269.127 55.2332L249.871 40.9084ZM244.61 55.8857C244.61 60.5394 246.5 64.6403 249.546 67.6865L266.516 50.7159C266.999 51.1987 267.566 51.9327 267.995 52.9348C268.431 53.9509 268.61 54.9756 268.61 55.8857H244.61ZM249.546 67.6865C252.656 70.7967 256.795 72.6221 261.394 72.6221V48.6221C262.247 48.6221 263.243 48.7862 264.253 49.2131C265.255 49.6365 266.007 50.2061 266.516 50.7159L249.546 67.6865ZM261.394 72.6221H266.651V48.6221H261.394V72.6221ZM265.971 17.9478C265.971 17.4792 266.062 16.8578 266.332 16.1986C266.598 15.5464 266.94 15.1009 267.172 14.8589L284.507 31.4566C287.989 27.8204 289.971 23.1403 289.971 17.9478H265.971ZM267.262 14.7662C267.585 14.4361 268.113 14.0254 268.842 13.7208C269.568 13.4172 270.211 13.3364 270.63 13.3364V37.3364C275.874 37.3364 280.714 35.3356 284.418 31.5492L267.262 14.7662ZM270.63 13.3364C271.007 13.3364 271.646 13.4081 272.394 13.7208C273.151 14.0374 273.723 14.4776 274.091 14.863L256.748 31.4524C260.493 35.3679 265.406 37.3364 270.63 37.3364V13.3364ZM273.905 14.6724C274.182 14.9495 274.564 15.4367 274.857 16.1362C275.151 16.8396 275.241 17.4869 275.241 17.9478H251.241C251.241 23.2095 253.273 27.9817 256.934 31.643L273.905 14.6724ZM275.241 17.9478C275.241 18.4087 275.151 19.0559 274.857 19.7593C274.564 20.4588 274.182 20.946 273.905 21.2231L256.934 4.25251C253.273 7.91383 251.241 12.686 251.241 17.9478H275.241ZM274.091 21.0325C273.723 21.4179 273.151 21.8581 272.394 22.1747C271.646 22.4874 271.007 22.5591 270.63 22.5591V-1.44092C265.406 -1.44092 260.493 0.527654 256.748 4.44312L274.091 21.0325ZM270.63 22.5591C270.211 22.5591 269.568 22.4783 268.842 22.1747C268.113 21.8701 267.585 21.4594 267.262 21.1293L284.418 4.34626C280.714 0.559939 275.874 -1.44092 270.63 -1.44092V22.5591ZM267.262 21.1293C266.979 20.8406 266.61 20.3538 266.332 19.6732C266.053 18.9914 265.971 18.3744 265.971 17.9478H289.971C289.971 12.7708 288.019 8.02734 284.418 4.34626L267.262 21.1293ZM283.655 61.6478C282.839 61.6381 282.366 61.576 282.163 61.5385C281.946 61.4985 282.202 61.517 282.722 61.7771L271.989 83.2434C275.777 85.1377 279.918 85.605 283.37 85.6461L283.655 61.6478ZM265.93 68.8415C265.609 69.8413 264.662 71.6438 262.063 74.15L278.723 91.4262C283.196 87.1121 286.891 82.0627 288.781 76.179L265.93 68.8415ZM262.071 74.1425C258.544 77.5372 254.396 79.2337 248.833 79.1721L248.568 103.171C260.119 103.299 270.432 99.4062 278.715 91.4336L262.071 74.1425ZM249.44 79.1942C244.528 78.891 240.876 77.2041 237.836 74.1823L220.917 91.2044C228.297 98.5394 237.527 102.505 247.961 103.149L249.44 79.1942ZM237.81 74.1565C234.773 71.1564 233.015 67.485 232.625 62.4849L208.698 64.3481C209.508 74.7569 213.56 83.9367 220.943 91.2302L237.81 74.1565ZM232.66 63.2296C232.561 56.8538 234.794 51.9826 240.036 47.7108L224.874 29.1065C214.075 37.9071 208.446 49.7077 208.663 63.6034L232.66 63.2296ZM220.716 35.9167L218.917 44.3948L242.393 49.3787L244.193 40.9006L220.716 35.9167ZM229.843 58.8592C230.521 58.9052 230.39 58.978 229.803 58.7523C229.18 58.5126 227.572 57.7414 226.238 55.8164C224.808 53.7522 224.547 51.5986 224.664 50.1863C224.763 48.9862 225.109 48.4358 224.958 48.7364L246.393 59.5302C248.058 56.2237 250.707 48.9921 245.966 42.1487C241.782 36.1097 234.866 35.1446 231.467 34.9142L229.843 58.8592ZM225.11 48.4441C222.785 52.7624 221.686 57.4509 221.686 62.2798H245.686C245.686 61.1724 245.914 60.43 246.241 59.8225L225.11 48.4441ZM221.694 62.7207C221.956 69.8475 224.592 76.3432 229.656 81.5185L246.81 64.7334C246.127 64.0357 245.732 63.3006 245.678 61.8389L221.694 62.7207ZM229.522 81.3789C234.477 86.6093 240.829 89.5345 247.95 90.0658L249.736 66.1324C248.394 66.0323 247.673 65.642 246.945 64.873L229.522 81.3789ZM248.369 90.0898C256.27 90.4017 263.526 87.8137 269.354 82.3642L252.961 64.835C251.967 65.7638 251.014 66.1755 249.316 66.1085L248.369 90.0898ZM269.642 82.0849C269.793 81.9339 269.756 81.9764 269.62 82.1C269.575 82.141 269.487 82.2201 269.368 82.3205C269.273 82.4018 269.033 82.6033 268.704 82.8427C268.685 82.8559 267.502 83.7712 265.771 84.4005C265.369 84.5465 261.828 85.9465 257.575 84.3998C254.919 83.4341 252.603 81.5248 251.163 78.9066C249.876 76.5659 249.678 74.3783 249.678 73.126H273.678C273.678 71.8717 273.48 69.6825 272.192 67.3405C270.751 64.7211 268.434 62.8109 265.777 61.8448C261.521 60.2971 257.976 61.6976 257.569 61.8455C255.827 62.4788 254.627 63.4039 254.587 63.433C253.999 63.8611 253.556 64.2682 253.476 64.3414C253.166 64.6229 252.868 64.918 252.672 65.1143L269.642 82.0849ZM250.945 78.4925C249.39 75.3837 249.643 72.5689 249.802 71.4615C249.986 70.174 250.342 69.2094 250.524 68.7522C250.899 67.8158 251.305 67.1666 251.407 67.0028C251.675 66.5749 251.865 66.3467 251.769 66.4699L270.64 81.2976C270.891 80.9788 271.334 80.4032 271.759 79.7228C271.941 79.4327 272.402 78.6809 272.808 77.6656C273.007 77.1689 273.373 76.1707 273.56 74.8556C273.723 73.7206 273.973 70.8841 272.411 67.7594L250.945 78.4925ZM262.607 85.8016C263 85.7553 263.682 85.668 264.423 85.5033C264.749 85.4309 265.526 85.25 266.443 84.8834C266.895 84.7023 267.738 84.337 268.69 83.7026C269.483 83.1738 271.446 81.749 272.79 79.0609L251.324 68.3278C252.66 65.6555 254.607 64.2465 255.377 63.7334C256.305 63.1148 257.116 62.7653 257.529 62.6C258.367 62.265 259.033 62.1157 259.217 62.0748C259.674 61.9732 259.946 61.9491 259.802 61.966L262.607 85.8016ZM270.542 82.1796C271.666 81.0555 274.06 78.1755 274.06 73.6886C274.06 68.9724 271.443 65.9512 269.959 64.6523C267.571 62.5625 264.967 62.0378 264.944 62.0319C263.821 61.7513 262.872 61.6966 262.77 61.6893C262.206 61.649 261.671 61.647 261.394 61.647V85.647C261.59 85.647 261.403 85.6528 261.06 85.6283C260.951 85.6205 260.752 85.6046 260.497 85.5728C260.296 85.5476 259.777 85.4789 259.123 85.3153C258.794 85.2332 258.22 85.0755 257.532 84.7958C256.971 84.568 255.587 83.9676 254.155 82.7142C252.674 81.4188 250.06 78.4011 250.06 73.6886C250.06 69.2054 252.451 66.3292 253.572 65.2091L270.542 82.1796ZM261.394 61.647C259.641 61.647 258.496 61.1675 257.281 59.9517L240.31 76.9223C246.041 82.6531 253.296 85.647 261.394 85.647V61.647ZM257.357 60.0285C256.023 58.6707 255.585 57.4814 255.585 55.8857H231.585C231.585 63.9522 234.621 71.1304 240.234 76.8455L257.357 60.0285ZM255.585 55.8857C255.585 53.3587 256.234 51.0364 257.697 48.6929L237.336 35.9867C233.557 42.0424 231.585 48.7507 231.585 55.8857H255.585ZM257.723 48.6507C258.904 46.7399 260.902 44.7902 264.413 43.0451L253.733 21.5525C246.951 24.9227 241.244 29.667 237.31 36.029L257.723 48.6507ZM264.413 43.0453C267.249 41.6358 271.911 40.5098 279.155 40.5098V16.5098C269.79 16.5098 261.064 17.9098 253.733 21.5524L264.413 43.0453ZM267.155 28.5098V55.791H291.155V28.5098H267.155ZM267.158 56.0637C267.257 60.4235 268.942 64.7134 272.436 67.9738L288.811 50.4285C289.492 51.0642 290.125 51.9131 290.568 52.94C291.002 53.9497 291.137 54.8619 291.152 55.5184L267.158 56.0637ZM271.851 67.389C275.181 70.9576 279.587 72.6221 284.034 72.6221V48.6221C284.721 48.6221 285.684 48.7441 286.754 49.1899C287.843 49.6437 288.736 50.3058 289.396 51.0134L271.851 67.389ZM284.034 72.6221H288.059V48.6221H284.034V72.6221ZM276.059 60.6221V73.647H300.059V60.6221H276.059ZM288.059 61.647H283.513V85.647H288.059V61.647ZM250.388 17.9478C250.388 17.4792 250.479 16.8578 250.749 16.1986C251.016 15.5464 251.358 15.1009 251.589 14.8589L268.925 31.4566C272.406 27.8204 274.388 23.1403 274.388 17.9478H250.388ZM251.679 14.7662C252.02 14.4181 252.559 14.0061 253.283 13.706C254.001 13.4085 254.621 13.3364 255 13.3364V37.3364C260.219 37.3364 265.092 35.3751 268.835 31.5492L251.679 14.7662ZM255 13.3364C255.461 13.3364 256.108 13.4266 256.811 13.7208C257.511 14.0133 257.998 14.3954 258.275 14.6724L241.305 31.643C244.966 35.3043 249.738 37.3364 255 37.3364V13.3364ZM258.275 14.6724C258.552 14.9495 258.934 15.4367 259.227 16.1362C259.521 16.8396 259.611 17.4869 259.611 17.9478H235.611C235.611 23.2095 237.643 27.9817 241.305 31.643L258.275 14.6724ZM259.611 17.9478C259.611 18.4087 259.521 19.0559 259.227 19.7593C258.934 20.4588 258.552 20.946 258.275 21.2231L241.305 4.25251C237.643 7.91383 235.611 12.686 235.611 17.9478H259.611ZM258.275 21.2231C257.998 21.5001 257.511 21.8822 256.811 22.1747C256.108 22.4689 255.461 22.5591 255 22.5591V-1.44092C249.738 -1.44092 244.966 0.59119 241.305 4.25251L258.275 21.2231ZM255 22.5591C254.621 22.5591 254.001 22.487 253.283 22.1895C252.559 21.8894 252.02 21.4774 251.679 21.1293L268.835 4.34626C265.092 0.52045 260.219 -1.44092 255 -1.44092V22.5591ZM251.679 21.1293C251.397 20.8406 251.027 20.3538 250.749 19.6732C250.47 18.9914 250.388 18.3744 250.388 17.9478H274.388C274.388 12.7708 272.436 8.02734 268.835 4.34626L251.679 21.1293ZM306.484 36.9404L304.343 48.7479L318.235 34.5113L306.484 36.9404ZM310.888 28.4624H322.888L310.888 16.4624V28.4624ZM305.679 68.437L314.087 76.9984L314.24 76.8455L305.679 68.437ZM284.365 73.647H272.365L284.365 85.647V73.647ZM284.365 60.6221V48.6221L272.365 60.6221H284.365ZM299.379 91.3608L290.894 82.8756L299.379 91.3608ZM288.959 91.3608L280.474 99.8461L288.959 91.3608ZM299.379 80.9409L290.894 89.4262L299.379 80.9409ZM309.864 40.2559C309.864 41.2122 309.64 42.9761 308.42 44.8253C307.167 46.7253 305.513 47.7317 304.326 48.1879C303.276 48.5919 302.632 48.5624 302.8 48.5612C302.921 48.5603 303.401 48.5772 304.343 48.7479L308.625 25.133C305.219 24.5154 300.335 24.0093 295.711 25.7876C293.088 26.7964 290.356 28.6238 288.384 31.6132C286.447 34.5517 285.864 37.6734 285.864 40.2559H309.864ZM318.235 34.5113C318.073 33.7246 318.1 33.485 318.094 33.6556C318.089 33.8137 318.037 34.8052 317.357 36.1144C316.591 37.5888 315.319 38.8899 313.731 39.6949C312.303 40.4193 311.179 40.4624 310.888 40.4624V16.4624C305.879 16.4624 299.477 18.4727 296.06 25.0494C293.37 30.2277 293.991 35.7846 294.732 39.3695L318.235 34.5113ZM298.888 28.4624V55.791H322.888V28.4624H298.888ZM298.888 55.791C298.888 57.4953 298.418 58.7038 297.117 60.0285L314.24 76.8455C319.885 71.0973 322.888 63.8752 322.888 55.791H298.888ZM297.27 59.8756C295.945 61.1767 294.737 61.647 293.033 61.647V85.647C301.117 85.647 308.339 82.6439 314.087 76.9984L297.27 59.8756ZM293.033 61.647H284.365V85.647H293.033V61.647ZM296.365 73.647V60.6221H272.365V73.647H296.365ZM284.365 72.6221H293.033V48.6221H284.365V72.6221ZM293.033 72.6221C297.577 72.6221 301.756 70.8585 304.928 67.6865L287.957 50.7159C288.494 50.1792 289.263 49.6071 290.264 49.1899C291.268 48.7718 292.234 48.6221 293.033 48.6221V72.6221ZM304.928 67.6865C308.1 64.5144 309.864 60.3359 309.864 55.791H285.864C285.864 54.9929 286.013 54.0264 286.431 53.0228C286.849 52.0216 287.421 51.2526 287.957 50.7159L304.928 67.6865ZM309.864 55.791V40.2559H285.864V55.791H309.864ZM289.558 86.1509C289.558 85.69 289.648 85.0427 289.942 84.3393C290.235 83.6398 290.617 83.1526 290.894 82.8756L307.865 99.8461C311.526 96.1848 313.558 91.4127 313.558 86.1509H289.558ZM290.894 82.8756C291.171 82.5985 291.658 82.2164 292.358 81.9239C293.061 81.6298 293.708 81.5396 294.169 81.5396V105.54C299.431 105.54 304.203 103.507 307.865 99.8461L290.894 82.8756ZM294.169 81.5396C294.63 81.5396 295.277 81.6298 295.981 81.9239C296.68 82.2164 297.168 82.5985 297.445 82.8756L280.474 99.8461C284.135 103.507 288.907 105.54 294.169 105.54V81.5396ZM297.445 82.8756C297.722 83.1526 298.104 83.6398 298.396 84.3393C298.69 85.0427 298.781 85.69 298.781 86.1509H274.781C274.781 91.4127 276.813 96.1848 280.474 99.8461L297.445 82.8756ZM298.781 86.1509C298.781 86.6118 298.69 87.259 298.396 87.9624C298.104 88.6619 297.722 89.1491 297.445 89.4262L280.474 72.4556C276.813 76.117 274.781 80.8891 274.781 86.1509H298.781ZM297.445 89.4262C297.168 89.7033 296.68 90.0853 295.981 90.3778C295.277 90.672 294.63 90.7622 294.169 90.7622V66.7622C288.907 66.7622 284.135 68.7943 280.474 72.4556L297.445 89.4262ZM294.169 90.7622C293.708 90.7622 293.061 90.672 292.358 90.3778C291.658 90.0853 291.171 89.7033 290.894 89.4262L307.865 72.4556C304.203 68.7943 299.431 66.7622 294.169 66.7622V90.7622ZM290.894 89.4262C290.617 89.1491 290.235 88.6619 289.942 87.9624C289.648 87.259 289.558 86.6118 289.558 86.1509H313.558C313.558 80.8891 311.526 76.117 307.865 72.4556L290.894 89.4262ZM339.117 73.647L338.961 85.646L339.117 85.647V73.647ZM326.708 68.3896L335.232 59.9436L335.155 59.8661L326.708 68.3896ZM330.828 10.0854L327.509 21.6171L342.45 7.09387L330.828 10.0854ZM334.475 0.518066H346.475L334.475 -11.4819V0.518066ZM335.896 59.2012L344.524 50.8609L344.237 50.5733L335.896 59.2012ZM342.243 60.6221H354.243L342.243 48.6221V60.6221ZM342.243 73.647V85.647L354.243 73.647H342.243ZM339.273 61.648C337.545 61.6255 336.418 61.1399 335.232 59.9436L318.184 76.8357C323.818 82.5228 330.964 85.5421 338.961 85.646L339.273 61.648ZM335.155 59.8661C333.919 58.6418 333.451 57.5091 333.451 55.791H309.451C309.451 63.9245 312.487 71.1909 318.261 76.9132L335.155 59.8661ZM333.451 55.791V12.2642H309.451V55.791H333.451ZM333.451 12.2642C333.451 13.3633 333.166 15.5567 331.472 17.7124C329.765 19.8857 327.662 20.7014 326.511 20.969C325.484 21.2074 324.971 21.0867 325.361 21.1314C325.677 21.1676 326.365 21.2877 327.509 21.6171L334.148 -1.44622C330.689 -2.44212 325.81 -3.50741 321.079 -2.40843C318.365 -1.77771 315.09 -0.283176 312.601 2.88473C310.125 6.03511 309.451 9.53888 309.451 12.2642H333.451ZM342.45 7.09387C342.175 6.02705 342.126 5.48842 342.121 5.3656C342.113 5.19403 342.187 5.96258 341.722 7.18416C341.177 8.61243 340.031 10.26 338.153 11.3924C336.437 12.4268 334.962 12.5181 334.475 12.5181V-11.4819C331.952 -11.4819 328.798 -10.9921 325.76 -9.16033C322.56 -7.23064 320.448 -4.38717 319.296 -1.36434C317.297 3.87835 318.254 9.37434 319.207 13.077L342.45 7.09387ZM322.475 0.518066V55.791H346.475V0.518066H322.475ZM322.475 55.791C322.475 60.2901 324.191 64.5758 327.556 67.829L344.237 50.5733C344.856 51.1719 345.472 52.0014 345.908 53.0465C346.34 54.0839 346.475 55.0486 346.475 55.791H322.475ZM327.268 67.5414C330.522 70.9068 334.807 72.6221 339.306 72.6221V48.6221C340.049 48.6221 341.014 48.7577 342.051 49.1899C343.096 49.6254 343.926 50.2417 344.524 50.8609L327.268 67.5414ZM339.306 72.6221H342.243V48.6221H339.306V72.6221ZM330.243 60.6221V73.647H354.243V60.6221H330.243ZM342.243 61.647H339.117V85.647H342.243V61.647ZM378.713 60.6221V72.6221L379.548 72.593L378.713 60.6221ZM385.344 57.6382L376.711 49.3031L376.632 49.3852L385.344 57.6382ZM385.344 44.4712L376.708 52.8036L376.711 52.8063L385.344 44.4712ZM378.76 41.5347L379.473 29.5559L378.36 29.5413L378.76 41.5347ZM377.339 41.582L376.939 29.5887L375.94 29.6639L377.339 41.582ZM360.762 60.6221L348.966 58.4164L360.762 72.6221V60.6221ZM338.643 60.6221V48.6221L326.643 60.6221H338.643ZM346.648 60.6221V72.6221L358.648 60.6221H346.648ZM354.605 10.3696L350.509 21.6491L366.538 9.10141L354.605 10.3696ZM359.673 0.56543H371.673L359.673 -11.4346V0.56543ZM359.673 35.4722L369.657 42.1286L371.673 35.4722H359.673ZM360.099 35.2354L353.739 25.0594L353.041 25.5305L360.099 35.2354ZM361.757 34.0513L354.699 24.3464L354.614 24.4086L361.757 34.0513ZM376.392 28.5571L375.903 16.5671L375.527 16.5884L376.392 28.5571ZM378.713 28.4624L380.038 16.5358L378.223 16.4724L378.713 28.4624ZM379.139 28.5098L377.814 40.4364L378.47 40.4911L379.139 28.5098ZM394.721 35.4248L386.141 43.8142L386.142 43.8149L394.721 35.4248ZM394.721 66.6846L386.142 58.2944L386.111 58.3269L394.721 66.6846ZM379.139 73.647V85.647L379.808 85.6283L379.139 73.647ZM338.643 73.647H326.643L338.643 85.647V73.647ZM379.548 72.593C384.943 72.2166 390.073 70.0943 394.055 65.8911L376.632 49.3852C376.829 49.1769 377.129 48.95 377.483 48.791C377.818 48.64 377.995 48.643 377.878 48.6512L379.548 72.593ZM393.976 65.9733C397.916 61.8931 399.996 56.7057 399.996 51.0547H375.996C375.996 50.9223 376.025 50.5744 376.202 50.1345C376.38 49.6935 376.604 49.4131 376.711 49.3031L393.976 65.9733ZM399.996 51.0547C399.996 45.4037 397.916 40.2163 393.976 36.1361L376.711 52.8063C376.604 52.6963 376.38 52.4159 376.202 51.9749C376.025 51.5349 375.996 51.1871 375.996 51.0547H399.996ZM393.979 36.1388C390.014 32.0294 384.925 29.8804 379.473 29.5559L378.047 53.5135C378.084 53.5156 377.861 53.5044 377.507 53.3464C377.141 53.1832 376.864 52.9655 376.708 52.8036L393.979 36.1388ZM378.36 29.5413L376.939 29.5887L377.739 53.5754L379.16 53.528L378.36 29.5413ZM375.94 29.6639C368.739 30.5095 362.34 33.6727 357.49 39.2438C352.863 44.558 350.296 51.3041 348.966 58.4164L372.558 62.8277C373.406 58.2887 374.692 56.0357 375.591 55.0033C376.266 54.2277 377.066 53.6965 378.739 53.5001L375.94 29.6639ZM360.762 72.6221H378.713V48.6221H360.762V72.6221ZM338.643 72.6221H346.648V48.6221H338.643V72.6221ZM358.648 60.6221V12.3589H334.648V60.6221H358.648ZM358.648 12.3589C358.648 13.0706 358.513 15.0201 357.08 17.1353C355.498 19.4705 353.274 20.6325 351.547 21.0641C350.773 21.2577 350.165 21.2933 349.813 21.2949C349.458 21.2966 349.255 21.2641 349.242 21.2621C349.224 21.2593 349.322 21.2742 349.552 21.3377C349.78 21.4002 350.096 21.4989 350.509 21.6491L358.7 -0.909851C355.748 -1.98166 350.789 -3.48488 345.727 -2.21935C342.674 -1.4562 339.455 0.360941 337.21 3.67497C335.114 6.769 334.648 10.021 334.648 12.3589H358.648ZM366.538 9.10141C366.424 8.03669 366.451 7.47172 366.47 7.29147C366.49 7.0872 366.472 7.63366 366.011 8.52675C365.487 9.54027 364.509 10.7518 362.984 11.6164C361.529 12.4419 360.257 12.5654 359.673 12.5654V-11.4346C357.052 -11.4346 354.041 -10.9026 351.145 -9.26003C348.18 -7.57842 346.059 -5.14135 344.691 -2.49379C342.211 2.30244 342.246 7.63386 342.672 11.6378L366.538 9.10141ZM347.673 0.56543V35.4722H371.673V0.56543H347.673ZM349.688 28.8158C349.591 28.9607 348.493 30.5169 347.966 32.8012C347.705 33.9326 347.143 37.0636 348.785 40.5818C350.777 44.8522 354.537 46.7229 357.31 47.2776C359.625 47.7405 361.474 47.3952 362.164 47.2489C363.03 47.0652 363.697 46.8227 364.061 46.6804C364.792 46.3945 365.338 46.0972 365.56 45.9739C366.354 45.5324 367.026 45.0356 367.157 44.9402L353.041 25.5305C352.825 25.6877 353.251 25.3567 353.904 24.9941C354.091 24.8906 354.608 24.6076 355.315 24.3306C355.668 24.1927 356.325 23.9533 357.184 23.7713C357.865 23.6267 359.708 23.2818 362.017 23.7437C364.786 24.2974 368.542 26.1658 370.533 30.4325C372.173 33.947 371.611 37.0729 371.351 38.1979C370.827 40.4694 369.738 42.0073 369.657 42.1286L349.688 28.8158ZM366.459 45.4113C367.196 44.9507 368.158 44.2428 368.899 43.694L354.614 24.4086C354.216 24.7032 353.926 24.9147 353.728 25.0561C353.629 25.1265 353.575 25.1646 353.555 25.1784C353.518 25.2031 353.595 25.1495 353.739 25.0594L366.459 45.4113ZM368.815 43.7561C371.636 41.7045 374.392 40.733 377.257 40.5259L375.527 16.5884C367.909 17.1391 360.908 19.8304 354.699 24.3464L368.815 43.7561ZM376.881 40.5471L379.202 40.4524L378.223 16.4724L375.903 16.5671L376.881 40.5471ZM377.388 40.389L377.814 40.4364L380.464 16.5832L380.038 16.5358L377.388 40.389ZM378.47 40.4911C381.845 40.6796 384.171 41.7987 386.141 43.8142L403.302 27.0354C396.936 20.5255 388.873 17.0346 379.808 16.5284L378.47 40.4911ZM386.142 43.8149C388.101 45.8177 389.021 47.9957 389.021 51.0547H413.021C413.021 41.8624 409.741 33.6205 403.301 27.0347L386.142 43.8149ZM389.021 51.0547C389.021 54.1137 388.101 56.2917 386.142 58.2944L403.301 75.0747C409.741 68.4889 413.021 60.247 413.021 51.0547H389.021ZM386.111 58.3269C384.134 60.3632 381.818 61.4787 378.47 61.6656L379.808 85.6283C388.901 85.1206 396.973 81.5945 403.332 75.0423L386.111 58.3269ZM379.139 61.647H338.643V85.647H379.139V61.647ZM350.643 73.647V60.6221H326.643V73.647H350.643Z" fill="white" mask="url(#path-1-outside-1_63_1941)"/>
</g>
<defs>
<filter id="filter0_d_63_1941" x="0.0906372" y="0.518066" width="405.93" height="99.0215" filterUnits="userSpaceOnUse" color-interpolation-filters="sRGB">
<feFlood flood-opacity="0" result="BackgroundImageFix"/>
<feColorMatrix in="SourceAlpha" type="matrix" values="0 0 0 0 0 0 0 0 0 0 0 0 0 0 0 0 0 0 127 0" result="hardAlpha"/>
<feOffset dx="5" dy="6"/>
<feComposite in2="hardAlpha" operator="out"/>
<feColorMatrix type="matrix" values="0 0 0 0 1 0 0 0 0 0.611765 0 0 0 0 0.905882 0 0 0 1 0"/>
<feBlend mode="normal" in2="BackgroundImageFix" result="effect1_dropShadow_63_1941"/>
<feBlend mode="normal" in="SourceGraphic" in2="effect1_dropShadow_63_1941" result="shape"/>
</filter>
</defs>
</svg>
