<svg width="98" height="110" viewBox="0 0 98 110" fill="none" xmlns="http://www.w3.org/2000/svg">
<path d="M9.55921 23.6182C10.7498 22.7133 12.069 22.0107 13.349 21.2632C19.4641 17.6887 25.7413 14.412 32.0968 11.2983C36.2108 9.28056 40.3695 7.35839 44.573 5.52614C46.2443 4.79549 47.9212 4.07046 49.5925 3.34543C50.2018 3.31733 50.4253 3.78945 50.6266 4.21659C52.7171 8.63422 54.8747 13.0237 56.9317 17.4582C57.9211 19.594 58.9608 21.7016 59.9781 23.8205C62.432 28.9351 64.8858 34.0552 67.3397 39.1698C71.0848 46.9765 74.8243 54.7888 78.5358 62.6124C79.7656 65.209 81.135 67.7382 82.225 70.4079C82.4486 70.9587 82.7952 71.4814 82.4877 72.1109C81.7108 73.0776 80.5258 73.2911 79.4693 73.6621C76.2105 74.803 72.8567 75.573 69.3967 75.7754C68.5862 75.8203 67.7925 76.0451 66.9652 75.9833C66.4398 75.944 65.9311 75.8878 65.551 75.4662C65.1765 75.1852 65.0368 74.7524 64.8244 74.2747C64.8355 74.7187 64.9417 75.1065 64.7293 75.4606C64.0586 76.2587 63.1419 76.0058 62.3314 75.944C58.072 75.6011 53.8686 74.9267 49.8217 73.4654C44.5171 71.5488 39.7826 68.6824 35.5568 64.9449C32.762 62.4775 30.146 59.8359 27.7145 57.0089C27.1779 56.385 26.4177 55.8342 26.5351 54.8282C27.217 54.1593 27.6306 54.1369 28.279 54.8169C28.8715 55.4408 29.4696 56.059 30.0845 56.6492C30.5764 57.1213 31.1633 57.3798 31.8173 57.1325C32.4881 56.8796 32.4881 56.2052 32.5272 55.6094C32.6241 54.017 33.4719 53.2189 35.0705 53.2151C36.004 53.2151 37.0492 53.3163 37.4629 52.2203C37.8653 51.1468 37.0269 50.5061 36.3841 49.8316C36.1493 49.5844 35.8642 49.4045 35.5848 49.219C34.6792 48.6345 34.232 47.8814 34.4892 46.7573C34.6233 46.1784 34.5898 45.5602 34.5059 44.9644C34.3606 43.9078 33.7346 43.5593 32.7676 43.964C32.2477 44.1832 31.8005 44.5148 31.3813 44.8913C30.5205 45.6669 29.6094 45.8637 28.5194 45.2791C27.7033 44.8407 26.7363 44.3686 25.8978 45.0712C25.0035 45.8243 25.4227 46.8697 25.691 47.7971C26.2835 49.8485 25.6687 51.2367 23.8911 51.7763C23.5278 51.6808 23.3713 51.3604 23.1868 51.0906C20.3864 47.0327 17.8431 42.8174 15.6017 38.4279C15.4172 38.0626 15.1992 37.7085 15.1992 37.2757C15.3613 36.4945 16.0488 36.2865 16.6357 35.9886C21.4205 33.5775 26.1997 31.1551 30.9956 28.7721C33.3265 27.6143 35.5903 26.3272 37.9268 25.175C38.6423 24.8209 38.8324 24.4219 38.4411 23.68C37.8262 22.5278 37.284 21.3419 36.7642 20.1392C36.3058 19.0881 36.0878 19.0263 35.0537 19.5434C31.0851 21.5049 27.1387 23.5114 23.1813 25.4954C20.0902 27.0466 17.0047 28.6147 13.908 30.1547C13.349 30.4357 12.7845 30.7842 12.1193 30.4526C10.884 28.9688 10.5039 27.0691 9.69895 25.383C9.43624 24.8378 9.10645 24.2308 9.5648 23.6013L9.55921 23.6182Z" fill="#6A81B8"/>
<path d="M9.55902 23.6182C10.1012 25.2256 10.8167 26.7656 11.4651 28.3337C11.7446 29.0137 12.0017 29.705 12.27 30.3907C11.8843 31.3181 12.27 32.1106 12.7172 32.8862C13.5668 34.3643 14.2599 35.938 15.3387 37.2757C15.6909 37.4612 15.8474 37.804 16.0151 38.1356C17.1554 40.3501 18.3236 42.5532 19.6204 44.6721C20.8054 46.6055 22.0799 48.4828 23.3096 50.3881C23.5668 50.7927 23.9021 51.1637 23.891 51.692C24.1648 51.9112 24.1201 52.2034 24.0922 52.5069C23.958 53.8221 24.1928 54.1256 25.484 54.3223C25.948 54.3898 26.4678 54.2998 26.7585 54.8113C26.9876 55.5982 27.6193 56.1096 28.1 56.7054C29.816 58.8243 31.7836 60.7071 33.7288 62.6068C36.6969 65.5013 39.9557 68.0136 43.5834 70.0482C46.0317 71.4195 48.5694 72.538 51.2301 73.3979C53.2144 74.0386 55.2379 74.5164 57.2949 74.8367C58.614 75.0447 59.9332 75.2133 61.2691 75.3089C62.0796 75.3651 62.8845 75.528 63.7062 75.4999C64.0081 75.4887 64.3043 75.4775 64.5447 75.2695C64.8186 75.2077 64.9583 75.3875 65.0589 75.5899C65.5508 76.5734 65.1484 78.5406 64.2987 79.3499C63.4547 80.1536 62.2306 80.1986 61.0008 79.4792C60.263 79.0464 59.5978 78.3607 58.8488 77.1917C59.4413 78.2764 60.1121 78.934 60.8834 79.4623C62.7672 80.7381 64.718 79.9288 65.2043 77.7088C65.3216 77.158 65.4167 76.6128 65.344 76.0451C65.2937 75.6686 65.2825 75.292 65.6682 75.0559C65.9253 75.3538 66.2328 75.5224 66.6408 75.4999C66.8644 75.4887 67.088 75.5168 67.306 75.4999C68.5189 75.3819 69.7319 75.2527 70.9449 75.1234C72.2752 74.9829 73.5776 74.7131 74.8856 74.4321C76.8867 74.0049 78.8375 73.426 80.7268 72.6279C81.2746 72.3975 81.8559 72.2514 82.3534 71.9029C82.9403 71.9029 83.1807 72.3469 83.3987 72.7853C84.7178 75.4606 85.942 78.1753 87.2779 80.8393C87.5853 81.4576 87.6915 82.1208 87.3114 82.7727C85.1091 84.4307 82.7167 85.774 80.2796 87.0667C75.6122 89.5397 71.1517 92.3948 66.434 94.7779C61.2915 97.3745 56.2664 100.241 50.7773 102.107C48.3011 102.944 45.7857 103.501 43.1865 103.697C42.8456 103.726 42.5381 103.866 42.2027 103.883C38.5135 103.894 36.0988 101.927 34.4331 98.8021C33.5052 97.0541 32.7506 95.2219 31.8786 93.4402C31.6997 93.0693 31.56 92.6871 31.5432 92.2656C31.9513 91.4113 32.7003 91.2426 33.5387 91.2707C34.6679 91.7485 34.9921 91.6754 35.2883 90.8773C35.5846 90.0792 35.2212 89.3598 34.3884 89.017C33.5052 88.6573 33.2872 89.1912 33.1642 89.8938C32.5102 90.6019 31.7389 90.956 30.7663 90.7312C30.3191 90.4614 30.1738 89.9781 29.9502 89.5509C28.4745 86.7351 27.2224 83.8125 25.797 80.9742C25.5623 80.5077 25.3163 80.0356 25.4896 79.4736C25.8921 78.726 26.5796 78.5799 27.3398 78.6136C27.7814 78.6979 28.1671 79.3893 28.6813 78.7261C29.1508 78.1303 29.039 77.5458 28.6478 76.9893C28.3739 76.5959 27.9546 76.4723 27.4795 76.506C26.9485 76.5453 27.0547 77.0287 26.887 77.3266C26.3001 77.9392 25.5846 78.1471 24.7574 78.001C24.2096 77.7593 23.9524 77.2647 23.6953 76.7701C22.2811 73.9993 21.0738 71.1273 19.6316 68.3621C19.3913 67.9012 19.2012 67.4066 19.4639 66.8727C19.8664 66.3331 20.4142 66.1701 21.057 66.2263C21.5042 66.3106 21.8284 67.0469 22.4041 66.4905C22.8121 66.097 22.9631 65.6193 22.7618 65.0854C22.5271 64.4503 22.0464 64.0568 21.3812 63.9669C20.6545 63.8657 20.8166 64.5908 20.5595 64.9336C19.9446 65.4732 19.2627 65.7823 18.4298 65.5238C17.8597 65.1022 17.6585 64.439 17.3902 63.8376C16.1492 61.0893 14.7742 58.4084 13.4438 55.7049C13.1811 55.171 12.8905 54.6371 13.1364 54.002C13.5165 53.395 14.0755 53.2488 14.7406 53.3388C15.1655 53.4231 15.5064 54.0863 16.0095 53.5692C16.3561 53.2151 16.5908 52.7823 16.4008 52.254C16.1884 51.6639 15.8083 51.1805 15.1934 51.0513C14.545 50.9108 14.6903 51.5178 14.5841 51.8718C13.9525 52.6081 13.1476 52.8498 12.2085 52.7205C11.5042 52.1529 11.3421 51.2648 10.9676 50.5061C9.76024 48.0668 8.5417 45.6332 7.33432 43.194C7.07161 42.66 6.76977 42.1317 6.98217 41.4966C7.36786 40.9346 7.93801 40.839 8.56405 40.8727C9.10625 41.1313 9.68199 41.6596 10.1403 40.7716C10.4701 40.1309 10.1627 39.2372 9.53107 38.945C8.73733 38.574 8.25662 38.7651 7.90447 39.5969C7.43494 40.1646 6.8592 40.3894 6.13813 40.1477C5.55122 39.6925 5.35558 38.9899 5.04815 38.3661C4.29354 36.8373 3.47186 35.3367 2.80669 33.7573C2.53279 33.111 2.43777 32.4871 2.63341 31.8183C2.38187 30.076 3.07499 28.699 4.24323 27.4794C5.1264 26.5576 6.14931 25.8157 7.1834 25.0907C7.9436 24.5568 8.70939 24.0285 9.55343 23.635L9.55902 23.6182Z" fill="#6A81B8"/>
<path d="M87.015 82.6379C87.1045 82.1152 87.0765 81.6093 86.8362 81.1147C85.3996 78.1359 83.9686 75.1515 82.5321 72.1727C82.4818 72.0715 82.4091 71.9872 82.3476 71.8973C81.8166 70.7451 81.308 69.5817 80.7602 68.4351C77.3113 61.2242 73.8513 54.0132 70.4025 46.8023C67.7083 41.1763 65.0252 35.5446 62.331 29.9186C59.5753 24.1577 56.8196 18.3912 54.0695 12.6303C52.7671 9.89881 51.4758 7.16168 50.179 4.43018C50.0058 4.05923 49.7934 3.71077 49.5977 3.34544C49.6033 2.9745 49.8325 2.7272 50.0896 2.50238C51.392 1.37269 52.918 0.737583 54.6061 0.490286C55.0532 0.422841 55.5004 0.467804 55.8861 0.748824C56.5289 1.08605 56.7805 1.72115 57.0767 2.32253C61.1907 10.6969 65.1091 19.1668 69.2007 27.5468C71.4254 32.105 73.3203 36.8205 75.6624 41.3224C75.9195 41.8226 76.1822 42.3116 76.5288 42.7556C78.2895 46.7067 80.2124 50.5792 82.1296 54.4572C82.2358 55.1823 82.6942 55.7499 82.9625 56.4019C84.6171 60.4092 86.9647 64.0793 88.4907 68.1429C88.5578 68.3171 88.7255 68.4295 88.8261 68.5925C90.4135 71.858 92.0234 75.1178 93.4711 78.4507C93.8121 79.3556 93.4376 80.2829 93.5885 81.1934C93.5997 82.2388 93.8456 83.3179 93.1693 84.2678C93.1301 84.5263 93.0798 84.7736 92.9289 84.9984C91.7383 86.7464 90.1397 87.9154 88.0882 88.4437C87.7529 88.528 87.4287 88.5112 87.138 88.3032C86.6349 88.0728 86.6349 87.6175 86.6237 87.1679C86.6126 86.7632 86.7355 86.3529 86.6014 85.9483C86.512 85.4031 86.7299 84.8748 86.7076 84.3296C86.7076 84.0654 86.7467 83.8069 86.7299 83.5427C86.6908 83.1943 86.8697 82.9133 87.0206 82.6266L87.015 82.6379Z" fill="#6A81B8"/>
<path d="M88.4234 68.7555C88.3228 68.5981 88.2054 68.452 88.1272 68.289C86.0422 63.9275 83.9629 59.5605 81.8835 55.1935C81.7885 54.9911 81.7214 54.7775 81.6375 54.5696C82.0176 54.3054 82.3419 54.519 82.6716 54.6989C83.3312 55.0642 83.9629 55.0586 84.5162 54.5134C85.1087 53.9289 85.0696 53.2713 84.7286 52.5575C83.5045 49.9946 82.2077 47.4711 80.8326 44.9868C78.9433 41.5528 77.0372 38.13 74.8349 34.8814C74.0076 33.6618 73.1077 32.4871 72.3922 31.2787C73.5046 34.724 74.7511 38.203 76.2379 41.5921C76.4447 42.0642 76.6683 42.5813 76.1205 43.0141C75.9417 42.6881 75.7404 42.3734 75.5783 42.0361C72.1966 34.9882 68.8204 27.9402 65.4443 20.8922C63.6164 17.0816 61.7998 13.2654 59.972 9.45475C58.7087 6.82441 57.4398 4.19969 56.1766 1.56935C56.048 1.29957 55.8859 1.04104 55.8803 0.731914C56.6405 0.546441 57.4007 0.37783 58.1553 0.181116C58.8876 0.00126403 59.631 -0.00435636 60.3744 0.00126403C62.2693 0.0237456 63.7226 0.889285 64.8182 2.39555C65.148 2.84518 65.4107 3.34539 65.6567 3.84561C68.4068 9.48848 71.1401 15.137 73.8847 20.7855C74.1809 21.3925 74.4772 21.9938 74.7678 22.6008C77.1043 27.4063 79.4464 32.2061 81.7773 37.0171C84.6168 42.868 87.4508 48.7188 90.2848 54.5696C91.5369 57.1606 92.7945 59.746 94.041 62.337C94.2031 62.6742 94.4044 62.9889 94.4603 63.3711C94.5777 63.7983 94.3317 64.0905 94.0522 64.3322C92.353 65.816 90.6872 67.3391 88.8426 68.6374C88.7197 68.7274 88.5687 68.7498 88.4234 68.7555Z" fill="#6A81B8"/>
<path d="M87.0653 85.8751C87.0877 86.6845 87.1156 87.4994 87.138 88.3144C87.0933 88.7528 86.7467 88.927 86.4281 89.1181C84.958 90.0005 83.4991 90.8941 82.0122 91.7428C78.9435 93.4964 75.8189 95.1544 72.6886 96.8068C68.7088 98.9088 64.7401 101.039 60.6988 103.034C57.0599 104.833 53.3372 106.446 49.4859 107.733C47.4401 108.419 45.3607 109.003 43.2199 109.318C41.8169 109.526 40.3803 109.621 38.9997 109.323C36.4508 108.778 34.595 107.255 33.4323 104.9C32.6777 104.49 32.3088 103.77 31.9511 103.034C31.0791 101.528 30.3468 99.9542 29.5475 98.4086C29.0892 97.515 28.6923 96.6045 28.4184 95.6378C28.4575 94.8284 28.7146 94.1708 29.5866 93.9516C30.3077 94.0022 30.5313 94.5924 30.8108 95.1151C32.0293 97.3857 32.9684 99.7968 34.1702 102.079C36.4787 106.457 39.4412 107.137 43.3149 106.553C47.9543 105.856 52.2304 104.007 56.4842 102.107C60.3914 100.359 64.1867 98.3636 67.9374 96.3122C73.678 93.176 79.5304 90.2309 85.0362 86.6732C85.3493 86.4709 85.6567 86.2629 85.9362 86.0156C86.2827 85.7908 86.6405 85.5997 87.0541 85.8695L87.0653 85.8751Z" fill="#6A81B8"/>
<path d="M88.4238 68.7554C88.4685 68.4463 88.6194 68.199 88.8709 68.0192C90.8441 66.6028 92.6049 64.9279 94.4662 63.3711C94.8966 63.8544 95.042 64.4895 95.327 65.0516C95.9531 66.2768 96.5735 67.5077 97.0375 68.8116C97.1381 69.0926 97.2387 69.3737 97.3561 69.6491C97.9598 71.0879 97.82 72.4874 97.166 73.8644C97.0878 74.033 97.0039 74.2016 96.9257 74.3702C96.8139 74.5557 96.9145 74.7805 96.8251 74.9716C96.1711 76.2418 95.2152 77.231 94.0638 78.0403C93.7396 78.2707 93.4321 78.5799 92.9849 78.3269C92.3924 77.1242 91.7999 75.927 91.2186 74.7187C90.3969 73.0101 89.5808 71.2958 88.7647 69.5816C88.6362 69.3118 88.5412 69.0308 88.4349 68.7554H88.4238Z" fill="#6A81B8"/>
<path d="M29.6762 94.109C29.1843 94.5361 28.9272 95.0981 28.7371 95.7051C28.7707 96.5651 28.7483 97.425 28.8433 98.2737C28.9943 99.6563 29.5029 100.876 30.755 101.652C31.3252 102.006 31.8115 102.472 32.3369 102.888C32.84 103.484 33.1809 104.164 33.4325 104.9C30.2464 104.99 27.2279 102.663 26.5236 99.2404C26.1659 97.5093 26.5236 95.9187 27.2056 94.3563C27.3397 94.0471 27.5018 93.7549 27.6472 93.4514C27.6472 93.4008 27.6472 93.3502 27.6472 93.2996C27.6472 93.1985 27.6472 93.0973 27.6583 92.9961C27.7925 92.3217 28.4409 92.0744 28.8042 91.5854C29.3352 90.9503 29.8663 90.3208 30.8277 90.5288C31.5599 90.2534 32.2922 89.9724 33.0244 89.697C33.4436 89.0675 34.0082 89.0843 34.5728 89.4047C35.1206 89.7194 35.2827 90.2534 35.0982 90.8548C34.8802 91.5461 34.3548 91.7259 33.6896 91.6191C32.9797 91.6304 32.3592 91.917 31.7556 92.2655C31.3922 93.2603 30.6879 93.8729 29.6594 94.1033L29.6762 94.109Z" fill="#6A81B8"/>
<path d="M18.5528 65.355C19.19 65.1302 19.8272 64.8998 20.4645 64.675C20.934 64.0623 21.5041 64.0061 22.1134 64.422C22.6277 64.7761 22.8009 65.3044 22.5941 65.889C22.3538 66.5859 21.806 66.7039 21.152 66.5465C20.5986 66.5859 20.0844 66.7489 19.6148 67.0411C19.1788 67.9123 18.3068 68.3282 17.6473 68.9689C17.1498 69.4298 16.9821 70.0818 16.6635 70.6494C15.7076 72.3074 16.289 75.1626 17.8708 76.3654C18.4522 76.8037 18.9888 77.3489 19.7602 77.467C20.375 77.9334 20.8893 78.4505 20.5148 79.3217C20.5036 79.6139 20.4421 79.8331 20.062 79.7882C17.7702 79.524 15.9983 78.4224 14.8245 76.4159C13.4718 74.1003 13.5109 71.7285 14.6232 69.3343C14.7798 68.997 14.9754 68.6767 15.1543 68.3507C14.9754 67.3896 15.6909 66.9512 16.2722 66.4398C16.9094 65.8159 17.4404 64.9841 18.5472 65.3382L18.5528 65.355Z" fill="#6A81B8"/>
<path d="M27.3733 78.9903C26.7696 79.069 26.1883 79.1926 25.6852 79.5692C25.1877 80.4122 24.3437 80.9012 23.6729 81.57C23.2146 82.104 23.0469 82.8121 22.6444 83.3798C21.7668 86.2125 22.8456 88.8091 26.0876 90.0287C27.1217 90.8437 27.3174 91.3607 26.9876 92.3387C24.8635 92.5017 21.6718 90.8943 20.5595 88.1627C20.2744 87.4714 20.0843 86.7576 20.0508 86.0045C19.9893 84.6163 20.0676 83.2505 20.7104 81.9803C20.9284 81.5532 21.1799 81.1373 21.4147 80.7213C21.2023 79.7546 22.0184 79.4062 22.5158 78.861C23.1307 78.2428 23.7176 77.5796 24.7294 77.7819C25.3889 77.5627 26.0541 77.3379 26.7137 77.1187C27.1553 76.5173 27.7031 76.551 28.2509 76.9051C28.726 77.2086 28.9216 77.6863 28.7651 78.2484C28.5639 78.9565 28.0273 79.0914 27.3789 78.9959L27.3733 78.9903Z" fill="#6A81B8"/>
<path d="M6.21638 39.9452C6.73063 39.7598 7.23929 39.5687 7.75354 39.3832C8.45784 38.7706 9.24598 38.7088 9.77141 39.2427C10.1795 39.653 10.2633 40.1476 10.0174 40.6646C9.73229 41.2604 9.22362 41.3728 8.62553 41.2098C8.12805 41.2716 7.65293 41.3953 7.21134 41.6538C6.84242 42.4969 5.92571 42.7723 5.37793 43.4299C4.65686 43.9076 4.4724 44.7282 4.11466 45.4307C3.23149 46.8471 3.86871 50.1462 5.45059 51.1523C6.07664 51.5513 6.67473 51.9953 7.36226 52.2876C7.938 52.8609 8.49697 53.4454 8.03302 54.3559C7.88769 54.4796 7.72 54.5526 7.52436 54.5189C3.53333 53.8445 1.06269 50.7757 1.31982 46.9201C1.40925 45.5769 1.73346 44.2617 2.64457 43.1826C2.71165 43.0983 2.75078 42.9859 2.80108 42.8903C2.55514 41.9854 3.20354 41.5527 3.74574 41.0581C4.49476 40.5185 5.07608 39.5968 6.21638 39.9396V39.9452Z" fill="#6A81B8"/>
<path d="M12.2253 52.4845C12.9575 52.2372 13.6898 51.9899 14.422 51.7482C14.8189 51.1918 15.3164 51.2929 15.7803 51.6077C16.2554 51.928 16.4175 52.4282 16.2331 52.9847C16.0039 53.676 15.4617 53.8221 14.8077 53.7097C14.2655 53.6928 13.7848 53.8614 13.3432 54.1706C12.8849 54.9911 11.9849 55.3284 11.398 56.0084C10.7552 56.6042 10.5484 57.4585 10.1068 58.1723C9.1789 60.8532 10.5428 63.5847 13.3376 64.6357C14.081 65.1584 14.6344 65.7598 14.2543 66.7659C13.9301 67.0356 13.55 66.9907 13.1923 66.9064C10.3248 66.2544 8.2566 64.4896 7.64732 61.4546C7.27282 59.5886 7.46286 57.7339 8.50254 56.0534C8.61993 55.8623 8.73172 55.6712 8.84911 55.4801C8.6367 54.4403 9.45838 54.0076 10.0341 53.4231C10.6937 52.9453 11.2191 52.1528 12.2253 52.4901V52.4845Z" fill="#6A81B8"/>
<path d="M9.76575 57.9588C9.97257 57.0989 10.4253 56.3907 11.0514 55.7893C11.6159 55.8511 11.8395 56.2895 12.0575 56.7223C13.5388 59.6336 14.9697 62.5731 16.3392 65.5407C16.5181 65.9341 16.5684 66.3163 16.5125 66.7322C16.0597 67.2774 15.607 67.8226 15.1542 68.3621C14.7909 68.1261 14.6455 67.7439 14.5058 67.3617C14.4275 67.1593 14.4275 66.9233 14.2543 66.7603C13.9133 66.1252 13.6953 65.417 13.1643 64.8943C12.5382 64.4559 12.0911 63.8714 11.806 63.1689C11.1408 61.5333 9.94462 60.117 9.74339 58.2791C9.73221 58.1667 9.72103 58.0599 9.76016 57.9532L9.76575 57.9588Z" fill="#6A81B8"/>
<path d="M10.2744 53.7714C9.78807 54.3278 9.24029 54.8393 8.8546 55.48C8.59747 55.3788 8.4745 55.1596 8.35712 54.9236C8.26209 54.7325 8.14471 54.547 8.03851 54.3559C7.77579 53.7321 7.55779 53.0801 7.1218 52.5405C5.41136 50.8938 4.77972 48.6344 3.75681 46.5942C3.53882 46.1614 3.60589 45.6499 3.68415 45.1722C3.98599 44.4359 4.39963 43.7727 4.96977 43.2107C5.43931 43.177 5.61259 43.5367 5.7691 43.8627C7.19446 46.7628 8.73722 49.6067 10.0228 52.5799C10.1905 52.9733 10.2241 53.3667 10.2688 53.7714H10.2744Z" fill="#6A81B8"/>
<path d="M22.7226 79.1812C22.2866 79.6926 21.845 80.2041 21.409 80.7155C21.096 80.5694 20.9562 80.2884 20.85 79.9849C20.7718 79.7545 20.7159 79.5072 20.5202 79.3386C20.2519 78.7878 20.0451 78.1976 19.5979 77.748C18.9887 77.3489 18.5694 76.8038 18.2508 76.1405C17.703 74.994 17.1329 73.8587 16.5572 72.7234C16.1715 71.9646 16.0206 71.1834 16.2497 70.3459C16.5628 69.7783 16.8199 69.1769 17.3509 68.7666C17.9378 68.7778 18.1614 69.2275 18.3906 69.6546C19.8718 72.4536 21.1128 75.3706 22.5325 78.2032C22.689 78.518 22.7058 78.844 22.7338 79.1812H22.7226Z" fill="#6A81B8"/>
<path d="M6.21637 39.9455C5.43941 40.322 4.74629 40.8279 4.06435 41.3505C3.65071 41.3056 3.388 41.0527 3.21472 40.7042C2.50483 39.2654 1.67755 37.8884 1.2192 36.3315C1.02356 35.6627 0.984434 35.022 1.31981 34.3925L1.30305 34.415C1.34776 34.3644 1.37571 34.3082 1.37571 34.2351C1.64402 33.3415 1.89555 32.4422 2.63898 31.8015C3.41035 34.1846 4.64008 36.354 5.70212 38.6078C5.90894 39.0406 6.19401 39.4452 6.21637 39.9511V39.9455Z" fill="#6A81B8"/>
<path d="M26.9819 92.333C26.7359 91.5911 26.4229 90.8774 25.9031 90.2816C25.3106 89.8657 24.8969 89.3093 24.5895 88.6517C24.0082 87.3983 23.3766 86.1731 22.7449 84.9422C22.4487 84.3577 22.3816 83.7395 22.3145 83.11C22.5381 82.4187 22.8679 81.7892 23.4269 81.3002C24.0529 81.2271 24.2485 81.7217 24.4721 82.1376C26.0093 85.0265 27.2558 88.0615 28.765 90.9673C28.9271 91.2764 28.9383 91.608 28.9495 91.9452C28.5917 92.3836 28.234 92.822 27.8762 93.2604C27.798 93.3166 27.7253 93.384 27.6582 93.4515C27.4347 93.0749 27.2111 92.704 26.9875 92.3274L26.9819 92.333Z" fill="#6A81B8"/>
<path d="M96.6796 74.8366C96.7578 74.6792 96.8361 74.5219 96.9199 74.3645C97.2385 74.9546 97.4957 75.5673 97.736 76.1968C98.1776 77.3546 98.0267 78.4618 97.5683 79.5577C97.4398 79.8669 97.2944 80.1704 97.1156 80.4514C96.1653 81.9464 94.9076 83.1379 93.4823 84.1665C93.3984 84.2283 93.2755 84.2395 93.1693 84.2732C93.186 83.2391 93.2084 82.1993 93.2252 81.1652C93.4376 80.5582 93.8121 80.0748 94.2481 79.6139C95.2039 78.6079 95.8635 77.422 96.2603 76.09C96.361 75.7078 96.6013 75.3762 96.674 74.9827C96.674 74.9322 96.6796 74.8872 96.6852 74.8366H96.6796Z" fill="#6A81B8"/>
<path d="M1.31977 34.3867C1.44833 35.5726 1.81166 36.6967 2.31473 37.7702C2.87929 38.973 3.47739 40.1589 4.0643 41.3504C3.65067 41.8731 3.13083 42.3058 2.80103 42.896C2.55509 42.896 2.37622 42.7836 2.27001 42.5644C1.58807 41.1256 0.855826 39.7148 0.397472 38.1805C-0.0329329 36.7304 0.352755 35.4883 1.31977 34.3867Z" fill="#6A81B8"/>
<path d="M1.37571 34.2351C1.39806 34.3138 1.37571 34.3756 1.30304 34.415C1.30863 34.3475 1.33099 34.2913 1.37571 34.2351Z" fill="#6A81B8"/>
<path d="M15.3331 37.2813C14.9642 37.3825 14.6568 37.4499 14.4108 36.9834C13.4885 35.2017 12.5159 33.4482 11.5769 31.6778C11.2471 31.0539 11.2694 31.0314 11.8955 30.6324C12.0185 30.5537 12.1414 30.4694 12.2644 30.3907C12.7004 30.1884 13.1476 30.0029 13.578 29.7893C20.6601 26.2372 27.7422 22.6795 34.8299 19.1331C36.5851 18.2563 36.3615 18.2675 37.1776 19.9087C37.7925 21.1452 38.3794 22.3929 38.9831 23.635C39.1116 23.9048 39.2458 24.1689 39.3632 24.4443C39.5197 24.8153 39.4694 24.9445 39.0893 25.1694C38.8992 25.2818 38.6924 25.3773 38.4968 25.4785C31.1296 29.2104 23.7624 32.9424 16.3952 36.6799C16.0318 36.8654 15.6853 37.0733 15.3275 37.2757L15.3331 37.2813Z" fill="#6A81B8"/>
<path d="M26.7526 54.8057C26.3446 54.8057 25.9365 54.8057 25.5285 54.8113C25.1092 54.8169 24.718 54.7214 24.3379 54.5584C23.5721 54.2268 23.2423 53.5411 23.4715 52.7261C23.5721 52.3721 23.7398 52.0348 23.8795 51.6864C24.3658 51.1243 24.8409 50.5454 25.344 50.0002C25.6403 49.6799 25.6626 49.3764 25.5173 48.983C25.2434 48.2467 24.9919 47.5048 24.8968 46.7179C24.8521 46.3414 24.8354 45.9761 24.9248 45.6051C25.126 44.7845 25.657 44.3237 26.5011 44.2618C26.8756 44.2337 27.2501 44.2506 27.6022 44.3799C28.0885 44.5597 28.5916 44.7171 29.0556 44.9475C30.1288 45.4758 29.8437 45.4702 30.7716 44.7115C31.4368 44.1663 32.0852 43.6042 32.9068 43.3007C33.7118 43.0029 34.3881 43.2614 34.7794 44.0145C34.9527 44.3518 35.0421 44.7115 35.0533 45.0937C35.0756 45.7288 35.0701 46.3639 34.9583 46.9933C34.9247 47.1788 34.8856 47.3587 34.8409 47.5441C34.7626 47.8814 34.8912 48.1174 35.1707 48.3029C35.5731 48.5727 35.9756 48.8425 36.3557 49.146C36.9705 49.6349 37.5351 50.1801 37.8872 50.9051C38.4462 52.0517 38.0438 53.0577 36.8588 53.5355C36.4675 53.6928 36.065 53.7266 35.657 53.7322C34.9135 53.749 34.1701 53.7097 33.4323 53.5804C33.1528 53.5299 33.0242 53.6535 33.0242 53.957C33.0242 54.519 33.0466 55.0811 33.0466 55.6375C33.0466 56.0927 32.9907 56.5311 32.7951 56.947C32.5044 57.5709 32.0572 57.8407 31.3697 57.807C30.9113 57.7845 30.4865 57.6327 30.1288 57.3517C29.7207 57.0314 29.3239 56.6885 28.9661 56.3119C28.5804 55.9073 28.2451 55.4576 27.8873 55.0249C27.6302 54.7139 27.252 54.6389 26.7526 54.8001V54.8057Z" fill="#6A81B8"/>
<path d="M53.6445 58.251C53.298 58.2453 52.9123 58.0374 52.5434 57.7676C52.1186 57.4585 51.7888 57.0538 51.4366 56.666C51.1795 56.385 51.0342 56.3906 50.7994 56.666C50.6317 56.8627 50.4808 57.0763 50.3075 57.2786C50.1845 57.4192 50.0616 57.5597 49.9218 57.6833C48.9045 58.5882 47.9487 58.2903 47.6077 56.9527C47.44 56.2951 47.4568 55.615 47.5071 54.9462C47.5462 54.446 47.4232 54.0975 46.9537 53.8446C46.5289 53.6142 46.1711 53.2713 45.8916 52.8666C45.4165 52.1641 45.5786 51.4953 46.3165 51.0737C46.7804 50.8096 47.3002 50.7478 47.8089 50.6297C47.9878 50.5904 48.1778 50.5679 48.3623 50.5679C48.7424 50.5679 48.9716 50.3937 49.1169 50.0283C49.2958 49.5787 49.4858 49.1291 49.7318 48.7132C50.5758 47.2968 51.6881 47.2744 52.5769 48.6513C52.7949 48.9942 52.9682 49.3764 53.1191 49.7529C53.2644 50.107 53.4768 50.2925 53.8737 50.2869C54.2818 50.2869 54.6898 50.315 55.0979 50.3262C55.4388 50.3375 55.763 50.4105 56.0649 50.5567C56.6015 50.8208 56.8139 51.2648 56.6741 51.8493C56.5568 52.3383 56.227 52.698 55.9084 53.069C55.5674 53.4624 54.9302 53.6479 54.8463 54.165C54.7737 54.609 55.0308 55.1036 55.1034 55.5813C55.1817 56.0984 55.2041 56.6267 55.0923 57.1438C54.9358 57.8632 54.4327 58.2678 53.6334 58.2453L53.6445 58.251Z" fill="#6A81B8"/>
<path d="M29.676 94.109C30.1511 93.2378 30.9001 92.6814 31.7721 92.2711C32.3479 93.1479 32.7391 94.1202 33.1975 95.0588C33.8571 96.3965 34.4552 97.7678 35.1651 99.083C36.3165 101.219 38.0437 102.68 40.4361 103.225C41.0119 103.354 41.6156 103.36 42.2025 103.422C44.606 103.827 46.8922 103.102 49.2231 102.731C52.7614 102.163 55.7127 100.258 58.815 98.6671C60.8944 97.5992 62.9402 96.4639 65.0475 95.4466C65.4164 95.2724 65.7853 95.0813 66.1822 94.997C66.484 94.9352 66.8194 94.9745 66.9759 95.2611C67.166 95.6152 66.9759 95.93 66.6629 96.1154C65.8021 96.6213 64.958 97.1721 64.0525 97.6048C62.9737 98.2343 61.7887 98.6558 60.6931 99.2628C61.8055 98.6558 63.0017 98.2062 64.1084 97.5823C69.2342 94.4462 74.6841 91.9058 79.8545 88.8539C81.4532 87.9097 83.1469 87.1453 84.807 86.3135C85.2542 86.0887 85.7516 85.7964 86.2324 86.2854C86.0032 86.5945 85.651 86.7406 85.338 86.9373C81.7215 89.2361 77.9932 91.3325 74.2257 93.3727C70.2347 95.5365 66.2437 97.7004 62.2303 99.8249C57.9151 102.107 53.488 104.147 48.8486 105.681C47.0823 106.266 45.288 106.744 43.449 107.047C42.2304 107.244 41.0007 107.266 39.7765 107.137C38.245 106.968 36.9594 106.221 35.8302 105.209C34.9862 104.456 34.3434 103.546 33.8459 102.528C32.6609 100.072 31.4703 97.6217 30.2685 95.1712C30.0896 94.8059 29.9611 94.4068 29.6704 94.1033L29.676 94.109Z" fill="#6A81B8"/>
<path d="M63.8627 97.5095C64.7403 96.9418 65.6179 96.3854 66.4899 95.8121C66.6352 95.7166 66.842 95.5929 66.7191 95.385C66.6296 95.2389 66.4508 95.3288 66.311 95.385C64.4776 96.1213 62.7168 97.0149 61.0008 97.9985C60.1903 98.4593 59.3854 98.9258 58.5693 99.3642C57.1272 100.145 55.6739 100.899 54.2317 101.674C53.4044 102.124 52.5213 102.405 51.6269 102.658C49.9053 103.147 48.1557 103.501 46.3838 103.714C45.1373 103.861 43.8629 103.962 42.6164 103.591C42.4766 103.551 42.3425 103.478 42.2083 103.417C45.2938 103.287 48.2172 102.422 51.1015 101.404C54.7236 100.123 58.2283 98.5493 61.6269 96.7676C68.2283 93.3111 74.785 89.7646 81.2578 86.0608C82.8397 85.1559 84.3936 84.1835 85.9587 83.2449C86.3109 83.037 86.6686 82.8347 87.0208 82.6323C87.0934 82.9414 87.0934 83.2449 87.0431 83.5597C86.2326 84.6219 84.9582 85.0716 83.9967 85.8865C84.0135 85.8697 84.0079 85.8978 84.0247 85.8865C84.6843 85.3751 85.3718 84.9367 86.0426 84.4758C86.3332 84.2791 86.6463 83.9981 87.0543 84.2622C87.1326 84.7962 87.1214 85.3357 87.0767 85.8697C86.8028 86.0102 86.5233 86.1451 86.2494 86.2856C85.8637 86.3024 85.5395 86.4991 85.2097 86.6621C83.0856 87.73 80.9392 88.7698 78.8375 89.877C76.9985 90.8493 75.2042 91.9003 73.3875 92.9176C72.7056 93.2998 72.0348 93.6932 71.3417 94.0586C69.1059 95.2332 66.8644 96.3966 64.6173 97.5601C64.4552 97.6444 64.2652 97.6781 64.0919 97.7399C63.8571 97.8186 63.8124 97.7118 63.8683 97.5095H63.8627Z" fill="#6A81B8"/>
<path d="M16.5182 66.7322C16.1828 66.4624 16.071 66.0578 15.8922 65.6924C14.2768 62.3933 12.6669 59.0885 11.0515 55.7893C11.644 55.0025 12.3707 54.4123 13.3433 54.1707C13.483 54.5135 13.6116 54.862 13.7737 55.1936C15.2158 58.1667 16.6635 61.1399 18.1057 64.1131C18.3013 64.5122 18.5529 64.8887 18.5473 65.3608C17.8206 65.743 17.161 66.232 16.5126 66.7378L16.5182 66.7322Z" fill="#6A81B8"/>
<path d="M28.9494 91.9508C28.5414 91.8159 28.452 91.4225 28.2899 91.0965C27.1775 88.8259 26.0708 86.5496 24.964 84.2734C24.6063 83.5371 24.2485 82.8008 23.8796 82.0702C23.7455 81.806 23.5834 81.5587 23.4324 81.3058C23.9802 80.4627 24.7181 79.8614 25.6851 79.5635C27.1216 82.5367 28.5582 85.5155 29.9947 88.4887C30.1904 88.8877 30.386 89.2924 30.5816 89.6914C30.7158 89.9612 30.8388 90.231 30.8388 90.5345C30.1736 90.9616 29.5196 91.4 28.9439 91.9508H28.9494Z" fill="#6A81B8"/>
<path d="M10.2743 53.7716C10.0451 53.6817 9.93891 53.4793 9.84389 53.2826C8.21729 49.9273 6.59629 46.5663 4.97528 43.2109C5.59015 42.4971 6.30562 41.9351 7.21674 41.6541C7.73099 42.7332 8.23965 43.8123 8.75949 44.8858C9.81594 47.0665 10.8836 49.2472 11.94 51.4335C12.1021 51.7651 12.3257 52.0855 12.2307 52.4902C11.5264 52.833 10.9003 53.3051 10.2743 53.7772V53.7716Z" fill="#6A81B8"/>
<path d="M22.7229 79.1813C22.354 79.0745 22.2534 78.7317 22.108 78.4394C21.5659 77.3434 21.0404 76.2362 20.5038 75.1402C19.453 73.0157 18.4021 70.8912 17.3456 68.7667C17.899 67.9237 18.6592 67.356 19.6151 67.0469C19.7772 67.4178 19.9225 67.8 20.1014 68.1653C21.5267 71.0992 22.9521 74.0274 24.3775 76.9612C24.506 77.2254 24.6122 77.5064 24.724 77.7762C24.0421 78.2258 23.3266 78.6193 22.7285 79.1813H22.7229Z" fill="#6A81B8"/>
<path d="M33.7063 91.6248C33.969 91.5012 34.2429 91.4 34.4889 91.2427C34.8187 91.0347 34.9472 90.6469 34.841 90.2703C34.7404 89.9162 34.5 89.6746 34.1423 89.6521C33.779 89.6296 33.4101 89.6858 33.0411 89.7027C32.7449 89.4385 32.7337 89.1238 32.8958 88.7978C33.03 88.5168 33.2703 88.3482 33.5889 88.3032C34.2876 88.202 35.2602 88.6854 35.6571 89.3598C36.054 90.0287 36.0372 90.7031 35.6292 91.3607C35.5118 91.5462 35.3553 91.7092 35.182 91.844C34.8298 92.1194 34.4497 92.1813 34.0585 91.9002C33.9411 91.8159 33.8293 91.7148 33.7119 91.6248H33.7063Z" fill="#6A81B8"/>
<path d="M21.152 66.5523C21.3589 66.468 21.5657 66.3949 21.7613 66.2937C22.2309 66.0521 22.4097 65.6474 22.2756 65.1978C22.1638 64.8212 21.7837 64.5402 21.3365 64.557C21.0458 64.5627 20.7552 64.6357 20.4589 64.6751C20.2297 64.3097 20.2577 63.9669 20.5428 63.6465C20.7887 63.3655 21.1129 63.3149 21.4595 63.3599C22.9184 63.5398 23.8239 65.2877 23.0749 66.4792C22.8513 66.8333 22.5718 67.1312 22.1191 67.1705C21.6383 67.2099 21.3645 66.9232 21.152 66.5467V66.5523Z" fill="#6A81B8"/>
<path d="M14.8133 53.7041C15.0425 53.5973 15.2885 53.5074 15.5064 53.3781C15.8586 53.1701 16.0319 52.7823 15.948 52.4451C15.8474 52.0517 15.6015 51.7819 15.199 51.7257C14.9475 51.692 14.6904 51.7369 14.4332 51.7482C14.1985 51.6807 14.0252 51.5571 14.042 51.2817C14.0755 50.7196 14.5562 50.3318 15.1096 50.4105C16.1828 50.5623 17.0939 51.7707 16.9374 52.8498C16.9095 53.0296 16.848 53.2095 16.7697 53.3781C16.5853 53.7603 16.3114 54.0638 15.881 54.1537C15.4282 54.2492 15.0872 54.0638 14.8245 53.7041H14.8133Z" fill="#6A81B8"/>
<path d="M27.3731 78.9901C27.6359 78.8608 27.9321 78.7653 28.1613 78.5911C28.4408 78.3719 28.5582 78.0459 28.4296 77.6862C28.3122 77.3433 28.083 77.0904 27.7085 77.0736C27.3787 77.0567 27.0434 77.1017 26.708 77.1185C26.4732 76.5509 26.5459 76.2136 26.9651 76.0169C27.7309 75.6516 28.8544 76.1293 29.3016 77.0117C29.7432 77.8885 29.4525 78.9002 28.6532 79.333C28.1166 79.6196 27.7365 79.3611 27.3787 78.9957L27.3731 78.9901Z" fill="#6A81B8"/>
<path d="M8.62556 41.2099C8.89387 41.0975 9.17894 41.0132 9.43048 40.8671C9.7435 40.6816 9.87765 40.2545 9.77145 39.8948C9.66524 39.5463 9.42489 39.344 9.06715 39.2822C8.62556 39.2091 8.19516 39.3496 7.75916 39.3833C7.56911 39.2035 7.56911 38.9955 7.68091 38.7763C7.82624 38.4897 8.07218 38.3154 8.36844 38.2536C9.12863 38.0906 9.76586 38.3885 10.2857 38.9112C10.7664 39.3946 10.9006 40.0072 10.6993 40.6704C10.649 40.8446 10.5652 41.0189 10.459 41.1706C10.241 41.491 9.93914 41.7102 9.54786 41.7495C9.12863 41.7888 8.86592 41.5134 8.63115 41.2099H8.62556Z" fill="#6A81B8"/>
<path d="M76.1267 43.0254C76.149 42.6826 76.0708 42.3622 75.9254 42.0475C74.4386 38.8158 73.248 35.4716 72.1412 32.0994C71.9903 31.6385 71.8114 31.1889 71.6493 30.728C71.599 30.5875 71.5375 30.4414 71.5375 30.3009C71.5375 30.2053 71.599 30.0761 71.6773 30.0255C71.7555 29.9749 71.912 29.9636 71.9847 30.0142C72.1356 30.1154 72.2698 30.2503 72.3704 30.402C74.3883 33.4089 76.5179 36.3428 78.3178 39.4902C79.5755 41.6934 80.7493 43.9472 82.007 46.156C83.097 48.0725 84.0305 50.0734 85.031 52.0349C85.1819 52.3328 85.3496 52.6363 85.4391 52.9566C85.8415 54.3393 84.5671 55.7387 83.1697 55.469C82.7951 55.3959 82.4821 55.2048 82.1915 54.9575C82.0238 54.817 81.8281 54.7046 81.6381 54.5809C80.9394 53.1871 80.2351 51.7988 79.5531 50.3994C78.6141 48.4603 77.6918 46.5157 76.7639 44.571C76.5235 44.0708 76.2552 43.5818 76.1267 43.031V43.0254Z" fill="#6A81B8"/>
<path d="M96.7133 76.1631C96.1711 78.2707 94.9134 79.8725 93.2253 81.1709C93.1303 80.2266 93.2085 79.2655 92.9794 78.3326C94.1756 77.394 95.327 76.4104 96.2717 75.202C96.3835 75.0615 96.5456 74.9603 96.6853 74.8423V74.8254C96.9033 75.2638 96.853 75.7135 96.7189 76.1631H96.7133Z" fill="#6A81B8"/>
<path d="M87.0428 84.2621C86.0535 84.8579 85.0641 85.4424 84.0747 86.0494C83.7561 86.2461 83.4487 86.4541 83.063 86.499C83.1468 86.381 83.2139 86.2293 83.3257 86.145C84.466 85.2738 85.5783 84.3633 86.8248 83.6326C86.8863 83.5989 86.9646 83.5821 87.0317 83.5596C87.0317 83.7956 87.0317 84.0261 87.0372 84.2621H87.0428Z" fill="#6A81B8"/>
<path d="M88.4405 59.3975C88.4405 59.5156 88.4405 59.5549 88.4405 59.5886C88.4126 60.5834 87.9766 61.2298 87.1772 61.4827C86.3053 61.7581 85.5339 61.4715 84.9805 60.6284C84.6339 60.0945 84.388 59.5268 84.3936 58.858C84.3936 58.0262 84.7066 57.4473 85.4836 57.0876C86.2717 56.7166 86.9313 56.9471 87.5406 57.4304C88.1946 57.9419 88.5244 58.6275 88.4405 59.4032V59.3975Z" fill="#6A81B8"/>
<path d="M32.3424 102.888C30.9338 102.59 29.7879 101.871 29.0668 100.612C28.1669 99.0495 27.9936 97.3971 28.737 95.7053C29.9388 98.0996 31.1406 100.494 32.3424 102.888Z" fill="#6A81B8"/>
<path d="M16.2438 70.3459C16.2047 70.8518 16.4171 71.2902 16.6407 71.7229C17.4624 73.3529 18.2785 74.9884 19.089 76.6295C19.2678 76.9949 19.4299 77.3714 19.5976 77.748C17.5462 77.4726 15.6737 75.1739 15.7911 73.1674C15.847 72.2063 15.7464 71.2283 16.2494 70.3459H16.2438Z" fill="#6A81B8"/>
<path d="M22.3204 83.1155C22.4881 83.4021 22.6669 83.6888 22.8179 83.981C23.7066 85.7402 24.5898 87.4994 25.4674 89.2642C25.6295 89.5958 25.7636 89.9443 25.9089 90.2815C22.734 89.6632 21.4037 86.499 21.985 84.1665C22.0744 83.8068 22.1191 83.4358 22.3204 83.1099V83.1155Z" fill="#6A81B8"/>
<path d="M3.68428 45.1724C3.75694 45.6613 3.98612 46.0885 4.20412 46.5213C5.0258 48.1905 5.85307 49.8541 6.66916 51.5234C6.83127 51.855 6.97101 52.2035 7.12193 52.5407C6.8145 52.417 6.49588 52.3046 6.19404 52.1585C4.36063 51.2817 3.32095 49.8598 3.28741 47.7802C3.27064 46.8866 3.22033 45.9873 3.68428 45.1667V45.1724Z" fill="#6A81B8"/>
<path d="M9.76586 57.9587C10.9397 60.2519 12.1359 62.5337 13.17 64.8943C10.3528 64.2704 8.94977 61.3872 9.4193 59.0098C9.49197 58.6501 9.52551 58.2622 9.76586 57.9531V57.9587Z" fill="#6A81B8"/>
<path d="M96.7133 76.1631C96.7021 75.7191 96.6909 75.2695 96.6797 74.8254C97.0375 75.2638 97.0039 75.7078 96.7133 76.1631Z" fill="#6A81B8"/>
<path d="M63.8625 97.5093C63.9352 97.588 64.0134 97.661 64.0861 97.7397C63.8402 97.8971 63.6054 98.0826 63.3371 98.2062C62.303 98.6952 61.2577 99.1729 60.218 99.645C60.123 99.69 60.0112 99.735 59.9162 99.6169C59.9162 99.5945 59.9162 99.5439 59.9274 99.5382C61.2354 98.8582 62.5489 98.1837 63.8625 97.5037V97.5093Z" fill="#6A81B8"/>
<path d="M70.3355 93.4626C70.4417 93.2603 70.615 93.1198 70.7995 92.9962C74.1924 90.7087 77.6412 88.5167 81.3639 86.7969C81.5652 86.7069 81.772 86.6339 81.9844 86.5664C82.0235 86.5552 82.1018 86.6226 82.1465 86.6676C82.1633 86.6788 82.1465 86.7519 82.1241 86.7688C82.0124 86.8643 81.9006 86.9599 81.7776 87.0442C79.9106 88.3312 77.9878 89.5228 76.0034 90.6244C74.5054 91.4562 72.985 92.2262 71.4646 93.0018C71.1013 93.1872 70.7547 93.4121 70.3355 93.4514V93.4626Z" fill="#6A81B8"/>
<path d="M83.0688 86.499C83.0185 86.5384 82.9626 86.5833 82.9123 86.6227C82.8564 86.4428 83.0185 86.5496 83.0688 86.499Z" fill="#6A81B8"/>
<path d="M70.3357 93.4626C70.2854 93.502 70.2351 93.547 70.1792 93.5863C70.1233 93.4064 70.2854 93.5076 70.3357 93.4626Z" fill="#6A81B8"/>
</svg>
