<svg width="99" height="110" viewBox="0 0 99 110" fill="none" xmlns="http://www.w3.org/2000/svg">
<path d="M9.70814 23.6182C10.8987 22.7133 12.2179 22.0107 13.4979 21.2632C19.613 17.6887 25.8903 14.412 32.2457 11.2983C36.3597 9.28056 40.5184 7.35839 44.7219 5.52614C46.3932 4.79549 48.0701 4.07046 49.7414 3.34543C50.3507 3.31733 50.5743 3.78945 50.7755 4.21659C52.866 8.63422 55.0237 13.0237 57.0807 17.4582C58.07 19.594 59.1097 21.7016 60.127 23.8205C62.5809 28.9351 65.0348 34.0552 67.4886 39.1698C71.2337 46.9765 74.9732 54.7888 78.6848 62.6124C79.9145 65.209 81.284 67.7382 82.374 70.4079C82.5975 70.9587 82.9441 71.4814 82.6367 72.1109C81.8597 73.0776 80.6747 73.2911 79.6182 73.6621C76.3595 74.803 73.0057 75.573 69.5456 75.7754C68.7351 75.8203 67.9414 76.0451 67.1141 75.9833C66.5887 75.944 66.08 75.8878 65.6999 75.4662C65.3254 75.1852 65.1857 74.7524 64.9733 74.2747C64.9845 74.7187 65.0907 75.1065 64.8783 75.4606C64.2075 76.2587 63.2908 76.0058 62.4803 75.944C58.221 75.6011 54.0175 74.9267 49.9706 73.4654C44.666 71.5488 39.9315 68.6824 35.7057 64.9449C32.9109 62.4775 30.2949 59.8359 27.8634 57.0089C27.3268 56.385 26.5666 55.8342 26.684 54.8282C27.3659 54.1593 27.7796 54.1369 28.428 54.8169C29.0205 55.4408 29.6186 56.059 30.2334 56.6492C30.7253 57.1213 31.3122 57.3798 31.9662 57.1325C32.637 56.8796 32.637 56.2052 32.6761 55.6094C32.773 54.017 33.6208 53.2189 35.2194 53.2151C36.1529 53.2151 37.1982 53.3163 37.6118 52.2203C38.0143 51.1468 37.1758 50.5061 36.533 49.8316C36.2982 49.5844 36.0132 49.4045 35.7337 49.219C34.8281 48.6345 34.381 47.8814 34.6381 46.7573C34.7723 46.1784 34.7387 45.5602 34.6549 44.9644C34.5095 43.9078 33.8835 43.5593 32.9165 43.964C32.3966 44.1832 31.9495 44.5148 31.5302 44.8913C30.6694 45.6669 29.7583 45.8637 28.6683 45.2791C27.8522 44.8407 26.8852 44.3686 26.0468 45.0712C25.1524 45.8243 25.5716 46.8697 25.8399 47.7971C26.4325 49.8485 25.8176 51.2367 24.0401 51.7763C23.6767 51.6808 23.5202 51.3604 23.3358 51.0906C20.5353 47.0327 17.992 42.8174 15.7506 38.4279C15.5661 38.0626 15.3481 37.7085 15.3481 37.2757C15.5102 36.4945 16.1978 36.2865 16.7847 35.9886C21.5694 33.5775 26.3486 31.1551 31.1446 28.7721C33.4754 27.6143 35.7393 26.3272 38.0758 25.175C38.7912 24.8209 38.9813 24.4219 38.59 23.68C37.9751 22.5278 37.4329 21.3419 36.9131 20.1392C36.4547 19.0881 36.2368 19.0263 35.2027 19.5434C31.234 21.5049 27.2877 23.5114 23.3302 25.4954C20.2391 27.0466 17.1536 28.6147 14.0569 30.1547C13.4979 30.4357 12.9334 30.7842 12.2682 30.4526C11.0329 28.9688 10.6528 27.0691 9.84788 25.383C9.58516 24.8378 9.25537 24.2308 9.71373 23.6013L9.70814 23.6182Z" fill="#FF6ECB"/>
<path d="M9.70794 23.6182C10.2501 25.2256 10.9656 26.7656 11.614 28.3337C11.8935 29.0137 12.1506 29.705 12.4189 30.3907C12.0332 31.3181 12.4189 32.1106 12.8661 32.8862C13.7157 34.3643 14.4089 35.938 15.4877 37.2757C15.8398 37.4612 15.9963 37.804 16.164 38.1356C17.3043 40.3501 18.4726 42.5532 19.7694 44.6721C20.9544 46.6055 22.2288 48.4828 23.4586 50.3881C23.7157 50.7927 24.0511 51.1637 24.0399 51.692C24.3138 51.9112 24.2691 52.2034 24.2411 52.5069C24.107 53.8221 24.3417 54.1256 25.6329 54.3223C26.0969 54.3898 26.6167 54.2998 26.9074 54.8113C27.1366 55.5982 27.7682 56.1096 28.2489 56.7054C29.9649 58.8243 31.9325 60.7071 33.8777 62.6068C36.8458 65.5013 40.1046 68.0136 43.7323 70.0482C46.1806 71.4195 48.7183 72.538 51.379 73.3979C53.3633 74.0386 55.3868 74.5164 57.4438 74.8367C58.763 75.0447 60.0821 75.2133 61.4181 75.3089C62.2286 75.3651 63.0335 75.528 63.8552 75.4999C64.157 75.4887 64.4533 75.4775 64.6936 75.2695C64.9675 75.2077 65.1072 75.3875 65.2079 75.5899C65.6997 76.5734 65.2973 78.5406 64.4477 79.3499C63.6036 80.1536 62.3795 80.1986 61.1498 79.4792C60.4119 79.0464 59.7467 78.3607 58.9977 77.1917C59.5902 78.2764 60.261 78.934 61.0324 79.4623C62.9161 80.7381 64.8669 79.9288 65.3532 77.7088C65.4706 77.158 65.5656 76.6128 65.4929 76.0451C65.4426 75.6686 65.4314 75.292 65.8171 75.0559C66.0743 75.3538 66.3817 75.5224 66.7897 75.4999C67.0133 75.4887 67.2369 75.5168 67.4549 75.4999C68.6679 75.3819 69.8808 75.2527 71.0938 75.1234C72.4241 74.9829 73.7265 74.7131 75.0345 74.4321C77.0356 74.0049 78.9864 73.426 80.8757 72.6279C81.4235 72.3975 82.0048 72.2514 82.5023 71.9029C83.0892 71.9029 83.3296 72.3469 83.5476 72.7853C84.8668 75.4606 86.0909 78.1753 87.4268 80.8393C87.7343 81.4576 87.8405 82.1208 87.4604 82.7727C85.258 84.4307 82.8656 85.774 80.4286 87.0667C75.7612 89.5397 71.3006 92.3948 66.5829 94.7779C61.4404 97.3745 56.4153 100.241 50.9262 102.107C48.45 102.944 45.9346 103.501 43.3354 103.697C42.9945 103.726 42.687 103.866 42.3517 103.883C38.6625 103.894 36.2477 101.927 34.582 98.8021C33.6541 97.0541 32.8995 95.2219 32.0275 93.4402C31.8487 93.0693 31.7089 92.6871 31.6921 92.2656C32.1002 91.4113 32.8492 91.2426 33.6877 91.2707C34.8168 91.7485 35.141 91.6754 35.4372 90.8773C35.7335 90.0792 35.3702 89.3598 34.5373 89.017C33.6541 88.6573 33.4361 89.1912 33.3132 89.8938C32.6592 90.6019 31.8878 90.956 30.9152 90.7312C30.468 90.4614 30.3227 89.9781 30.0991 89.5509C28.6234 86.7351 27.3713 83.8125 25.946 80.9742C25.7112 80.5077 25.4652 80.0356 25.6385 79.4736C26.041 78.726 26.7285 78.5799 27.4887 78.6136C27.9303 78.6979 28.316 79.3893 28.8302 78.7261C29.2998 78.1303 29.188 77.5458 28.7967 76.9893C28.5228 76.5959 28.1036 76.4723 27.6285 76.506C27.0974 76.5453 27.2036 77.0287 27.0359 77.3266C26.449 77.9392 25.7336 78.1471 24.9063 78.001C24.3585 77.7593 24.1014 77.2647 23.8442 76.7701C22.4301 73.9993 21.2227 71.1273 19.7805 68.3621C19.5402 67.9012 19.3501 67.4066 19.6129 66.8727C20.0153 66.3331 20.5631 66.1701 21.2059 66.2263C21.6531 66.3106 21.9773 67.0469 22.553 66.4905C22.9611 66.097 23.112 65.6193 22.9108 65.0854C22.676 64.4503 22.1953 64.0568 21.5301 63.9669C20.8035 63.8657 20.9656 64.5908 20.7084 64.9336C20.0936 65.4732 19.4116 65.7823 18.5788 65.5238C18.0086 65.1022 17.8074 64.439 17.5391 63.8376C16.2982 61.0893 14.9231 58.4084 13.5928 55.7049C13.3301 55.171 13.0394 54.6371 13.2853 54.002C13.6654 53.395 14.2244 53.2488 14.8896 53.3388C15.3144 53.4231 15.6554 54.0863 16.1584 53.5692C16.505 53.2151 16.7398 52.7823 16.5497 52.254C16.3373 51.6639 15.9572 51.1805 15.3423 51.0513C14.6939 50.9108 14.8393 51.5178 14.7331 51.8718C14.1014 52.6081 13.2965 52.8498 12.3574 52.7205C11.6532 52.1529 11.491 51.2648 11.1165 50.5061C9.90917 48.0668 8.69062 45.6332 7.48325 43.194C7.22054 42.66 6.91869 42.1317 7.1311 41.4966C7.51679 40.9346 8.08694 40.839 8.71298 40.8727C9.25518 41.1313 9.83092 41.6596 10.2893 40.7716C10.6191 40.1309 10.3116 39.2372 9.67999 38.945C8.88626 38.574 8.40555 38.7651 8.0534 39.5969C7.58386 40.1646 7.00813 40.3894 6.28706 40.1477C5.70014 39.6925 5.5045 38.9899 5.19707 38.3661C4.44247 36.8373 3.62078 35.3367 2.95561 33.7573C2.68172 33.111 2.58669 32.4871 2.78233 31.8183C2.5308 30.076 3.22392 28.699 4.39216 27.4794C5.27533 26.5576 6.29824 25.8157 7.33233 25.0907C8.09253 24.5568 8.85831 24.0285 9.70235 23.635L9.70794 23.6182Z" fill="#FF4FC0"/>
<path d="M87.1639 82.6379C87.2533 82.1152 87.2254 81.6093 86.985 81.1147C85.5485 78.1359 84.1175 75.1515 82.681 72.1727C82.6307 72.0715 82.558 71.9872 82.4965 71.8973C81.9655 70.7451 81.4568 69.5817 80.909 68.4351C77.4602 61.2242 74.0002 54.0132 70.5514 46.8023C67.8571 41.1763 65.1741 35.5446 62.4799 29.9186C59.7242 24.1577 56.9684 18.3912 54.2183 12.6303C52.9159 9.89881 51.6247 7.16168 50.3279 4.43018C50.1546 4.05923 49.9422 3.71077 49.7466 3.34544C49.7522 2.9745 49.9813 2.7272 50.2385 2.50238C51.5409 1.37269 53.0669 0.737583 54.7549 0.490286C55.2021 0.422841 55.6493 0.467804 56.035 0.748824C56.6778 1.08605 56.9293 1.72115 57.2256 2.32253C61.3396 10.6969 65.2579 19.1668 69.3496 27.5468C71.5743 32.105 73.4692 36.8205 75.8113 41.3224C76.0684 41.8226 76.3311 42.3116 76.6776 42.7556C78.4384 46.7067 80.3612 50.5792 82.2785 54.4572C82.3847 55.1823 82.8431 55.7499 83.1114 56.4019C84.7659 60.4092 87.1136 64.0793 88.6396 68.1429C88.7066 68.3171 88.8743 68.4295 88.9749 68.5925C90.5624 71.858 92.1722 75.1178 93.62 78.4507C93.9609 79.3556 93.5864 80.2829 93.7373 81.1934C93.7485 82.2388 93.9945 83.3179 93.3181 84.2678C93.279 84.5263 93.2287 84.7736 93.0778 84.9984C91.8872 86.7464 90.2885 87.9154 88.2371 88.4437C87.9017 88.528 87.5775 88.5112 87.2869 88.3032C86.7838 88.0728 86.7838 87.6175 86.7726 87.1679C86.7614 86.7632 86.8844 86.3529 86.7503 85.9483C86.6608 85.4031 86.8788 84.8748 86.8565 84.3296C86.8565 84.0654 86.8956 83.8069 86.8788 83.5427C86.8397 83.1943 87.0186 82.9133 87.1695 82.6266L87.1639 82.6379Z" fill="#00C1D5"/>
<path d="M88.5724 68.7555C88.4718 68.5981 88.3544 68.452 88.2761 68.289C86.1912 63.9275 84.1118 59.5605 82.0325 55.1935C81.9375 54.9911 81.8704 54.7775 81.7865 54.5696C82.1666 54.3054 82.4908 54.519 82.8206 54.6989C83.4802 55.0642 84.1118 55.0586 84.6652 54.5134C85.2577 53.9289 85.2186 53.2713 84.8776 52.5575C83.6535 49.9946 82.3567 47.4711 80.9816 44.9868C79.0923 41.5528 77.1862 38.13 74.9839 34.8814C74.1566 33.6618 73.2567 32.4871 72.5412 31.2787C73.6536 34.724 74.9001 38.203 76.3869 41.5921C76.5937 42.0642 76.8173 42.5813 76.2695 43.0141C76.0907 42.6881 75.8894 42.3734 75.7273 42.0361C72.3456 34.9882 68.9694 27.9402 65.5932 20.8922C63.7654 17.0816 61.9488 13.2654 60.1209 9.45475C58.8577 6.82441 57.5888 4.19969 56.3255 1.56935C56.197 1.29957 56.0349 1.04104 56.0293 0.731914C56.7895 0.546441 57.5497 0.37783 58.3043 0.181116C59.0365 0.00126403 59.78 -0.00435636 60.5234 0.00126403C62.4183 0.0237456 63.8716 0.889285 64.9672 2.39555C65.297 2.84518 65.5597 3.34539 65.8056 3.84561C68.5558 9.48848 71.2891 15.137 74.0337 20.7855C74.3299 21.3925 74.6262 21.9938 74.9168 22.6008C77.2533 27.4063 79.5954 32.2061 81.9263 37.0171C84.7658 42.868 87.5998 48.7188 90.4338 54.5696C91.6859 57.1606 92.9435 59.746 94.19 62.337C94.3521 62.6742 94.5534 62.9889 94.6093 63.3711C94.7266 63.7983 94.4807 64.0905 94.2012 64.3322C92.502 65.816 90.8362 67.3391 88.9916 68.6374C88.8687 68.7274 88.7177 68.7498 88.5724 68.7555Z" fill="#FF6ECB"/>
<path d="M87.2143 85.8751C87.2366 86.6845 87.2646 87.4994 87.287 88.3144C87.2422 88.7528 86.8957 88.927 86.5771 89.1181C85.107 90.0005 83.6481 90.8941 82.1612 91.7428C79.0925 93.4964 75.9679 95.1544 72.8376 96.8068C68.8578 98.9088 64.8891 101.039 60.8478 103.034C57.2089 104.833 53.4862 106.446 49.6349 107.733C47.5891 108.419 45.5097 109.003 43.3689 109.318C41.9658 109.526 40.5293 109.621 39.1486 109.323C36.5998 108.778 34.744 107.255 33.5813 104.9C32.8267 104.49 32.4578 103.77 32.1001 103.034C31.2281 101.528 30.4958 99.9542 29.6965 98.4086C29.2381 97.515 28.8413 96.6045 28.5674 95.6378C28.6065 94.8284 28.8636 94.1708 29.7356 93.9516C30.4567 94.0022 30.6803 94.5924 30.9598 95.1151C32.1783 97.3857 33.1174 99.7968 34.3192 102.079C36.6277 106.457 39.5902 107.137 43.4639 106.553C48.1033 105.856 52.3794 104.007 56.6332 102.107C60.5403 100.359 64.3357 98.3636 68.0864 96.3122C73.827 93.176 79.6794 90.2309 85.1852 86.6732C85.4983 86.4709 85.8057 86.2629 86.0852 86.0156C86.4317 85.7908 86.7895 85.5997 87.2031 85.8695L87.2143 85.8751Z" fill="#FB39B2"/>
<path d="M88.5726 68.7554C88.6173 68.4463 88.7683 68.199 89.0198 68.0192C90.993 66.6028 92.7537 64.9279 94.6151 63.3711C95.0455 63.8544 95.1908 64.4895 95.4759 65.0516C96.1019 66.2768 96.7224 67.5077 97.1863 68.8116C97.2869 69.0926 97.3876 69.3737 97.5049 69.6491C98.1086 71.0879 97.9689 72.4874 97.3149 73.8644C97.2366 74.033 97.1528 74.2016 97.0745 74.3702C96.9627 74.5557 97.0634 74.7805 96.9739 74.9716C96.3199 76.2418 95.3641 77.231 94.2126 78.0403C93.8884 78.2707 93.581 78.5799 93.1338 78.3269C92.5413 77.1242 91.9488 75.927 91.3675 74.7187C90.5458 73.0101 89.7297 71.2958 88.9136 69.5816C88.785 69.3118 88.69 69.0308 88.5838 68.7554H88.5726Z" fill="#FF4FC0"/>
<path d="M29.8252 94.109C29.3333 94.5361 29.0762 95.0981 28.8861 95.7051C28.9197 96.5651 28.8973 97.425 28.9923 98.2737C29.1432 99.6563 29.6519 100.876 30.904 101.652C31.4741 102.006 31.9604 102.472 32.4859 102.888C32.9889 103.484 33.3299 104.164 33.5815 104.9C30.3953 104.99 27.3769 102.663 26.6726 99.2404C26.3149 97.5093 26.6726 95.9187 27.3546 94.3563C27.4887 94.0471 27.6508 93.7549 27.7961 93.4514C27.7961 93.4008 27.7961 93.3502 27.7961 93.2996C27.7961 93.1985 27.7961 93.0973 27.8073 92.9961C27.9415 92.3217 28.5899 92.0744 28.9532 91.5854C29.4842 90.9503 30.0152 90.3208 30.9767 90.5288C31.7089 90.2534 32.4412 89.9724 33.1734 89.697C33.5926 89.0675 34.1572 89.0843 34.7217 89.4047C35.2695 89.7194 35.4316 90.2534 35.2472 90.8548C35.0292 91.5461 34.5038 91.7259 33.8386 91.6191C33.1287 91.6304 32.5082 91.917 31.9046 92.2655C31.5412 93.2603 30.8369 93.8729 29.8084 94.1033L29.8252 94.109Z" fill="#0044A4"/>
<path d="M18.7017 65.355C19.3389 65.1302 19.9762 64.8998 20.6134 64.675C21.0829 64.0623 21.6531 64.0061 22.2623 64.422C22.7766 64.7761 22.9499 65.3044 22.743 65.889C22.5027 66.5859 21.9549 66.7039 21.3009 66.5465C20.7475 66.5859 20.2333 66.7489 19.7637 67.0411C19.3278 67.9123 18.4558 68.3282 17.7962 68.9689C17.2987 69.4298 17.131 70.0818 16.8124 70.6494C15.8566 72.3074 16.4379 75.1626 18.0198 76.3654C18.6011 76.8037 19.1377 77.3489 19.9091 77.467C20.5239 77.9334 21.0382 78.4505 20.6637 79.3217C20.6525 79.6139 20.591 79.8331 20.2109 79.7882C17.9192 79.524 16.1472 78.4224 14.9734 76.4159C13.6207 74.1003 13.6598 71.7285 14.7722 69.3343C14.9287 68.997 15.1243 68.6767 15.3032 68.3507C15.1243 67.3896 15.8398 66.9512 16.4211 66.4398C17.0583 65.8159 17.5894 64.9841 18.6961 65.3382L18.7017 65.355Z" fill="#0044A4"/>
<path d="M27.5221 78.9903C26.9185 79.069 26.3371 79.1926 25.8341 79.5692C25.3366 80.4122 24.4925 80.9012 23.8218 81.57C23.3634 82.104 23.1957 82.8121 22.7933 83.3798C21.9157 86.2125 22.9945 88.8091 26.2365 90.0287C27.2706 90.8437 27.4662 91.3607 27.1365 92.3387C25.0124 92.5017 21.8207 90.8943 20.7083 88.1627C20.4232 87.4714 20.2332 86.7576 20.1997 86.0045C20.1382 84.6163 20.2164 83.2505 20.8592 81.9803C21.0772 81.5532 21.3288 81.1373 21.5635 80.7213C21.3511 79.7546 22.1672 79.4062 22.6647 78.861C23.2796 78.2428 23.8665 77.5796 24.8782 77.7819C25.5378 77.5627 26.203 77.3379 26.8626 77.1187C27.3041 76.5173 27.8519 76.551 28.3997 76.9051C28.8748 77.2086 29.0705 77.6863 28.914 78.2484C28.7127 78.9565 28.1761 79.0914 27.5277 78.9959L27.5221 78.9903Z" fill="#0044A4"/>
<path d="M6.3653 39.9452C6.87955 39.7598 7.38822 39.5687 7.90247 39.3832C8.60676 38.7706 9.39491 38.7088 9.92034 39.2427C10.3284 39.653 10.4122 40.1476 10.1663 40.6646C9.88121 41.2604 9.37255 41.3728 8.77446 41.2098C8.27697 41.2716 7.80185 41.3953 7.36027 41.6538C6.99135 42.4969 6.07464 42.7723 5.52685 43.4299C4.80578 43.9076 4.62132 44.7282 4.26358 45.4307C3.38042 46.8471 4.01764 50.1462 5.59952 51.1523C6.22556 51.5513 6.82366 51.9953 7.51119 52.2876C8.08693 52.8609 8.64589 53.4454 8.18195 54.3559C8.03662 54.4796 7.86893 54.5526 7.67329 54.5189C3.68226 53.8445 1.21162 50.7757 1.46875 46.9201C1.55818 45.5769 1.88238 44.2617 2.7935 43.1826C2.86058 43.0983 2.8997 42.9859 2.95001 42.8903C2.70406 41.9854 3.35247 41.5527 3.89467 41.0581C4.64368 40.5185 5.22501 39.5968 6.3653 39.9396V39.9452Z" fill="#0044A4"/>
<path d="M12.3741 52.4845C13.1064 52.2372 13.8386 51.9899 14.5709 51.7482C14.9677 51.1918 15.4652 51.2929 15.9292 51.6077C16.4043 51.928 16.5664 52.4282 16.3819 52.9847C16.1528 53.676 15.6106 53.8221 14.9566 53.7097C14.4144 53.6928 13.9337 53.8614 13.4921 54.1706C13.0337 54.9911 12.1338 55.3284 11.5469 56.0084C10.904 56.6042 10.6972 57.4585 10.2556 58.1723C9.32776 60.8532 10.6916 63.5847 13.4865 64.6357C14.2299 65.1584 14.7833 65.7598 14.4032 66.7659C14.079 67.0356 13.6989 66.9907 13.3412 66.9064C10.4736 66.2544 8.40546 64.4896 7.79619 61.4546C7.42168 59.5886 7.61173 57.7339 8.65141 56.0534C8.76879 55.8623 8.88059 55.6712 8.99797 55.4801C8.78556 54.4403 9.60724 54.0076 10.183 53.4231C10.8426 52.9453 11.368 52.1528 12.3741 52.4901V52.4845Z" fill="#0044A4"/>
<path d="M9.91461 57.9588C10.1214 57.0989 10.5742 56.3907 11.2002 55.7893C11.7648 55.8511 11.9884 56.2895 12.2064 56.7223C13.6876 59.6336 15.1186 62.5731 16.4881 65.5407C16.6669 65.9341 16.7173 66.3163 16.6614 66.7322C16.2086 67.2774 15.7558 67.8226 15.3031 68.3621C14.9397 68.1261 14.7944 67.7439 14.6547 67.3617C14.5764 67.1593 14.5764 66.9233 14.4031 66.7603C14.0622 66.1252 13.8442 65.417 13.3131 64.8943C12.6871 64.4559 12.2399 63.8714 11.9548 63.1689C11.2897 61.5333 10.0935 60.117 9.89225 58.2791C9.88107 58.1667 9.86989 58.0599 9.90902 57.9532L9.91461 57.9588Z" fill="#FB39B2"/>
<path d="M10.4233 53.7714C9.937 54.3278 9.38921 54.8393 9.00352 55.48C8.7464 55.3788 8.62343 55.1596 8.50604 54.9236C8.41102 54.7325 8.29364 54.547 8.18743 54.3559C7.92472 53.7321 7.70672 53.0801 7.27072 52.5405C5.56028 50.8938 4.92865 48.6344 3.90574 46.5942C3.68774 46.1614 3.75482 45.6499 3.83307 45.1722C4.13492 44.4359 4.54855 43.7727 5.1187 43.2107C5.58823 43.177 5.76151 43.5367 5.91802 43.8627C7.34339 46.7628 8.88614 49.6067 10.1718 52.5799C10.3395 52.9733 10.373 53.3667 10.4177 53.7714H10.4233Z" fill="#FB39B2"/>
<path d="M22.8715 79.1812C22.4355 79.6926 21.9939 80.2041 21.5579 80.7155C21.2449 80.5694 21.1052 80.2884 20.999 79.9849C20.9207 79.7545 20.8648 79.5072 20.6692 79.3386C20.4009 78.7878 20.194 78.1976 19.7469 77.748C19.1376 77.3489 18.7184 76.8038 18.3998 76.1405C17.852 74.994 17.2818 73.8587 16.7061 72.7234C16.3204 71.9646 16.1695 71.1834 16.3987 70.3459C16.7117 69.7783 16.9688 69.1769 17.4998 68.7666C18.0867 68.7778 18.3103 69.2275 18.5395 69.6546C20.0208 72.4536 21.2617 75.3706 22.6815 78.2032C22.838 78.518 22.8547 78.844 22.8827 79.1812H22.8715Z" fill="#FB3BB2"/>
<path d="M6.3653 39.9455C5.58833 40.322 4.89521 40.8279 4.21327 41.3505C3.79964 41.3056 3.53692 41.0527 3.36364 40.7042C2.65375 39.2654 1.82648 37.8884 1.36813 36.3315C1.17249 35.6627 1.13336 35.022 1.46874 34.3925L1.45197 34.415C1.49669 34.3644 1.52464 34.3082 1.52464 34.2351C1.79294 33.3415 2.04448 32.4422 2.7879 31.8015C3.55928 34.1846 4.78901 36.354 5.85105 38.6078C6.05787 39.0406 6.34294 39.4452 6.3653 39.9511V39.9455Z" fill="#FFEDB0"/>
<path d="M27.1308 92.333C26.8848 91.5911 26.5718 90.8774 26.052 90.2816C25.4594 89.8657 25.0458 89.3093 24.7384 88.6517C24.1571 87.3983 23.5254 86.1731 22.8938 84.9422C22.5975 84.3577 22.5305 83.7395 22.4634 83.11C22.687 82.4187 23.0168 81.7892 23.5757 81.3002C24.2018 81.2271 24.3974 81.7217 24.621 82.1376C26.1582 85.0265 27.4047 88.0615 28.9139 90.9673C29.076 91.2764 29.0871 91.608 29.0983 91.9452C28.7406 92.3836 28.3828 92.822 28.0251 93.2604C27.9469 93.3166 27.8742 93.384 27.8071 93.4515C27.5835 93.0749 27.3599 92.704 27.1364 92.3274L27.1308 92.333Z" fill="#FB3BB2"/>
<path d="M96.8284 74.8366C96.9067 74.6792 96.9849 74.5219 97.0688 74.3645C97.3874 74.9546 97.6445 75.5673 97.8849 76.1968C98.3265 77.3546 98.1755 78.4618 97.7172 79.5577C97.5886 79.8669 97.4433 80.1704 97.2644 80.4514C96.3142 81.9464 95.0565 83.1379 93.6311 84.1665C93.5473 84.2283 93.4243 84.2395 93.3181 84.2732C93.3349 83.2391 93.3572 82.1993 93.374 81.1652C93.5864 80.5582 93.9609 80.0748 94.3969 79.6139C95.3528 78.6079 96.0123 77.422 96.4092 76.09C96.5098 75.7078 96.7502 75.3762 96.8228 74.9827C96.8228 74.9322 96.8284 74.8872 96.834 74.8366H96.8284Z" fill="#FA3BB2"/>
<path d="M1.4687 34.3867C1.59726 35.5726 1.96059 36.6967 2.46366 37.7702C3.02822 38.973 3.62631 40.1589 4.21323 41.3504C3.79959 41.8731 3.27975 42.3058 2.94996 42.896C2.70401 42.896 2.52514 42.7836 2.41894 42.5644C1.737 41.1256 1.00475 39.7148 0.546398 38.1805C0.115993 36.7304 0.501681 35.4883 1.4687 34.3867Z" fill="#FA3BB2"/>
<path d="M1.52469 34.2351C1.54705 34.3138 1.52469 34.3756 1.45203 34.415C1.45762 34.3475 1.47997 34.2913 1.52469 34.2351Z" fill="#FA3BB2"/>
<path d="M15.4821 37.2813C15.1132 37.3825 14.8058 37.4499 14.5598 36.9834C13.6375 35.2017 12.6649 33.4482 11.7259 31.6778C11.3961 31.0539 11.4184 31.0314 12.0445 30.6324C12.1674 30.5537 12.2904 30.4694 12.4134 30.3907C12.8494 30.1884 13.2966 30.0029 13.727 29.7893C20.8091 26.2372 27.8912 22.6795 34.9789 19.1331C36.7341 18.2563 36.5105 18.2675 37.3266 19.9087C37.9415 21.1452 38.5284 22.3929 39.1321 23.635C39.2606 23.9048 39.3948 24.1689 39.5121 24.4443C39.6687 24.8153 39.6184 24.9445 39.2383 25.1694C39.0482 25.2818 38.8414 25.3773 38.6458 25.4785C31.2786 29.2104 23.9114 32.9424 16.5442 36.6799C16.1808 36.8654 15.8343 37.0733 15.4765 37.2757L15.4821 37.2813Z" fill="#FFFBE7"/>
<path d="M26.9015 54.8057C26.4935 54.8057 26.0854 54.8057 25.6774 54.8113C25.2582 54.8169 24.8669 54.7214 24.4868 54.5584C23.721 54.2268 23.3912 53.5411 23.6204 52.7261C23.721 52.3721 23.8887 52.0348 24.0284 51.6864C24.5147 51.1243 24.9899 50.5454 25.4929 50.0002C25.7892 49.6799 25.8116 49.3764 25.6662 48.983C25.3923 48.2467 25.1408 47.5048 25.0458 46.7179C25.001 46.3414 24.9843 45.9761 25.0737 45.6051C25.2749 44.7845 25.806 44.3237 26.65 44.2618C27.0245 44.2337 27.399 44.2506 27.7512 44.3799C28.2375 44.5597 28.7405 44.7171 29.2045 44.9475C30.2777 45.4758 29.9926 45.4702 30.9205 44.7115C31.5857 44.1663 32.2341 43.6042 33.0558 43.3007C33.8607 43.0029 34.537 43.2614 34.9283 44.0145C35.1016 44.3518 35.191 44.7115 35.2022 45.0937C35.2246 45.7288 35.219 46.3639 35.1072 46.9933C35.0736 47.1788 35.0345 47.3587 34.9898 47.5441C34.9115 47.8814 35.0401 48.1174 35.3196 48.3029C35.7221 48.5727 36.1245 48.8425 36.5046 49.146C37.1195 49.6349 37.684 50.1801 38.0362 50.9051C38.5951 52.0517 38.1927 53.0577 37.0077 53.5355C36.6164 53.6928 36.2139 53.7266 35.8059 53.7322C35.0625 53.749 34.319 53.7097 33.5812 53.5804C33.3017 53.5299 33.1732 53.6535 33.1732 53.957C33.1732 54.519 33.1955 55.0811 33.1955 55.6375C33.1955 56.0927 33.1396 56.5311 32.944 56.947C32.6533 57.5709 32.2061 57.8407 31.5186 57.807C31.0603 57.7845 30.6354 57.6327 30.2777 57.3517C29.8697 57.0314 29.4728 56.6885 29.115 56.3119C28.7294 55.9073 28.394 55.4576 28.0362 55.0249C27.7791 54.7139 27.4009 54.6389 26.9015 54.8001V54.8057Z" fill="#FFCF00"/>
<path d="M53.7935 58.251C53.4469 58.2453 53.0612 58.0374 52.6923 57.7676C52.2675 57.4585 51.9377 57.0538 51.5855 56.666C51.3284 56.385 51.1831 56.3906 50.9483 56.666C50.7806 56.8627 50.6297 57.0763 50.4564 57.2786C50.3334 57.4192 50.2105 57.5597 50.0707 57.6833C49.0534 58.5882 48.0976 58.2903 47.7566 56.9527C47.5889 56.2951 47.6057 55.615 47.656 54.9462C47.6951 54.446 47.5721 54.0975 47.1026 53.8446C46.6778 53.6142 46.3201 53.2713 46.0406 52.8666C45.5655 52.1641 45.7276 51.4953 46.4654 51.0737C46.9293 50.8096 47.4492 50.7478 47.9578 50.6297C48.1367 50.5904 48.3268 50.5679 48.5112 50.5679C48.8913 50.5679 49.1205 50.3937 49.2658 50.0283C49.4447 49.5787 49.6347 49.1291 49.8807 48.7132C50.7247 47.2968 51.8371 47.2744 52.7258 48.6513C52.9438 48.9942 53.1171 49.3764 53.268 49.7529C53.4134 50.107 53.6258 50.2925 54.0226 50.2869C54.4307 50.2869 54.8387 50.315 55.2468 50.3262C55.5877 50.3375 55.912 50.4105 56.2138 50.5567C56.7504 50.8208 56.9628 51.2648 56.8231 51.8493C56.7057 52.3383 56.3759 52.698 56.0573 53.069C55.7163 53.4624 55.0791 53.6479 54.9952 54.165C54.9226 54.609 55.1797 55.1036 55.2524 55.5813C55.3306 56.0984 55.353 56.6267 55.2412 57.1438C55.0847 57.8632 54.5816 58.2678 53.7823 58.2453L53.7935 58.251Z" fill="#FFCF00"/>
<path d="M29.8249 94.109C30.3 93.2378 31.0491 92.6814 31.9211 92.2711C32.4968 93.1479 32.8881 94.1202 33.3464 95.0588C34.006 96.3965 34.6041 97.7678 35.314 99.083C36.4655 101.219 38.1927 102.68 40.5851 103.225C41.1608 103.354 41.7645 103.36 42.3514 103.422C44.755 103.827 47.0411 103.102 49.372 102.731C52.9103 102.163 55.8616 100.258 58.9639 98.6671C61.0433 97.5992 63.0891 96.4639 65.1964 95.4466C65.5653 95.2724 65.9342 95.0813 66.3311 94.997C66.633 94.9352 66.9683 94.9745 67.1248 95.2611C67.3149 95.6152 67.1248 95.93 66.8118 96.1154C65.951 96.6213 65.107 97.1721 64.2014 97.6048C63.1226 98.2343 61.9376 98.6558 60.8421 99.2628C61.9544 98.6558 63.1506 98.2062 64.2573 97.5823C69.3831 94.4462 74.833 91.9058 80.0035 88.8539C81.6021 87.9097 83.2958 87.1453 84.9559 86.3135C85.4031 86.0887 85.9006 85.7964 86.3813 86.2854C86.1521 86.5945 85.8 86.7406 85.4869 86.9373C81.8704 89.2361 78.1421 91.3325 74.3747 93.3727C70.3836 95.5365 66.3926 97.7004 62.3792 99.8249C58.064 102.107 53.637 104.147 48.9975 105.681C47.2312 106.266 45.4369 106.744 43.5979 107.047C42.3793 107.244 41.1496 107.266 39.9255 107.137C38.3939 106.968 37.1083 106.221 35.9792 105.209C35.1351 104.456 34.4923 103.546 33.9948 102.528C32.8098 100.072 31.6192 97.6217 30.4174 95.1712C30.2386 94.8059 30.11 94.4068 29.8193 94.1033L29.8249 94.109Z" fill="#FFEEB0"/>
<path d="M64.0116 97.5095C64.8892 96.9418 65.7668 96.3854 66.6387 95.8121C66.7841 95.7166 66.9909 95.5929 66.8679 95.385C66.7785 95.2389 66.5996 95.3288 66.4599 95.385C64.6265 96.1213 62.8657 97.0149 61.1497 97.9985C60.3392 98.4593 59.5343 98.9258 58.7182 99.3642C57.276 100.145 55.8227 100.899 54.3806 101.674C53.5533 102.124 52.6701 102.405 51.7758 102.658C50.0542 103.147 48.3046 103.501 46.5327 103.714C45.2862 103.861 44.0117 103.962 42.7652 103.591C42.6255 103.551 42.4913 103.478 42.3572 103.417C45.4427 103.287 48.3661 102.422 51.2504 101.404C54.8725 100.123 58.3772 98.5493 61.7757 96.7676C68.3771 93.3111 74.9338 89.7646 81.4067 86.0608C82.9886 85.1559 84.5425 84.1835 86.1076 83.2449C86.4597 83.037 86.8175 82.8347 87.1696 82.6323C87.2423 82.9414 87.2423 83.2449 87.192 83.5597C86.3815 84.6219 85.107 85.0716 84.1456 85.8865C84.1624 85.8697 84.1568 85.8978 84.1736 85.8865C84.8331 85.3751 85.5207 84.9367 86.1914 84.4758C86.4821 84.2791 86.7951 83.9981 87.2032 84.2622C87.2814 84.7962 87.2702 85.3357 87.2255 85.8697C86.9516 86.0102 86.6721 86.1451 86.3983 86.2856C86.0126 86.3024 85.6884 86.4991 85.3586 86.6621C83.2345 87.73 81.0881 88.7698 78.9863 89.877C77.1473 90.8493 75.3531 91.9003 73.5364 92.9176C72.8545 93.2998 72.1837 93.6932 71.4906 94.0586C69.2547 95.2332 67.0132 96.3966 64.7662 97.5601C64.6041 97.6444 64.4141 97.6781 64.2408 97.7399C64.006 97.8186 63.9613 97.7118 64.0172 97.5095H64.0116Z" fill="#FFFBE7"/>
<path d="M16.6671 66.7322C16.3318 66.4624 16.22 66.0578 16.0411 65.6924C14.4257 62.3933 12.8159 59.0885 11.2004 55.7893C11.7929 55.0025 12.5196 54.4123 13.4922 54.1707C13.6319 54.5135 13.7605 54.862 13.9226 55.1936C15.3647 58.1667 16.8125 61.1399 18.2546 64.1131C18.4503 64.5122 18.7018 64.8887 18.6962 65.3608C17.9695 65.743 17.31 66.232 16.6616 66.7378L16.6671 66.7322Z" fill="#FFEEB0"/>
<path d="M29.0984 91.9508C28.6904 91.8159 28.601 91.4225 28.4389 91.0965C27.3265 88.8259 26.2197 86.5496 25.113 84.2734C24.7553 83.5371 24.3975 82.8008 24.0286 82.0702C23.8944 81.806 23.7323 81.5587 23.5814 81.3058C24.1292 80.4627 24.867 79.8614 25.8341 79.5635C27.2706 82.5367 28.7072 85.5155 30.1437 88.4887C30.3393 88.8877 30.535 89.2924 30.7306 89.6914C30.8648 89.9612 30.9877 90.231 30.9877 90.5345C30.3226 90.9616 29.6686 91.4 29.0928 91.9508H29.0984Z" fill="#FFEEB0"/>
<path d="M10.4232 53.7716C10.194 53.6817 10.0878 53.4793 9.99275 53.2826C8.36616 49.9273 6.74515 46.5663 5.12415 43.2109C5.73901 42.4971 6.45449 41.9351 7.36561 41.6541C7.87986 42.7332 8.38852 43.8123 8.90836 44.8858C9.96481 47.0665 11.0324 49.2472 12.0889 51.4335C12.251 51.7651 12.4746 52.0855 12.3795 52.4902C11.6752 52.833 11.0492 53.3051 10.4232 53.7772V53.7716Z" fill="#FFEEB0"/>
<path d="M22.8718 79.1813C22.5029 79.0745 22.4022 78.7317 22.2569 78.4394C21.7147 77.3434 21.1893 76.2362 20.6527 75.1402C19.6018 73.0157 18.551 70.8912 17.4945 68.7667C18.0479 67.9237 18.8081 67.356 19.7639 67.0469C19.926 67.4178 20.0714 67.8 20.2502 68.1653C21.6756 71.0992 23.101 74.0274 24.5263 76.9612C24.6549 77.2254 24.7611 77.5064 24.8729 77.7762C24.1909 78.2258 23.4755 78.6193 22.8774 79.1813H22.8718Z" fill="#FFEEB0"/>
<path d="M33.8552 91.6248C34.1179 91.5012 34.3918 91.4 34.6378 91.2427C34.9676 91.0347 35.0961 90.6469 34.9899 90.2703C34.8893 89.9162 34.649 89.6746 34.2912 89.6521C33.9279 89.6296 33.559 89.6858 33.1901 89.7027C32.8938 89.4385 32.8826 89.1238 33.0447 88.7978C33.1789 88.5168 33.4192 88.3482 33.7378 88.3032C34.4366 88.202 35.4092 88.6854 35.806 89.3598C36.2029 90.0287 36.1861 90.7031 35.7781 91.3607C35.6607 91.5462 35.5042 91.7092 35.3309 91.844C34.9788 92.1194 34.5987 92.1813 34.2074 91.9002C34.09 91.8159 33.9782 91.7148 33.8608 91.6248H33.8552Z" fill="#FFCB00"/>
<path d="M21.301 66.5523C21.5078 66.468 21.7147 66.3949 21.9103 66.2937C22.3798 66.0521 22.5587 65.6474 22.4246 65.1978C22.3128 64.8212 21.9327 64.5402 21.4855 64.557C21.1948 64.5627 20.9042 64.6357 20.6079 64.6751C20.3787 64.3097 20.4067 63.9669 20.6918 63.6465C20.9377 63.3655 21.2619 63.3149 21.6085 63.3599C23.0674 63.5398 23.9729 65.2877 23.2239 66.4792C23.0003 66.8333 22.7208 67.1312 22.268 67.1705C21.7873 67.2099 21.5134 66.9232 21.301 66.5467V66.5523Z" fill="#FFCB00"/>
<path d="M14.9622 53.7041C15.1914 53.5973 15.4373 53.5074 15.6553 53.3781C16.0075 53.1701 16.1807 52.7823 16.0969 52.4451C15.9963 52.0517 15.7503 51.7819 15.3479 51.7257C15.0963 51.692 14.8392 51.7369 14.5821 51.7482C14.3473 51.6807 14.174 51.5571 14.1908 51.2817C14.2244 50.7196 14.7051 50.3318 15.2584 50.4105C16.3317 50.5623 17.2428 51.7707 17.0863 52.8498C17.0583 53.0296 16.9968 53.2095 16.9186 53.3781C16.7341 53.7603 16.4602 54.0638 16.0298 54.1537C15.5771 54.2492 15.2361 54.0638 14.9734 53.7041H14.9622Z" fill="#FFCC00"/>
<path d="M27.5221 78.9901C27.7849 78.8608 28.0811 78.7653 28.3103 78.5911C28.5898 78.3719 28.7071 78.0459 28.5786 77.6862C28.4612 77.3433 28.232 77.0904 27.8575 77.0736C27.5277 77.0567 27.1923 77.1017 26.857 77.1185C26.6222 76.5509 26.6949 76.2136 27.1141 76.0169C27.8799 75.6516 29.0034 76.1293 29.4506 77.0117C29.8922 77.8885 29.6015 78.9002 28.8022 79.333C28.2656 79.6196 27.8855 79.3611 27.5277 78.9957L27.5221 78.9901Z" fill="#FFCB00"/>
<path d="M8.77443 41.2099C9.04273 41.0975 9.3278 41.0132 9.57934 40.8671C9.89236 40.6816 10.0265 40.2545 9.92031 39.8948C9.81411 39.5463 9.57375 39.344 9.21601 39.2822C8.77443 39.2091 8.34402 39.3496 7.90803 39.3833C7.71798 39.2035 7.71798 38.9955 7.82977 38.7763C7.9751 38.4897 8.22105 38.3154 8.5173 38.2536C9.2775 38.0906 9.91472 38.3885 10.4346 38.9112C10.9153 39.3946 11.0494 40.0072 10.8482 40.6704C10.7979 40.8446 10.714 41.0189 10.6078 41.1706C10.3898 41.491 10.088 41.7102 9.69672 41.7495C9.2775 41.7888 9.01478 41.5134 8.78002 41.2099H8.77443Z" fill="#FFCA00"/>
<path d="M76.2755 43.0254C76.2979 42.6826 76.2196 42.3622 76.0743 42.0475C74.5874 38.8158 73.3968 35.4716 72.2901 32.0994C72.1392 31.6385 71.9603 31.1889 71.7982 30.728C71.7479 30.5875 71.6864 30.4414 71.6864 30.3009C71.6864 30.2053 71.7479 30.0761 71.8261 30.0255C71.9044 29.9749 72.0609 29.9636 72.1336 30.0142C72.2845 30.1154 72.4187 30.2503 72.5193 30.402C74.5371 33.4089 76.6668 36.3428 78.4667 39.4902C79.7244 41.6934 80.8982 43.9472 82.1559 46.156C83.2459 48.0725 84.1793 50.0734 85.1799 52.0349C85.3308 52.3328 85.4985 52.6363 85.5879 52.9566C85.9904 54.3393 84.7159 55.7387 83.3185 55.469C82.944 55.3959 82.631 55.2048 82.3403 54.9575C82.1726 54.817 81.977 54.7046 81.7869 54.5809C81.0882 53.1871 80.3839 51.7988 79.702 50.3994C78.7629 48.4603 77.8406 46.5157 76.9127 44.571C76.6724 44.0708 76.4041 43.5818 76.2755 43.031V43.0254Z" fill="#FF9CE7"/>
<path d="M96.8622 76.1631C96.32 78.2707 95.0623 79.8725 93.3742 81.1709C93.2792 80.2266 93.3575 79.2655 93.1283 78.3326C94.3245 77.394 95.476 76.4104 96.4206 75.202C96.5324 75.0615 96.6945 74.9603 96.8343 74.8423V74.8254C97.0523 75.2638 97.0019 75.7135 96.8678 76.1631H96.8622Z" fill="#FFF9E6"/>
<path d="M87.1918 84.2621C86.2024 84.8579 85.213 85.4424 84.2236 86.0494C83.905 86.2461 83.5976 86.4541 83.2119 86.499C83.2958 86.381 83.3628 86.2293 83.4746 86.145C84.6149 85.2738 85.7273 84.3633 86.9738 83.6326C87.0353 83.5989 87.1135 83.5821 87.1806 83.5596C87.1806 83.7956 87.1806 84.0261 87.1862 84.2621H87.1918Z" fill="#FFEFB8"/>
<path d="M88.5895 59.3975C88.5895 59.5156 88.5895 59.5549 88.5895 59.5886C88.5616 60.5834 88.1256 61.2298 87.3262 61.4827C86.4542 61.7581 85.6829 61.4715 85.1295 60.6284C84.7829 60.0945 84.537 59.5268 84.5426 58.858C84.5426 58.0262 84.8556 57.4473 85.6326 57.0876C86.4207 56.7166 87.0803 56.9471 87.6896 57.4304C88.3436 57.9419 88.6733 58.6275 88.5895 59.4032V59.3975Z" fill="#FF9CE7"/>
<path d="M32.4914 102.888C31.0828 102.59 29.9369 101.871 29.2158 100.612C28.3159 99.0495 28.1426 97.3971 28.886 95.7053C30.0878 98.0996 31.2896 100.494 32.4914 102.888Z" fill="#7064B4"/>
<path d="M16.3928 70.3459C16.3537 70.8518 16.5661 71.2902 16.7897 71.7229C17.6114 73.3529 18.4275 74.9884 19.238 76.6295C19.4168 76.9949 19.5789 77.3714 19.7466 77.748C17.6952 77.4726 15.8227 75.1739 15.9401 73.1674C15.996 72.2063 15.8953 71.2283 16.3984 70.3459H16.3928Z" fill="#7064B4"/>
<path d="M22.4693 83.1155C22.637 83.4021 22.8159 83.6888 22.9668 83.981C23.8555 85.7402 24.7387 87.4994 25.6163 89.2642C25.7784 89.5958 25.9125 89.9443 26.0579 90.2815C22.8829 89.6632 21.5526 86.499 22.1339 84.1665C22.2234 83.8068 22.2681 83.4358 22.4693 83.1099V83.1155Z" fill="#7064B4"/>
<path d="M3.8332 45.1724C3.90587 45.6613 4.13504 46.0885 4.35304 46.5213C5.17472 48.1905 6.002 49.8541 6.81809 51.5234C6.98019 51.855 7.11993 52.2035 7.27085 52.5407C6.96342 52.417 6.64481 52.3046 6.34297 52.1585C4.50955 51.2817 3.46987 49.8598 3.43633 47.7802C3.41957 46.8866 3.36926 45.9873 3.8332 45.1667V45.1724Z" fill="#7163B4"/>
<path d="M9.91479 57.9587C11.0886 60.2519 12.2848 62.5337 13.3189 64.8943C10.5017 64.2704 9.0987 61.3872 9.56823 59.0098C9.64089 58.6501 9.67443 58.2622 9.91479 57.9531V57.9587Z" fill="#7064B4"/>
<path d="M96.8623 76.1631C96.8511 75.7191 96.8399 75.2695 96.8287 74.8254C97.1865 75.2638 97.1529 75.7078 96.8623 76.1631Z" fill="#FF4FC0"/>
<path d="M64.0114 97.5093C64.084 97.588 64.1623 97.661 64.235 97.7397C63.989 97.8971 63.7543 98.0826 63.4859 98.2062C62.4519 98.6952 61.4066 99.1729 60.3669 99.645C60.2719 99.69 60.1601 99.735 60.0651 99.6169C60.0651 99.5945 60.0651 99.5439 60.0762 99.5382C61.3842 98.8582 62.6978 98.1837 64.0114 97.5037V97.5093Z" fill="#FFF5D4"/>
<path d="M70.4844 93.4626C70.5906 93.2603 70.7639 93.1198 70.9483 92.9962C74.3413 90.7087 77.7901 88.5167 81.5128 86.7969C81.714 86.7069 81.9209 86.6339 82.1333 86.5664C82.1724 86.5552 82.2506 86.6226 82.2954 86.6676C82.3121 86.6788 82.2954 86.7519 82.273 86.7688C82.1612 86.8643 82.0494 86.9599 81.9264 87.0442C80.0595 88.3312 78.1366 89.5228 76.1523 90.6244C74.6543 91.4562 73.1339 92.2262 71.6135 93.0018C71.2502 93.1872 70.9036 93.4121 70.4844 93.4514V93.4626Z" fill="#FFEEB1"/>
<path d="M83.2178 86.499C83.1675 86.5384 83.1116 86.5833 83.0613 86.6227C83.0054 86.4428 83.1675 86.5496 83.2178 86.499Z" fill="#FFEFB8"/>
<path d="M70.4846 93.4626C70.4343 93.502 70.384 93.547 70.3281 93.5863C70.2722 93.4064 70.4343 93.5076 70.4846 93.4626Z" fill="#FFEEB1"/>
</svg>
