<svg width="78" height="100" viewBox="0 0 78 100" fill="none" xmlns="http://www.w3.org/2000/svg">
<path d="M41.6547 15.764C35.3335 19.3051 36.7818 26.061 36.7818 26.061C36.7818 26.061 41.7867 30.8291 48.1078 27.288C54.4289 23.7469 59.4959 13.3411 59.4959 13.3411C59.4959 13.3411 47.9758 12.2229 41.6547 15.764Z" fill="#6A81B8"/>
<path d="M30.3636 16.661C37.1584 19.1731 36.7818 26.0728 36.7818 26.0728C36.7818 26.0728 32.5807 31.5591 25.7858 29.047C18.991 26.5348 12.3632 17.0454 12.3632 17.0454C12.3632 17.0454 23.5688 14.1449 30.3636 16.6571V16.661Z" fill="#6A81B8"/>
<path d="M41.2586 5.08253C41.2043 5.11359 41.146 5.16406 41.0878 5.20289C40.9674 5.2689 40.8471 5.39703 40.7228 5.51739C40.6607 5.57952 40.5947 5.62999 40.5326 5.69988L40.3539 5.92508C40.0977 6.20464 39.888 6.58127 39.6589 6.93848C39.4415 7.30734 39.2629 7.73056 39.0532 8.13437C38.3155 9.83113 37.8767 11.7803 37.5273 13.7527C37.2206 15.7407 37.0225 17.783 36.9527 19.8409C36.9332 20.8698 36.8556 21.9065 36.8866 22.9393L36.9294 26.0572L36.2188 23.0131C35.9664 21.9958 35.8189 20.963 35.6131 19.9302C35.2365 17.8607 34.9841 15.7601 34.8521 13.6129C34.7744 11.4619 34.7667 9.26814 35.2054 6.98896C35.3491 6.41819 35.4578 5.84355 35.6442 5.26113C35.85 4.67872 36.0324 4.09242 36.3431 3.50613L36.5605 3.06349C36.6381 2.91595 36.7391 2.7684 36.8284 2.62086C37.0148 2.32577 37.1973 2.03068 37.4535 1.74336C37.5739 1.59969 37.6904 1.45215 37.8224 1.30849L38.2728 0.881385C38.4126 0.741606 38.63 0.597944 38.8125 0.465931C38.8979 0.399924 39.0222 0.326151 39.1542 0.252379L39.3483 0.147545C39.3483 0.147545 39.4415 0.100952 39.5075 0.0776551L39.7055 0C39.7055 0 41.8372 1.11047 41.2586 5.07864V5.08253Z" fill="#6A81B8"/>
<path d="M63.9765 90.8022C63.2543 91.4001 62.5166 91.9748 61.7517 92.5222H61.7478C60.6102 93.3415 59.4221 94.0909 58.1912 94.7781C54.1415 97.034 49.5948 98.5754 44.7103 99.2083L42.8971 99.4413C22.2913 102.105 3.42886 87.5523 0.773051 66.9465L0.536203 65.1255C-1.99924 45.4788 11.1089 27.424 30.1927 23.483C31.1245 23.2849 32.0758 23.1219 33.0349 23.0015L34.8481 22.7685C55.4539 20.105 74.3163 34.6575 76.9721 55.2633L77.209 57.0843C78.9174 70.3245 73.5165 82.8425 63.9804 90.806L63.9765 90.8022Z" fill="#6A81B8"/>
<g opacity="0.1">
<path d="M61.7478 92.5222C60.6102 93.3414 59.4221 94.0908 58.1912 94.778C54.1415 97.0339 49.5948 98.5754 44.7103 99.2083L42.8971 99.4412C22.2913 102.105 3.42886 87.5522 0.773051 66.9465L0.536203 65.1255C-1.99924 45.4787 11.1089 27.4239 30.1927 23.4829L30.6276 23.5877C30.6276 23.5877 30.6314 23.5877 30.6392 23.5916H30.6509C30.6509 23.5916 30.6741 23.5994 30.6858 23.6033C30.713 23.611 30.7479 23.6188 30.7906 23.6305C30.8023 23.6305 30.8062 23.6305 30.8178 23.6382C30.7906 23.6615 30.7479 23.6848 30.713 23.712C30.6509 23.7586 30.5848 23.8052 30.5227 23.8518C30.5072 23.8634 30.4878 23.8751 30.4722 23.8867C30.1189 24.143 29.5054 24.5856 28.7211 25.2301C28.6978 25.2457 28.6745 25.269 28.6474 25.2884C28.6202 25.3156 28.5852 25.3466 28.5425 25.3738C28.4804 25.4243 28.4105 25.4825 28.3406 25.5369C28.3251 25.5485 28.294 25.5718 28.2552 25.6068C20.6139 31.9279 -0.321885 52.9724 17.663 81.7631C23.1688 90.5769 41.076 99.946 61.7478 92.5222Z" fill="#6A81B8"/>
<path d="M30.4257 23.5335C30.7791 23.6306 30.7558 23.6267 30.814 23.6422C29.9909 23.4092 30.4452 23.5412 30.4257 23.5335Z" fill="#6A81B8"/>
<path d="M11.3535 49.4043C11.3768 49.3422 11.4001 49.2723 11.4234 49.2179C11.4156 49.1946 11.3885 49.2801 11.3535 49.4043Z" fill="#6A81B8"/>
<path d="M25.2578 28.4453C25.0831 28.6239 24.788 28.9035 24.5278 29.1792C24.6598 29.0471 24.8773 28.8258 25.2578 28.4453Z" fill="#6A81B8"/>
<path d="M26.8689 90.7012C26.8379 90.6779 26.8029 90.6507 26.768 90.6235C26.2205 90.4061 26.4496 90.5226 26.8689 90.7012Z" fill="#6A81B8"/>
<path d="M61.6666 91.4352C60.8939 91.6915 60.1601 91.9283 59.4651 92.2312C59.4884 92.1962 59.5272 92.1341 59.7446 92.0215C59.3564 92.1846 58.937 92.336 58.506 92.4758C58.0751 92.6156 57.6324 92.7592 57.1704 92.8291C56.2463 92.9961 55.3144 93.1358 54.4563 93.2834C54.0331 93.3688 53.6138 93.3999 53.2177 93.4465C52.8295 93.4931 52.4684 93.5435 52.1422 93.6095C51.4899 93.7416 50.9851 93.924 50.7017 94.192C49.9679 94.355 49.2263 94.4288 48.4808 94.5531C51.3928 94.4793 48.0692 94.9607 49.2767 95.0539C48.1158 95.1588 46.287 94.9258 47.7003 94.8171L47.9217 94.8443C48.0498 94.7239 47.8828 94.6657 47.5683 94.6346C47.2538 94.6152 46.7957 94.6229 46.3181 94.5841C45.359 94.5259 44.3534 94.4909 44.4 94.3395C44.0467 94.324 43.6895 94.3317 43.3361 94.2929L42.2839 94.1648C41.5811 94.0794 40.8822 94.0017 40.1911 93.8969C39.5038 93.7532 38.8244 93.6057 38.1449 93.462C37.8032 93.3882 37.4654 93.33 37.1276 93.2407L36.1336 92.9456C35.4774 92.7437 34.8135 92.5612 34.1689 92.3476C33.536 92.103 32.9032 91.8584 32.2664 91.6138C31.6257 91.3925 31.0278 91.0974 30.4182 90.8178C29.8203 90.5228 29.1912 90.2898 28.6205 89.9559C28.7486 90.1422 28.8767 90.3442 29.0165 90.5189C28.4652 90.2393 27.9371 89.9209 27.3896 89.622C27.0014 89.3191 26.9431 89.0939 28.0924 89.7384C27.8323 89.4899 27.3314 89.2609 26.8771 89.0939C26.4228 88.9425 26.0617 88.7794 26.0229 88.8105C23.9301 87.2884 27.0635 89.0551 26.4073 88.6124L25.4949 88.0494L25.6812 88.2125C24.8969 87.8281 24.7067 87.9563 23.4719 86.9506C22.7148 86.2944 23.1807 86.4925 22.8779 86.2401C22.9012 86.2246 22.7847 86.1547 22.4197 85.8557C21.8723 85.3199 21.286 84.8151 20.7618 84.256C20.8938 84.5472 21.0879 84.7918 21.2549 85.0636C21.053 84.9083 20.8356 84.7452 20.6686 84.5821C20.5055 84.4074 20.3619 84.2638 20.2609 84.1589C20.0629 83.957 20.0241 83.9609 20.2842 84.454C20.191 84.2676 20.0357 84.0308 19.826 83.7512C19.7212 83.6115 19.6047 83.4678 19.4844 83.3047C19.3523 83.1533 19.2242 82.9786 19.1077 82.7883C18.8592 82.4156 18.5836 82.0156 18.2924 81.6041C18.0089 81.1809 17.7565 80.6955 17.4847 80.2451C17.2129 79.7908 16.945 79.3365 16.6927 78.9094C16.5645 78.6959 16.4442 78.4862 16.3199 78.2882C16.2151 78.0863 16.118 77.8805 16.0248 77.6941C15.6482 76.9486 15.3686 76.3818 15.2871 76.1488C15.0852 75.8343 14.8988 75.5198 14.7125 75.2014C14.5494 74.8714 14.398 74.5258 14.2426 74.1802C13.9476 73.4697 13.6098 72.732 13.3108 71.8855C13.4156 72.3204 13.2875 72.6582 12.8293 71.1711C13.1322 71.3691 12.9574 70.678 12.6973 69.7811C12.6352 69.5598 12.5536 69.3268 12.4993 69.0822C12.4488 68.8376 12.3944 68.5891 12.3479 68.3561C12.2547 67.8785 12.1925 67.4359 12.1925 67.1175C12.2081 67.3971 12.146 67.2728 12.0489 66.9622C11.944 66.6438 11.812 66.1352 11.7305 65.6382C11.5325 64.6403 11.3461 63.7201 11.3539 64.6054C11.1753 63.3279 11.4937 64.5083 11.4238 63.5298C10.8841 60.5129 11.0588 56.7933 11.6218 53.0658C11.5946 53.0037 11.4238 53.6172 11.4937 52.8057L12.0994 50.8876C12.2391 50.1615 12.0528 50.1615 12.5187 48.9152C12.4333 49.0899 12.3401 49.2801 12.4488 48.8297C13.5593 45.277 15.1473 41.7981 17.1469 38.5249C17.6284 37.6979 18.1914 36.9213 18.7233 36.1176C19.2941 35.3449 19.8455 34.5606 20.455 33.8151C21.5577 32.4134 22.7459 31.0778 23.9767 29.812C23.9534 29.8353 23.9379 29.8508 23.9185 29.8625C23.9884 29.7771 24.1747 29.579 24.3883 29.35C24.3378 29.3849 24.4582 29.2412 24.4582 29.2179C25.2075 28.4724 25.9802 27.7425 26.7606 27.0319C27.0208 26.7524 28.0614 25.8516 28.8107 25.2187C28.9427 25.1022 29.0126 25.044 29.0476 25.0207C29.0553 25.0168 29.0553 25.009 29.0553 25.009C29.0321 25.0207 28.9039 25.1178 28.7292 25.2459C28.7059 25.2614 28.6826 25.2847 28.6554 25.3041C28.6282 25.3313 28.5933 25.3624 28.5506 25.3895C28.4885 25.44 28.4186 25.4983 28.3487 25.5526C28.3332 25.5643 28.3021 25.5876 28.2633 25.6225C27.8789 25.9254 27.479 26.2399 27.4673 26.2399C26.3452 27.2455 24.4271 28.8102 22.7886 30.6623C22.7303 30.7244 22.6954 30.7555 22.6799 30.7672C22.7032 30.7283 23.0332 30.3556 22.8779 30.4992C22.676 30.7439 22.4469 31.0001 22.144 31.3263C21.849 31.6563 21.4879 32.0601 21.018 32.5882L21.1151 32.46C19.8299 33.9549 18.9602 35.0693 18.0827 36.2496C17.2207 37.4455 16.3083 38.6919 15.1939 40.6216L15.4308 40.377C14.9532 41.204 14.8095 41.3593 14.5921 41.7476C14.4135 42.2756 14.6853 41.6622 15.0386 41.072C15.2949 40.6294 15.5511 40.1828 15.59 40.1828C15.59 40.1984 15.5783 40.2527 15.5395 40.3459C15.3531 40.6022 15.0347 41.0914 14.6969 41.7049C14.3708 42.3339 13.9825 43.0638 13.633 43.8093C13.3069 44.5587 12.9807 45.2964 12.7128 45.8944C12.476 46.504 12.2702 46.9699 12.1382 47.1485C11.6334 48.5385 12.3867 46.7758 11.9013 48.1697L11.7266 48.523L11.7033 48.9074C11.4121 49.8315 11.1908 50.278 11.1209 50.2974C11.1947 50.0761 11.2995 49.6529 11.3694 49.4083C11.2607 49.7034 11.1326 50.0644 11.0316 50.4527C10.9462 50.841 10.853 51.2487 10.7715 51.637C10.6433 52.2233 10.5463 52.7591 10.4919 53.0736C10.5657 52.6775 10.6783 52.2893 10.7753 51.901C10.5385 52.8872 10.4337 53.9511 10.2589 55.0344C10.1657 55.5741 10.1541 56.1332 10.1036 56.6845C10.0687 57.2437 9.99491 57.7989 9.99879 58.358V60.0276C9.99879 60.3072 9.99491 60.579 10.0066 60.8546C10.0299 61.1264 10.0531 61.3943 10.0764 61.67C10.1269 62.2058 10.1813 62.7339 10.2279 63.2503C10.2667 63.7667 10.4026 64.2559 10.488 64.7374L10.5035 64.4345C10.7986 65.8944 10.853 66.4924 10.9928 67.1097C11.051 67.4242 11.1131 67.7426 11.2024 68.1853C11.2529 68.4066 11.3073 68.6551 11.3772 68.9541C11.4393 69.2491 11.5286 69.5869 11.6684 69.9713L11.6179 69.8665C11.8858 70.4644 12.1887 71.2837 12.4488 72.1457C12.2818 71.7613 12.3634 72.1457 12.4255 72.5068C12.5109 72.8562 12.5886 73.1707 12.344 72.6815C13.0118 74.1647 13.1943 74.5258 13.3302 74.7432C13.4855 74.9646 13.5437 75.0733 14.1378 75.9741L14.2349 76.4672C14.6581 77.0651 14.7396 77.0962 15.489 78.5367C14.7979 77.3913 15.7569 79.5656 14.9648 78.2921C15.0386 78.494 15.1201 78.6881 15.19 78.8745C15.2832 79.0531 15.3686 79.2278 15.4579 79.3987C15.6327 79.7287 15.7996 80.0393 15.9705 80.3305C16.3083 80.9013 16.6228 81.3828 16.9062 81.8176C17.1741 82.2603 17.5158 82.6213 17.7449 82.9902C17.9934 83.3513 18.1681 83.7357 18.3428 84.1123C18.6845 84.3492 18.7428 84.3142 18.6496 84.1395C18.603 84.0541 18.5176 83.9376 18.405 83.7978C18.3118 83.6464 18.1953 83.4794 18.0788 83.297C17.7255 82.7689 17.3178 82.2098 17.2712 82.1166C17.2828 82.1166 17.3061 82.1438 17.345 82.1904C17.1897 81.8487 17.4381 82.0816 17.8031 82.5049C18.1759 82.9164 18.6107 83.5687 18.9757 83.9648C19.3368 84.3764 19.5465 84.8151 19.8998 85.4131C20.0978 85.6965 20.3347 86.011 20.657 86.3799C20.952 86.706 21.2898 87.1254 21.7713 87.5136C21.6626 87.4321 21.6043 87.4088 21.4413 87.2768C21.814 87.6495 22.245 87.9407 22.6837 88.2552C23.1186 88.5736 23.5729 88.9192 24.066 89.3346C24.8115 89.5132 25.4366 90.2704 25.7938 90.1034L23.6311 88.7561C24.2601 89.1211 24.9047 89.4084 25.6269 89.785C26.3491 90.1578 27.1955 90.5228 28.174 91.1906C27.9837 91.1673 27.3236 90.9072 26.8771 90.7091C27.4401 91.1285 28.0614 91.3304 28.6671 91.7186C28.4885 91.8468 27.7935 91.4935 26.9742 91.0314C26.5626 90.8062 26.1083 90.5616 25.6774 90.3209C25.2541 90.0607 24.8464 89.8277 24.4853 89.6569C24.7649 89.9248 25.3978 90.3014 25.887 90.5461C26.3762 90.7829 26.683 90.9538 26.252 90.9227C26.8616 90.9926 27.4479 91.342 28.1196 91.7497C28.8069 92.1147 29.5951 92.5224 30.5191 92.7476L30.3211 92.8912C30.4648 92.9378 30.6822 93.0116 30.9385 93.0815C31.1947 93.1436 31.4743 93.2252 31.7306 93.3261C31.3889 93.2912 31.0394 93.2679 30.6978 93.229C31.4588 93.396 32.1344 93.6989 32.7944 94.0211C33.1245 94.1764 33.4506 94.3589 33.7923 94.4793C34.1418 94.5997 34.4912 94.7045 34.8562 94.7821C33.3613 94.3628 33.2332 94.1997 33.3108 94.1415C33.3807 94.0794 33.6719 94.0716 33.0895 93.7687C33.9864 94.0522 34.5844 94.1648 34.996 94.3434C35.4153 94.4987 35.6716 94.6579 35.9395 94.821C36.2074 94.9763 36.4869 95.1743 36.9684 95.3451C37.4227 95.4966 38.0362 95.6635 38.9797 95.8383C38.3235 95.6946 37.1781 95.3102 37.9857 95.384C38.77 95.582 39.7989 95.9198 40.2804 96.0867C43.0876 96.3896 39.8805 95.8033 41.088 95.8149C42.0082 96.1993 42.478 95.8887 43.6972 95.9081V96.1411C45.2853 96.2809 45.5066 96.1644 45.6813 96.0557C45.7667 95.9974 45.8444 95.947 46.0773 95.9237C46.1938 95.912 46.3491 95.9081 46.5666 95.9198C46.7801 95.9314 47.0597 95.9431 47.4169 95.9431C47.017 96.0829 46.6132 96.176 46.2094 96.2692L46.9587 96.2537L47.7081 96.1799L47.4014 96.4634C48.2206 96.3314 48.7564 96.2731 49.2845 96.2421C49.5524 96.2304 49.8203 96.2265 50.1154 96.2265H50.5969C50.7638 96.2149 50.9502 96.2032 51.1482 96.1877C50.7638 96.0673 51.3113 95.7218 52.7052 95.5354C53.6798 95.5509 52.2004 95.8305 54.1884 95.5393C53.7652 95.7489 53.2915 96.0052 52.3985 95.8926C52.3169 95.978 51.9675 96.1023 51.8859 96.1877C52.9421 96.2032 54.5146 95.9314 55.2173 95.7295C54.9378 95.78 54.6078 95.8344 54.433 95.8383L57.2131 94.8831C57.6829 94.8792 57.3451 95.0267 57.0112 95.1743C57.3024 95.1005 57.5354 95.0112 57.8071 94.918C57.9275 94.8831 58.0556 94.8365 58.2032 94.786C59.434 94.0988 60.6221 93.3494 61.7598 92.5301H61.7637C62.5325 91.9827 63.2702 91.408 63.9885 90.8101C63.01 91.0236 62.4121 91.1867 61.6744 91.443L61.6666 91.4352ZM22.6682 86.1702L22.9245 86.4303C22.2333 85.9722 22.4469 86.077 22.6682 86.1702Z" fill="#6A81B8"/>
<path d="M28.3527 25.6147L29.2302 24.8809L28.6594 25.3468L28.3527 25.6147Z" fill="#6A81B8"/>
<path d="M30.0453 24.2131L30.2627 24.0539C30.4452 23.9102 30.6277 23.7743 30.8141 23.6423C30.6005 23.7899 30.2006 24.0966 30.0453 24.2131Z" fill="#6A81B8"/>
</g>
<path d="M54.8831 31.4464C54.7317 33.2558 53.1475 34.5992 51.3382 34.4517C49.5288 34.3041 48.1854 32.7161 48.3329 30.9067C48.4843 29.0973 50.0685 27.7539 51.8779 27.9015C53.6872 28.049 55.0307 29.6371 54.8831 31.4464Z" fill="#6A81B8"/>
<path d="M60.7853 34.8905C60.6921 36.0165 59.7058 36.8513 58.5798 36.7581C57.4538 36.6649 56.6191 35.6787 56.7122 34.5527C56.8054 33.4267 57.7916 32.5919 58.9176 32.6851C60.0436 32.7783 60.8784 33.7645 60.7853 34.8905Z" fill="#6A81B8"/>
</svg>
