<svg width="78" height="100" viewBox="0 0 78 100" fill="none" xmlns="http://www.w3.org/2000/svg">
<path d="M41.8036 15.764C35.4825 19.3051 36.9307 26.061 36.9307 26.061C36.9307 26.061 41.9356 30.8291 48.2567 27.288C54.5778 23.7469 59.6448 13.3411 59.6448 13.3411C59.6448 13.3411 48.1247 12.2229 41.8036 15.764Z" fill="#19C600"/>
<path d="M30.5127 16.661C37.3075 19.1731 36.9308 26.0728 36.9308 26.0728C36.9308 26.0728 32.7297 31.5591 25.9349 29.047C19.1401 26.5348 12.5122 17.0454 12.5122 17.0454C12.5122 17.0454 23.7178 14.1449 30.5127 16.6571V16.661Z" fill="#19C600"/>
<path d="M41.4076 5.08253C41.3533 5.11359 41.295 5.16406 41.2368 5.20289C41.1164 5.2689 40.996 5.39703 40.8718 5.51739C40.8097 5.57952 40.7437 5.62999 40.6815 5.69988L40.5029 5.92508C40.2467 6.20464 40.037 6.58127 39.8079 6.93848C39.5905 7.30734 39.4119 7.73056 39.2022 8.13437C38.4645 9.83113 38.0257 11.7803 37.6763 13.7527C37.3695 15.7407 37.1715 17.783 37.1016 19.8409C37.0822 20.8698 37.0046 21.9065 37.0356 22.9393L37.0783 26.0572L36.3678 23.0131C36.1154 21.9958 35.9679 20.963 35.7621 19.9302C35.3855 17.8607 35.1331 15.7601 35.0011 13.6129C34.9234 11.4619 34.9156 9.26814 35.3544 6.98896C35.4981 6.41819 35.6068 5.84355 35.7932 5.26113C35.9989 4.67872 36.1814 4.09242 36.492 3.50613L36.7095 3.06349C36.7871 2.91595 36.8881 2.7684 36.9774 2.62086C37.1638 2.32577 37.3463 2.03068 37.6025 1.74336C37.7229 1.59969 37.8394 1.45215 37.9714 1.30849L38.4218 0.881385C38.5616 0.741606 38.779 0.597944 38.9615 0.465931C39.0469 0.399924 39.1711 0.326151 39.3032 0.252379L39.4973 0.147545C39.4973 0.147545 39.5905 0.100952 39.6565 0.0776551L39.8545 0C39.8545 0 41.9861 1.11047 41.4076 5.07864V5.08253Z" fill="#19C600"/>
<path d="M64.1255 90.8022C63.4033 91.4001 62.6655 91.9748 61.9006 92.5222H61.8968C60.7591 93.3415 59.571 94.0909 58.3402 94.7781C54.2904 97.034 49.7437 98.5754 44.8592 99.2083L43.046 99.4413C22.4402 102.105 3.57778 87.5523 0.921977 66.9465L0.685129 65.1255C-1.85031 45.4788 11.2579 27.424 30.3416 23.483C31.2735 23.2849 32.2247 23.1219 33.1838 23.0015L34.997 22.7685C55.6028 20.105 74.4652 34.6575 77.121 55.2633L77.3579 57.0843C79.0663 70.3245 73.6654 82.8425 64.1293 90.806L64.1255 90.8022Z" fill="#FFA300"/>
<g opacity="0.1">
<path d="M61.8968 92.5222C60.7591 93.3414 59.571 94.0908 58.3402 94.778C54.2904 97.0339 49.7437 98.5754 44.8592 99.2083L43.046 99.4412C22.4402 102.105 3.57778 87.5522 0.921977 66.9465L0.685129 65.1255C-1.85031 45.4787 11.2579 27.4239 30.3416 23.4829L30.7765 23.5877C30.7765 23.5877 30.7804 23.5877 30.7881 23.5916H30.7998C30.7998 23.5916 30.8231 23.5994 30.8347 23.6033C30.8619 23.611 30.8968 23.6188 30.9396 23.6305C30.9512 23.6305 30.9551 23.6305 30.9667 23.6382C30.9396 23.6615 30.8968 23.6848 30.8619 23.712C30.7998 23.7586 30.7338 23.8052 30.6716 23.8518C30.6561 23.8634 30.6367 23.8751 30.6212 23.8867C30.2678 24.143 29.6544 24.5856 28.87 25.2301C28.8468 25.2457 28.8235 25.269 28.7963 25.2884C28.7691 25.3156 28.7341 25.3466 28.6914 25.3738C28.6293 25.4243 28.5594 25.4825 28.4895 25.5369C28.474 25.5485 28.4429 25.5718 28.4041 25.6068C20.7629 31.9279 -0.17296 52.9724 17.812 81.7631C23.3177 90.5769 41.225 99.946 61.8968 92.5222Z" fill="#683924"/>
<path d="M30.5748 23.5335C30.9281 23.6306 30.9048 23.6267 30.9631 23.6422C30.1399 23.4092 30.5942 23.5412 30.5748 23.5335Z" fill="#7D5543"/>
<path d="M11.5024 49.4043C11.5257 49.3422 11.549 49.2723 11.5723 49.2179C11.5646 49.1946 11.5374 49.2801 11.5024 49.4043Z" fill="#7D5543"/>
<path d="M25.4067 28.4453C25.232 28.6239 24.9369 28.9035 24.6768 29.1792C24.8088 29.0471 25.0262 28.8258 25.4067 28.4453Z" fill="#7D5543"/>
<path d="M27.0179 90.7012C26.9868 90.6779 26.9518 90.6507 26.9169 90.6235C26.3694 90.4061 26.5985 90.5226 27.0179 90.7012Z" fill="#7D5543"/>
<path d="M61.8157 91.4352C61.043 91.6915 60.3091 91.9283 59.6141 92.2312C59.6374 92.1962 59.6763 92.1341 59.8937 92.0215C59.5054 92.1846 59.0861 92.336 58.6551 92.4758C58.2241 92.6156 57.7815 92.7592 57.3194 92.8291C56.3953 92.9961 55.4635 93.1358 54.6054 93.2834C54.1822 93.3688 53.7628 93.3999 53.3668 93.4465C52.9785 93.4931 52.6174 93.5435 52.2913 93.6095C51.639 93.7416 51.1342 93.924 50.8508 94.192C50.1169 94.355 49.3753 94.4288 48.6298 94.5531C51.5419 94.4793 48.2182 94.9607 49.4258 95.0539C48.2648 95.1588 46.4361 94.9258 47.8494 94.8171L48.0707 94.8443C48.1988 94.7239 48.0319 94.6657 47.7174 94.6346C47.4029 94.6152 46.9447 94.6229 46.4671 94.5841C45.5081 94.5259 44.5024 94.4909 44.549 94.3395C44.1957 94.324 43.8385 94.3317 43.4852 94.2929L42.4329 94.1648C41.7302 94.0794 41.0313 94.0017 40.3401 93.8969C39.6529 93.7532 38.9734 93.6057 38.2939 93.462C37.9522 93.3882 37.6144 93.33 37.2766 93.2407L36.2827 92.9456C35.6265 92.7437 34.9625 92.5612 34.318 92.3476C33.6851 92.103 33.0522 91.8584 32.4154 91.6138C31.7748 91.3925 31.1768 91.0974 30.5672 90.8178C29.9693 90.5228 29.3403 90.2898 28.7695 89.9559C28.8977 90.1422 29.0258 90.3442 29.1656 90.5189C28.6142 90.2393 28.0862 89.9209 27.5387 89.622C27.1504 89.3191 27.0922 89.0939 28.2415 89.7384C27.9813 89.4899 27.4805 89.2609 27.0262 89.0939C26.5719 88.9425 26.2108 88.7794 26.172 88.8105C24.0792 87.2884 27.2125 89.0551 26.5564 88.6124L25.6439 88.0494L25.8303 88.2125C25.046 87.8281 24.8557 87.9563 23.621 86.9506C22.8639 86.2944 23.3298 86.4925 23.0269 86.2401C23.0502 86.2246 22.9337 86.1547 22.5688 85.8557C22.0213 85.3199 21.435 84.8151 20.9108 84.256C21.0428 84.5472 21.237 84.7918 21.4039 85.0636C21.202 84.9083 20.9846 84.7452 20.8176 84.5821C20.6546 84.4074 20.5109 84.2638 20.41 84.1589C20.2119 83.957 20.1731 83.9609 20.4333 84.454C20.3401 84.2676 20.1848 84.0308 19.9751 83.7512C19.8703 83.6115 19.7538 83.4678 19.6334 83.3047C19.5014 83.1533 19.3733 82.9786 19.2568 82.7883C19.0083 82.4156 18.7326 82.0156 18.4414 81.6041C18.158 81.1809 17.9056 80.6955 17.6338 80.2451C17.362 79.7908 17.0941 79.3365 16.8417 78.9094C16.7136 78.6959 16.5932 78.4862 16.469 78.2882C16.3641 78.0863 16.2671 77.8805 16.1739 77.6941C15.7972 76.9486 15.5177 76.3818 15.4362 76.1488C15.2342 75.8343 15.0479 75.5198 14.8615 75.2014C14.6984 74.8714 14.547 74.5258 14.3917 74.1802C14.0966 73.4697 13.7588 72.732 13.4598 71.8855C13.5647 72.3204 13.4365 72.6582 12.9784 71.1711C13.2812 71.3691 13.1065 70.678 12.8464 69.7811C12.7842 69.5598 12.7027 69.3268 12.6483 69.0822C12.5979 68.8376 12.5435 68.5891 12.4969 68.3561C12.4037 67.8785 12.3416 67.4359 12.3416 67.1175C12.3571 67.3971 12.295 67.2728 12.1979 66.9622C12.0931 66.6438 11.9611 66.1352 11.8795 65.6382C11.6815 64.6403 11.4952 63.7201 11.5029 64.6054C11.3243 63.3279 11.6427 64.5083 11.5728 63.5298C11.0331 60.5129 11.2078 56.7933 11.7708 53.0658C11.7437 53.0037 11.5728 53.6172 11.6427 52.8057L12.2484 50.8876C12.3882 50.1615 12.2018 50.1615 12.6677 48.9152C12.5823 49.0899 12.4891 49.2801 12.5979 48.8297C13.7083 45.277 15.2964 41.7981 17.296 38.5249C17.7774 37.6979 18.3404 36.9213 18.8724 36.1176C19.4432 35.3449 19.9945 34.5606 20.6041 33.8151C21.7068 32.4134 22.8949 31.0778 24.1258 29.812C24.1025 29.8353 24.0869 29.8508 24.0675 29.8625C24.1374 29.7771 24.3238 29.579 24.5373 29.35C24.4868 29.3849 24.6072 29.2412 24.6072 29.2179C25.3566 28.4724 26.1293 27.7425 26.9097 27.0319C27.1698 26.7524 28.2104 25.8516 28.9598 25.2187C29.0918 25.1022 29.1617 25.044 29.1966 25.0207C29.2044 25.0168 29.2044 25.009 29.2044 25.009C29.1811 25.0207 29.053 25.1178 28.8782 25.2459C28.8549 25.2614 28.8317 25.2847 28.8045 25.3041C28.7773 25.3313 28.7423 25.3624 28.6996 25.3895C28.6375 25.44 28.5676 25.4983 28.4977 25.5526C28.4822 25.5643 28.4511 25.5876 28.4123 25.6225C28.0279 25.9254 27.628 26.2399 27.6164 26.2399C26.4942 27.2455 24.5762 28.8102 22.9376 30.6623C22.8794 30.7244 22.8444 30.7555 22.8289 30.7672C22.8522 30.7283 23.1822 30.3556 23.0269 30.4992C22.825 30.7439 22.5959 31.0001 22.2931 31.3263C21.998 31.6563 21.6369 32.0601 21.1671 32.5882L21.2642 32.46C19.979 33.9549 19.1092 35.0693 18.2317 36.2496C17.3698 37.4455 16.4573 38.6919 15.343 40.6216L15.5798 40.377C15.1022 41.204 14.9586 41.3593 14.7411 41.7476C14.5625 42.2756 14.8343 41.6622 15.1877 41.072C15.4439 40.6294 15.7002 40.1828 15.739 40.1828C15.739 40.1984 15.7274 40.2527 15.6885 40.3459C15.5022 40.6022 15.1838 41.0914 14.846 41.7049C14.5198 42.3339 14.1315 43.0638 13.7821 43.8093C13.4559 44.5587 13.1298 45.2964 12.8619 45.8944C12.625 46.504 12.4192 46.9699 12.2872 47.1485C11.7825 48.5385 12.5357 46.7758 12.0504 48.1697L11.8757 48.523L11.8524 48.9074C11.5612 49.8315 11.3398 50.278 11.27 50.2974C11.3437 50.0761 11.4486 49.6529 11.5185 49.4083C11.4097 49.7034 11.2816 50.0644 11.1807 50.4527C11.0952 50.841 11.002 51.2487 10.9205 51.637C10.7924 52.2233 10.6953 52.7591 10.6409 53.0736C10.7147 52.6775 10.8273 52.2893 10.9244 51.901C10.6875 52.8872 10.5827 53.9511 10.408 55.0344C10.3148 55.5741 10.3031 56.1332 10.2527 56.6845C10.2177 57.2437 10.144 57.7989 10.1478 58.358V60.0276C10.1478 60.3072 10.144 60.579 10.1556 60.8546C10.1789 61.1264 10.2022 61.3943 10.2255 61.67C10.276 62.2058 10.3303 62.7339 10.3769 63.2503C10.4157 63.7667 10.5516 64.2559 10.6371 64.7374L10.6526 64.4345C10.9477 65.8944 11.002 66.4924 11.1418 67.1097C11.2001 67.4242 11.2622 67.7426 11.3515 68.1853C11.402 68.4066 11.4563 68.6551 11.5262 68.9541C11.5883 69.2491 11.6776 69.5869 11.8174 69.9713L11.7669 69.8665C12.0349 70.4644 12.3377 71.2837 12.5979 72.1457C12.4309 71.7613 12.5124 72.1457 12.5746 72.5068C12.66 72.8562 12.7376 73.1707 12.493 72.6815C13.1609 74.1647 13.3433 74.5258 13.4792 74.7432C13.6346 74.9646 13.6928 75.0733 14.2869 75.9741L14.3839 76.4672C14.8071 77.0651 14.8887 77.0962 15.6381 78.5367C14.9469 77.3913 15.906 79.5656 15.1139 78.2921C15.1877 78.494 15.2692 78.6881 15.3391 78.8745C15.4323 79.0531 15.5177 79.2278 15.607 79.3987C15.7817 79.7287 15.9487 80.0393 16.1195 80.3305C16.4573 80.9013 16.7718 81.3828 17.0553 81.8176C17.3232 82.2603 17.6649 82.6213 17.8939 82.9902C18.1424 83.3513 18.3172 83.7357 18.4919 84.1123C18.8336 84.3492 18.8918 84.3142 18.7986 84.1395C18.752 84.0541 18.6666 83.9376 18.554 83.7978C18.4608 83.6464 18.3443 83.4794 18.2278 83.297C17.8745 82.7689 17.4668 82.2098 17.4202 82.1166C17.4319 82.1166 17.4552 82.1438 17.494 82.1904C17.3387 81.8487 17.5872 82.0816 17.9522 82.5049C18.3249 82.9164 18.7598 83.5687 19.1248 83.9648C19.4859 84.3764 19.6955 84.8151 20.0489 85.4131C20.2469 85.6965 20.4837 86.011 20.806 86.3799C21.1011 86.706 21.4389 87.1254 21.9203 87.5136C21.8116 87.4321 21.7534 87.4088 21.5903 87.2768C21.9631 87.6495 22.394 87.9407 22.8328 88.2552C23.2677 88.5736 23.7219 88.9192 24.2151 89.3346C24.9605 89.5132 25.5857 90.2704 25.9429 90.1034L23.7802 88.7561C24.4092 89.1211 25.0537 89.4084 25.7759 89.785C26.4981 90.1578 27.3446 90.5228 28.323 91.1906C28.1328 91.1673 27.4727 90.9072 27.0262 90.7091C27.5892 91.1285 28.2104 91.3304 28.8161 91.7186C28.6375 91.8468 27.9425 91.4935 27.1232 91.0314C26.7117 90.8062 26.2574 90.5616 25.8264 90.3209C25.4032 90.0607 24.9955 89.8277 24.6344 89.6569C24.914 89.9248 25.5468 90.3014 26.0361 90.5461C26.5253 90.7829 26.832 90.9538 26.401 90.9227C27.0106 90.9926 27.5969 91.342 28.2687 91.7497C28.9559 92.1147 29.7441 92.5224 30.6682 92.7476L30.4702 92.8912C30.6138 92.9378 30.8313 93.0116 31.0875 93.0815C31.3438 93.1436 31.6234 93.2252 31.8796 93.3261C31.5379 93.2912 31.1885 93.2679 30.8468 93.229C31.6078 93.396 32.2834 93.6989 32.9435 94.0211C33.2735 94.1764 33.5997 94.3589 33.9414 94.4793C34.2908 94.5997 34.6403 94.7045 35.0052 94.7821C33.5104 94.3628 33.3822 94.1997 33.4599 94.1415C33.5298 94.0794 33.821 94.0716 33.2386 93.7687C34.1355 94.0522 34.7334 94.1648 35.145 94.3434C35.5643 94.4987 35.8206 94.6579 36.0885 94.821C36.3564 94.9763 36.636 95.1743 37.1175 95.3451C37.5717 95.4966 38.1852 95.6635 39.1287 95.8383C38.4725 95.6946 37.3271 95.3102 38.1347 95.384C38.919 95.582 39.948 95.9198 40.4294 96.0867C43.2367 96.3896 40.0295 95.8033 41.2371 95.8149C42.1573 96.1993 42.6271 95.8887 43.8463 95.9081V96.1411C45.4343 96.2809 45.6556 96.1644 45.8303 96.0557C45.9158 95.9974 45.9934 95.947 46.2264 95.9237C46.3429 95.912 46.4982 95.9081 46.7156 95.9198C46.9292 95.9314 47.2087 95.9431 47.5659 95.9431C47.166 96.0829 46.7622 96.176 46.3584 96.2692L47.1078 96.2537L47.8571 96.1799L47.5504 96.4634C48.3697 96.3314 48.9055 96.2731 49.4335 96.2421C49.7015 96.2304 49.9694 96.2265 50.2645 96.2265H50.7459C50.9129 96.2149 51.0992 96.2032 51.2973 96.1877C50.9129 96.0673 51.4603 95.7218 52.8543 95.5354C53.8288 95.5509 52.3495 95.8305 54.3375 95.5393C53.9142 95.7489 53.4405 96.0052 52.5475 95.8926C52.466 95.978 52.1165 96.1023 52.035 96.1877C53.0911 96.2032 54.6636 95.9314 55.3664 95.7295C55.0868 95.78 54.7568 95.8344 54.5821 95.8383L57.3621 94.8831C57.8319 94.8792 57.4941 95.0267 57.1602 95.1743C57.4514 95.1005 57.6844 95.0112 57.9562 94.918C58.0766 94.8831 58.2047 94.8365 58.3522 94.786C59.5831 94.0988 60.7712 93.3494 61.9088 92.5301H61.9127C62.6815 91.9827 63.4192 91.408 64.1375 90.8101C63.1591 91.0236 62.5611 91.1867 61.8234 91.443L61.8157 91.4352ZM22.8173 86.1702L23.0735 86.4303C22.3824 85.9722 22.5959 86.077 22.8173 86.1702Z" fill="#7D5543"/>
<path d="M28.5017 25.6147L29.3792 24.8809L28.8084 25.3468L28.5017 25.6147Z" fill="#7D5543"/>
<path d="M30.1942 24.2131L30.4116 24.0539C30.5941 23.9102 30.7766 23.7743 30.963 23.6423C30.7494 23.7899 30.3495 24.0966 30.1942 24.2131Z" fill="#7D5543"/>
</g>
<path d="M55.032 31.4464C54.8806 33.2558 53.2964 34.5992 51.487 34.4517C49.6777 34.3041 48.3342 32.7161 48.4818 30.9067C48.6332 29.0973 50.2174 27.7539 52.0267 27.9015C53.8361 28.049 55.1795 29.6371 55.032 31.4464Z" fill="white"/>
<path d="M60.9341 34.8905C60.8409 36.0165 59.8547 36.8513 58.7287 36.7581C57.6027 36.6649 56.7679 35.6787 56.8611 34.5527C56.9543 33.4267 57.9405 32.5919 59.0665 32.6851C60.1925 32.7783 61.0273 33.7645 60.9341 34.8905Z" fill="white"/>
</svg>
