<svg width="100" height="67" viewBox="0 0 100 67" fill="none" xmlns="http://www.w3.org/2000/svg">
<path d="M37.4837 10.1876C37.8436 10.3703 38.2145 10.5308 38.5689 10.7302C55.914 20.4463 73.2591 30.168 90.6042 39.8841C91.1523 40.1886 91.6949 40.4987 92.2374 40.8087C92.5586 40.9914 92.8797 41.1741 93.0513 41.5284C93.1122 42.5028 92.7966 42.8793 91.7613 42.9789C90.8811 43.062 89.9953 42.9955 89.115 43.0398C87.4209 43.1173 86.0258 43.8758 84.7746 44.9554C83.9773 45.1381 83.3407 44.7118 82.704 44.363C78.8341 42.2371 74.9643 40.1111 71.1 37.9741C67.1083 35.7707 63.1111 33.5728 59.1195 31.3638C52.1383 27.4995 45.1293 23.6795 38.1481 19.8041C36.2492 18.7522 34.3502 17.7003 32.4291 16.6872C31.8478 16.3771 31.2112 16.1225 31.0174 15.3862C30.9731 14.9488 31.1779 14.6055 31.4603 14.3121C32.9108 12.8063 34.5329 11.5108 36.3322 10.4533C36.681 10.2485 37.0519 10.0824 37.4782 10.1931L37.4837 10.1876Z" fill="#6A81B8"/>
<path d="M37.4838 10.1877C37.29 10.4756 36.991 10.6195 36.7031 10.7856C34.616 12.0036 32.7945 13.5371 31.189 15.3419C31.117 16.261 30.4527 16.8312 29.9267 17.4789C27.0368 21.0554 25.1213 25.0858 24.2133 29.5923C24.0749 29.9743 24.0029 30.4006 23.5379 30.5556C22.951 30.6276 22.3642 30.6276 21.7774 30.6165C19.9172 30.5722 18.9705 29.6477 18.8099 27.7875C18.6051 25.4179 19.12 23.1868 20.0611 21.0388C20.2494 20.6014 20.4542 20.1696 20.5206 19.5938C20.1165 19.7045 20.0002 20.0312 19.8397 20.2692C18.8044 21.7862 17.8521 23.3585 16.9885 24.9806C16.7117 25.4955 16.4183 26.1321 15.7041 25.9716C14.9733 25.811 14.8847 25.1356 14.8238 24.4823C14.5359 21.1772 15.5103 18.171 16.9885 15.281C17.5698 14.1461 18.3393 13.0831 18.4833 11.76C19.668 9.46796 21.5393 7.76832 23.4216 6.07976C24.0472 5.5206 24.706 4.98912 25.4534 4.58497C25.8797 4.35245 26.295 4.10331 26.7766 4.44656C27.2583 4.2694 27.7399 4.09224 28.2326 3.94276C29.6942 3.51093 31.7925 4.23618 32.5675 5.6424C32.8111 6.07976 33.1433 6.22924 33.6194 6.31782C34.8097 6.53374 35.8339 7.05414 36.6533 7.99531C37.218 8.64305 37.5557 9.32955 37.4782 10.1987L37.4838 10.1877Z" fill="#6A81B8"/>
<path d="M79.5093 66.7628C78.9944 66.796 78.5958 66.5081 78.1806 66.2811C71.8969 62.8763 65.6133 59.4771 59.3296 56.0723C47.7311 49.7941 36.1382 43.5105 24.5397 37.2323C24.3459 37.1272 24.1411 37.0441 23.9418 36.95C22.7017 35.7154 22.9176 34.2206 23.1833 32.7147C23.7093 32.0615 24.3016 32.3881 24.8829 32.6151C27.8006 33.7777 30.4967 35.3722 33.2593 36.8393C36.5755 38.5943 39.8585 40.4102 43.1637 42.1818C50.4882 46.1125 57.8293 50.01 65.115 54.0238C68.852 56.0833 72.6166 58.0875 76.2761 60.2854C76.9792 60.7061 77.5107 61.3262 78.1917 61.7635C78.9557 62.7933 79.5591 63.9227 80.1626 65.0466C80.6775 66.0043 80.4671 66.4362 79.5093 66.7628Z" fill="#6A81B8"/>
<path d="M84.559 44.7783C84.9355 44.3741 85.2566 43.9312 85.7106 43.5935C86.7348 42.824 87.9195 42.6136 89.1486 42.5638C89.8849 42.5305 90.6212 42.5416 91.3575 42.525C91.6122 42.5195 91.8724 42.4973 92.1271 42.453C92.6475 42.3645 93.0074 42.0932 93.0572 41.5229C93.4281 41.7167 93.6551 42.06 93.9042 42.37C95.388 44.208 96.5063 46.2675 97.4142 48.4322C97.8793 49.545 98.2723 50.691 98.6931 51.8204C98.5326 52.3962 98.0897 52.7173 97.6135 53.0052C95.0226 54.5719 93.2177 56.8086 92.0274 59.5601C91.8503 59.9643 91.651 60.3573 91.2357 60.5788C90.5769 61.1047 89.7742 61.2542 88.9825 61.3262C85.4614 61.6362 82.1286 61.0494 79.0947 59.1504C78.602 58.8404 78.065 58.5636 77.9598 57.8937C78.148 56.7643 79.1113 56.6702 79.9473 56.4709C80.9438 56.2328 81.9846 56.2051 82.9867 55.9449C85.096 55.3858 85.9099 53.9906 85.3894 51.8758C84.9687 50.1595 83.9832 48.6315 83.7618 46.8544C83.6566 46.0129 83.6621 45.2212 84.5645 44.7727L84.559 44.7783Z" fill="#6A81B8"/>
<path d="M26.7767 4.44106C25.9795 4.74555 25.2819 5.22167 24.612 5.73654C22.4861 7.39189 20.6425 9.32958 19.0315 11.4832C18.965 11.5718 18.9318 11.677 18.882 11.7711C17.4647 14.4229 16.0862 17.097 14.7962 19.8208C14.6689 20.0921 14.4585 20.3025 14.1706 20.4243C13.4841 20.6236 12.9637 20.2748 12.4544 19.9039C8.36309 16.9087 6.22055 12.7897 5.53959 7.84586C5.38458 6.71093 4.84756 5.56492 5.51745 4.41891C7.54926 2.07707 10.0959 0.609958 13.1464 0.122766C14.68 -0.12083 16.2246 0.017577 17.7471 0.366362C19.4079 0.742828 20.9913 1.32967 22.5359 2.03278C23.7761 2.59748 24.9774 3.23415 26.1954 3.84314C26.4556 3.97601 26.749 4.08673 26.7767 4.44106Z" fill="#6A81B8"/>
<path d="M5.52282 4.41895C5.81624 6.794 6.17056 9.15799 6.89028 11.4445C7.64321 13.8361 8.89441 15.9344 10.6937 17.7005C11.3802 18.3703 12.0667 19.0347 12.8584 19.5828C13.2459 19.8541 13.6058 20.2028 14.1317 20.1807C14.6023 20.6347 14.3642 21.144 14.1926 21.6146C13.2791 24.1447 12.6868 26.7467 12.4487 29.4207C12.4155 29.7972 12.3601 30.1515 12.0058 30.3785C11.9061 31.4747 11.8951 31.4913 10.9927 30.982C8.77815 29.7363 6.61347 28.4131 4.73113 26.6858C2.53877 24.6651 1.0163 22.2402 0.462671 19.2672C-0.124173 16.1282 0.407308 13.1164 1.59761 10.2099C2.41144 8.2279 3.48547 6.38432 5.03009 4.85631C5.18511 4.7013 5.35673 4.56289 5.52282 4.41895Z" fill="#6A81B8"/>
<path d="M12.0059 30.3784C11.9173 28.3687 12.2938 26.4255 12.7644 24.4878C13.1187 23.0207 13.6557 21.6089 14.1263 20.1806C14.2813 19.8484 14.4419 19.5218 14.5914 19.1841C15.6432 16.7481 16.9775 14.4727 18.4723 12.2859C18.5941 12.1032 18.7491 11.9426 18.8875 11.771C19.0204 11.9869 18.9484 12.1918 18.8487 12.3966C18.6328 12.8229 18.4335 13.2603 18.2065 13.681C17.4536 15.0817 16.8446 16.5433 16.2854 18.027C15.4827 20.1529 15.1173 22.3563 15.3 24.6373C15.3221 24.9362 15.3886 25.2186 15.527 25.4843C15.6599 25.739 15.8758 25.7778 16.0363 25.5508C16.2246 25.2795 16.4128 25.0027 16.5623 24.7093C17.5034 22.91 18.583 21.1993 19.7124 19.5162C19.9394 19.1785 20.2051 18.874 20.5318 18.6249C20.803 18.4201 21.1408 18.5529 21.2183 18.8796C21.2958 19.2173 21.2238 19.5328 21.0965 19.8484C20.8307 20.4962 20.6093 21.1605 20.3103 21.7972C19.8563 22.7771 19.6072 23.8179 19.3858 24.8587C19.1588 25.9106 19.2418 26.9902 19.3193 28.0532C19.3415 28.3743 19.4854 28.6954 19.6072 28.9999C19.9006 29.7196 20.4543 30.096 21.2293 30.1293C21.6722 30.1459 22.1151 30.1348 22.558 30.1348C22.8902 30.1348 23.2279 30.1348 23.4992 30.3673C24.1691 31.1092 24.0971 31.84 23.466 32.5597C23.322 33.6835 23.4494 34.7908 23.7373 35.8814C23.8314 36.2302 23.9476 36.5735 23.931 36.9389C23.3276 37.7361 22.475 37.9354 21.567 37.8136C20.1442 37.6254 18.8598 37.0994 17.9519 35.9036C17.7193 35.5991 17.4813 35.4939 17.0993 35.5991C16.8225 35.6766 16.518 35.6711 16.2246 35.6988C14.9125 35.8095 13.9547 35.1839 13.2073 34.1929C12.5762 33.3569 12.172 32.4157 12.1831 31.3362C12.1831 31.0095 12.1941 30.6663 12.0004 30.3729L12.0059 30.3784Z" fill="#6A81B8"/>
<path d="M91.2022 60.2244C91.2686 60.0971 91.3516 59.9753 91.407 59.8424C92.8021 56.2273 95.2326 53.5588 98.6927 51.8259C99.0969 53.3152 99.4734 54.8044 99.6948 56.338C99.8554 57.4397 99.8886 58.5359 99.8111 59.6321C99.6948 61.2985 98.9529 62.6438 97.5523 63.6071C96.7883 64.1275 95.9689 64.5372 95.1108 64.8694C93.9426 65.3233 92.7357 65.6389 91.5177 65.9213C91.1911 65.9988 90.8645 66.0652 90.571 65.8272C90.2222 65.6777 90.0949 65.3787 90.0783 65.0299C89.9953 63.3248 89.9897 61.6362 91.1966 60.23L91.2022 60.2244Z" fill="#6A81B8"/>
<path d="M91.2021 60.2246C91.0582 60.8613 90.8976 61.4924 90.7703 62.1291C90.5267 63.3471 90.4935 64.5816 90.5765 65.8218C90.4824 66.0377 90.3495 66.1761 90.0949 66.2093C89.3364 66.309 88.5779 66.4529 87.8194 66.5359C85.0568 66.8294 82.2887 66.9955 79.5095 66.7629C80.1628 66.1318 80.2237 65.9712 79.7919 65.2958C79.1054 64.2273 78.4964 63.1145 77.904 61.9962C77.2175 61.0938 76.5033 60.2025 76.8798 58.9457C77.1012 58.3589 77.223 57.6613 78.1088 57.7886C78.8175 58.5637 79.7531 59.0177 80.661 59.4606C82.1115 60.1692 83.6728 60.6454 85.2728 60.8281C86.6125 60.9775 87.9745 60.9997 89.3198 60.7616C89.9675 60.6454 90.6319 60.6121 91.2021 60.2301V60.2246Z" fill="#6A81B8"/>
<path d="M78.1088 57.7885C77.605 57.9768 77.4888 58.4806 77.223 58.8681C76.5698 59.2667 76.0881 58.7851 75.6064 58.5027C72.6003 56.7145 69.5664 54.9816 66.5104 53.282C62.5519 51.0841 58.588 48.8973 54.624 46.7105C46.6961 42.3313 38.7072 38.0739 30.7793 33.7058C28.8471 32.6428 26.9094 31.5798 24.9551 30.5445C24.4679 30.2843 23.9475 30.0518 23.8811 29.393C23.7371 28.9778 23.9088 28.5902 24.0084 28.2082C24.9939 24.3384 26.7046 20.8229 29.1738 17.6783C29.8104 16.87 30.3917 16.0118 31.1945 15.353C31.4159 15.6188 31.7315 15.7295 32.0194 15.89C49.3645 25.4456 66.7152 34.9957 84.0659 44.5458C84.2264 44.6344 84.3925 44.7119 84.5586 44.7894C84.542 44.8613 84.542 44.9389 84.5143 45.0053C84.0659 45.9686 84.1489 46.9319 84.4977 47.8952C84.7634 48.6205 85.0347 49.3347 85.3171 50.0544C85.616 50.8073 85.8707 51.5713 86.0036 52.3685C86.3247 54.3118 85.4444 55.7457 83.5621 56.3491C82.5434 56.6757 81.4749 56.7366 80.423 56.9138C79.8417 57.0135 79.277 57.1519 78.7289 57.3789C78.4964 57.4785 78.2472 57.5615 78.1033 57.7996L78.1088 57.7885Z" fill="#6A81B8"/>
<path d="M80.2847 38.5444C79.9248 38.5555 79.5871 38.4005 79.266 38.2288C78.3581 37.7361 77.4446 37.26 76.5532 36.7451C73.9733 35.2503 71.399 33.7445 68.8301 32.2386C64.8939 29.93 60.9576 27.6158 57.0933 25.1854C55.9085 24.4435 54.7127 23.7183 53.539 22.9487C52.2767 22.1183 51.0421 21.2491 49.7965 20.3965C49.7079 20.3356 49.6193 20.2637 49.5529 20.1806C49.5196 20.1363 49.5086 20.0256 49.5418 19.9924C49.5805 19.9536 49.6802 19.9315 49.7356 19.9536C50.0068 20.0699 50.2726 20.1972 50.5383 20.3246C53.0407 21.5757 55.5542 22.8103 58.051 24.0892C59.424 24.7923 60.7638 25.5674 62.1202 26.3148C62.9894 26.7909 63.8641 27.267 64.7333 27.7487C66.9257 28.9556 69.1236 30.157 71.3049 31.386C73.0986 32.3936 74.8758 33.44 76.664 34.4697C77.81 35.1285 78.9615 35.7873 80.1186 36.4406C80.4065 36.6067 80.6999 36.7673 80.9158 37.0275C81.0321 37.1659 81.1373 37.3264 81.1926 37.4981C81.3864 38.1181 81.0044 38.5721 80.2958 38.5555L80.2847 38.5444Z" fill="#6A81B8"/>
<path d="M85.6439 40.2386C85.6272 40.9528 84.7802 41.5507 84.0549 41.3458C83.446 41.1742 83.0418 40.7701 82.8646 40.1611C82.7539 39.7846 82.8923 39.4137 83.2024 39.1922C83.828 38.7438 85.0459 38.9763 85.4722 39.6185C85.5996 39.8123 85.6494 40.0171 85.6494 40.2441L85.6439 40.2386Z" fill="#6A81B8"/>
<path d="M23.8755 29.3875C36.8913 36.5016 49.9126 43.6046 62.9228 50.7298C67.3131 53.1325 71.7144 55.5242 75.9662 58.165C76.3704 58.4141 76.8022 58.63 77.2174 58.8625C77.1676 59.9643 77.5607 60.9719 77.8984 61.9905C76.6694 60.9774 75.2576 60.2521 73.9012 59.4494C72.3178 58.5138 70.7068 57.6224 69.1068 56.7255C68.2099 56.2217 67.302 55.7346 66.394 55.2474C65.1595 54.5885 63.9193 53.9463 62.6903 53.2764C60.7526 52.219 58.8315 51.1339 56.8993 50.0709C55.9028 49.5229 54.8731 49.0246 53.8821 48.4599C52.3817 47.6018 50.8205 46.8488 49.298 46.0295C47.7091 45.1769 46.1313 44.3077 44.5479 43.4496C43.5459 42.907 42.5161 42.4143 41.5307 41.8385C40.1632 41.0468 38.7348 40.3548 37.3397 39.6074C35.9169 38.8379 34.4996 38.0517 33.0823 37.2766C32.9882 37.2213 32.8885 37.1714 32.7889 37.1161C30.7294 36.0476 28.681 34.9569 26.6104 33.9272C25.5917 33.4179 24.5232 33.0192 23.4769 32.5708C23.344 31.84 23.5655 31.1092 23.5101 30.3784C23.7426 30.0906 23.5876 29.6532 23.881 29.3875H23.8755Z" fill="#6A81B8"/>
<path d="M31.4435 7.12614C31.2552 7.49707 30.9341 7.75174 30.6463 8.03963C29.6331 9.0583 28.6255 10.0825 27.5958 11.079C26.6159 12.0313 25.7854 13.1053 24.9051 14.1406C24.2906 14.8714 23.5764 15.5136 22.901 16.189C22.829 16.261 22.7128 16.2942 22.6131 16.3385C22.4858 16.3939 22.2699 16.2665 22.2865 16.1392C22.3086 15.9565 22.3363 15.7738 22.3917 15.6022C22.6796 14.7994 23.0339 14.0022 23.6097 13.3877C24.5287 12.3967 25.3093 11.2894 26.4055 10.4258C27.5626 9.51781 28.7362 8.63201 29.9598 7.81818C30.4193 7.51368 30.8899 7.22026 31.449 7.12061L31.4435 7.12614Z" fill="#6A81B8"/>
<path d="M31.4497 7.13298L31.4952 7.08179L31.444 7.12729L31.4497 7.13298Z" fill="#6A81B8"/>
<path d="M13.1685 1.82243C14.4031 1.78368 15.4661 2.11586 16.3962 2.85218C17.0494 3.37259 17.3705 4.02587 17.2764 4.86738C17.2155 5.41547 16.9609 5.81962 16.4737 6.10197C15.7595 6.51719 15.001 6.52826 14.2315 6.40646C13.1076 6.23484 11.9893 6.04661 10.8543 6.01339C10.3948 6.00232 9.99623 5.83069 9.61422 5.59817C9.08274 5.27707 8.86129 4.69022 9.04952 4.08123C9.28758 3.28955 9.87443 2.76914 10.5775 2.43142C11.4024 2.03281 12.2772 1.72278 13.1685 1.81136V1.82243Z" fill="#6A81B8"/>
<path d="M19.535 6.23481C18.7876 6.25142 18.3004 5.93032 18.1122 5.28257C17.9682 4.77877 18.1731 4.20854 18.6492 3.97048C19.1696 3.71581 19.7177 3.6992 20.2215 4.0203C20.7419 4.35248 20.9246 4.90611 20.7363 5.4542C20.5647 5.94693 20.1495 6.2182 19.535 6.23481Z" fill="#6A81B8"/>
<path d="M7.08381 22.5612C7.05613 23.3418 6.425 23.9397 5.62777 23.8733C5.02432 23.8235 4.49284 23.5965 4.20495 22.9986C3.91707 22.3896 3.9226 21.7917 4.288 21.227C4.61464 20.7121 5.26792 20.5349 5.83262 20.7785C6.5634 21.0996 7.11149 21.8747 7.08381 22.5612Z" fill="#6A81B8"/>
<path d="M3.34698 12.7953C3.34698 12.369 3.39681 12.0867 3.56844 11.8375C3.76774 11.5552 4.03348 11.3614 4.39334 11.4057C5.06876 11.4832 5.68329 12.4908 5.48398 13.1607C5.29575 13.7752 4.61479 14.1296 4.00026 13.9192C3.70684 13.8195 3.49646 13.6147 3.41342 13.3157C3.35806 13.1109 3.35806 12.8839 3.34698 12.7953Z" fill="#6A81B8"/>
<path d="M8.78892 19.5385C9.34808 19.5606 9.73562 19.9482 9.74116 20.5073C9.74669 21.0056 9.41452 21.3045 8.90518 21.2658C8.35155 21.2215 7.99169 20.8063 8.0083 20.2416C8.02491 19.7931 8.32387 19.5163 8.78892 19.5329V19.5385Z" fill="#6A81B8"/>
<path d="M10.3614 24.0394C10.3392 24.3772 10.0624 24.6817 9.73024 24.7647C9.44789 24.8367 9.23197 24.7204 9.06035 24.5045C8.99391 24.4159 8.92194 24.3329 8.86658 24.2388C8.65066 23.89 8.64513 23.5467 8.8389 23.3142C9.04374 23.0651 9.53647 22.9876 9.85757 23.1703C10.2064 23.3696 10.3503 23.6962 10.3724 24.0394H10.3614Z" fill="#6A81B8"/>
<path d="M2.89276 16.4161C2.92044 16.261 2.92598 16.1116 2.97581 15.9842C3.07546 15.724 3.27476 15.5856 3.55711 15.5801C3.82839 15.5801 4.07752 15.7296 4.15503 15.9676C4.27129 16.333 4.23807 16.6763 3.97233 16.9808C3.68445 17.3074 3.14743 17.2354 2.99241 16.8368C2.94259 16.7039 2.92598 16.56 2.8983 16.4216L2.89276 16.4161Z" fill="#6A81B8"/>
<path d="M7.74858 17.9054C7.73751 18.3095 7.48284 18.5974 7.16727 18.5642C6.7742 18.5199 6.45863 18.1268 6.48077 17.706C6.49738 17.3573 6.7908 17.1081 7.15066 17.1303C7.5382 17.158 7.75965 17.4514 7.74858 17.9054Z" fill="#6A81B8"/>
</svg>
