<svg width="100" height="67" viewBox="0 0 100 67" fill="none" xmlns="http://www.w3.org/2000/svg">
<path d="M37.6327 10.1876C37.9925 10.3703 38.3635 10.5308 38.7178 10.7302C56.0629 20.4463 73.408 30.168 90.7532 39.8841C91.3013 40.1886 91.8438 40.4987 92.3864 40.8087C92.7075 40.9914 93.0286 41.1741 93.2002 41.5284C93.2611 42.5028 92.9455 42.8793 91.9103 42.9789C91.03 43.062 90.1442 42.9955 89.2639 43.0398C87.5698 43.1173 86.1747 43.8758 84.9235 44.9554C84.1263 45.1381 83.4896 44.7118 82.8529 44.363C78.9831 42.2371 75.1132 40.1111 71.2489 37.9741C67.2573 35.7707 63.2601 33.5728 59.2684 31.3638C52.2872 27.4995 45.2783 23.6795 38.297 19.8041C36.3981 18.7522 34.4991 17.7003 32.5781 16.6872C31.9968 16.3771 31.3601 16.1225 31.1663 15.3862C31.122 14.9488 31.3269 14.6055 31.6092 14.3121C33.0597 12.8063 34.6818 11.5108 36.4811 10.4533C36.8299 10.2485 37.2008 10.0824 37.6271 10.1931L37.6327 10.1876Z" fill="#FFCF00"/>
<path d="M37.6327 10.1877C37.439 10.4756 37.14 10.6195 36.8521 10.7856C34.765 12.0036 32.9435 13.5371 31.338 15.3419C31.266 16.261 30.6017 16.8312 30.0757 17.4789C27.1858 21.0554 25.2703 25.0858 24.3623 29.5923C24.2239 29.9743 24.1519 30.4006 23.6869 30.5556C23.1 30.6276 22.5132 30.6276 21.9263 30.6165C20.0662 30.5722 19.1195 29.6477 18.9589 27.7875C18.7541 25.4179 19.2689 23.1868 20.2101 21.0388C20.3983 20.6014 20.6032 20.1696 20.6696 19.5938C20.2655 19.7045 20.1492 20.0312 19.9887 20.2692C18.9534 21.7862 18.0011 23.3585 17.1375 24.9806C16.8607 25.4955 16.5672 26.1321 15.8531 25.9716C15.1223 25.811 15.0337 25.1356 14.9728 24.4823C14.6849 21.1772 15.6593 18.171 17.1375 15.281C17.7188 14.1461 18.4883 13.0831 18.6323 11.76C19.817 9.46796 21.6883 7.76832 23.5706 6.07976C24.1962 5.5206 24.855 4.98912 25.6024 4.58497C26.0287 4.35245 26.4439 4.10331 26.9256 4.44656C27.4073 4.2694 27.8889 4.09224 28.3816 3.94276C29.8432 3.51093 31.9415 4.23618 32.7165 5.6424C32.9601 6.07976 33.2923 6.22924 33.7684 6.31782C34.9587 6.53374 35.9829 7.05414 36.8023 7.99531C37.367 8.64305 37.7047 9.32955 37.6272 10.1987L37.6327 10.1877Z" fill="#0044A4"/>
<path d="M79.6583 66.7628C79.1434 66.796 78.7448 66.5081 78.3296 66.2811C72.0459 62.8763 65.7623 59.4771 59.4786 56.0723C47.8801 49.7941 36.2872 43.5105 24.6887 37.2323C24.4949 37.1272 24.2901 37.0441 24.0908 36.95C22.8506 35.7154 23.0666 34.2206 23.3323 32.7147C23.8582 32.0615 24.4506 32.3881 25.0319 32.6151C27.9495 33.7777 30.6457 35.3722 33.4083 36.8393C36.7245 38.5943 40.0075 40.4102 43.3127 42.1818C50.6372 46.1125 57.9783 50.01 65.264 54.0238C69.001 56.0833 72.7656 58.0875 76.4251 60.2854C77.1282 60.7061 77.6597 61.3262 78.3407 61.7635C79.1047 62.7933 79.7081 63.9227 80.3116 65.0466C80.8264 66.0043 80.6161 66.4362 79.6583 66.7628Z" fill="#FFB200"/>
<path d="M84.708 44.7783C85.0845 44.3741 85.4056 43.9312 85.8595 43.5935C86.8838 42.824 88.0685 42.6136 89.2976 42.5638C90.0339 42.5305 90.7702 42.5416 91.5065 42.525C91.7612 42.5195 92.0214 42.4973 92.2761 42.453C92.7965 42.3645 93.1563 42.0932 93.2062 41.5229C93.5771 41.7167 93.8041 42.06 94.0532 42.37C95.5369 44.208 96.6553 46.2675 97.5632 48.4322C98.0283 49.545 98.4213 50.691 98.8421 51.8204C98.6815 52.3962 98.2386 52.7173 97.7625 53.0052C95.1715 54.5719 93.3667 56.8086 92.1764 59.5601C91.9993 59.9643 91.8 60.3573 91.3847 60.5788C90.7259 61.1047 89.9232 61.2542 89.1315 61.3262C85.6104 61.6362 82.2776 61.0494 79.2437 59.1504C78.751 58.8404 78.214 58.5636 78.1088 57.8937C78.297 56.7643 79.2603 56.6702 80.0963 56.4709C81.0928 56.2328 82.1336 56.2051 83.1357 55.9449C85.245 55.3858 86.0588 53.9906 85.5384 51.8758C85.1177 50.1595 84.1322 48.6315 83.9108 46.8544C83.8056 46.0129 83.8111 45.2212 84.7135 44.7727L84.708 44.7783Z" fill="#FFDBCA"/>
<path d="M26.9256 4.44106C26.1284 4.74555 25.4308 5.22167 24.7609 5.73654C22.635 7.39189 20.7914 9.32958 19.1803 11.4832C19.1139 11.5718 19.0807 11.677 19.0309 11.7711C17.6136 14.4229 16.235 17.097 14.9451 19.8208C14.8178 20.0921 14.6074 20.3025 14.3195 20.4243C13.633 20.6236 13.1126 20.2748 12.6033 19.9039C8.51195 16.9087 6.36942 12.7897 5.68846 7.84586C5.53344 6.71093 4.99642 5.56492 5.66631 4.41891C7.69812 2.07707 10.2448 0.609958 13.2953 0.122766C14.8288 -0.12083 16.3735 0.017577 17.8959 0.366362C19.5568 0.742828 21.1402 1.32967 22.6848 2.03278C23.9249 2.59748 25.1263 3.23415 26.3443 3.84314C26.6045 3.97601 26.8979 4.08673 26.9256 4.44106Z" fill="#FF6ECB"/>
<path d="M5.67175 4.41895C5.96517 6.794 6.31949 9.15799 7.0392 11.4445C7.79214 13.8361 9.04333 15.9344 10.8426 17.7005C11.5291 18.3703 12.2156 19.0347 13.0073 19.5828C13.3948 19.8541 13.7547 20.2028 14.2806 20.1807C14.7512 20.6347 14.5132 21.144 14.3415 21.6146C13.4281 24.1447 12.8357 26.7467 12.5976 29.4207C12.5644 29.7972 12.509 30.1515 12.1547 30.3785C12.0551 31.4747 12.044 31.4913 11.1416 30.982C8.92707 29.7363 6.76239 28.4131 4.88006 26.6858C2.6877 24.6651 1.16522 22.2402 0.611597 19.2672C0.0247525 16.1282 0.556234 13.1164 1.74653 10.2099C2.56036 8.2279 3.6344 6.38432 5.17902 4.85631C5.33403 4.7013 5.50566 4.56289 5.67175 4.41895Z" fill="#FF4FC0"/>
<path d="M12.1548 30.3784C12.0663 28.3687 12.4427 26.4255 12.9133 24.4878C13.2676 23.0207 13.8046 21.6089 14.2752 20.1806C14.4302 19.8484 14.5908 19.5218 14.7403 19.1841C15.7922 16.7481 17.1264 14.4727 18.6212 12.2859C18.743 12.1032 18.898 11.9426 19.0364 11.771C19.1693 11.9869 19.0973 12.1918 18.9977 12.3966C18.7818 12.8229 18.5824 13.2603 18.3555 13.681C17.6025 15.0817 16.9935 16.5433 16.4344 18.027C15.6316 20.1529 15.2662 22.3563 15.4489 24.6373C15.4711 24.9362 15.5375 25.2186 15.6759 25.4843C15.8088 25.739 16.0247 25.7778 16.1852 25.5508C16.3735 25.2795 16.5617 25.0027 16.7112 24.7093C17.6524 22.91 18.7319 21.1993 19.8613 19.5162C20.0883 19.1785 20.3541 18.874 20.6807 18.6249C20.952 18.4201 21.2897 18.5529 21.3672 18.8796C21.4447 19.2173 21.3727 19.5328 21.2454 19.8484C20.9797 20.4962 20.7582 21.1605 20.4592 21.7972C20.0053 22.7771 19.7561 23.8179 19.5347 24.8587C19.3077 25.9106 19.3907 26.9902 19.4683 28.0532C19.4904 28.3743 19.6343 28.6954 19.7561 28.9999C20.0496 29.7196 20.6032 30.096 21.3783 30.1293C21.8212 30.1459 22.2641 30.1348 22.707 30.1348C23.0391 30.1348 23.3769 30.1348 23.6481 30.3673C24.318 31.1092 24.2461 31.84 23.6149 32.5597C23.471 33.6835 23.5983 34.7908 23.8862 35.8814C23.9803 36.2302 24.0966 36.5735 24.08 36.9389C23.4765 37.7361 22.6239 37.9354 21.716 37.8136C20.2932 37.6254 19.0087 37.0994 18.1008 35.9036C17.8683 35.5991 17.6302 35.4939 17.2482 35.5991C16.9714 35.6766 16.6669 35.6711 16.3735 35.6988C15.0614 35.8095 14.1036 35.1839 13.3562 34.1929C12.7251 33.3569 12.3209 32.4157 12.332 31.3362C12.332 31.0095 12.3431 30.6663 12.1493 30.3729L12.1548 30.3784Z" fill="#003986"/>
<path d="M91.3511 60.2244C91.4175 60.0971 91.5006 59.9753 91.5559 59.8424C92.9511 56.2273 95.3815 53.5588 98.8417 51.8259C99.2458 53.3152 99.6223 54.8044 99.8437 56.338C100.004 57.4397 100.038 58.5359 99.96 59.6321C99.8437 61.2985 99.1019 62.6438 97.7012 63.6071C96.9372 64.1275 96.1178 64.5372 95.2597 64.8694C94.0915 65.3233 92.8846 65.6389 91.6667 65.9213C91.34 65.9988 91.0134 66.0652 90.72 65.8272C90.3712 65.6777 90.2438 65.3787 90.2272 65.0299C90.1442 63.3248 90.1387 61.6362 91.3456 60.23L91.3511 60.2244Z" fill="#2A2A2A"/>
<path d="M91.351 60.2246C91.2071 60.8613 91.0465 61.4924 90.9192 62.1291C90.6756 63.3471 90.6424 64.5816 90.7254 65.8218C90.6313 66.0377 90.4984 66.1761 90.2438 66.2093C89.4853 66.309 88.7268 66.4529 87.9684 66.5359C85.2058 66.8294 82.4376 66.9955 79.6584 66.7629C80.3117 66.1318 80.3726 65.9712 79.9408 65.2958C79.2543 64.2273 78.6453 63.1145 78.0529 61.9962C77.3664 61.0938 76.6522 60.2025 77.0287 58.9457C77.2502 58.3589 77.3719 57.6613 78.2577 57.7886C78.9664 58.5637 79.902 59.0177 80.81 59.4606C82.2605 60.1692 83.8217 60.6454 85.4217 60.8281C86.7615 60.9775 88.1234 60.9997 89.4687 60.7616C90.1164 60.6454 90.7808 60.6121 91.351 60.2301V60.2246Z" fill="#FFCDBC"/>
<path d="M78.2577 57.7885C77.7539 57.9768 77.6376 58.4806 77.3719 58.8681C76.7186 59.2667 76.237 58.7851 75.7553 58.5027C72.7491 56.7145 69.7152 54.9816 66.6592 53.282C62.7008 51.0841 58.7368 48.8973 54.7729 46.7105C46.8449 42.3313 38.8561 38.0739 30.9281 33.7058C28.996 32.6428 27.0583 31.5798 25.104 30.5445C24.6168 30.2843 24.0964 30.0518 24.03 29.393C23.886 28.9778 24.0576 28.5902 24.1573 28.2082C25.1427 24.3384 26.8534 20.8229 29.3226 17.6783C29.9593 16.87 30.5406 16.0118 31.3434 15.353C31.5648 15.6188 31.8804 15.7295 32.1683 15.89C49.5134 25.4456 66.8641 34.9957 84.2147 44.5458C84.3753 44.6344 84.5414 44.7119 84.7075 44.7894C84.6909 44.8613 84.6908 44.9389 84.6632 45.0053C84.2147 45.9686 84.2978 46.9319 84.6466 47.8952C84.9123 48.6205 85.1836 49.3347 85.4659 50.0544C85.7649 50.8073 86.0196 51.5713 86.1524 52.3685C86.4735 54.3118 85.5933 55.7457 83.7109 56.3491C82.6923 56.6757 81.6238 56.7366 80.5719 56.9138C79.9906 57.0135 79.4259 57.1519 78.8778 57.3789C78.6452 57.4785 78.3961 57.5615 78.2522 57.7996L78.2577 57.7885Z" fill="#2A2A2A"/>
<path d="M80.4336 38.5444C80.0738 38.5555 79.736 38.4005 79.4149 38.2288C78.507 37.7361 77.5935 37.26 76.7022 36.7451C74.1223 35.2503 71.5479 33.7445 68.9791 32.2386C65.0428 29.93 61.1065 27.6158 57.2422 25.1854C56.0574 24.4435 54.8616 23.7183 53.6879 22.9487C52.4256 22.1183 51.191 21.2491 49.9454 20.3965C49.8568 20.3356 49.7682 20.2637 49.7018 20.1806C49.6686 20.1363 49.6575 20.0256 49.6907 19.9924C49.7295 19.9536 49.8291 19.9315 49.8845 19.9536C50.1558 20.0699 50.4215 20.1972 50.6872 20.3246C53.1896 21.5757 55.7031 22.8103 58.2 24.0892C59.5729 24.7923 60.9127 25.5674 62.2691 26.3148C63.1383 26.7909 64.013 27.267 64.8822 27.7487C67.0746 28.9556 69.2725 30.157 71.4538 31.386C73.2475 32.3936 75.0247 33.44 76.8129 34.4697C77.9589 35.1285 79.1104 35.7873 80.2675 36.4406C80.5554 36.6067 80.8488 36.7673 81.0647 37.0275C81.181 37.1659 81.2862 37.3264 81.3416 37.4981C81.5353 38.1181 81.1533 38.5721 80.4447 38.5555L80.4336 38.5444Z" fill="#FFDE4C"/>
<path d="M85.7928 40.2386C85.7762 40.9528 84.9292 41.5507 84.2039 41.3458C83.5949 41.1742 83.1908 40.7701 83.0136 40.1611C82.9029 39.7846 83.0413 39.4137 83.3513 39.1922C83.9769 38.7438 85.1949 38.9763 85.6212 39.6185C85.7485 39.8123 85.7984 40.0171 85.7984 40.2441L85.7928 40.2386Z" fill="#FFDE49"/>
<path d="M24.0244 29.3875C37.0402 36.5016 50.0615 43.6046 63.0717 50.7298C67.462 53.1325 71.8633 55.5242 76.1152 58.165C76.5193 58.4141 76.9512 58.63 77.3664 58.8625C77.3166 59.9643 77.7096 60.9719 78.0473 61.9905C76.8183 60.9774 75.4065 60.2521 74.0501 59.4494C72.4668 58.5138 70.8557 57.6224 69.2557 56.7255C68.3589 56.2217 67.4509 55.7346 66.543 55.2474C65.3084 54.5885 64.0683 53.9463 62.8392 53.2764C60.9015 52.219 58.9804 51.1339 57.0483 50.0709C56.0517 49.5229 55.022 49.0246 54.031 48.4599C52.5307 47.6018 50.9694 46.8488 49.447 46.0295C47.8581 45.1769 46.2802 44.3077 44.6968 43.4496C43.6948 42.907 42.665 42.4143 41.6796 41.8385C40.3121 41.0468 38.8838 40.3548 37.4886 39.6074C36.0658 38.8379 34.6485 38.0517 33.2312 37.2766C33.1371 37.2213 33.0375 37.1714 32.9378 37.1161C30.8783 36.0476 28.8299 34.9569 26.7593 33.9272C25.7407 33.4179 24.6722 33.0192 23.6258 32.5708C23.4929 31.84 23.7144 31.1092 23.659 30.3784C23.8916 30.0906 23.7365 29.6532 24.03 29.3875H24.0244Z" fill="#FFC500"/>
<path d="M31.5923 7.12614C31.4041 7.49707 31.083 7.75174 30.7951 8.03963C29.782 9.0583 28.7744 10.0825 27.7446 11.079C26.7647 12.0313 25.9343 13.1053 25.054 14.1406C24.4395 14.8714 23.7253 15.5136 23.0499 16.189C22.9779 16.261 22.8616 16.2942 22.762 16.3385C22.6347 16.3939 22.4187 16.2665 22.4354 16.1392C22.4575 15.9565 22.4852 15.7738 22.5405 15.6022C22.8284 14.7994 23.1828 14.0022 23.7585 13.3877C24.6775 12.3967 25.4582 11.2894 26.5543 10.4258C27.7114 9.51781 28.8851 8.63201 30.1086 7.81818C30.5681 7.51368 31.0387 7.22026 31.5979 7.12061L31.5923 7.12614Z" fill="#003986"/>
<path d="M31.5986 7.13298L31.6441 7.08179L31.5929 7.12729L31.5986 7.13298Z" fill="#003986"/>
<path d="M13.3174 1.82243C14.552 1.78368 15.615 2.11586 16.5451 2.85218C17.1984 3.37259 17.5195 4.02587 17.4253 4.86738C17.3644 5.41547 17.1098 5.81962 16.6226 6.10197C15.9084 6.51719 15.1499 6.52826 14.3804 6.40646C13.2565 6.23484 12.1382 6.04661 11.0033 6.01339C10.5438 6.00232 10.1452 5.83069 9.76315 5.59817C9.23167 5.27707 9.01022 4.69022 9.19845 4.08123C9.43651 3.28955 10.0234 2.76914 10.7265 2.43142C11.5514 2.03281 12.4261 1.72278 13.3174 1.81136V1.82243Z" fill="#FF9CE7"/>
<path d="M19.6839 6.23481C18.9365 6.25142 18.4493 5.93032 18.2611 5.28257C18.1171 4.77877 18.322 4.20854 18.7981 3.97048C19.3185 3.71581 19.8666 3.6992 20.3704 4.0203C20.8908 4.35248 21.0735 4.90611 20.8853 5.4542C20.7136 5.94693 20.2984 6.2182 19.6839 6.23481Z" fill="#FF9BE7"/>
<path d="M7.23274 22.5612C7.20506 23.3418 6.57392 23.9397 5.7767 23.8733C5.17325 23.8235 4.64176 23.5965 4.35388 22.9986C4.06599 22.3896 4.07153 21.7917 4.43692 21.227C4.76356 20.7121 5.41684 20.5349 5.98154 20.7785C6.71233 21.0996 7.26042 21.8747 7.23274 22.5612Z" fill="#FB39B2"/>
<path d="M3.49597 12.7953C3.49597 12.369 3.5458 12.0867 3.71742 11.8375C3.91673 11.5552 4.18247 11.3614 4.54233 11.4057C5.21775 11.4832 5.83228 12.4908 5.63297 13.1607C5.44474 13.7752 4.76378 14.1296 4.14925 13.9192C3.85583 13.8195 3.64545 13.6147 3.56241 13.3157C3.50704 13.1109 3.50704 12.8839 3.49597 12.7953Z" fill="#FB39B2"/>
<path d="M8.93778 19.5385C9.49694 19.5606 9.88448 19.9482 9.89002 20.5073C9.89556 21.0056 9.56338 21.3045 9.05404 21.2658C8.50042 21.2215 8.14056 20.8063 8.15717 20.2416C8.17378 19.7931 8.47274 19.5163 8.93778 19.5329V19.5385Z" fill="#FB3BB2"/>
<path d="M10.5103 24.0394C10.4882 24.3772 10.2113 24.6817 9.87916 24.7647C9.59681 24.8367 9.3809 24.7204 9.20927 24.5045C9.14284 24.4159 9.07087 24.3329 9.0155 24.2388C8.79959 23.89 8.79405 23.5467 8.98782 23.3142C9.19266 23.0651 9.68539 22.9876 10.0065 23.1703C10.3553 23.3696 10.4992 23.6962 10.5214 24.0394H10.5103Z" fill="#FB3BB3"/>
<path d="M3.04163 16.4161C3.06931 16.261 3.07484 16.1116 3.12467 15.9842C3.22432 15.724 3.42363 15.5856 3.70598 15.5801C3.97726 15.5801 4.22639 15.7296 4.3039 15.9676C4.42016 16.333 4.38694 16.6763 4.1212 16.9808C3.83331 17.3074 3.29629 17.2354 3.14128 16.8368C3.09145 16.7039 3.07484 16.56 3.04716 16.4216L3.04163 16.4161Z" fill="#FB3BB2"/>
<path d="M7.89757 17.9054C7.88649 18.3095 7.63182 18.5974 7.31626 18.5642C6.92318 18.5199 6.60762 18.1268 6.62976 17.706C6.64637 17.3573 6.93979 17.1081 7.29965 17.1303C7.68719 17.158 7.90864 17.4514 7.89757 17.9054Z" fill="#FC3BB3"/>
</svg>
