<svg width="36" height="52" viewBox="0 0 36 52" fill="none" xmlns="http://www.w3.org/2000/svg">
<path d="M14.1369 5.31549C14.1369 5.31549 13.7265 1.46382 14.0863 0.642057C14.4461 -0.179708 21.2147 -0.23002 22.2434 0.591744C23.2778 1.41351 22.2434 5.31549 22.2434 5.31549H14.1369Z" fill="#F6C423"/>
<path d="M18.2692 3.86198C16.8356 3.76695 15.0873 3.25265 13.9348 2.21845C13.9517 3.60483 14.1316 5.31544 14.1316 5.31544H22.2381C22.2381 5.31544 22.8678 2.92841 22.6485 1.49731C21.9402 3.06817 20.04 3.98497 18.2636 3.86757L18.2692 3.86198Z" fill="#12AB0F"/>
<path d="M22.2998 12.6947V7.14355H13.9234V12.6947C13.9234 14.5059 12.8497 16.1606 11.1688 16.8594C4.60258 19.6154 0.0321063 26.1448 0.223245 33.7195C0.459358 43.1447 8.19487 50.8257 17.6731 51.0493C27.7529 51.2896 36 43.2341 36 33.2611C36 25.91 31.5194 19.6098 25.1275 16.8929C23.4242 16.1718 22.2998 14.5338 22.2998 12.6947Z" fill="#F4ECE5"/>
<path d="M23.1431 3.54907H13.0802C12.5461 3.54907 12.1132 3.97956 12.1132 4.51059V7.36161C12.1132 7.89265 12.5461 8.32313 13.0802 8.32313H23.1431C23.6771 8.32313 24.11 7.89265 24.11 7.36161V4.51059C24.11 3.97956 23.6771 3.54907 23.1431 3.54907Z" fill="#F4ECE5"/>
<g style="mix-blend-mode:multiply" opacity="0.3">
<path d="M22.2041 6.97012H14.165C13.1587 6.97012 12.4729 6.47259 12.1075 5.80176V7.36143C12.1075 7.89251 12.5404 8.32295 13.0744 8.32295H23.143C23.677 8.32295 24.1099 7.89251 24.1099 7.36143V6.04214C23.722 6.58998 23.0867 6.97012 22.2041 6.97012Z" fill="#25DDFF"/>
</g>
<path d="M23.9837 42.2883H12.2337C9.87627 43.031 8.34985 44.2094 8.34985 45.5377C8.34985 47.7855 12.7188 49.6075 18.1087 49.6075C23.4987 49.6075 27.8676 47.7855 27.8676 45.5377C27.8676 44.2094 26.3412 43.031 23.9837 42.2883Z" fill="#23CF53"/>
<path d="M27.8484 43.9151C28.8097 44.6977 23.4915 45.5418 18.1115 45.5418C12.7315 45.5418 7.22224 44.8654 8.3747 43.9151C9.0718 43.3393 12.7315 42.2883 18.1115 42.2883C23.4915 42.2883 27.1457 43.3505 27.8484 43.9151Z" fill="#12AB0F"/>
<g style="mix-blend-mode:multiply" opacity="0.3">
<path d="M34.4893 34.9692C34.1747 36.5872 33.43 38.2881 32.292 39.5591C29.7695 42.3877 26.0251 44.892 21.2739 45.5596C17.776 46.0499 16.2761 46.114 12.773 45.5596C11.9129 45.4238 11.2836 45.1636 10.3921 44.8958C8.20524 44.232 7.00431 43.9001 5.1531 42.4745C4.11999 41.6825 3.17078 40.8226 2.36842 39.8986C2.17962 39.6798 2.00657 39.4535 1.84399 39.2272C2.41561 45.3559 9.47959 50.2702 18.0906 50.4172C27.4935 50.5794 35.1868 45.1447 35.1868 38.4164C35.1868 37.217 34.9403 36.063 34.4841 34.9692H34.4893Z" fill="#25DDFF"/>
</g>
</svg>
