<svg width="84" height="101" viewBox="0 0 84 101" fill="none" xmlns="http://www.w3.org/2000/svg">
<path d="M1.79663 77.7534C1.88746 78.1612 2.19527 78.3274 2.55858 78.418C3.29026 78.6043 4.02193 78.7855 4.75865 78.9567C6.19172 79.284 7.62479 79.6012 9.05786 79.9234C9.2597 80.4118 8.83583 80.6334 8.65418 80.9153C8.745 80.8448 8.53812 80.9959 8.60876 80.9506C11.3538 79.2689 13.1905 79.4804 13.3974 83.1861C13.4025 83.2868 13.3974 83.3472 13.3974 83.3673C13.3873 82.5769 13.5185 81.7713 13.0846 81.0311C12.9635 80.8197 12.9786 80.5679 13.2006 80.3816C14.997 80.724 16.7884 80.7441 18.5948 80.442C19.3467 80.3162 20.1086 80.296 20.8706 80.1953C23.2422 79.8731 25.5079 79.2085 27.718 78.3072C30.1855 77.2952 32.5067 76.0062 34.6916 74.4907C36.1752 73.4636 37.6082 72.3609 38.9909 71.1878C41.5441 69.0177 43.7846 66.5405 46.1663 64.2043C47.0493 63.3383 47.7608 62.2961 48.6035 61.3848C49.8045 60.0807 50.8793 58.681 51.944 57.2712C53.1096 55.7355 54.3358 54.2452 55.4459 52.6693C57.5097 49.744 59.5332 46.7985 61.5213 43.8229C62.8585 41.8189 64.115 39.7597 65.3866 37.7104C66.5926 35.7669 67.7885 33.8083 68.9642 31.8447C70.0188 30.0875 71.0331 28.3102 72.0675 26.5429C72.9405 25.0526 73.8134 23.5622 74.6915 22.0719C75.6552 20.4456 76.614 18.8243 77.5929 17.2081C78.0067 16.5183 78.4507 15.8487 78.8998 15.179C79.1471 14.8064 79.3691 14.4288 79.4498 13.9807C81.1806 15.5869 82.4825 17.5102 83.6128 19.5594C83.9055 20.0931 83.9509 20.6168 83.6229 21.1605C83.416 21.5029 83.2445 21.8705 83.0376 22.2129C78.8544 29.1762 74.6713 36.1345 70.4881 43.0928C65.538 51.3249 60.5878 59.5621 55.6326 67.7942C50.1829 76.8572 44.7383 85.915 39.2886 94.9779C38.4812 96.3223 37.6335 97.6414 36.8766 99.016C36.483 99.7309 35.9279 100.104 35.1559 100.139C33.5462 100.214 31.9365 100.28 30.3319 100.058C22.8436 99.0109 16.2636 95.8691 10.279 91.383C7.88718 89.5905 5.73253 87.5413 3.8655 85.2051C2.80584 83.8809 1.91774 82.451 1.17093 80.9254C0.762199 80.0946 0.696601 79.3243 1.26176 78.5489C1.44846 78.2921 1.62002 78.0202 1.79663 77.7534Z" fill="#6A81B8"/>
<path d="M79.4548 13.9807C79.2429 13.7391 79.0411 13.4873 78.819 13.2607C76.3969 10.7684 73.6368 8.69405 70.7 6.86133C65.7498 3.76987 60.4667 1.484 54.6991 0.391418C52.9128 0.0540759 51.1113 -0.046623 49.2998 0.0188313C48.77 0.0389711 48.3663 0.200089 48.109 0.67841C48.0333 0.819388 47.9374 0.950297 47.8516 1.08624C45.8181 4.45462 43.7845 7.823 41.7611 11.1964C41.64 11.3978 41.5794 11.6345 41.4936 11.856C41.4936 12.0624 41.5239 12.289 41.6955 12.3998C42.19 12.7371 42.6845 13.0795 43.1891 13.4017C42.7652 13.1752 42.3363 12.9536 41.9276 12.7069C41.6904 12.5659 41.3877 12.581 41.1404 12.7724C41.0042 12.8428 40.8124 12.8781 40.7367 12.9939C40.2271 13.7894 39.7376 14.595 39.2481 15.4006C39.1321 15.5869 39.2027 15.7782 39.2885 15.9595C39.3894 16.322 39.5761 16.5687 39.8083 16.755C39.4449 16.5989 39.0362 16.5284 38.5468 16.6694C38.1431 17.1226 37.8655 17.6613 37.5678 18.1799C37.4316 18.4165 37.4467 18.633 37.588 18.8546C37.7091 19.2272 37.916 19.4789 38.1633 19.6702C37.7697 19.4588 37.3559 19.3128 36.8462 19.5494C36.3013 20.0781 36.0187 20.788 35.6251 21.4174C35.504 21.6087 35.5898 21.795 35.6806 21.9762C35.721 22.3891 35.9632 22.6308 36.2609 22.8171C35.8673 22.666 35.4334 22.5855 34.9338 22.6811C34.404 23.2904 34.0709 24.0255 33.642 24.7002C33.4856 24.9519 33.6017 25.1583 33.7278 25.3648C33.7228 25.8381 34.0457 26.0697 34.409 26.256C34.631 26.3667 34.8531 26.4825 35.07 26.5983C35.0347 26.5832 34.9944 26.5631 34.959 26.548C34.3182 26.2912 33.7682 25.6769 32.9709 26.0495C32.8851 26.1301 32.7741 26.1955 32.7136 26.2912C32.0273 27.409 31.3461 28.5267 30.68 29.6545C30.5841 29.8157 30.5942 30.0322 30.5589 30.2235C30.5993 30.7874 31.0181 31.0593 31.442 31.2808C33.3897 32.3029 35.2769 33.4308 37.2297 34.4377C35.3072 33.4459 33.4452 32.3432 31.5277 31.3413C31.0635 31.0996 30.6144 30.8126 30.0593 31.0694C29.9584 31.1348 29.8171 31.1701 29.7616 31.2657C29.1258 32.2828 28.4951 33.2999 27.8896 34.332C27.824 34.4428 27.9047 34.6341 27.9148 34.7902C28.0359 35.1779 28.2529 35.4347 28.5153 35.626C28.1166 35.4246 27.6978 35.2887 27.1932 35.5102C26.6886 36.3208 26.189 37.1264 25.6844 37.937C25.5482 38.1485 25.5078 38.3751 25.5432 38.6168C25.7046 39.0699 25.9822 39.372 26.3001 39.6036C26.2647 39.5835 26.2294 39.5684 26.1941 39.5482C25.8005 39.3569 25.4321 39.0699 24.973 39.3619C24.2564 40.1423 23.7619 41.0637 23.338 42.0254C23.338 42.0858 23.338 42.1412 23.3431 42.2016C23.3633 42.3174 23.3986 42.4282 23.4642 42.5239C24.0949 43.1029 24.8821 43.4352 25.528 43.7927C25.2051 43.6265 24.8165 43.4604 24.4684 43.2388C23.9638 42.9216 23.4793 42.539 22.8334 42.8864C22.1775 43.6064 21.7637 44.4774 21.2793 45.3082C21.1582 45.5197 21.3398 45.6808 21.4306 45.852C21.5013 46.5216 22.0564 46.723 22.5307 47.015C22.9697 47.2869 23.4087 47.5639 23.7215 47.73C23.222 47.5639 22.7174 47.0755 22.1018 46.7834C21.6375 46.5669 21.2137 46.1793 20.6536 46.5267C20.5224 46.6727 20.3659 46.8036 20.265 46.9697C19.5233 48.1832 18.7865 49.4067 18.0549 50.6251C17.9136 50.8618 17.7773 51.1085 17.8076 51.4005C17.8833 52.0651 18.4182 52.2816 18.9127 52.5535C20.7293 53.5454 22.5206 54.5775 23.8023 55.2724C22.3187 54.5171 20.3811 53.3138 18.3576 52.2715C17.9994 52.0852 17.6512 51.8738 17.2425 52.1557C16.6268 52.8254 16.2585 53.6511 15.7892 54.4114C15.663 54.6128 15.5672 54.8243 15.5773 55.071C15.7034 55.514 15.9456 55.796 16.2433 56.0075C15.8548 55.8615 15.5773 55.8766 15.0727 55.9219C14.3814 56.5009 14.0433 57.3216 13.6043 58.0768C13.4832 58.2833 13.6093 58.4545 13.7001 58.6307C13.8969 59.1745 14.2754 59.4866 14.6942 59.7283C14.6236 59.688 14.5479 59.6477 14.4772 59.6125C13.9878 59.3607 13.5235 58.958 12.9231 59.3406C12.262 60.1563 11.7776 61.0827 11.2781 61.9991C11.3235 62.0998 11.3638 62.2005 11.3992 62.3012C11.4395 62.4673 11.5203 62.6083 11.6464 62.7241C11.7625 62.8097 11.8836 62.8852 12.0097 62.9607C11.6918 62.7996 11.3437 62.7241 10.9248 62.9003C10.1276 63.5498 9.70874 64.441 9.34543 65.3674C9.3202 65.4329 9.36057 65.5235 9.37066 65.6041C9.47663 65.9968 9.67847 66.2737 9.93077 66.4953C9.59269 66.2989 9.23442 66.168 8.78028 66.3593C7.84172 67.3563 7.30684 68.6049 6.62058 69.7579C6.56507 69.8536 6.68113 70.0449 6.71645 70.196C6.76187 70.5887 6.96875 70.8304 7.2261 71.0217C6.86783 70.8102 6.49443 70.7297 6.10084 70.9361C5.80817 71.0267 5.66184 71.2634 5.52055 71.5051C5.15219 72.1193 4.77878 72.7285 4.41547 73.3428C3.54755 74.813 2.68468 76.2832 1.81677 77.7585C1.50896 78.6849 2.2255 78.846 2.82093 79.0222C4.8141 79.6164 6.84765 80.0393 8.91147 80.3061C10.3395 80.0896 11.7928 79.6012 13.0543 80.7845C13.6699 80.7643 14.1947 81.1369 14.8153 81.1571C17.4039 81.2426 19.9673 80.9959 22.4903 80.4723C29.8676 78.9417 35.8673 74.9238 41.2716 69.8939C48.1443 63.5045 53.8211 56.1233 59.1295 48.4399C66.4714 37.8112 72.5872 26.4422 79.359 15.4661C79.6567 14.9827 79.7526 14.5044 79.47 13.9908L79.4548 13.9807ZM13.579 63.8922C13.3822 63.7663 13.1804 63.6505 12.9685 63.5498C12.7666 63.4542 12.5749 63.3182 12.3831 63.1923C12.7868 63.424 13.1905 63.6405 13.579 63.8922ZM11.8281 67.7188C11.5304 67.5274 11.157 67.2404 10.7482 67.0088C11.157 67.2153 11.5606 67.4016 11.8281 67.7188ZM8.12429 71.5554C9.37066 72.2704 10.612 72.9954 11.8533 73.7204C10.612 73.0004 9.36561 72.2804 8.12429 71.5554ZM13.6345 63.9274C13.8162 64.0483 13.9928 64.1742 14.1593 64.3151C13.9928 64.1792 13.8162 64.0483 13.6345 63.9274ZM14.9314 59.8642C15.3653 60.0858 15.8195 60.267 16.1525 60.5691C15.7842 60.3577 15.3653 60.1059 14.9314 59.8642ZM17.081 56.4556C17.4796 56.6268 17.8581 56.7879 18.0952 57.0849C17.6815 56.8231 17.3535 56.6217 17.081 56.4556ZM27.0015 39.9913C27.4506 40.2028 27.9047 40.379 28.2327 40.676C27.8441 40.5149 27.4354 40.2531 27.0015 39.9913ZM29.3075 36.0338C29.2469 36.0087 29.1914 35.9835 29.1359 35.9533C29.5951 36.1496 30.0644 36.3057 30.3318 36.6682C30.0593 36.5675 29.7364 36.21 29.3075 36.0338ZM35.4435 26.7997C35.721 26.9508 35.9834 27.1018 36.2306 27.2529C35.9783 27.1471 35.721 26.9659 35.4435 26.7997ZM37.0935 23.2551C37.5275 23.4666 37.9412 23.673 38.2289 23.9046C37.8504 23.7586 37.482 23.5018 37.0935 23.2551ZM39.0413 20.1335C38.9403 20.0982 38.8394 20.0479 38.7385 19.9975C39.2835 20.2342 39.8638 20.3751 40.1817 20.788C39.9243 20.6319 39.5206 20.3097 39.0413 20.1335ZM40.4642 17.1276C40.878 17.3088 41.2968 17.4498 41.5542 17.7368C41.1808 17.6361 40.8326 17.3743 40.4642 17.1276ZM55.2794 6.13126C55.1835 6.89657 54.9362 7.61657 54.6789 8.33153C53.4779 11.6294 51.8531 14.7158 49.976 17.6714C48.4723 20.0428 46.9332 22.4042 44.8038 24.2923C44.3598 24.6851 43.9006 25.3094 43.2698 25.0023C42.5281 24.6397 42.851 23.8392 42.9923 23.2602C43.3405 21.8604 43.8602 20.5111 44.4052 19.1718C44.9148 17.9231 45.813 16.8205 45.8837 15.4056C45.8584 15.2848 45.8181 15.174 45.7474 15.0733C45.4144 14.7612 45.046 14.4943 44.6676 14.2526C45.1116 14.4691 45.5708 14.6554 46.0552 14.7914C46.1763 14.7712 46.2924 14.736 46.3984 14.6756C46.7566 14.3986 47.019 14.0512 47.2511 13.6736C48.2957 11.9617 49.3553 10.2599 50.5462 8.63867C51.4545 7.4051 52.4536 6.25713 53.594 5.24007C53.9876 4.88763 54.4518 4.52511 54.9968 4.83728C55.5064 5.12931 55.3399 5.65294 55.2743 6.14133L55.2794 6.13126ZM64.7003 16.6241C62.8736 16.6392 61.3245 15.1186 61.2892 13.2708C61.2538 11.3575 62.7475 9.74132 64.6347 9.73628C66.5673 9.73125 68.1618 11.2719 68.0962 13.1399C68.1114 15.0633 66.6077 16.604 64.7003 16.6191V16.6241Z" fill="#6A81B8"/>
<path d="M6.69602 70.1908C9.20389 71.6359 11.7118 73.0809 14.2146 74.5259C14.3508 74.6065 14.482 74.7021 14.5981 74.8129C14.7545 74.969 14.7999 75.1603 14.6738 75.3517C14.5476 75.5379 14.3458 75.6034 14.1439 75.5279C13.8816 75.4322 13.6293 75.3013 13.387 75.1603C10.9498 73.7505 8.51763 72.3357 6.08545 70.9259C6.14096 70.5584 6.29234 70.2664 6.69602 70.1858V70.1908Z" fill="#6A81B8"/>
<path d="M30.5481 30.2185C32.8996 31.5125 35.251 32.8014 37.5974 34.1055C37.9103 34.2767 38.208 34.4831 38.4805 34.7147C38.647 34.8557 38.6268 35.0873 38.4956 35.2635C38.3997 35.3944 38.2383 35.48 38.0718 35.4146C37.8094 35.3139 37.552 35.2031 37.3098 35.0672C34.8877 33.7379 32.4707 32.4037 30.0486 31.0644C30.089 30.7069 30.1949 30.3897 30.5481 30.2185Z" fill="#6A81B8"/>
<path d="M17.7975 51.4004C20.26 52.7699 22.7174 54.1394 25.1748 55.5139C25.3463 55.6096 25.5078 55.7405 25.639 55.8815C25.7551 56.0074 25.7551 56.1836 25.6743 56.3346C25.5936 56.4857 25.4422 56.5411 25.2707 56.5411C24.9729 56.5411 24.7358 56.38 24.4885 56.239C22.0664 54.8795 19.6494 53.5201 17.2273 52.1556C17.3181 51.8284 17.4846 51.5615 17.7924 51.4004H17.7975Z" fill="#6A81B8"/>
<path d="M45.5914 15.315C44.1079 14.4641 42.6193 13.6132 41.1358 12.7623C41.045 12.3746 41.1863 12.0776 41.4941 11.8459C43.0129 12.7321 44.5318 13.6182 46.0506 14.5044C46.3332 15.018 46.1112 15.2445 45.5965 15.31L45.5914 15.315Z" fill="#6A81B8"/>
<path d="M13.6851 58.6305C14.8709 59.2951 16.0618 59.9497 17.2426 60.6244C17.4898 60.7653 17.7219 60.9416 17.621 61.2839C17.5352 61.5659 17.1871 61.6616 16.8036 61.4652C16.2334 61.1732 15.6834 60.8509 15.1232 60.5388C14.3865 60.136 13.6498 59.7332 12.9131 59.3304C13.014 58.9225 13.2663 58.6758 13.6902 58.6255L13.6851 58.6305Z" fill="#6A81B8"/>
<path d="M23.626 42.2168C24.8623 42.7807 25.9926 43.5359 27.1633 44.2207C27.5165 44.4271 27.6074 44.6537 27.5115 44.8903C27.4005 45.1673 27.0826 45.2478 26.6839 45.0464C26.1894 44.7896 25.7101 44.4976 25.2256 44.2257C24.4233 43.7776 23.626 43.3295 22.8237 42.8814C22.9247 42.5541 23.0609 42.247 23.3233 42.0154H23.3132C23.3889 42.1261 23.4898 42.1966 23.626 42.2168Z" fill="#6A81B8"/>
<path d="M15.5618 55.0759C16.6719 55.7053 17.7871 56.3296 18.8972 56.9691C19.1344 57.105 19.3716 57.2712 19.5684 57.4625C19.7197 57.6085 19.7197 57.825 19.5835 58.0063C19.4826 58.1422 19.311 58.2077 19.1596 58.1573C18.8972 58.0667 18.6449 57.9458 18.4027 57.8149C17.2876 57.1906 16.1774 56.5612 15.0623 55.9319C15.1077 55.5744 15.2136 55.2572 15.5669 55.081L15.5618 55.0759Z" fill="#6A81B8"/>
<path d="M25.5329 38.6067C26.7541 39.3065 27.9853 39.9913 29.2014 40.7063C29.5849 40.9328 29.6858 41.2752 29.5041 41.4917C29.3477 41.678 29.0651 41.7133 28.7321 41.527C27.4706 40.812 26.2192 40.0769 24.9678 39.3519C25.0536 39.0246 25.2251 38.7577 25.538 38.6067H25.5329Z" fill="#6A81B8"/>
<path d="M37.5832 18.8545C38.7186 19.4537 39.859 20.0528 40.9943 20.652C41.1356 20.7275 41.282 20.8081 41.393 20.9188C41.5343 21.0648 41.6251 21.2461 41.5141 21.4626C41.4081 21.664 41.2214 21.7647 41.0145 21.6992C40.7118 21.5985 40.4241 21.4525 40.1365 21.3065C39.0365 20.7275 37.9365 20.1334 36.8364 19.5493C36.9323 19.1566 37.1543 18.8948 37.5782 18.8545H37.5832Z" fill="#6A81B8"/>
<path d="M11.2678 61.9939C11.3384 62.009 11.404 62.0392 11.4646 62.0845C11.5554 62.15 11.6462 62.2104 11.7371 62.2708C12.7715 62.875 13.8059 63.4792 14.8353 64.0935C15.0372 64.2143 15.2138 64.3805 15.3752 64.5567C15.4862 64.6775 15.4812 64.8538 15.3853 64.9998C15.2895 65.1407 15.1431 65.2012 14.9716 65.1911C14.6335 65.1709 14.3761 64.9645 14.1036 64.8034C13.0389 64.174 11.9742 63.5346 10.9095 62.9002C10.7985 62.5075 11.1214 62.2859 11.2678 61.9939Z" fill="#6A81B8"/>
<path d="M35.676 21.9712C36.8013 22.5754 37.9265 23.1796 39.0518 23.7888C39.1578 23.8442 39.2587 23.9096 39.3546 23.9852C39.5514 24.1463 39.6725 24.3427 39.5665 24.6095C39.4656 24.8613 39.188 24.9418 38.8449 24.7706C38.2747 24.4836 37.7197 24.1664 37.1545 23.8643C36.4127 23.4666 35.671 23.0738 34.9292 22.6811C35.0957 22.3639 35.2572 22.0316 35.676 21.9762V21.9712Z" fill="#6A81B8"/>
<path d="M9.35495 65.604C10.4802 66.2938 11.6055 66.9785 12.7307 67.6734C12.867 67.759 13.0032 67.8496 13.1041 67.9704C13.2454 68.1265 13.2908 68.3279 13.1697 68.5192C13.0537 68.7055 12.867 68.8012 12.6601 68.7156C12.4027 68.6099 12.1504 68.479 11.9133 68.3329C10.8587 67.6784 9.80909 67.0188 8.75952 66.3592C8.8453 66.0219 9.02696 65.7551 9.34991 65.604H9.35495Z" fill="#6A81B8"/>
<path d="M21.4209 45.8469C22.5361 46.3857 23.5755 47.0553 24.6201 47.7149C25.1701 48.0623 25.3316 48.3845 25.1348 48.6262C24.938 48.8679 24.6302 48.8427 24.0549 48.5104C23.293 48.0724 22.5461 47.6142 21.7892 47.1711C21.4108 46.9496 21.0223 46.7431 20.6438 46.5266C20.7498 46.1238 21.0021 45.8922 21.4209 45.8469Z" fill="#6A81B8"/>
<path d="M33.7227 25.3599C34.8581 25.9641 35.9985 26.5582 37.1237 27.1825C37.5224 27.4041 37.6334 27.7313 37.4568 27.9579C37.2953 28.1643 37.043 28.2147 36.6898 28.0284C35.4434 27.3789 34.2071 26.7042 32.9658 26.0446C33.0667 25.6469 33.2938 25.3951 33.7227 25.3599Z" fill="#6A81B8"/>
<path d="M27.9044 34.7851C29.0448 35.2936 30.1096 35.9381 31.1844 36.5624C31.3912 36.6832 31.583 36.8343 31.7546 36.9954C31.8656 37.1062 31.916 37.2673 31.8353 37.4385C31.7344 37.655 31.5325 37.7355 31.3408 37.6701C31.038 37.5744 30.7504 37.4234 30.4678 37.2774C29.3678 36.6883 28.2778 36.0942 27.1829 35.5C27.3494 35.1879 27.4957 34.8556 27.9044 34.78V34.7851Z" fill="#6A81B8"/>
<path d="M39.2835 15.9545C40.3785 16.5386 41.4735 17.1125 42.5584 17.7117C43.0529 17.9836 43.1992 18.2907 43.0125 18.5374C42.841 18.769 42.5836 18.8043 42.1446 18.5777C40.9386 17.9534 39.7427 17.3039 38.5417 16.6644C38.7083 16.3472 38.8647 16.0099 39.2835 15.9495V15.9545Z" fill="#6A81B8"/>
<path d="M46.2877 14.5094C46.4946 13.6232 47.0901 12.9435 47.5442 12.1882C48.3062 10.9144 49.1337 9.6758 50.0067 8.46741C50.9805 7.12308 52.0806 5.90966 53.2815 4.77176C53.6398 4.42938 54.0637 4.20785 54.5481 4.10211C55.0426 3.99134 55.421 4.14743 55.6834 4.57036C55.9256 4.96309 56.0013 5.38602 55.9055 5.8442C55.7087 6.83105 55.4715 7.8028 55.1031 8.74434C54.3816 10.5821 53.5843 12.3796 52.6558 14.1217C51.0209 17.1779 49.169 20.0931 47.0043 22.8069C46.3533 23.6226 45.551 24.3074 44.7992 25.0425C44.451 25.3848 44.0019 25.5812 43.5427 25.7474C43.1945 25.8732 42.8968 25.7474 42.6849 25.4755C42.3821 25.0827 42.2106 24.6246 42.2711 24.1261C42.3216 23.6881 42.3922 23.245 42.5285 22.8271C42.9523 21.5281 43.3409 20.219 43.9212 18.9754C44.4661 17.8123 44.9808 16.6341 45.6015 15.5113C46.0556 15.1035 46.5047 15.2847 46.9185 15.5566C47.3575 15.8436 47.8268 16.0551 48.1245 16.2212C47.5997 15.7228 46.3483 15.7731 46.2827 14.5144L46.2877 14.5094Z" fill="#6A81B8"/>
<path d="M39.2681 29.2618C39.3791 28.3102 39.7677 27.5046 40.565 26.9407C40.9686 26.6537 41.4278 26.4472 41.9022 26.7544C42.4017 27.0816 42.6893 27.5801 42.5985 28.1843C42.4774 29 42.0687 29.6797 41.4732 30.2486C41.3875 30.3292 41.2764 30.3896 41.1755 30.445C40.7315 30.6816 40.2672 30.7874 39.803 30.5205C39.3236 30.2436 39.253 29.7703 39.2631 29.2618H39.2681Z" fill="#6A81B8"/>
<path d="M46.2875 14.5095C47.0394 15.1238 47.9325 15.5115 48.7348 16.0452C49.0023 16.2214 49.3151 16.3473 49.4766 16.6443C49.5271 16.74 49.5422 16.881 49.517 16.9817C49.4716 17.1529 49.3101 17.2183 49.1436 17.2385C48.8862 17.2687 48.6793 17.1327 48.4724 17.0119C47.8467 16.6494 47.216 16.2919 46.5903 15.9294C46.2774 15.7481 45.9797 15.5316 45.6013 15.5064C45.5861 15.446 45.5811 15.3806 45.5861 15.3151C45.8384 15.1036 46.01 14.8469 46.0403 14.5095C46.121 14.5095 46.2017 14.5095 46.2825 14.5095H46.2875Z" fill="#6A81B8"/>
<path d="M23.6258 42.2168C23.5199 42.1513 23.419 42.0808 23.313 42.0154C23.4139 42.0808 23.5199 42.1513 23.6258 42.2168Z" fill="#6A81B8"/>
</svg>
