<svg width="83" height="101" viewBox="0 0 83 101" fill="none" xmlns="http://www.w3.org/2000/svg">
<path d="M0.945557 77.9249C1.03639 78.3327 1.34419 78.4989 1.7075 78.5895C2.43918 78.7758 3.17085 78.9571 3.90756 79.1283C5.34063 79.4555 6.7737 79.7727 8.20676 80.095C8.4086 80.5834 7.98474 80.8049 7.80308 81.0869C7.89391 81.0164 7.68703 81.1674 7.75767 81.1221C10.5027 79.4404 12.3394 79.6519 12.5463 83.3577C12.5514 83.4584 12.5463 83.5188 12.5463 83.5389C12.5362 82.7484 12.6674 81.9428 12.2335 81.2027C12.1124 80.9912 12.1275 80.7395 12.3495 80.5532C14.1459 80.8955 15.9372 80.9157 17.7437 80.6136C18.4956 80.4877 19.2575 80.4676 20.0195 80.3669C22.3911 80.0446 24.6568 79.38 26.8669 78.4787C29.3344 77.4667 31.6556 76.1777 33.8405 74.6622C35.324 73.6351 36.7571 72.5324 38.1397 71.3592C40.693 69.1891 42.9334 66.7119 45.3151 64.3757C46.1982 63.5096 46.9096 62.4674 47.7523 61.556C48.9533 60.252 50.0281 58.8522 51.0928 57.4424C52.2584 55.9068 53.4846 54.4164 54.5947 52.8404C56.6585 49.9151 58.682 46.9696 60.6701 43.9939C62.0073 41.99 63.2638 39.9307 64.5354 37.8814C65.7414 35.9379 66.9373 33.9793 68.113 32.0156C69.1676 30.2584 70.1818 28.481 71.2163 26.7137C72.0892 25.2234 72.9622 23.733 73.8402 22.2426C74.804 20.6163 75.7627 18.9951 76.7417 17.3788C77.1554 16.689 77.5995 16.0194 78.0486 15.3497C78.2958 14.9771 78.5179 14.5995 78.5986 14.1514C80.3294 15.7575 81.6312 17.6809 82.7615 19.7302C83.0542 20.2639 83.0996 20.7875 82.7716 21.3313C82.5648 21.6737 82.3932 22.0412 82.1863 22.3836C78.0032 29.347 73.82 36.3054 69.6369 43.2638C64.6867 51.4961 59.7366 59.7334 54.7814 67.9656C49.3317 77.0287 43.8871 86.0867 38.4374 95.1497C37.63 96.494 36.7823 97.8132 36.0254 99.1878C35.6318 99.9027 35.0768 100.275 34.3047 100.311C32.695 100.386 31.0854 100.452 29.4807 100.23C21.9925 99.1827 15.4125 96.0409 9.4279 91.5547C7.03609 89.7622 4.88144 87.713 3.01442 85.3767C1.95476 84.0525 1.06666 82.6226 0.319852 81.097C-0.0888745 80.2662 -0.154473 79.4958 0.41068 78.7204C0.597383 78.4636 0.768947 78.1917 0.945557 77.9249Z" fill="#FFB84E"/>
<path d="M78.6036 14.1513C78.3916 13.9097 78.1898 13.6579 77.9678 13.4313C75.5457 10.939 72.7855 8.86458 69.8487 7.03183C64.8986 3.94033 59.6154 1.65443 53.8479 0.561833C52.0616 0.224487 50.2602 0.123786 48.4486 0.189242C47.9188 0.209382 47.5151 0.370502 47.2578 0.848829C47.1821 0.98981 47.0862 1.12072 47.0004 1.25667C44.9669 4.62509 42.9333 7.99352 40.9099 11.367C40.7888 11.5684 40.7282 11.805 40.6425 12.0266C40.6425 12.233 40.6727 12.4596 40.8443 12.5703C41.3388 12.9077 41.8333 13.2501 42.3379 13.5723C41.9141 13.3457 41.4851 13.1242 41.0764 12.8775C40.8393 12.7365 40.5365 12.7516 40.2892 12.9429C40.153 13.0134 39.9612 13.0487 39.8856 13.1645C39.3759 13.96 38.8864 14.7656 38.397 15.5712C38.2809 15.7575 38.3516 15.9488 38.4374 16.1301C38.5383 16.4926 38.725 16.7393 38.9571 16.9256C38.5938 16.7696 38.1851 16.6991 37.6956 16.84C37.2919 17.2932 37.0144 17.8319 36.7167 18.3506C36.5804 18.5872 36.5956 18.8037 36.7368 19.0252C36.858 19.3978 37.0648 19.6496 37.3121 19.8409C36.9185 19.6294 36.5047 19.4834 35.9951 19.7201C35.4501 20.2488 35.1675 20.9587 34.774 21.5881C34.6528 21.7794 34.7386 21.9657 34.8295 22.147C34.8698 22.5598 35.112 22.8015 35.4097 22.9878C35.0162 22.8368 34.5822 22.7562 34.0826 22.8519C33.5528 23.4611 33.2198 24.1962 32.7909 24.8709C32.6344 25.1227 32.7505 25.3291 32.8766 25.5355C32.8716 26.0088 33.1945 26.2404 33.5579 26.4267C33.7799 26.5375 34.0019 26.6533 34.2189 26.7691C34.1836 26.754 34.1432 26.7339 34.1079 26.7188C33.467 26.462 32.917 25.8477 32.1197 26.2203C32.034 26.3008 31.923 26.3663 31.8624 26.462C31.1761 27.5797 30.4949 28.6975 29.8289 29.8254C29.733 29.9865 29.7431 30.203 29.7078 30.3943C29.7481 30.9582 30.1669 31.2301 30.5908 31.4517C32.5386 32.4738 34.4258 33.6016 36.3786 34.6086C34.4561 33.6167 32.5941 32.5141 30.6766 31.5121C30.2124 31.2704 29.7633 30.9834 29.2082 31.2402C29.1073 31.3057 28.966 31.3409 28.9105 31.4366C28.2747 32.4536 27.6439 33.4707 27.0384 34.5029C26.9728 34.6137 27.0536 34.805 27.0636 34.9611C27.1848 35.3488 27.4017 35.6056 27.6641 35.7969C27.2655 35.5955 26.8467 35.4595 26.3421 35.6811C25.8375 36.4917 25.3379 37.2973 24.8333 38.108C24.6971 38.3194 24.6567 38.546 24.692 38.7877C24.8535 39.2408 25.131 39.5429 25.4489 39.7746C25.4136 39.7544 25.3783 39.7393 25.343 39.7192C24.9494 39.5278 24.581 39.2408 24.1218 39.5329C23.4053 40.3133 22.9108 41.2347 22.4869 42.1964C22.4869 42.2568 22.4869 42.3122 22.492 42.3726C22.5121 42.4884 22.5475 42.5992 22.6131 42.6949C23.2438 43.2739 24.031 43.6062 24.6769 43.9637C24.3539 43.7975 23.9654 43.6314 23.6172 43.4098C23.1126 43.0926 22.6282 42.71 21.9823 43.0574C21.3263 43.7774 20.9126 44.6484 20.4281 45.4792C20.307 45.6907 20.4887 45.8518 20.5795 46.023C20.6502 46.6927 21.2052 46.8941 21.6796 47.1861C22.1186 47.458 22.5576 47.7349 22.8704 47.9011C22.3709 47.7349 21.8663 47.2465 21.2506 46.9545C20.7864 46.738 20.3625 46.3503 19.8024 46.6977C19.6712 46.8437 19.5148 46.9746 19.4139 47.1408C18.6721 48.3542 17.9354 49.5777 17.2037 50.7962C17.0625 51.0329 16.9262 51.2796 16.9565 51.5716C17.0322 52.2362 17.5671 52.4527 18.0616 52.7246C19.8781 53.7165 21.6695 54.7487 22.9512 55.4435C21.4676 54.6883 19.53 53.4849 17.5065 52.4427C17.1482 52.2564 16.8001 52.0449 16.3913 52.3268C15.7757 52.9965 15.4074 53.8223 14.9381 54.5825C14.8119 54.7839 14.7161 54.9954 14.7262 55.2421C14.8523 55.6852 15.0945 55.9672 15.3922 56.1786C15.0037 56.0326 14.7262 56.0477 14.2216 56.093C13.5303 56.6721 13.1922 57.4928 12.7532 58.248C12.6321 58.4545 12.7582 58.6257 12.849 58.8019C13.0458 59.3457 13.4243 59.6578 13.8431 59.8995C13.7725 59.8592 13.6968 59.819 13.6261 59.7837C13.1367 59.532 12.6724 59.1292 12.072 59.5118C11.4109 60.3275 10.9265 61.2539 10.427 62.1703C10.4724 62.271 10.5127 62.3717 10.5481 62.4724C10.5884 62.6386 10.6692 62.7795 10.7953 62.8954C10.9114 62.9809 11.0325 63.0565 11.1586 63.132C10.8407 62.9709 10.4926 62.8954 10.0737 63.0716C9.27647 63.7211 8.85765 64.6123 8.49434 65.5387C8.46911 65.6042 8.50947 65.6948 8.51957 65.7754C8.62553 66.1681 8.82737 66.445 9.07967 66.6666C8.74159 66.4702 8.38333 66.3393 7.92918 66.5306C6.99063 67.5276 6.45575 68.7763 5.76949 69.9293C5.71399 70.0249 5.83004 70.2163 5.86537 70.3673C5.91078 70.76 6.11767 71.0017 6.37501 71.1931C6.01675 70.9816 5.64334 70.901 5.24975 71.1075C4.95709 71.1981 4.81075 71.4347 4.66946 71.6764C4.3011 72.2907 3.9277 72.8999 3.56439 73.5142C2.69647 74.9844 1.83361 76.4547 0.965693 77.9299C0.657887 78.8564 1.37442 79.0175 1.96985 79.1937C3.96302 79.7878 5.99656 80.2108 8.06038 80.4776C9.4884 80.2611 10.9417 79.7727 12.2032 80.956C12.8188 80.9358 13.3436 81.3084 13.9642 81.3286C16.5528 81.4142 19.1162 81.1674 21.6392 80.6438C29.0165 79.1132 35.0162 75.0952 40.4204 70.0652C47.2931 63.6758 52.9699 56.2944 58.2783 48.611C65.6202 37.9821 71.736 26.613 78.5077 15.6367C78.8054 15.1533 78.9013 14.675 78.6187 14.1614L78.6036 14.1513ZM12.7279 64.0635C12.5311 63.9376 12.3293 63.8218 12.1174 63.7211C11.9155 63.6254 11.7238 63.4895 11.532 63.3636C11.9357 63.5952 12.3394 63.8117 12.7279 64.0635ZM10.977 67.8901C10.6793 67.6988 10.3059 67.4118 9.89713 67.1802C10.3059 67.3866 10.7095 67.5729 10.977 67.8901ZM7.2732 71.7268C8.51957 72.4417 9.76089 73.1668 11.0022 73.8918C9.76089 73.1718 8.51452 72.4518 7.2732 71.7268ZM12.7834 64.0987C12.9651 64.2196 13.1417 64.3454 13.3082 64.4864C13.1417 64.3505 12.9651 64.2196 12.7834 64.0987ZM14.0803 60.0355C14.5142 60.257 14.9684 60.4383 15.3014 60.7404C14.933 60.5289 14.5142 60.2771 14.0803 60.0355ZM16.2299 56.6268C16.6285 56.7979 17.007 56.9591 17.2441 57.2561C16.8303 56.9943 16.5024 56.7929 16.2299 56.6268ZM26.1503 40.1622C26.5994 40.3737 27.0536 40.5499 27.3815 40.847C26.993 40.6859 26.5843 40.4241 26.1503 40.1622ZM28.4563 36.2047C28.3958 36.1795 28.3403 36.1544 28.2848 36.1242C28.744 36.3205 29.2132 36.4766 29.4807 36.8391C29.2082 36.7384 28.8853 36.3809 28.4563 36.2047ZM34.5923 26.9705C34.8698 27.1216 35.1322 27.2726 35.3795 27.4237C35.1272 27.3179 34.8698 27.1367 34.5923 26.9705ZM36.2423 23.4258C36.6763 23.6373 37.0901 23.8438 37.3777 24.0754C36.9992 23.9293 36.6309 23.6726 36.2423 23.4258ZM38.1901 20.3041C38.0892 20.2689 37.9883 20.2185 37.8873 20.1682C38.4323 20.4048 39.0126 20.5458 39.3305 20.9587C39.0732 20.8026 38.6695 20.4804 38.1901 20.3041ZM39.6131 17.2982C40.0268 17.4795 40.4457 17.6205 40.703 17.9075C40.3296 17.8068 39.9814 17.5449 39.6131 17.2982ZM54.4282 6.30175C54.3323 7.06708 54.085 7.78708 53.8277 8.50206C52.6267 11.8 51.0019 14.8865 49.1248 17.842C47.6211 20.2135 46.0821 22.5749 43.9526 24.4631C43.5086 24.8558 43.0494 25.4801 42.4187 25.173C41.6769 24.8105 41.9998 24.0099 42.1411 23.4309C42.4893 22.0311 43.009 20.6818 43.554 19.3425C44.0636 18.0938 44.9618 16.9911 45.0325 15.5763C45.0073 15.4554 44.9669 15.3446 44.8962 15.2439C44.5632 14.9318 44.1948 14.6649 43.8164 14.4232C44.2604 14.6397 44.7196 14.826 45.204 14.962C45.3252 14.9418 45.4412 14.9066 45.5472 14.8462C45.9054 14.5693 46.1678 14.2218 46.4 13.8442C47.4445 12.1323 48.5041 10.4305 49.695 8.80919C50.6033 7.57561 51.6024 6.42763 52.7428 5.41055C53.1364 5.0581 53.6006 4.69558 54.1456 5.00775C54.6552 5.29978 54.4887 5.82343 54.4231 6.31182L54.4282 6.30175ZM63.849 16.7947C62.0224 16.8098 60.4733 15.2893 60.4379 13.4414C60.4026 11.5281 61.8962 9.91186 63.7835 9.90683C65.7161 9.90179 67.3106 11.4425 67.245 13.3105C67.2601 15.2339 65.7564 16.7746 63.849 16.7897V16.7947Z" fill="#F9D453"/>
<path d="M5.84506 70.3622C8.35293 71.8073 10.8608 73.2523 13.3636 74.6974C13.4999 74.7779 13.6311 74.8736 13.7471 74.9844C13.9035 75.1404 13.949 75.3318 13.8228 75.5231C13.6967 75.7094 13.4948 75.7749 13.293 75.6993C13.0306 75.6037 12.7783 75.4728 12.5361 75.3318C10.0988 73.922 7.66667 72.5071 5.2345 71.0973C5.29 70.7298 5.44138 70.4377 5.84506 70.3572V70.3622Z" fill="#0047A6"/>
<path d="M29.6969 30.3892C32.0484 31.6832 34.3998 32.9721 36.7462 34.2762C37.0591 34.4474 37.3568 34.6538 37.6293 34.8854C37.7958 35.0264 37.7756 35.258 37.6444 35.4342C37.5485 35.5652 37.3871 35.6508 37.2205 35.5853C36.9581 35.4846 36.7008 35.3738 36.4586 35.2379C34.0365 33.9086 31.6195 32.5744 29.1974 31.235C29.2378 30.8776 29.3437 30.5604 29.6969 30.3892Z" fill="#0047A6"/>
<path d="M16.9463 51.5715C19.4088 52.9411 21.8662 54.3106 24.3236 55.6851C24.4951 55.7808 24.6566 55.9117 24.7878 56.0527C24.9039 56.1786 24.9039 56.3548 24.8231 56.5059C24.7424 56.6569 24.591 56.7123 24.4194 56.7123C24.1217 56.7123 23.8846 56.5512 23.6373 56.4102C21.2152 55.0507 18.7982 53.6913 16.3761 52.3268C16.4669 51.9995 16.6334 51.7327 16.9413 51.5715H16.9463Z" fill="#0047A5"/>
<path d="M44.7404 15.4857C43.2568 14.6348 41.7683 13.7839 40.2847 12.933C40.1939 12.5453 40.3352 12.2482 40.643 12.0166C42.1619 12.9028 43.6807 13.7889 45.1995 14.6751C45.4821 15.1887 45.2601 15.4152 44.7454 15.4807L44.7404 15.4857Z" fill="#0049A6"/>
<path d="M12.8341 58.8019C14.0199 59.4665 15.2107 60.1211 16.3915 60.7958C16.6387 60.9368 16.8709 61.113 16.7699 61.4554C16.6842 61.7373 16.336 61.833 15.9525 61.6366C15.3823 61.3446 14.8323 61.0224 14.2722 60.7102C13.5354 60.3074 12.7987 59.9046 12.062 59.5018C12.1629 59.0939 12.4152 58.8472 12.8391 58.7969L12.8341 58.8019Z" fill="#004BA7"/>
<path d="M22.7748 42.3877C24.0111 42.9516 25.1414 43.7069 26.3121 44.3916C26.6653 44.5981 26.7561 44.8246 26.6603 45.0613C26.5493 45.3382 26.2314 45.4188 25.8327 45.2174C25.3382 44.9606 24.8588 44.6685 24.3744 44.3967C23.5721 43.9485 22.7748 43.5004 21.9725 43.0523C22.0735 42.725 22.2097 42.4179 22.4721 42.1863H22.462C22.5377 42.297 22.6386 42.3675 22.7748 42.3877Z" fill="#004AA7"/>
<path d="M14.7109 55.2471C15.821 55.8764 16.9361 56.5008 18.0463 57.1402C18.2834 57.2762 18.5206 57.4423 18.7174 57.6337C18.8688 57.7797 18.8688 57.9962 18.7325 58.1775C18.6316 58.3134 18.46 58.3789 18.3087 58.3285C18.0463 58.2379 17.794 58.117 17.5518 57.9861C16.4366 57.3618 15.3265 56.7324 14.2113 56.103C14.2567 55.7455 14.3627 55.4283 14.7159 55.2521L14.7109 55.2471Z" fill="#004AA6"/>
<path d="M24.6817 38.7776C25.9029 39.4775 27.1341 40.1622 28.3502 40.8772C28.7337 41.1038 28.8346 41.4461 28.6529 41.6627C28.4965 41.8489 28.2139 41.8842 27.8809 41.6979C26.6194 40.9829 25.368 40.2478 24.1166 39.5228C24.2024 39.1955 24.3739 38.9286 24.6868 38.7776H24.6817Z" fill="#004AA6"/>
<path d="M36.732 19.0251C37.8674 19.6243 39.0078 20.2235 40.1431 20.8226C40.2844 20.8982 40.4308 20.9787 40.5418 21.0895C40.6831 21.2355 40.7739 21.4168 40.6629 21.6333C40.5569 21.8347 40.3702 21.9354 40.1633 21.8699C39.8606 21.7692 39.5729 21.6232 39.2853 21.4772C38.1853 20.8982 37.0853 20.304 35.9852 19.72C36.0811 19.3272 36.3031 19.0654 36.727 19.0251H36.732Z" fill="#004AA7"/>
<path d="M10.4167 62.1653C10.4873 62.1804 10.5529 62.2106 10.6135 62.2559C10.7043 62.3214 10.7952 62.3818 10.886 62.4422C11.9204 63.0464 12.9548 63.6506 13.9842 64.2649C14.1861 64.3857 14.3627 64.5519 14.5242 64.7281C14.6352 64.8489 14.6301 65.0252 14.5342 65.1712C14.4384 65.3122 14.292 65.3726 14.1205 65.3625C13.7824 65.3424 13.525 65.1359 13.2526 64.9748C12.1878 64.3455 11.1231 63.706 10.0584 63.0716C9.94742 62.6789 10.2704 62.4573 10.4167 62.1653Z" fill="#004BA7"/>
<path d="M34.8249 22.1418C35.9502 22.746 37.0755 23.3503 38.2007 23.9595C38.3067 24.0149 38.4076 24.0803 38.5035 24.1559C38.7003 24.317 38.8214 24.5133 38.7154 24.7802C38.6145 25.0319 38.337 25.1125 37.9938 24.9413C37.4236 24.6543 36.8686 24.3371 36.3034 24.035C35.5617 23.6372 34.8199 23.2445 34.0781 22.8518C34.2446 22.5346 34.4061 22.2023 34.8249 22.1469V22.1418Z" fill="#004BA7"/>
<path d="M8.50388 65.7754C9.62914 66.4652 10.7544 67.15 11.8797 67.8448C12.0159 67.9304 12.1521 68.021 12.2531 68.1418C12.3943 68.2979 12.4398 68.4993 12.3187 68.6907C12.2026 68.877 12.0159 68.9726 11.809 68.887C11.5517 68.7813 11.2994 68.6504 11.0622 68.5044C10.0076 67.8498 8.95802 67.1902 7.90845 66.5306C7.99423 66.1933 8.17589 65.9264 8.49883 65.7754H8.50388Z" fill="#004AA7"/>
<path d="M20.5698 46.0178C21.685 46.5566 22.7245 47.2262 23.769 47.8858C24.319 48.2332 24.4805 48.5555 24.2837 48.7972C24.0869 49.0388 23.7791 49.0137 23.2038 48.6813C22.4419 48.2433 21.6951 47.7851 20.9382 47.342C20.5597 47.1205 20.1712 46.9141 19.7927 46.6976C19.8987 46.2948 20.151 46.0631 20.5698 46.0178Z" fill="#004AA7"/>
<path d="M32.8715 25.5305C34.0069 26.1347 35.1473 26.7289 36.2725 27.3532C36.6712 27.5747 36.7822 27.902 36.6056 28.1286C36.4441 28.335 36.1918 28.3854 35.8386 28.1991C34.5922 27.5496 33.3559 26.8749 32.1146 26.2153C32.2155 25.8175 32.4426 25.5658 32.8715 25.5305Z" fill="#004BA7"/>
<path d="M27.0534 34.956C28.1938 35.4645 29.2585 36.109 30.3333 36.7333C30.5402 36.8542 30.7319 37.0052 30.9035 37.1663C31.0145 37.2771 31.0649 37.4382 30.9842 37.6094C30.8833 37.8259 30.6814 37.9065 30.4897 37.841C30.1869 37.7454 29.8993 37.5943 29.6167 37.4483C28.5167 36.8592 27.4268 36.2651 26.3318 35.6709C26.4983 35.3588 26.6446 35.0265 27.0534 34.9509V34.956Z" fill="#0049A6"/>
<path d="M38.4324 16.1249C39.5274 16.709 40.6224 17.283 41.7073 17.8821C42.2018 18.154 42.3481 18.4612 42.1614 18.7079C41.9899 18.9395 41.7325 18.9747 41.2935 18.7482C40.0875 18.1238 38.8916 17.4743 37.6907 16.8348C37.8572 16.5176 38.0136 16.1803 38.4324 16.1199V16.1249Z" fill="#004AA7"/>
<path d="M45.4367 14.6799C45.6435 13.7937 46.239 13.114 46.6931 12.3588C47.4551 11.0849 48.2826 9.84629 49.1556 8.63788C50.1295 7.29353 51.2295 6.08009 52.4304 4.94218C52.7887 4.5998 53.2126 4.37826 53.697 4.27252C54.1915 4.16175 54.5699 4.31784 54.8323 4.74078C55.0745 5.13351 55.1502 5.55645 55.0544 6.01464C54.8576 7.0015 54.6204 7.97326 54.252 8.91481C53.5305 10.7526 52.7332 12.5501 51.8047 14.2922C50.1698 17.3485 48.3179 20.2637 46.1532 22.9776C45.5023 23.7933 44.6999 24.4781 43.9481 25.2132C43.5999 25.5555 43.1508 25.7519 42.6916 25.9181C42.3435 26.0439 42.0457 25.9181 41.8338 25.6462C41.5311 25.2534 41.3595 24.7953 41.42 24.2968C41.4705 23.8587 41.5411 23.4157 41.6774 22.9978C42.1012 21.6987 42.4898 20.3896 43.0701 19.146C43.6151 17.9829 44.1297 16.8047 44.7504 15.6819C45.2045 15.274 45.6536 15.4553 46.0674 15.7272C46.5064 16.0142 46.9757 16.2257 47.2734 16.3918C46.7486 15.8933 45.4972 15.9437 45.4316 14.6849L45.4367 14.6799Z" fill="#F5F5F5"/>
<path d="M38.4168 29.4327C38.5278 28.4811 38.9164 27.6755 39.7136 27.1116C40.1173 26.8246 40.5765 26.6181 41.0508 26.9253C41.5504 27.2525 41.838 27.751 41.7472 28.3552C41.6261 29.1709 41.2173 29.8506 40.6219 30.4196C40.5361 30.5001 40.4251 30.5606 40.3242 30.6159C39.8802 30.8526 39.4159 30.9583 38.9517 30.6915C38.4723 30.4145 38.4017 29.9412 38.4118 29.4327H38.4168Z" fill="#F5F5F5"/>
<path d="M45.4362 14.6802C46.1881 15.2944 47.0812 15.6821 47.8835 16.2159C48.1509 16.3921 48.4638 16.518 48.6253 16.815C48.6757 16.9107 48.6909 17.0517 48.6656 17.1524C48.6202 17.3236 48.4588 17.389 48.2922 17.4092C48.0349 17.4394 47.828 17.3034 47.6211 17.1826C46.9954 16.8201 46.3647 16.4626 45.739 16.1001C45.4261 15.9188 45.1284 15.7023 44.7499 15.6771C44.7348 15.6167 44.7298 15.5512 44.7348 15.4858C44.9871 15.2743 45.1587 15.0175 45.1889 14.6802C45.2697 14.6802 45.3504 14.6802 45.4312 14.6802H45.4362Z" fill="#6997CD"/>
<path d="M22.7748 42.3877C22.6688 42.3222 22.5679 42.2517 22.4619 42.1863C22.5628 42.2517 22.6688 42.3222 22.7748 42.3877Z" fill="#6E63B3"/>
</svg>
