<svg width="75" height="63" viewBox="0 0 75 63" fill="none" xmlns="http://www.w3.org/2000/svg">
<path d="M71.1216 8.48269C60.4652 -1.62741 45.8011 1.54756 33.206 0.184191C22.4689 0.165515 10.284 -1.8702 2.77791 8.05936C-0.478027 13.1829 0.199258 18.1757 0.0811991 23.0813C-0.0803552 28.292 0.0066356 32.9113 0.342171 37.2068C0.46023 64.7356 16.6716 61.9529 42.7377 62.9988C73.7437 63.1482 72.0288 49.8507 74.6571 31.3487C75.1045 24.7435 75.2412 12.9837 71.1216 8.48269ZM64.181 52.8513C58.0605 61.0502 20.7912 57.6573 12.4339 55.1796C3.22529 51.0335 5.47463 31.716 5.04589 23.2369C5.17637 19.0908 4.54258 14.4529 6.93483 10.7985C14.0805 2.23236 27.3901 5.56296 37.2325 5.32639C47.2178 6.29134 59.6885 4.36768 67.4555 11.8444C71.6932 16.4761 70.2952 44.6524 64.1748 52.8513H64.181Z" fill="#399FFE"/>
<path d="M5.08922 33.484C5.05194 29.5433 5.17621 25.8703 5.03951 23.2369C5.17 19.0908 4.53621 14.4529 6.92845 10.7985C14.0803 2.23236 27.3899 5.56296 37.2323 5.32639C47.2176 6.29134 59.6884 4.36768 67.4554 11.8444C70.0589 14.6894 70.5311 26.4181 69.0958 36.9453C70.7051 36.9702 72.3207 37.0014 73.93 37.0263C74.1537 35.196 74.3836 33.3035 74.6632 31.3487C75.1106 24.7435 75.2473 12.9837 71.1276 8.48269C60.4651 -1.62741 45.8009 1.54756 33.2059 0.184191C22.4687 0.165515 10.2838 -1.8702 2.77775 8.05936C-0.47819 13.1829 0.199095 18.1757 0.0748224 23.0813C-0.0308092 26.5862 -0.0245956 29.8235 0.0934633 32.8739C1.75872 33.0856 3.42397 33.291 5.08922 33.484Z" fill="url(#paint0_linear_24_6481)"/>
<path d="M64.1809 52.8515C58.0604 61.0504 20.7911 57.6575 12.4338 55.1798C3.22518 51.0336 5.47452 31.7162 5.04578 23.2371C5.17626 19.091 4.54247 14.453 6.93472 10.7987C14.0804 2.23253 27.39 5.56313 37.2324 5.32656C47.2177 6.2915 59.6884 4.36785 67.4554 11.8446C71.6931 16.4763 70.2951 44.6526 64.1746 52.8515H64.1809Z" fill="#F0B700"/>
<path d="M5.10169 33.9013C11.5452 36.516 18.6474 37.5369 25.5259 38.0972C34.8277 38.8567 44.1605 38.6824 53.4748 38.9314C58.5202 39.0684 63.5657 39.2303 68.6174 39.4544C70.6057 28.2611 70.3137 14.4406 67.4554 11.3154C59.6822 3.8387 47.2114 5.76236 37.2323 4.79742C27.39 5.03399 14.0804 1.70338 6.92849 10.2696C4.53625 13.9239 5.17004 18.5681 5.03955 22.708C5.18246 25.5468 5.02712 29.5995 5.10169 33.8888V33.9013Z" fill="url(#paint1_linear_24_6481)"/>
<g clip-path="url(#clip0_24_6481)">
<g filter="url(#filter0_d_24_6481)">
<path fill-rule="evenodd" clip-rule="evenodd" d="M40.8247 16.225L47.3064 16L51.7765 16.225L52 34.5589L51.7765 45.2443L48.1445 45.4692L40.8247 45.188L40.4894 31.297L40.8247 16.225ZM23 16.7873L31.6609 16.225L34.5106 16.3937L34.343 23.3111L34.2312 33.7153L34.5106 45.413L23.5029 45.6942L23 44.9631V27.4165V16.7311V16.7873Z" fill="url(#paint2_linear_24_6481)"/>
</g>
</g>
<defs>
<filter id="filter0_d_24_6481" x="19" y="16" width="37" height="37.6942" filterUnits="userSpaceOnUse" color-interpolation-filters="sRGB">
<feFlood flood-opacity="0" result="BackgroundImageFix"/>
<feColorMatrix in="SourceAlpha" type="matrix" values="0 0 0 0 0 0 0 0 0 0 0 0 0 0 0 0 0 0 127 0" result="hardAlpha"/>
<feOffset dy="4"/>
<feGaussianBlur stdDeviation="2"/>
<feComposite in2="hardAlpha" operator="out"/>
<feColorMatrix type="matrix" values="0 0 0 0 0 0 0 0 0 0 0 0 0 0 0 0 0 0 0.25 0"/>
<feBlend mode="normal" in2="BackgroundImageFix" result="effect1_dropShadow_24_6481"/>
<feBlend mode="normal" in="SourceGraphic" in2="effect1_dropShadow_24_6481" result="shape"/>
</filter>
<linearGradient id="paint0_linear_24_6481" x1="37.44" y1="0" x2="37.44" y2="37.0263" gradientUnits="userSpaceOnUse">
<stop stop-color="#55A7F3"/>
<stop offset="1" stop-color="#548EFF"/>
</linearGradient>
<linearGradient id="paint1_linear_24_6481" x1="37.4672" y1="4.35318" x2="37.4672" y2="39.4544" gradientUnits="userSpaceOnUse">
<stop stop-color="#F8D258"/>
<stop offset="1" stop-color="#F8D258" stop-opacity="0"/>
</linearGradient>
<linearGradient id="paint2_linear_24_6481" x1="37.4721" y1="45.5255" x2="37.4721" y2="16" gradientUnits="userSpaceOnUse">
<stop stop-color="white"/>
<stop offset="1" stop-color="white"/>
</linearGradient>
<clipPath id="clip0_24_6481">
<rect width="29" height="32" fill="white" transform="translate(23 16)"/>
</clipPath>
</defs>
</svg>
