<svg width="96" height="102" viewBox="0 0 96 102" fill="none" xmlns="http://www.w3.org/2000/svg">
<path d="M88.1063 65.2891C84.1093 69.5713 78.2813 74.4575 70.1241 78.5567C64.1443 81.5644 56.9183 84.1485 48.214 85.7488C28.83 89.3141 13.5435 78.5742 5.74777 71.3433C4.79652 73.3146 3.96324 75.0528 3.26172 76.5177C12.0539 83.9379 27.0894 92.7717 47.8513 91.1789C53.2626 90.7666 58.2272 89.6826 62.7689 88.1662C75.3798 83.953 84.684 76.3448 90.9299 70.0913C90.0954 68.6665 89.1479 67.0549 88.1063 65.2878V65.2891Z" fill="#FFF3F6"/>
<path d="M88.1059 65.2891C84.1089 69.5712 78.2809 74.4575 70.1238 78.5567C67.9615 79.6444 65.6335 80.6746 63.1349 81.6257C62.9316 83.879 62.6807 86.1034 62.3857 88.2915C62.5125 88.2502 62.6418 88.2088 62.7685 88.1674C75.3795 83.9542 84.6837 76.346 90.9295 70.0926C90.095 68.6677 89.1475 67.0561 88.1059 65.2891Z" fill="#E6E7E8"/>
<path d="M88.0824 65.4619C86.7973 66.8204 85.4771 68.16 84.064 69.3969L82.9835 70.3544C82.6145 70.6627 82.2381 70.9622 81.8653 71.2667L80.7421 72.174L79.5813 73.0325L78.4193 73.8897L77.2208 74.6942L76.021 75.5C75.6144 75.7569 75.1991 76.0013 74.7874 76.2519C73.9629 76.7495 73.1472 77.2645 72.2913 77.7069L71.0213 78.3962L70.3863 78.7408C70.1667 78.8623 69.9546 78.9563 69.7375 79.0654C68.8728 79.4839 68.0245 79.9263 67.1347 80.3085L65.812 80.9013C65.3728 81.1031 64.921 81.2697 64.4755 81.4552L63.1352 81.9991C62.686 82.1745 62.2304 82.3324 61.7786 82.5004L60.4195 82.9954C59.964 83.152 59.5034 83.2949 59.0453 83.4465L57.6687 83.8939C57.2081 84.038 56.7425 84.1621 56.2794 84.2975L54.8877 84.6947C54.4246 84.8326 53.9528 84.9328 53.4859 85.0544C51.6135 85.5394 49.7361 85.9316 47.8248 86.3001C47.3505 86.379 46.8799 86.4642 46.403 86.5394L44.9498 86.7249C44.4654 86.7888 43.9809 86.8139 43.4965 86.859C43.0134 86.9066 42.5265 86.9254 42.0408 86.9442C40.0981 87.0232 38.1492 86.9843 36.2116 86.7926C32.3375 86.4154 28.5187 85.5143 24.8681 84.1759C21.2149 82.8375 17.7274 81.0692 14.447 78.9927C12.8068 77.9538 11.2155 76.8372 9.67567 75.6554C8.1346 74.4762 6.65376 73.2179 5.21809 71.9121L6.44543 71.6803L3.99327 76.8685L3.78494 75.8998L4.9533 76.8409L5.53811 77.3096L6.13797 77.7595L7.3377 78.6593L8.56881 79.5153C9.3795 80.1005 10.2354 80.6168 11.0737 81.1594C11.4891 81.4364 11.927 81.677 12.3575 81.9314L13.6514 82.6858C14.5298 83.1583 15.4133 83.6257 16.2993 84.0819L17.6534 84.7185L18.3298 85.0356C18.5544 85.1421 18.7803 85.2499 19.0125 85.3401L20.3954 85.9103L21.0857 86.1948L21.4308 86.3364L21.7834 86.4617L23.1915 86.9618L23.8955 87.2124L24.2469 87.3377L24.6045 87.4442L26.0364 87.8691L26.7518 88.0821C26.9902 88.1523 27.2274 88.2287 27.4708 88.2814L30.3723 88.9844L33.3064 89.5283C34.289 89.6787 35.2791 89.7852 36.2643 89.9168C36.5115 89.9444 36.7562 89.9857 37.0047 90.0033L37.7489 90.0534L39.2372 90.1561L39.9814 90.2113L40.3541 90.2389L40.7269 90.2451L42.219 90.2652L43.7111 90.2865C43.9596 90.2965 44.2081 90.2827 44.4578 90.2702L45.2033 90.2364L46.6954 90.1737L47.4421 90.1424L47.7998 90.1261L48.1775 90.0935L49.691 89.9619L51.163 89.7877C51.6524 89.7363 52.1456 89.6536 52.6376 89.5822C53.1295 89.5095 53.624 89.4418 54.1121 89.3466C56.0774 89.017 58.0213 88.5671 59.9426 88.037C60.4233 87.9067 60.9039 87.7726 61.3796 87.6209L62.0949 87.4016L62.4525 87.2913L62.7939 87.1735C63.7451 86.8389 64.729 86.5357 65.6376 86.1647L67.0256 85.6296L68.4022 85.0394L69.0912 84.7436C69.3196 84.6421 69.543 84.5318 69.7701 84.4253L71.1267 83.7849C72.91 82.8801 74.6908 81.959 76.3975 80.9063L77.0438 80.5216L77.6776 80.1168L78.9451 79.3047C79.7721 78.737 80.6154 78.1906 81.4248 77.5954C82.2493 77.0201 83.0437 76.4036 83.8469 75.7995C84.6338 75.1729 85.4269 74.5526 86.1987 73.9059C87.751 72.6227 89.262 71.2843 90.7278 69.897L90.6851 70.2353L89.3423 67.7929L88.0786 65.4632L88.0824 65.4619ZM88.1238 65.1235L89.6899 67.5898L91.1708 69.9509L91.2812 70.1263L91.1281 70.2892C89.7326 71.7642 88.2869 73.1941 86.791 74.5764C86.0506 75.2744 85.275 75.9349 84.5057 76.6041C83.7189 77.2507 82.9408 77.9112 82.1314 78.5315C81.3345 79.1694 80.5075 79.7684 79.6842 80.3724L78.4243 81.2447L77.793 81.6795L77.1492 82.0956C76.7188 82.3713 76.2921 82.6533 75.8579 82.9252L74.5415 83.716C74.106 83.9854 73.658 84.2335 73.21 84.4804C72.7607 84.7273 72.3152 84.9792 71.8621 85.2186L70.4905 85.9128C70.2608 86.0281 70.0337 86.1472 69.8028 86.2575L69.1038 86.5795L67.7057 87.2237L66.2751 87.8202C65.3163 88.2375 64.3726 88.5596 63.4214 88.918L63.0474 89.0546L62.6809 89.1749L61.948 89.4155C61.4611 89.5809 60.9692 89.7276 60.4747 89.8717C58.5032 90.4557 56.5041 90.9569 54.4811 91.3367C53.9779 91.4432 53.4684 91.5234 52.9614 91.6086C52.4531 91.6938 51.9474 91.7815 51.4303 91.843L49.8867 92.041L48.3745 92.1888L47.9968 92.2264L47.9491 92.2314L47.8838 92.2352L47.7872 92.2402L47.5939 92.2502L46.8234 92.2903L45.2811 92.3706L44.5093 92.4069C44.252 92.4194 43.9947 92.4345 43.7375 92.4257L42.1926 92.4081L40.6478 92.3893L40.2613 92.3831L39.876 92.3555L39.1055 92.3004L37.5631 92.1838L36.7926 92.1249C36.5353 92.1036 36.2818 92.0598 36.0258 92.0272C35.0056 91.8831 33.9815 91.7615 32.9638 91.5961L29.9293 91.0033L26.9325 90.2464C26.6815 90.1875 26.4368 90.1048 26.192 90.0271L25.4554 89.794L23.9833 89.3278L23.6156 89.2112L23.2542 89.0759L22.5314 88.8052L21.0857 88.2638L20.7242 88.1285L20.3703 87.9756L19.6626 87.6698L18.247 87.057C17.3108 86.6322 16.3984 86.1584 15.4723 85.7148C14.5662 85.2323 13.6639 84.7386 12.7679 84.2398L11.4489 83.4453C11.0109 83.1771 10.5642 82.924 10.1413 82.6332C9.28789 82.063 8.41696 81.5204 7.59371 80.9088L6.34378 80.0128L5.12648 79.0729L4.51783 78.6029L3.92424 78.1154L2.73957 77.1367L2.25391 76.7357L2.53125 76.168L5.04993 71.006L5.51175 70.0611L6.27727 70.7755C7.66399 72.0688 9.09714 73.3169 10.5893 74.4887C12.0802 75.6629 13.6212 76.7733 15.2112 77.8084C18.39 79.8774 21.7709 81.6432 25.3136 82.9904C28.855 84.3388 32.5597 85.2612 36.327 85.6747C38.2107 85.884 40.1094 85.9454 42.0044 85.8928C42.4788 85.8815 42.9519 85.869 43.425 85.8276C43.8969 85.7888 44.3737 85.7737 44.8418 85.7186L46.2486 85.5632C46.7217 85.498 47.1974 85.4191 47.6717 85.3476C49.5366 85.0193 51.4266 84.6571 53.2801 84.2085C53.7444 84.0957 54.2138 84.0055 54.6744 83.8764L56.0586 83.5054C56.5191 83.3789 56.9835 83.2636 57.4415 83.1295L58.8119 82.7097C59.2675 82.568 59.7268 82.434 60.1811 82.2861L61.5352 81.8174C61.9857 81.6582 62.44 81.5103 62.888 81.3424L64.2245 80.8261C64.6675 80.6494 65.1205 80.4915 65.5573 80.2985L66.8725 79.7358C67.7534 79.3749 68.6156 78.9438 69.4853 78.5403C69.6986 78.4362 69.927 78.3385 70.1291 78.2307L70.7641 77.8986L72.0353 77.2344C72.8925 76.8096 73.7094 76.3121 74.5364 75.8309C74.9481 75.5877 75.3647 75.3534 75.7726 75.104L76.9761 74.3245L78.1808 73.5438L79.3492 72.7117L80.5175 71.877L81.6482 70.9935C82.0235 70.6965 82.4037 70.4058 82.7752 70.105L83.8657 69.1714C85.3277 67.9345 86.6919 66.5935 88.0334 65.2175L88.125 65.1235H88.1238Z" fill="#5B0030"/>
<path d="M46.2608 0.0208465C45.4782 -0.166235 44.2111 0.913566 42.586 2.95012C33.8416 13.9214 14.7802 52.6888 5.79797 71.3794C13.5758 78.6241 28.8271 89.3832 48.1664 85.8123C56.8507 84.2089 64.0613 81.6199 70.0261 78.6065C78.1657 74.5008 83.979 69.604 87.9668 65.3137C75.5189 44.0968 49.779 0.864598 46.2608 0.0208465Z" fill="#FF3159"/>
<path d="M44.0358 6.07433C45.6647 4.04039 48.275 4.52036 49.0594 4.70709C51.6169 5.31739 50.0056 4.23964 56.4334 14.3279C50.4699 4.97151 49.0518 0.778312 46.3035 0.121637C45.5191 -0.0650895 44.2491 1.01266 42.6202 3.04535C33.8557 13.9958 14.7503 52.6895 5.74731 71.3446C6.78516 72.3071 11.1863 64.8957 11.8941 63.3906C22.4544 40.922 35.5072 16.729 44.0358 6.07433Z" fill="#F97D9A"/>
<path d="M46.4685 0.184326C57.0076 15.7666 63.7805 40.0022 63.7805 67.2216C63.7805 72.1316 63.5597 76.9427 63.1367 81.6259C65.6353 80.6747 67.9633 79.6446 70.1255 78.5568C78.284 74.4588 84.1107 69.5714 88.1077 65.2892C75.8067 44.4147 50.5621 2.18819 46.4685 0.184326Z" fill="#F42A5A"/>
<path d="M46.2899 0.224257C46.2372 0.217991 46.1819 0.207966 46.1305 0.204206L45.9962 0.212979L45.8519 0.244308C45.8042 0.258094 45.7565 0.276892 45.7088 0.293183C45.5206 0.369628 45.3361 0.469884 45.1642 0.590191C44.8166 0.828298 44.4991 1.11403 44.1954 1.41229C43.5917 2.01382 43.0283 2.66674 42.5125 3.34722L40.9689 5.415C40.4832 6.12306 40.0114 6.83989 39.5345 7.55421C39.2998 7.91388 39.0513 8.26352 38.8279 8.6307L38.149 9.726L36.7912 11.9178L35.4885 14.1435C35.0606 14.8892 34.6151 15.6248 34.2022 16.378C33.3677 17.8818 32.513 19.3731 31.6961 20.8857C30.8803 22.3996 30.0496 23.9047 29.2464 25.4248L26.8532 29.9927L24.4964 34.5807L19.8569 43.7929L17.5653 48.4135L15.2926 53.0428C13.7792 56.1294 12.2657 59.2173 10.7685 62.3127C9.26888 65.4068 7.78177 68.5072 6.30093 71.6101L6.16539 70.8971C7.56968 72.1778 9.01915 73.4122 10.5276 74.5689C12.0335 75.7281 13.5884 76.8222 15.191 77.8398C18.3949 79.8737 21.7933 81.6019 25.346 82.9064C28.895 84.2123 32.5984 85.0883 36.3494 85.4592C38.2256 85.6472 40.113 85.686 41.9942 85.6121C43.8741 85.5319 45.7527 85.3464 47.605 84.9993L47.9527 84.9404L48.0393 84.9253L48.0606 84.9216C48.0393 84.9253 48.0669 84.9203 48.0681 84.9203L48.112 84.9116L48.2877 84.8752L48.993 84.7286L50.4036 84.4353C51.3536 84.2536 52.2559 84.0042 53.1795 83.7862C53.6388 83.6684 54.0994 83.5731 54.5562 83.4378L55.9279 83.0493C56.3847 82.9177 56.844 82.7962 57.297 82.6558L58.6524 82.2197C59.1041 82.0731 59.5572 81.9327 60.0064 81.7798L61.3442 81.2948C61.7897 81.1307 62.2377 80.9765 62.6795 80.8036L63.9984 80.2697C64.4364 80.088 64.8819 79.9251 65.3124 79.7271L66.61 79.1481C67.4822 78.7759 68.3217 78.3385 69.1751 77.9275L69.4939 77.7708L69.6532 77.6931L69.6733 77.6831C69.6482 77.6969 69.6846 77.6781 69.6733 77.6831L69.7135 77.6618L69.7925 77.6192L70.4263 77.2771L71.6925 76.5916C72.5547 76.1467 73.3415 75.6492 74.146 75.1654C74.5463 74.9211 74.9516 74.6867 75.3507 74.4373L76.5304 73.6528L77.71 72.8683L78.8533 72.0324L79.9953 71.1953L81.0996 70.3106C81.4661 70.0135 81.8375 69.7228 82.2002 69.4221L83.2632 68.4884C84.6875 67.2528 86.0153 65.9143 87.3217 64.5609L87.1811 65.8366L77.3511 49.1265L67.555 32.3963C64.2821 26.8234 60.9715 21.273 57.5706 15.7789L56.288 13.7224L54.9816 11.6822C54.1057 10.325 53.2209 8.97408 52.3174 7.63567C51.4126 6.2985 50.4826 4.97763 49.5163 3.68684C49.0307 3.0427 48.5375 2.40482 48.0154 1.79326C47.7544 1.48873 47.4871 1.18797 47.2022 0.90725C47.1332 0.834564 47.0579 0.770651 46.9851 0.702979C46.9136 0.634053 46.8383 0.568887 46.7605 0.511239C46.6852 0.447326 46.6061 0.390933 46.5245 0.343311C46.4442 0.284411 46.3614 0.2606 46.2798 0.225511H46.2899V0.224257ZM46.3275 0.0212394C46.4342 0.0600885 46.5459 0.0964312 46.6312 0.157838C46.7266 0.210472 46.8119 0.271879 46.8922 0.337045C46.9763 0.398452 47.0566 0.464871 47.1319 0.53505C47.2085 0.603976 47.2888 0.670395 47.3591 0.743081C47.6552 1.0263 47.9288 1.32707 48.1986 1.6316C48.7345 2.2419 49.2402 2.87602 49.7372 3.51641C50.7299 4.79592 51.6698 6.11428 52.611 7.43139C53.551 8.7485 54.4721 10.0781 55.3845 11.4141L58.1077 15.4306C61.7232 20.7967 65.2471 26.2231 68.7434 31.6657L71.3575 35.7537C72.2284 37.1159 73.0931 38.4831 73.9477 39.8566L76.5153 43.9734L79.0528 48.1077L81.5778 52.2495L84.0764 56.4076C85.7429 59.1784 86.5135 61.9605 88.1562 64.7451L88.4423 65.4431L88.5176 66.0209C87.1673 67.4345 86.1546 68.8142 84.6687 70.0825L83.5606 71.0399C83.1828 71.3495 82.7976 71.6477 82.4161 71.9523L81.2665 72.8583L80.0806 73.7155L78.8934 74.5702L77.6699 75.371L76.4463 76.1718C76.0296 76.4287 75.603 76.6743 75.18 76.9237C74.3329 77.4174 73.4871 77.9325 72.635 78.3561L71.36 79.024L70.7225 79.3586L70.5417 79.4514L70.3773 79.5291L70.0473 79.6857C69.1651 80.0968 68.2954 80.5341 67.3956 80.9038L66.0553 81.4803C65.611 81.6771 65.1517 81.8375 64.7 82.0179L63.3408 82.5455C62.8866 82.716 62.4247 82.8676 61.9667 83.0305L60.5913 83.5105C60.1307 83.6621 59.6651 83.8 59.2008 83.9453L57.8103 84.3752C57.3447 84.513 56.8741 84.6321 56.4073 84.7612L55.003 85.1409C54.5374 85.2725 54.0567 85.3677 53.5836 85.483C52.6361 85.6961 51.6824 85.9454 50.7437 86.1134L49.3306 86.3903L48.6241 86.5282L48.4471 86.5633L48.4032 86.572L48.3442 86.5833L48.2539 86.5971L47.8912 86.6535C45.9623 86.9906 44.0071 87.1648 42.0519 87.23C40.0967 87.2876 38.1352 87.2275 36.19 87.0132C32.3009 86.5909 28.4796 85.6459 24.8365 84.2637C21.1909 82.8839 17.7235 81.0755 14.4669 78.9639C12.838 77.9074 11.2617 76.7746 9.73823 75.5778C8.21221 74.3835 6.74894 73.1115 5.33085 71.7931L4.99829 71.4836L5.19657 71.08C6.71004 67.9896 8.22727 64.9018 9.75831 61.8214L12.0611 57.2021C12.8342 55.6645 13.5972 54.123 14.3828 52.5929L16.7333 47.9986L19.1027 43.4132L21.4933 38.839L23.9204 34.2837L26.3788 29.7446L28.8712 25.2243C29.6982 23.7154 30.5541 22.2216 31.3936 20.7203C32.2357 19.2202 33.1142 17.7389 33.9713 16.2476C34.8372 14.7613 35.747 13.3001 36.618 11.8163L37.9871 9.62825L38.6723 8.53421C38.8982 8.16827 39.1492 7.81738 39.3864 7.45771L40.8271 5.31224L42.3631 3.2382C42.8839 2.54643 43.4449 1.89101 44.0573 1.27569C44.3648 0.971163 44.6885 0.676661 45.0512 0.427275C45.2307 0.299449 45.4265 0.190421 45.636 0.105204C45.69 0.0864056 45.7427 0.0651013 45.7979 0.0488097L45.9686 0.012467C46.0301 0.0074542 46.0941 0.0049478 46.1568 0.00244141C46.2133 0.0074542 46.2648 0.0162266 46.3187 0.0224926H46.3288L46.3275 0.0212394Z" fill="#5B0030"/>
<path d="M90.9296 70.0925C84.6838 76.346 75.3796 83.9529 62.7686 88.1674C58.2269 89.6838 53.2624 90.7678 47.851 91.1801C27.0891 92.7716 12.0549 83.9391 3.26144 76.5189C1.75048 79.6795 0.869507 82.241 0.869507 82.241C0.869507 82.241 8.74682 96.055 40.0841 100.034C40.9639 100.145 41.8574 100.023 42.776 100.12C76.3647 103.651 94.8313 76.7696 94.8313 76.7696C94.8313 76.7696 93.358 74.2318 90.9296 70.0925Z" fill="#B4CD38"/>
<path d="M90.9299 70.0925C84.684 76.346 75.3798 83.9529 62.7688 88.1674C62.6421 88.21 62.5141 88.2501 62.3861 88.2915C61.8816 92.026 61.2466 95.6603 60.4911 99.1792C82.7965 94.2817 94.8315 76.7708 94.8315 76.7708C94.8315 76.7708 93.3582 74.2331 90.9299 70.0938V70.0925Z" fill="#93A842"/>
<path d="M90.9047 70.2618C89.5155 71.6679 88.076 73.0376 86.5952 74.3523C85.8422 75.0315 85.0617 75.6794 84.2873 76.3336C83.4955 76.9664 82.7124 77.6131 81.8979 78.2184C81.0973 78.8425 80.264 79.4227 79.4407 80.0167L78.1795 80.8714L77.547 81.2962L76.9032 81.7035C75.2003 82.8113 73.4208 83.7989 71.6262 84.7563L70.2608 85.4368C70.0324 85.5496 69.8065 85.6661 69.5768 85.7751L68.8816 86.091L67.4924 86.7226L66.0806 87.3028C64.1944 88.0698 62.2705 88.7452 60.3178 89.3179C58.3576 89.8957 56.3811 90.3882 54.3744 90.7604C52.3703 91.1326 50.3498 91.4383 48.3155 91.6113L47.9353 91.6489L47.8876 91.6539L47.8261 91.6577L47.732 91.6627L47.5425 91.6727L46.7845 91.7141L45.2672 91.7968L44.5093 91.8381C44.257 91.8532 44.0048 91.8694 43.7475 91.8619L42.2102 91.8544L40.6716 91.8431L40.2876 91.8381L39.9049 91.8131L39.1406 91.7617L37.6108 91.6602L36.8465 91.6088C36.5918 91.5912 36.3395 91.5486 36.0848 91.5198C35.072 91.387 34.0543 91.2779 33.044 91.1238L30.0271 90.5674L27.0441 89.8468C26.7944 89.7916 26.5509 89.7127 26.305 89.64L25.5708 89.4194L24.1013 88.9771L23.7336 88.8668L23.3722 88.7377L22.6493 88.4783L21.2049 87.9607L20.8434 87.8316L20.4895 87.685L19.7805 87.3905L18.3637 86.8015C18.1252 86.7075 17.8943 86.5972 17.6634 86.487L16.9694 86.1586L15.5814 85.502C14.6729 85.032 13.768 84.552 12.8682 84.0658L11.543 83.2901C11.1025 83.0294 10.6545 82.7813 10.2291 82.4968C9.37195 81.9391 8.49475 81.4078 7.66522 80.8087L6.40651 79.9302L5.17917 79.0079L4.5655 78.5467L3.96689 78.0667L2.77218 77.103L3.94932 76.8499L3.32436 78.2484L3.01188 78.9477C2.90772 79.1808 2.81736 79.4202 2.71947 79.6558L2.43083 80.3651C2.33546 80.602 2.23506 80.8376 2.14847 81.0769C1.97152 81.5531 1.78328 82.0331 1.6239 82.5018L1.56241 81.8514C1.60884 81.9278 1.68791 82.0469 1.75567 82.1471C1.83222 82.2524 1.9025 82.3589 1.98282 82.4629C2.13718 82.6735 2.30283 82.8803 2.46974 83.0858C2.80857 83.4956 3.16372 83.8953 3.53519 84.2826C4.27686 85.0596 5.07376 85.7902 5.90453 86.482C7.56232 87.8743 9.37446 89.0924 11.2494 90.1977C15.0079 92.4071 19.0827 94.0776 23.2542 95.4047C25.3437 96.0664 27.4696 96.6141 29.603 97.1228C31.7464 97.5978 33.8974 98.044 36.071 98.3773C36.6144 98.4613 37.154 98.5615 37.6999 98.6329L39.3351 98.8535L40.1521 98.9638L40.2035 98.9701C40.26 98.9763 40.1558 98.9663 40.1759 98.9676H40.2023L40.3064 98.9763L40.5148 98.9901L40.7218 99.0039L40.826 99.0114H40.9163L41.6819 99.0089H42.1173L42.5904 99.0352C43.7124 99.1129 44.8079 99.2082 45.9173 99.2934L47.5362 99.3372L48.3456 99.3598C48.6154 99.3661 48.884 99.3836 49.1563 99.3711C51.3337 99.3398 53.5123 99.2458 55.672 98.9575L57.2934 98.7545L58.9023 98.4713L59.7067 98.3297C59.9752 98.2833 60.2388 98.2131 60.5048 98.1555L62.0986 97.7933C62.6307 97.673 63.1503 97.5076 63.6773 97.3672C64.2007 97.2156 64.7327 97.0903 65.2473 96.9073L66.8022 96.396C67.0632 96.3158 67.3179 96.218 67.5727 96.1203L68.3395 95.8321C69.3698 95.4686 70.3662 95.0187 71.3739 94.5952C71.8747 94.3758 72.3628 94.1302 72.8585 93.8996L73.6002 93.5475L74.3268 93.1678C76.2783 92.1765 78.1582 91.0448 79.9942 89.8443C81.8277 88.64 83.5984 87.3366 85.2963 85.9406C86.9993 84.5508 88.6345 83.0745 90.1906 81.5155C91.738 79.9553 93.2477 78.3261 94.5666 76.5867L94.5541 76.9301L92.688 73.5427L90.9047 70.2606V70.2618ZM90.9486 69.9285L93.0745 73.3184L95.1113 76.608L95.2167 76.7784L95.0987 76.9514C93.825 78.8149 92.3993 80.5268 90.8984 82.1898C89.3837 83.8352 87.7824 85.403 86.1045 86.8892C84.4267 88.3755 82.6584 89.7616 80.825 91.0561C78.9902 92.3507 77.094 93.5663 75.1099 94.6327L74.372 95.0425L73.6178 95.4235C73.1133 95.6742 72.6163 95.9386 72.1056 96.1779C71.0778 96.6416 70.0613 97.1291 69.0071 97.5326C66.9226 98.4011 64.7629 99.0741 62.5855 99.6794L60.939 100.083C60.6642 100.147 60.3919 100.225 60.1133 100.277L59.2813 100.439L57.6159 100.761L55.9368 101.001C53.6955 101.322 51.4328 101.444 49.1714 101.497C48.889 101.512 48.6029 101.497 48.318 101.494L47.4622 101.474L45.7517 101.429C44.6473 101.346 43.5317 101.251 42.4373 101.178L42.0797 101.158H41.6819L40.7821 101.156C40.6992 101.156 40.6264 101.152 40.5599 101.146L40.3529 101.131L40.1458 101.116L40.0416 101.108L40.0153 101.106L39.9362 101.097L39.8848 101.089L39.0527 100.969L37.3887 100.73C36.834 100.652 36.2831 100.545 35.7296 100.455C33.5159 100.097 31.321 99.6217 29.1336 99.1179C26.955 98.5728 24.789 97.97 22.6543 97.2595C18.3938 95.8245 14.2248 94.0475 10.3521 91.7065C8.4207 90.5323 6.55209 89.2402 4.82904 87.7552C3.96564 87.0158 3.13361 86.2363 2.35177 85.3979C1.96023 84.9806 1.58249 84.547 1.21981 84.0971C1.04035 83.8703 0.86215 83.6422 0.690222 83.4028C0.60363 83.2863 0.520804 83.161 0.436722 83.0407C0.351386 82.9103 0.276089 82.7988 0.181968 82.6371L0 82.3263L0.120475 81.9867C0.299933 81.4792 0.495705 80.9992 0.683947 80.508C0.775558 80.2623 0.882229 80.023 0.98137 79.7811L1.28507 79.0568C1.38797 78.8161 1.48335 78.573 1.59253 78.3349L1.92133 77.6218L2.57766 76.1957L2.98678 75.3084L3.75481 75.9426L4.91312 76.8987L5.49291 77.375L6.08775 77.8324L7.27745 78.7485L8.49977 79.6207C9.30419 80.2172 10.1563 80.7461 10.9883 81.3012C11.4012 81.5845 11.8379 81.8313 12.2646 82.092L13.5522 82.8665C14.4281 83.3515 15.3066 83.8314 16.1913 84.3014L17.5417 84.9593L18.2168 85.2877C18.4415 85.3979 18.6661 85.5095 18.8983 85.6035L20.2787 86.1962L20.9689 86.4932L21.314 86.6411L21.6667 86.7714L23.0747 87.294L23.7788 87.5559L24.1314 87.6863L24.4903 87.7991L25.9247 88.249L26.6426 88.4733C26.8822 88.5472 27.1194 88.6274 27.3641 88.6838L30.2794 89.4232L33.231 90.0022C34.2199 90.1638 35.2176 90.2816 36.2103 90.4245C36.4588 90.4558 36.7072 90.4997 36.957 90.5198L37.7074 90.5787L39.2084 90.6964L39.9588 90.7554L40.334 90.7842L40.7093 90.7929L42.2089 90.8205L43.7099 90.8519C43.9583 90.8631 44.2118 90.8518 44.4653 90.8406L45.2246 90.8105L46.7431 90.7503L47.5023 90.7203L47.6918 90.7127L47.7859 90.709H47.8098C47.8098 90.709 47.8399 90.7065 47.8198 90.709L47.8662 90.7052L48.2415 90.6739C50.2469 90.5348 52.2422 90.2628 54.2251 89.9257C56.2066 89.5899 58.1731 89.1312 60.107 88.5923C62.0497 88.0547 63.9622 87.4143 65.8384 86.685L67.2451 86.1323L68.6306 85.5283L69.3233 85.2262C69.553 85.1222 69.7776 85.0094 70.006 84.9017L71.3689 84.2475C73.1622 83.3264 74.9417 82.3727 76.6497 81.2987L77.296 80.9052L77.9298 80.4917L79.196 79.662C80.023 79.0843 80.8601 78.5191 81.6658 77.9101C82.4852 77.3198 83.2746 76.6895 84.0728 76.0704C84.8533 75.43 85.6414 74.7971 86.4019 74.1317C87.9342 72.8121 89.4176 71.4436 90.8608 70.0225L90.9524 69.9322L90.9486 69.9285Z" fill="#5B0030"/>
<path d="M45.4031 8.8689C45.4031 8.8689 50.5358 16.6212 46.3318 16.6199C42.016 16.6162 45.4031 8.8689 45.4031 8.8689Z" fill="#5B0030"/>
<path d="M40.5688 20.9861C40.5688 20.9861 42.1011 30.1532 38.2622 28.4451C34.3204 26.6894 40.5688 20.9861 40.5688 20.9861Z" fill="#5B0030"/>
<path d="M51.2108 21.4709C51.2108 21.4709 57.9763 27.8522 53.8826 28.8072C49.6798 29.7859 51.2108 21.4709 51.2108 21.4709Z" fill="#5B0030"/>
<path d="M62.6898 33.8513C62.6898 33.8513 69.4553 40.2326 65.3616 41.1875C61.1588 42.165 62.6898 33.8513 62.6898 33.8513Z" fill="#5B0030"/>
<path d="M72.7909 57.6946C72.7909 57.6946 79.5563 64.0759 75.4627 65.0308C71.2599 66.0095 72.7909 57.6946 72.7909 57.6946Z" fill="black"/>
<path d="M45.9248 35.4417C45.9248 35.4417 50.75 43.3882 46.5497 43.2228C42.2377 43.0511 45.9248 35.4417 45.9248 35.4417Z" fill="#5B0030"/>
<path d="M32.1103 34.1709C32.1103 34.1709 34.2876 43.2065 30.3371 41.774C26.2811 40.3015 32.1103 34.1709 32.1103 34.1709Z" fill="#5B0030"/>
<path d="M36.5452 46.0588C36.5452 46.0588 39.0564 55.0079 35.0544 53.7221C30.9469 52.4 36.5452 46.0588 36.5452 46.0588Z" fill="#5B0030"/>
<path d="M48.0367 61.5671C48.0367 61.5671 50.5478 70.5162 46.5458 69.2304C42.4384 67.9083 48.0367 61.5671 48.0367 61.5671Z" fill="#5B0030"/>
<path d="M20.0152 61.1899C20.0152 61.1899 22.5264 70.139 18.5243 68.8532C14.4169 67.5311 20.0152 61.1899 20.0152 61.1899Z" fill="#5B0030"/>
<path d="M56.5454 45.0674C56.5454 45.0674 61.2628 53.0791 57.065 52.8573C52.7555 52.6279 56.5454 45.0674 56.5454 45.0674Z" fill="#5B0030"/>
<path d="M61.6615 67.5322C61.6615 67.5322 66.3789 75.5439 62.1811 75.3221C57.8716 75.0928 61.6615 67.5322 61.6615 67.5322Z" fill="#5B0030"/>
<path d="M35.0758 65.0835C35.0758 65.0835 39.7932 73.0952 35.5954 72.8734C31.2859 72.644 35.0758 65.0835 35.0758 65.0835Z" fill="#5B0030"/>
</svg>
