<svg width="97" height="102" viewBox="0 0 97 102" fill="none" xmlns="http://www.w3.org/2000/svg">
<path d="M88.9574 65.2891C84.9604 69.5713 79.1324 74.4575 70.9753 78.5567C64.9954 81.5644 57.7694 84.1485 49.0651 85.7488C29.6812 89.3141 14.3946 78.5742 6.59891 71.3433C5.64766 73.3146 4.81437 75.0528 4.11285 76.5177C12.905 83.9379 27.9406 92.7717 48.7024 91.1789C54.1138 90.7666 59.0783 89.6826 63.62 88.1662C76.231 83.953 85.5352 76.3448 91.7811 70.0913C90.9465 68.6665 89.999 67.0549 88.9574 65.2878V65.2891Z" fill="#6A81B8"/>
<path d="M88.957 65.2891C84.96 69.5712 79.1321 74.4575 70.9749 78.5567C68.8126 79.6444 66.4847 80.6746 63.9861 81.6257C63.7828 83.879 63.5318 86.1034 63.2369 88.2915C63.3636 88.2502 63.4929 88.2088 63.6196 88.1674C76.2306 83.9542 85.5348 76.346 91.7807 70.0926C90.9461 68.6677 89.9987 67.0561 88.957 65.2891Z" fill="#6A81B8"/>
<path d="M88.9335 65.4619C87.6484 66.8204 86.3282 68.16 84.9151 69.3969L83.8346 70.3544C83.4657 70.6627 83.0892 70.9622 82.7165 71.2667L81.5933 72.174L80.4325 73.0325L79.2704 73.8897L78.0719 74.6942L76.8722 75.5C76.4656 75.7569 76.0502 76.0013 75.6386 76.2519C74.8141 76.7495 73.9983 77.2645 73.1425 77.7069L71.8725 78.3962L71.2375 78.7408C71.0178 78.8623 70.8057 78.9563 70.5886 79.0654C69.724 79.4839 68.8756 79.9263 67.9859 80.3085L66.6632 80.9013C66.2239 81.1031 65.7721 81.2697 65.3266 81.4552L63.9864 81.9991C63.5371 82.1745 63.0815 82.3324 62.6298 82.5004L61.2706 82.9954C60.8151 83.152 60.3545 83.2949 59.8965 83.4465L58.5198 83.8939C58.0592 84.038 57.5937 84.1621 57.1306 84.2975L55.7388 84.6947C55.2758 84.8326 54.8039 84.9328 54.3371 85.0544C52.4647 85.5394 50.5873 85.9316 48.676 86.3001C48.2016 86.379 47.731 86.4642 47.2541 86.5394L45.8009 86.7249C45.3165 86.7888 44.8321 86.8139 44.3477 86.859C43.8645 86.9066 43.3776 86.9254 42.8919 86.9442C40.9493 87.0232 39.0003 86.9843 37.0627 86.7926C33.1887 86.4154 29.3699 85.5143 25.7192 84.1759C22.0661 82.8375 18.5786 81.0692 15.2981 78.9927C13.6579 77.9538 12.0666 76.8372 10.5268 75.6554C8.98573 74.4762 7.50489 73.2179 6.06923 71.9121L7.29657 71.6803L4.8444 76.8685L4.63608 75.8998L5.80444 76.8409L6.38924 77.3096L6.98911 77.7595L8.18884 78.6593L9.41994 79.5153C10.2306 80.1005 11.0865 80.6168 11.9248 81.1594C12.3402 81.4364 12.7782 81.677 13.2086 81.9314L14.5025 82.6858C15.3809 83.1583 16.2644 83.6257 17.1504 84.0819L18.5045 84.7185L19.1809 85.0356C19.4056 85.1421 19.6315 85.2499 19.8636 85.3401L21.2466 85.9103L21.9368 86.1948L22.2819 86.3364L22.6346 86.4617L24.0426 86.9618L24.7466 87.2124L25.098 87.3377L25.4557 87.4442L26.8876 87.8691L27.6029 88.0821C27.8413 88.1523 28.0785 88.2287 28.322 88.2814L31.2234 88.9844L34.1575 89.5283C35.1401 89.6787 36.1303 89.7852 37.1154 89.9168C37.3626 89.9444 37.6073 89.9857 37.8558 90.0033L38.6 90.0534L40.0884 90.1561L40.8326 90.2113L41.2053 90.2389L41.578 90.2451L43.0701 90.2652L44.5623 90.2865C44.8107 90.2965 45.0592 90.2827 45.309 90.2702L46.0544 90.2364L47.5465 90.1737L48.2932 90.1424L48.6509 90.1261L49.0286 90.0935L50.5421 89.9619L52.0141 89.7877C52.5036 89.7363 52.9968 89.6536 53.4887 89.5822C53.9807 89.5095 54.4751 89.4418 54.9633 89.3466C56.9285 89.017 58.8724 88.5671 60.7938 88.037C61.2744 87.9067 61.7551 87.7726 62.2307 87.6209L62.946 87.4016L63.3037 87.2913L63.645 87.1735C64.5963 86.8389 65.5801 86.5357 66.4887 86.1647L67.8767 85.6296L69.2534 85.0394L69.9423 84.7436C70.1707 84.6421 70.3941 84.5318 70.6213 84.4253L71.9779 83.7849C73.7612 82.8801 75.5419 81.959 77.2487 80.9063L77.895 80.5216L78.5287 80.1168L79.7962 79.3047C80.6232 78.737 81.4665 78.1906 82.276 77.5954C83.1005 77.0201 83.8949 76.4036 84.698 75.7995C85.4849 75.1729 86.278 74.5526 87.0498 73.9059C88.6022 72.6227 90.1131 71.2843 91.5789 69.897L91.5362 70.2353L90.1935 67.7929L88.9297 65.4632L88.9335 65.4619ZM88.9749 65.1235L90.5411 67.5898L92.0219 69.9509L92.1323 70.1263L91.9792 70.2892C90.5837 71.7642 89.138 73.1941 87.6421 74.5764C86.9017 75.2744 86.1262 75.9349 85.3569 76.6041C84.57 77.2507 83.792 77.9112 82.9825 78.5315C82.1856 79.1694 81.3586 79.7684 80.5354 80.3724L79.2754 81.2447L78.6442 81.6795L78.0004 82.0956C77.5699 82.3713 77.1432 82.6533 76.709 82.9252L75.3926 83.716C74.9571 83.9854 74.5091 84.2335 74.0611 84.4804C73.6118 84.7273 73.1663 84.9792 72.7133 85.2186L71.3416 85.9128C71.112 86.0281 70.8848 86.1472 70.6539 86.2575L69.9549 86.5795L68.5569 87.2237L67.1262 87.8202C66.1675 88.2375 65.2237 88.5596 64.2725 88.918L63.8985 89.0546L63.5321 89.1749L62.7992 89.4155C62.3123 89.5809 61.8203 89.7276 61.3259 89.8717C59.3543 90.4557 57.3552 90.9569 55.3322 91.3367C54.829 91.4432 54.3195 91.5234 53.8125 91.6086C53.3042 91.6938 52.7985 91.7815 52.2815 91.843L50.7379 92.041L49.2257 92.1888L48.8479 92.2264L48.8002 92.2314L48.735 92.2352L48.6383 92.2402L48.4451 92.2502L47.6745 92.2903L46.1322 92.3706L45.3604 92.4069C45.1031 92.4194 44.8459 92.4345 44.5886 92.4257L43.0438 92.4081L41.4989 92.3893L41.1124 92.3831L40.7271 92.3555L39.9566 92.3004L38.4143 92.1838L37.6437 92.1249C37.3865 92.1036 37.133 92.0598 36.877 92.0272C35.8567 91.8831 34.8327 91.7615 33.8149 91.5961L30.7804 91.0033L27.7836 90.2464C27.5326 90.1875 27.2879 90.1048 27.0432 90.0271L26.3065 89.794L24.8345 89.3278L24.4668 89.2112L24.1054 89.0759L23.3825 88.8052L21.9368 88.2638L21.5754 88.1285L21.2215 87.9756L20.5137 87.6698L19.0981 87.057C18.1619 86.6322 17.2496 86.1584 16.3234 85.7148C15.4173 85.2323 14.515 84.7386 13.619 84.2398L12.3 83.4453C11.8621 83.1771 11.4153 82.924 10.9924 82.6332C10.139 82.063 9.26809 81.5204 8.44485 80.9088L7.19492 80.0128L5.97762 79.0729L5.36897 78.6029L4.77538 78.1154L3.59071 77.1367L3.10504 76.7357L3.38239 76.168L5.90107 71.006L6.36289 70.0611L7.12841 70.7755C8.51512 72.0688 9.94828 73.3169 11.4404 74.4887C12.9313 75.6629 14.4724 76.7733 16.0624 77.8084C19.2412 79.8774 22.622 81.6432 26.1647 82.9904C29.7062 84.3388 33.4108 85.2612 37.1781 85.6747C39.0618 85.884 40.9606 85.9454 42.8555 85.8928C43.3299 85.8815 43.803 85.869 44.2761 85.8276C44.748 85.7888 45.2249 85.7737 45.693 85.7186L47.0998 85.5632C47.5729 85.498 48.0485 85.4191 48.5229 85.3476C50.3877 85.0193 52.2777 84.6571 54.1312 84.2085C54.5956 84.0957 55.0649 84.0055 55.5255 83.8764L56.9097 83.5054C57.3703 83.3789 57.8346 83.2636 58.2927 83.1295L59.6631 82.7097C60.1186 82.568 60.5779 82.434 61.0322 82.2861L62.3863 81.8174C62.8368 81.6582 63.2911 81.5103 63.7391 81.3424L65.0757 80.8261C65.5187 80.6494 65.9717 80.4915 66.4084 80.2985L67.7236 79.7358C68.6046 79.3749 69.4667 78.9438 70.3364 78.5403C70.5497 78.4362 70.7781 78.3385 70.9802 78.2307L71.6152 77.8986L72.8865 77.2344C73.7436 76.8096 74.5606 76.3121 75.3876 75.8309C75.7992 75.5877 76.2158 75.3534 76.6237 75.104L77.8272 74.3245L79.0319 73.5438L80.2003 72.7117L81.3687 71.877L82.4994 70.9935C82.8746 70.6965 83.2548 70.4058 83.6263 70.105L84.7169 69.1714C86.1789 67.9345 87.543 66.5935 88.8845 65.2175L88.9762 65.1235H88.9749Z" fill="#6A81B8"/>
<path d="M47.1118 0.0208465C46.3293 -0.166235 45.0622 0.913566 43.437 2.95012C34.6927 13.9214 15.6313 52.6888 6.64905 71.3794C14.4268 78.6241 29.6782 89.3832 49.0175 85.8123C57.7017 84.2089 64.9124 81.6199 70.8772 78.6065C79.0168 74.5008 84.8301 69.604 88.8179 65.3137C76.3699 44.0968 50.6301 0.864598 47.1118 0.0208465Z" fill="#6A81B8"/>
<path d="M44.8869 6.07433C46.5159 4.04039 49.1261 4.52036 49.9105 4.70709C52.4681 5.31739 50.8567 4.23964 57.2846 14.3279C51.321 4.97151 49.903 0.778312 47.1546 0.121637C46.3703 -0.0650895 45.1003 1.01266 43.4713 3.04535C34.7068 13.9958 15.6014 52.6895 6.59845 71.3446C7.63629 72.3071 12.0374 64.8957 12.7452 63.3906C23.3056 40.922 36.3583 16.729 44.8869 6.07433Z" fill="#6A81B8"/>
<path d="M47.3196 0.184326C57.8586 15.7666 64.6316 40.0022 64.6316 67.2216C64.6316 72.1316 64.4107 76.9427 63.9878 81.6259C66.4864 80.6747 68.8143 79.6446 70.9766 78.5568C79.135 74.4588 84.9618 69.5714 88.9588 65.2892C76.6578 44.4147 51.4132 2.18819 47.3196 0.184326Z" fill="#6A81B8"/>
<path d="M47.1409 0.224257C47.0882 0.217991 47.0329 0.207966 46.9815 0.204206L46.8472 0.212979L46.7029 0.244308C46.6552 0.258094 46.6075 0.276892 46.5598 0.293183C46.3716 0.369628 46.1871 0.469884 46.0152 0.590191C45.6676 0.828298 45.3501 1.11403 45.0464 1.41229C44.4427 2.01382 43.8793 2.66674 43.3635 3.34722L41.8199 5.415C41.3342 6.12306 40.8624 6.83989 40.3855 7.55421C40.1508 7.91388 39.9023 8.26352 39.679 8.6307L39 9.726L37.6422 11.9178L36.3395 14.1435C35.9116 14.8892 35.4661 15.6248 35.0532 16.378C34.2187 17.8818 33.364 19.3731 32.5471 20.8857C31.7314 22.3996 30.9006 23.9047 30.0974 25.4248L27.7042 29.9927L25.3474 34.5807L20.7079 43.7929L18.4164 48.4135L16.1436 53.0428C14.6302 56.1294 13.1167 59.2173 11.6196 62.3127C10.1199 65.4068 8.63278 68.5072 7.15194 71.6101L7.01641 70.8971C8.42069 72.1778 9.87016 73.4122 11.3786 74.5689C12.8845 75.7281 14.4394 76.8222 16.042 77.8398C19.2459 79.8737 22.6443 81.6019 26.197 82.9064C29.746 84.2123 33.4494 85.0883 37.2004 85.4592C39.0766 85.6472 40.964 85.686 42.8452 85.6121C44.7251 85.5319 46.6038 85.3464 48.4561 84.9993L48.8037 84.9404L48.8903 84.9253L48.9116 84.9216C48.8903 84.9253 48.9179 84.9203 48.9191 84.9203L48.9631 84.9116L49.1388 84.8752L49.844 84.7286L51.2546 84.4353C52.2046 84.2536 53.1069 84.0042 54.0305 83.7862C54.4899 83.6684 54.9504 83.5731 55.4072 83.4378L56.7789 83.0493C57.2357 82.9177 57.695 82.7962 58.148 82.6558L59.5034 82.2197C59.9552 82.0731 60.4082 81.9327 60.8575 81.7798L62.1952 81.2948C62.6407 81.1307 63.0888 80.9765 63.5305 80.8036L64.8495 80.2697C65.2874 80.088 65.7329 79.9251 66.1634 79.7271L67.461 79.1481C68.3332 78.7759 69.1727 78.3385 70.0261 77.9275L70.3449 77.7708L70.5043 77.6931L70.5243 77.6831C70.4992 77.6969 70.5356 77.6781 70.5243 77.6831L70.5645 77.6618L70.6436 77.6192L71.2773 77.2771L72.5435 76.5916C73.4057 76.1467 74.1925 75.6492 74.997 75.1654C75.3973 74.9211 75.8027 74.6867 76.2017 74.4373L77.3814 73.6528L78.561 72.8683L79.7043 72.0324L80.8463 71.1953L81.9506 70.3106C82.3171 70.0135 82.6886 69.7228 83.0512 69.4221L84.1142 68.4884C85.5385 67.2528 86.8663 65.9143 88.1727 64.5609L88.0321 65.8366L78.2021 49.1265L68.406 32.3963C65.1331 26.8234 61.8225 21.273 58.4216 15.7789L57.139 13.7224L55.8326 11.6822C54.9567 10.325 54.072 8.97408 53.1684 7.63567C52.2636 6.2985 51.3337 4.97763 50.3673 3.68684C49.8817 3.0427 49.3885 2.40482 48.8664 1.79326C48.6054 1.48873 48.3381 1.18797 48.0532 0.90725C47.9842 0.834564 47.9089 0.770651 47.8361 0.702979C47.7646 0.634053 47.6893 0.568887 47.6115 0.511239C47.5362 0.447326 47.4571 0.390933 47.3755 0.343311C47.2952 0.284411 47.2124 0.2606 47.1308 0.225511H47.1409V0.224257ZM47.1785 0.0212394C47.2852 0.0600885 47.3969 0.0964312 47.4822 0.157838C47.5776 0.210472 47.6629 0.271879 47.7432 0.337045C47.8273 0.398452 47.9076 0.464871 47.9829 0.53505C48.0595 0.603976 48.1398 0.670395 48.2101 0.743081C48.5063 1.0263 48.7798 1.32707 49.0497 1.6316C49.5855 2.2419 50.0913 2.87602 50.5882 3.51641C51.5809 4.79592 52.5208 6.11428 53.4621 7.43139C54.402 8.7485 55.3231 10.0781 56.2355 11.4141L58.9587 15.4306C62.5742 20.7967 66.0981 26.2231 69.5944 31.6657L72.2085 35.7537C73.0794 37.1159 73.9441 38.4831 74.7987 39.8566L77.3663 43.9734L79.9038 48.1077L82.4288 52.2495L84.9274 56.4076C86.5939 59.1784 87.3645 61.9605 89.0072 64.7451L89.2934 65.4431L89.3686 66.0209C88.0183 67.4345 87.0056 68.8142 85.5197 70.0825L84.4116 71.0399C84.0339 71.3495 83.6486 71.6477 83.2671 71.9523L82.1176 72.8583L80.9316 73.7155L79.7444 74.5702L78.5209 75.371L77.2973 76.1718C76.8806 76.4287 76.454 76.6743 76.0311 76.9237C75.184 77.4174 74.3381 77.9325 73.486 78.3561L72.211 79.024L71.5735 79.3586L71.3928 79.4514L71.2284 79.5291L70.8983 79.6857C70.0161 80.0968 69.1464 80.5341 68.2466 80.9038L66.9063 81.4803C66.4621 81.6771 66.0028 81.8375 65.551 82.0179L64.1919 82.5455C63.7376 82.716 63.2757 82.8676 62.8177 83.0305L61.4423 83.5105C60.9817 83.6621 60.5161 83.8 60.0518 83.9453L58.6613 84.3752C58.1957 84.513 57.7251 84.6321 57.2583 84.7612L55.854 85.1409C55.3884 85.2725 54.9078 85.3677 54.4346 85.483C53.4871 85.6961 52.5334 85.9454 51.5947 86.1134L50.1816 86.3903L49.4751 86.5282L49.2981 86.5633L49.2542 86.572L49.1952 86.5833L49.1049 86.5971L48.7422 86.6535C46.8133 86.9906 44.8581 87.1648 42.9029 87.23C40.9477 87.2876 38.9862 87.2275 37.041 87.0132C33.152 86.5909 29.3306 85.6459 25.6875 84.2637C22.0419 82.8839 18.5745 81.0755 15.3179 78.9639C13.689 77.9074 12.1128 76.7746 10.5892 75.5778C9.06323 74.3835 7.59996 73.1115 6.18187 71.7931L5.8493 71.4836L6.04759 71.08C7.56105 67.9896 9.07829 64.9018 10.6093 61.8214L12.9122 57.2021C13.6852 55.6645 14.4482 54.123 15.2338 52.5929L17.5843 47.9986L19.9537 43.4132L22.3443 38.839L24.7714 34.2837L27.2299 29.7446L29.7222 25.2243C30.5492 23.7154 31.4051 22.2216 32.2446 20.7203C33.0867 19.2202 33.9652 17.7389 34.8223 16.2476C35.6882 14.7613 36.5981 13.3001 37.469 11.8163L38.8381 9.62825L39.5233 8.53421C39.7492 8.16827 40.0002 7.81738 40.2374 7.45771L41.6781 5.31224L43.2141 3.2382C43.7349 2.54643 44.2959 1.89101 44.9083 1.27569C45.2158 0.971163 45.5396 0.676661 45.9022 0.427275C46.0817 0.299449 46.2775 0.190421 46.487 0.105204C46.541 0.0864056 46.5937 0.0651013 46.6489 0.0488097L46.8196 0.012467C46.8811 0.0074542 46.9451 0.0049478 47.0079 0.00244141C47.0643 0.0074542 47.1158 0.0162266 47.1697 0.0224926H47.1798L47.1785 0.0212394Z" fill="#6A81B8"/>
<path d="M91.7808 70.0925C85.5349 76.346 76.2307 83.9529 63.6197 88.1674C59.0781 89.6838 54.1135 90.7678 48.7021 91.1801C27.9403 92.7716 12.906 83.9391 4.11257 76.5189C2.60162 79.6795 1.72064 82.241 1.72064 82.241C1.72064 82.241 9.59795 96.055 40.9353 100.034C41.815 100.145 42.7085 100.023 43.6271 100.12C77.2158 103.651 95.6824 76.7696 95.6824 76.7696C95.6824 76.7696 94.2091 74.2318 91.7808 70.0925Z" fill="#6A81B8"/>
<path d="M91.7809 70.0925C85.5351 76.346 76.2309 83.9529 63.6199 88.1674C63.4931 88.21 63.3651 88.2501 63.2371 88.2915C62.7326 92.026 62.0976 95.6603 61.3422 99.1792C83.6476 94.2817 95.6826 76.7708 95.6826 76.7708C95.6826 76.7708 94.2093 74.2331 91.7809 70.0938V70.0925Z" fill="#6A81B8"/>
<path d="M91.7558 70.2618C90.3665 71.6679 88.9271 73.0376 87.4463 74.3523C86.6933 75.0315 85.9127 75.6794 85.1384 76.3336C84.3465 76.9664 83.5635 77.6131 82.749 78.2184C81.9483 78.8425 81.1151 79.4227 80.2918 80.0167L79.0306 80.8714L78.3981 81.2962L77.7543 81.7035C76.0513 82.8113 74.2718 83.7989 72.4772 84.7563L71.1119 85.4368C70.8835 85.5496 70.6576 85.6661 70.4279 85.7751L69.7327 86.091L68.3435 86.7226L66.9316 87.3028C65.0454 88.0698 63.1216 88.7452 61.1689 89.3179C59.2087 89.8957 57.2321 90.3882 55.2255 90.7604C53.2213 91.1326 51.2009 91.4383 49.1666 91.6113L48.7863 91.6489L48.7386 91.6539L48.6772 91.6577L48.583 91.6627L48.3935 91.6727L47.6356 91.7141L46.1183 91.7968L45.3603 91.8381C45.1081 91.8532 44.8558 91.8694 44.5986 91.8619L43.0613 91.8544L41.5227 91.8431L41.1387 91.8381L40.7559 91.8131L39.9917 91.7617L38.4619 91.6602L37.6976 91.6088C37.4429 91.5912 37.1906 91.5486 36.9359 91.5198C35.9231 91.387 34.9054 91.2779 33.8951 91.1238L30.8782 90.5674L27.8952 89.8468C27.6455 89.7916 27.402 89.7127 27.156 89.64L26.4219 89.4194L24.9524 88.9771L24.5847 88.8668L24.2232 88.7377L23.5004 88.4783L22.0559 87.9607L21.6945 87.8316L21.3406 87.685L20.6316 87.3905L19.2147 86.8015C18.9763 86.7075 18.7454 86.5972 18.5145 86.487L17.8205 86.1586L16.4325 85.502C15.5239 85.032 14.6191 84.552 13.7193 84.0658L12.3941 83.2901C11.9536 83.0294 11.5056 82.7813 11.0802 82.4968C10.223 81.9391 9.34582 81.4078 8.5163 80.8087L7.25759 79.9302L6.03025 79.0079L5.41658 78.5467L4.81797 78.0667L3.62326 77.103L4.8004 76.8499L4.17543 78.2484L3.86295 78.9477C3.75879 79.1808 3.66843 79.4202 3.57055 79.6558L3.28191 80.3651C3.18653 80.602 3.08614 80.8376 2.99955 81.0769C2.8226 81.5531 2.63436 82.0331 2.47498 82.5018L2.41348 81.8514C2.45992 81.9278 2.53898 82.0469 2.60675 82.1471C2.6833 82.2524 2.75358 82.3589 2.83389 82.4629C2.98825 82.6735 3.1539 82.8803 3.32081 83.0858C3.65965 83.4956 4.0148 83.8953 4.38626 84.2826C5.12794 85.0596 5.92483 85.7902 6.75561 86.482C8.41339 87.8743 10.2255 89.0924 12.1004 90.1977C15.859 92.4071 19.9338 94.0776 24.1053 95.4047C26.1948 96.0664 28.3206 96.6141 30.4541 97.1228C32.5975 97.5978 34.7485 98.044 36.9221 98.3773C37.4655 98.4613 38.0051 98.5615 38.551 98.6329L40.1862 98.8535L41.0032 98.9638L41.0546 98.9701C41.1111 98.9763 41.0069 98.9663 41.027 98.9676H41.0533L41.1575 98.9763L41.3658 98.9901L41.5729 99.0039L41.6771 99.0114H41.7674L42.5329 99.0089H42.9684L43.4415 99.0352C44.5634 99.1129 45.659 99.2082 46.7684 99.2934L48.3873 99.3372L49.1967 99.3598C49.4665 99.3661 49.7351 99.3836 50.0074 99.3711C52.1847 99.3398 54.3633 99.2458 56.5231 98.9575L58.1445 98.7545L59.7533 98.4713L60.5578 98.3297C60.8263 98.2833 61.0899 98.2131 61.3559 98.1555L62.9497 97.7933C63.4818 97.673 64.0013 97.5076 64.5284 97.3672C65.0517 97.2156 65.5838 97.0903 66.0984 96.9073L67.6532 96.396C67.9143 96.3158 68.169 96.218 68.4238 96.1203L69.1905 95.8321C70.2209 95.4686 71.2173 95.0187 72.225 94.5952C72.7257 94.3758 73.2139 94.1302 73.7096 93.8996L74.4513 93.5475L75.1779 93.1678C77.1293 92.1765 79.0093 91.0448 80.8452 89.8443C82.6787 88.64 84.4495 87.3366 86.1474 85.9406C87.8504 84.5508 89.4856 83.0745 91.0417 81.5155C92.5891 79.9553 94.0988 78.3261 95.4177 76.5867L95.4052 76.9301L93.539 73.5427L91.7558 70.2606V70.2618ZM91.7997 69.9285L93.9256 73.3184L95.9623 76.608L96.0678 76.7784L95.9498 76.9514C94.676 78.8149 93.2504 80.5268 91.7495 82.1898C90.2348 83.8352 88.6335 85.403 86.9556 86.8892C85.2777 88.3755 83.5095 89.7616 81.676 91.0561C79.8413 92.3507 77.9451 93.5663 75.961 94.6327L75.2231 95.0425L74.4689 95.4235C73.9644 95.6742 73.4674 95.9386 72.9566 96.1779C71.9288 96.6416 70.9123 97.1291 69.8582 97.5326C67.7737 98.4011 65.6139 99.0741 63.4366 99.6794L61.7901 100.083C61.5153 100.147 61.243 100.225 60.9644 100.277L60.1323 100.439L58.467 100.761L56.7879 101.001C54.5466 101.322 52.2839 101.444 50.0225 101.497C49.7401 101.512 49.454 101.497 49.1691 101.494L48.3132 101.474L46.6027 101.429C45.4984 101.346 44.3827 101.251 43.2884 101.178L42.9307 101.158H42.5329L41.6331 101.156C41.5503 101.156 41.4775 101.152 41.411 101.146L41.2039 101.131L40.9969 101.116L40.8927 101.108L40.8664 101.106L40.7873 101.097L40.7358 101.089L39.9038 100.969L38.2398 100.73C37.6851 100.652 37.1341 100.545 36.5807 100.455C34.367 100.097 32.1721 99.6217 29.9847 99.1179C27.8061 98.5728 25.6401 97.97 23.5054 97.2595C19.2449 95.8245 15.0759 94.0475 11.2031 91.7065C9.27178 90.5323 7.40316 89.2402 5.68012 87.7552C4.81671 87.0158 3.98468 86.2363 3.20285 85.3979C2.8113 84.9806 2.43356 84.547 2.07088 84.0971C1.89143 83.8703 1.71322 83.6422 1.5413 83.4028C1.4547 83.2863 1.37188 83.161 1.2878 83.0407C1.20246 82.9103 1.12716 82.7988 1.03304 82.6371L0.851074 82.3263L0.971549 81.9867C1.15101 81.4792 1.34678 80.9992 1.53502 80.508C1.62663 80.2623 1.7333 80.023 1.83244 79.7811L2.13614 79.0568C2.23905 78.8161 2.33442 78.573 2.4436 78.3349L2.7724 77.6218L3.42874 76.1957L3.83785 75.3084L4.60588 75.9426L5.7642 76.8987L6.34398 77.375L6.93883 77.8324L8.12852 78.7485L9.35084 79.6207C10.1553 80.2172 11.0074 80.7461 11.8394 81.3012C12.2523 81.5845 12.689 81.8313 13.1157 82.092L14.4033 82.8665C15.2792 83.3515 16.1577 83.8314 17.0424 84.3014L18.3927 84.9593L19.0679 85.2877C19.2925 85.3979 19.5172 85.5095 19.7493 85.6035L21.1298 86.1962L21.82 86.4932L22.1651 86.6411L22.5178 86.7714L23.9258 87.294L24.6298 87.5559L24.9825 87.6863L25.3414 87.7991L26.7758 88.249L27.4936 88.4733C27.7333 88.5472 27.9705 88.6274 28.2152 88.6838L31.1305 89.4232L34.0821 90.0022C35.071 90.1638 36.0687 90.2816 37.0614 90.4245C37.3098 90.4558 37.5583 90.4997 37.8081 90.5198L38.5585 90.5787L40.0594 90.6964L40.8099 90.7554L41.1851 90.7842L41.5603 90.7929L43.06 90.8205L44.5609 90.8519C44.8094 90.8631 45.0629 90.8518 45.3164 90.8406L46.0757 90.8105L47.5941 90.7503L48.3534 90.7203L48.5429 90.7127L48.637 90.709H48.6608C48.6608 90.709 48.691 90.7065 48.6709 90.709L48.7173 90.7052L49.0925 90.6739C51.098 90.5348 53.0933 90.2628 55.0761 89.9257C57.0577 89.5899 59.0242 89.1312 60.9581 88.5923C62.9007 88.0547 64.8133 87.4143 66.6894 86.685L68.0962 86.1323L69.4817 85.5283L70.1744 85.2262C70.4041 85.1222 70.6287 85.0094 70.8571 84.9017L72.22 84.2475C74.0133 83.3264 75.7928 82.3727 77.5008 81.2987L78.1471 80.9052L78.7809 80.4917L80.0471 79.662C80.8741 79.0843 81.7112 78.5191 82.5168 77.9101C83.3363 77.3198 84.1257 76.6895 84.9238 76.0704C85.7044 75.43 86.4925 74.7971 87.253 74.1317C88.7853 72.8121 90.2687 71.4436 91.7118 70.0225L91.8035 69.9322L91.7997 69.9285Z" fill="#6A81B8"/>
<path d="M46.2541 8.8689C46.2541 8.8689 51.3869 16.6212 47.1828 16.6199C42.867 16.6162 46.2541 8.8689 46.2541 8.8689Z" fill="#6A81B8"/>
<path d="M41.42 20.9861C41.42 20.9861 42.9523 30.1532 39.1134 28.4451C35.1716 26.6894 41.42 20.9861 41.42 20.9861Z" fill="#6A81B8"/>
<path d="M52.0619 21.4709C52.0619 21.4709 58.8273 27.8522 54.7337 28.8072C50.5309 29.7859 52.0619 21.4709 52.0619 21.4709Z" fill="#6A81B8"/>
<path d="M63.5409 33.8513C63.5409 33.8513 70.3063 40.2326 66.2127 41.1875C62.0099 42.165 63.5409 33.8513 63.5409 33.8513Z" fill="#6A81B8"/>
<path d="M73.642 57.6946C73.642 57.6946 80.4074 64.0759 76.3138 65.0308C72.111 66.0095 73.642 57.6946 73.642 57.6946Z" fill="#6A81B8"/>
<path d="M46.7758 35.4417C46.7758 35.4417 51.6011 43.3882 47.4008 43.2228C43.0888 43.0511 46.7758 35.4417 46.7758 35.4417Z" fill="#6A81B8"/>
<path d="M32.9614 34.1709C32.9614 34.1709 35.1387 43.2065 31.1881 41.774C27.1321 40.3015 32.9614 34.1709 32.9614 34.1709Z" fill="#6A81B8"/>
<path d="M37.3964 46.0588C37.3964 46.0588 39.9075 55.0079 35.9055 53.7221C31.798 52.4 37.3964 46.0588 37.3964 46.0588Z" fill="#6A81B8"/>
<path d="M48.8878 61.5671C48.8878 61.5671 51.3989 70.5162 47.3969 69.2304C43.2894 67.9083 48.8878 61.5671 48.8878 61.5671Z" fill="#6A81B8"/>
<path d="M20.8663 61.1899C20.8663 61.1899 23.3775 70.139 19.3755 68.8532C15.268 67.5311 20.8663 61.1899 20.8663 61.1899Z" fill="#6A81B8"/>
<path d="M57.3966 45.0674C57.3966 45.0674 62.1139 53.0791 57.9161 52.8573C53.6066 52.6279 57.3966 45.0674 57.3966 45.0674Z" fill="#6A81B8"/>
<path d="M62.5127 67.5322C62.5127 67.5322 67.23 75.5439 63.0322 75.3221C58.7227 75.0928 62.5127 67.5322 62.5127 67.5322Z" fill="#6A81B8"/>
<path d="M35.927 65.0835C35.927 65.0835 40.6443 73.0952 36.4465 72.8734C32.137 72.644 35.927 65.0835 35.927 65.0835Z" fill="#6A81B8"/>
</svg>
